<svg xmlns="http://www.w3.org/2000/svg" width="15" height="15" viewBox="0 0 15 15" fill="none"><path d="M5.8389 6.96291C6.61182 6.59347 7.01529 6.03444 7.01529 5.1643C7.01529 3.44833 5.73682 3.03027 4.26147 3.03027H0.200012V11.6442H4.37571C5.94098 11.6442 7.41147 10.8931 7.41147 9.14312C7.41147 8.06152 6.89862 7.26187 5.8389 6.96291ZM2.09342 4.50076H3.87015C4.55314 4.50076 5.16807 4.69277 5.16807 5.48513C5.16807 6.21673 4.68925 6.51083 4.01355 6.51083H2.09342V4.50076ZM4.11807 10.181H2.09342V7.80875H4.15696C4.99064 7.80875 5.51807 8.15632 5.51807 9.03861C5.51807 9.90875 4.88855 10.181 4.11807 10.181ZM12.8316 4.33062H9.3389V3.48236H12.8316V4.33062ZM14.2 8.61569C14.2 6.7709 13.1208 5.23236 11.1642 5.23236C9.26355 5.23236 7.97293 6.66152 7.97293 8.53305C7.97293 10.4751 9.1955 11.807 11.1642 11.807C12.6542 11.807 13.6191 11.1362 14.0833 9.70944H12.5715C12.4087 10.2417 11.7379 10.5237 11.2177 10.5237C10.2139 10.5237 9.68647 9.93548 9.68647 8.93652H14.1854C14.1927 8.83444 14.2 8.72507 14.2 8.61569ZM9.6889 7.85736C9.7448 7.03826 10.2892 6.52541 11.1108 6.52541C11.9712 6.52541 12.4038 7.03097 12.4767 7.85736H9.6889Z" fill="currentcolor"></path></svg>