<svg xmlns="http://www.w3.org/2000/svg" width="159" height="158" fill="none"><mask id="a" style="mask-type:luminance" maskUnits="userSpaceOnUse" x="0" y="0" width="159" height="158"><path d="M79.684 158c43.606 0 78.956-35.344 78.956-78.942 0-43.599-35.35-78.942-78.955-78.942C36.078.116.728 35.459.728 79.058.729 122.656 36.079 158 79.685 158Z" fill="#fff"></path></mask><g mask="url(#a)"><path d="M212.106 73.244 63.282 222.043l2.183 2.182L214.29 75.427l-2.183-2.183Z" fill="currentcolor"></path></g><mask id="b" style="mask-type:luminance" maskUnits="userSpaceOnUse" x="0" y="0" width="159" height="158"><path d="M79.684 158c43.606 0 78.956-35.344 78.956-78.942 0-43.599-35.35-78.942-78.955-78.942C36.078.116.728 35.459.728 79.058.729 122.656 36.079 158 79.685 158Z" fill="#fff"></path></mask><g mask="url(#b)"><path d="M200.489 61.634 51.666 210.433l2.183 2.183 148.823-148.8-2.183-2.182Z" fill="currentcolor"></path></g><mask id="c" style="mask-type:luminance" maskUnits="userSpaceOnUse" x="0" y="0" width="159" height="158"><path d="M79.684 158c43.606 0 78.956-35.344 78.956-78.942 0-43.599-35.35-78.942-78.955-78.942C36.078.116.728 35.459.728 79.058.729 122.656 36.079 158 79.685 158Z" fill="#fff"></path></mask><g mask="url(#c)"><path d="M188.872 50.024 40.048 198.822l2.183 2.183L191.055 52.206l-2.183-2.182Z" fill="currentcolor"></path></g><mask id="d" style="mask-type:luminance" maskUnits="userSpaceOnUse" x="0" y="0" width="159" height="158"><path d="M79.684 158c43.606 0 78.956-35.344 78.956-78.942 0-43.599-35.35-78.942-78.955-78.942C36.078.116.728 35.459.728 79.058.729 122.656 36.079 158 79.685 158Z" fill="#fff"></path></mask><g mask="url(#d)"><path d="M177.254 38.414 28.431 187.213l2.183 2.182L179.437 40.596l-2.183-2.182Z" fill="currentcolor"></path></g><mask id="e" style="mask-type:luminance" maskUnits="userSpaceOnUse" x="0" y="0" width="159" height="158"><path d="M79.684 158c43.606 0 78.956-35.344 78.956-78.942 0-43.599-35.35-78.942-78.955-78.942C36.078.116.728 35.459.728 79.058.729 122.656 36.079 158 79.685 158Z" fill="#fff"></path></mask><g mask="url(#e)"><path d="M165.639 26.803 16.815 175.602l2.183 2.182L167.822 28.985l-2.183-2.182Z" fill="currentcolor"></path></g><mask id="f" style="mask-type:luminance" maskUnits="userSpaceOnUse" x="0" y="0" width="159" height="158"><path d="M79.684 158c43.606 0 78.956-35.344 78.956-78.942 0-43.599-35.35-78.942-78.955-78.942C36.078.116.728 35.459.728 79.058.729 122.656 36.079 158 79.685 158Z" fill="#fff"></path></mask><g mask="url(#f)"><path d="M154.021 15.193 5.197 163.99l2.183 2.183L156.204 17.375l-2.183-2.182Z" fill="currentcolor"></path></g><mask id="g" style="mask-type:luminance" maskUnits="userSpaceOnUse" x="0" y="0" width="159" height="158"><path d="M79.684 158c43.606 0 78.956-35.344 78.956-78.942 0-43.599-35.35-78.942-78.955-78.942C36.078.116.728 35.459.728 79.058.729 122.656 36.079 158 79.685 158Z" fill="#fff"></path></mask><g mask="url(#g)"><path d="M142.405 3.582-6.419 152.38l2.183 2.182L144.588 5.764l-2.183-2.182Z" fill="currentcolor"></path></g><mask id="h" style="mask-type:luminance" maskUnits="userSpaceOnUse" x="0" y="0" width="159" height="158"><path d="M79.684 158c43.606 0 78.956-35.344 78.956-78.942 0-43.599-35.35-78.942-78.955-78.942C36.078.116.728 35.459.728 79.058.729 122.656 36.079 158 79.685 158Z" fill="#fff"></path></mask><g mask="url(#h)"><path d="M130.788-8.028-18.036 140.771l2.183 2.182L132.97-5.845l-2.183-2.183Z" fill="currentcolor"></path></g><mask id="i" style="mask-type:luminance" maskUnits="userSpaceOnUse" x="0" y="0" width="159" height="158"><path d="M79.684 158c43.606 0 78.956-35.344 78.956-78.942 0-43.599-35.35-78.942-78.955-78.942C36.078.116.728 35.459.728 79.058.729 122.656 36.079 158 79.685 158Z" fill="#fff"></path></mask><g mask="url(#i)"><path d="M119.171-19.71-29.632 129.11l2.183 2.182 148.803-148.82-2.183-2.182Z" fill="currentcolor"></path></g><mask id="j" style="mask-type:luminance" maskUnits="userSpaceOnUse" x="0" y="0" width="159" height="158"><path d="M79.684 158c43.606 0 78.956-35.344 78.956-78.942 0-43.599-35.35-78.942-78.955-78.942C36.078.116.728 35.459.728 79.058.729 122.656 36.079 158 79.685 158Z" fill="#fff"></path></mask><g mask="url(#j)"><path d="M107.608-31.248-41.215 117.551l2.183 2.182L109.79-29.065l-2.183-2.183Z" fill="currentcolor"></path></g><mask id="k" style="mask-type:luminance" maskUnits="userSpaceOnUse" x="0" y="0" width="159" height="158"><path d="M79.684 158c43.606 0 78.956-35.344 78.956-78.942 0-43.599-35.35-78.942-78.955-78.942C36.078.116.728 35.459.728 79.058.729 122.656 36.079 158 79.685 158Z" fill="#fff"></path></mask><g mask="url(#k)"><path d="M95.992-42.86-52.832 105.94l2.183 2.183L98.175-40.677l-2.183-2.182Z" fill="currentcolor"></path></g><mask id="l" style="mask-type:luminance" maskUnits="userSpaceOnUse" x="0" y="0" width="159" height="158"><path d="M79.684 158c43.606 0 78.956-35.344 78.956-78.942 0-43.599-35.35-78.942-78.955-78.942C36.078.116.728 35.459.728 79.058.729 122.656 36.079 158 79.685 158Z" fill="#fff"></path></mask><g mask="url(#l)"><path d="M84.349-54.565-64.454 94.255l2.183 2.182L86.532-52.383l-2.183-2.182Z" fill="currentcolor"></path></g></svg>