<svg xmlns="http://www.w3.org/2000/svg" width="139" height="139" viewBox="0 0 139 139" fill="none"><path d="M136.159 5.73787C134.844 5.73787 133.779 4.67262 133.779 3.35856C133.779 2.0445 134.844 0.979248 136.159 0.979248C137.473 0.979248 138.538 2.0445 138.538 3.35856C138.538 4.67262 137.473 5.73787 136.159 5.73787Z" fill="currentcolor"></path><path d="M117.124 5.73793C115.81 5.73793 114.745 4.67268 114.745 3.35862C114.745 2.04456 115.81 0.97931 117.124 0.97931C118.438 0.97931 119.503 2.04456 119.503 3.35862C119.503 4.67268 118.438 5.73793 117.124 5.73793Z" fill="currentcolor"></path><path d="M133.779 22.3931C133.779 23.7072 134.844 24.7724 136.159 24.7724C137.473 24.7724 138.538 23.7072 138.538 22.3931C138.538 21.079 137.473 20.0138 136.159 20.0138C134.844 20.0138 133.779 21.079 133.779 22.3931Z" fill="currentcolor"></path><path d="M117.124 24.7724C115.81 24.7724 114.745 23.7072 114.745 22.3931C114.745 21.079 115.81 20.0138 117.124 20.0138C118.438 20.0138 119.503 21.079 119.503 22.3931C119.503 23.7072 118.438 24.7724 117.124 24.7724Z" fill="currentcolor"></path><path d="M95.7103 3.35862C95.7103 4.67268 96.7755 5.73793 98.0896 5.73793C99.4036 5.73793 100.469 4.67268 100.469 3.35862C100.469 2.04456 99.4036 0.97931 98.0896 0.97931C96.7755 0.97931 95.7103 2.04456 95.7103 3.35862Z" fill="currentcolor"></path><path d="M79.0551 5.73793C77.741 5.73793 76.6758 4.67268 76.6758 3.35862C76.6758 2.04456 77.741 0.97931 79.0551 0.97931C80.3691 0.97931 81.4344 2.04456 81.4344 3.35862C81.4344 4.67268 80.3691 5.73793 79.0551 5.73793Z" fill="currentcolor"></path><path d="M95.7103 22.3931C95.7103 23.7072 96.7755 24.7724 98.0896 24.7724C99.4036 24.7724 100.469 23.7072 100.469 22.3931C100.469 21.079 99.4036 20.0138 98.0896 20.0138C96.7755 20.0138 95.7103 21.079 95.7103 22.3931Z" fill="currentcolor"></path><path d="M79.0551 24.7724C77.741 24.7724 76.6758 23.7072 76.6758 22.3931C76.6758 21.079 77.741 20.0138 79.0551 20.0138C80.3691 20.0138 81.4344 21.079 81.4344 22.3931C81.4344 23.7072 80.3691 24.7724 79.0551 24.7724Z" fill="currentcolor"></path><path d="M133.779 41.4276C133.779 42.7416 134.844 43.8069 136.159 43.8069C137.473 43.8069 138.538 42.7416 138.538 41.4276C138.538 40.1135 137.473 39.0483 136.159 39.0483C134.844 39.0483 133.779 40.1135 133.779 41.4276Z" fill="currentcolor"></path><path d="M117.124 43.8069C115.81 43.8069 114.745 42.7416 114.745 41.4276C114.745 40.1135 115.81 39.0483 117.124 39.0483C118.438 39.0483 119.503 40.1135 119.503 41.4276C119.503 42.7416 118.438 43.8069 117.124 43.8069Z" fill="currentcolor"></path><path d="M133.779 60.4621C133.779 61.7761 134.844 62.8414 136.159 62.8414C137.473 62.8414 138.538 61.7761 138.538 60.4621C138.538 59.148 137.473 58.0828 136.159 58.0828C134.844 58.0828 133.779 59.148 133.779 60.4621Z" fill="currentcolor"></path><path d="M117.124 62.8414C115.81 62.8414 114.745 61.7761 114.745 60.4621C114.745 59.148 115.81 58.0828 117.124 58.0828C118.438 58.0828 119.503 59.148 119.503 60.4621C119.503 61.7761 118.438 62.8414 117.124 62.8414Z" fill="currentcolor"></path><path d="M95.7103 41.4276C95.7103 42.7416 96.7755 43.8069 98.0896 43.8069C99.4036 43.8069 100.469 42.7416 100.469 41.4276C100.469 40.1135 99.4036 39.0483 98.0896 39.0483C96.7755 39.0483 95.7103 40.1135 95.7103 41.4276Z" fill="currentcolor"></path><path d="M79.0551 43.8069C77.741 43.8069 76.6758 42.7416 76.6758 41.4276C76.6758 40.1135 77.741 39.0483 79.0551 39.0483C80.3691 39.0483 81.4344 40.1135 81.4344 41.4276C81.4344 42.7416 80.3691 43.8069 79.0551 43.8069Z" fill="currentcolor"></path><path d="M95.7103 60.4621C95.7103 61.7761 96.7755 62.8414 98.0896 62.8414C99.4036 62.8414 100.469 61.7761 100.469 60.4621C100.469 59.148 99.4036 58.0828 98.0896 58.0828C96.7755 58.0828 95.7103 59.148 95.7103 60.4621Z" fill="currentcolor"></path><path d="M79.0551 62.8414C77.741 62.8414 76.6758 61.7761 76.6758 60.4621C76.6758 59.148 77.741 58.0828 79.0551 58.0828C80.3691 58.0828 81.4344 59.148 81.4344 60.4621C81.4344 61.7761 80.3691 62.8414 79.0551 62.8414Z" fill="currentcolor"></path><path d="M133.779 79.4966C133.779 80.8106 134.844 81.8759 136.159 81.8759C137.473 81.8759 138.538 80.8106 138.538 79.4966C138.538 78.1825 137.473 77.1172 136.159 77.1172C134.844 77.1172 133.779 78.1825 133.779 79.4966Z" fill="currentcolor"></path><path d="M117.124 81.8759C115.81 81.8759 114.745 80.8106 114.745 79.4966C114.745 78.1825 115.81 77.1172 117.124 77.1172C118.438 77.1172 119.503 78.1825 119.503 79.4966C119.503 80.8106 118.438 81.8759 117.124 81.8759Z" fill="currentcolor"></path><path d="M133.779 98.531C133.779 99.8451 134.844 100.91 136.159 100.91C137.473 100.91 138.538 99.8451 138.538 98.531C138.538 97.217 137.473 96.1517 136.159 96.1517C134.844 96.1517 133.779 97.217 133.779 98.531Z" fill="currentcolor"></path><path d="M117.124 100.91C115.81 100.91 114.745 99.8451 114.745 98.531C114.745 97.217 115.81 96.1517 117.124 96.1517C118.438 96.1517 119.503 97.217 119.503 98.531C119.503 99.8451 118.438 100.91 117.124 100.91Z" fill="currentcolor"></path><path d="M95.7103 79.4966C95.7103 80.8106 96.7755 81.8759 98.0896 81.8759C99.4036 81.8759 100.469 80.8106 100.469 79.4966C100.469 78.1825 99.4036 77.1172 98.0896 77.1172C96.7755 77.1172 95.7103 78.1825 95.7103 79.4966Z" fill="currentcolor"></path><path d="M79.0551 81.8759C77.741 81.8759 76.6758 80.8106 76.6758 79.4966C76.6758 78.1825 77.741 77.1172 79.0551 77.1172C80.3691 77.1172 81.4344 78.1825 81.4344 79.4966C81.4344 80.8106 80.3691 81.8759 79.0551 81.8759Z" fill="currentcolor"></path><path d="M95.7103 98.531C95.7103 99.8451 96.7755 100.91 98.0896 100.91C99.4036 100.91 100.469 99.8451 100.469 98.531C100.469 97.217 99.4036 96.1517 98.0896 96.1517C96.7755 96.1517 95.7103 97.217 95.7103 98.531Z" fill="currentcolor"></path><path d="M79.0551 100.91C77.741 100.91 76.6758 99.8451 76.6758 98.531C76.6758 97.217 77.741 96.1517 79.0551 96.1517C80.3691 96.1517 81.4344 97.217 81.4344 98.531C81.4344 99.8451 80.3691 100.91 79.0551 100.91Z" fill="currentcolor"></path><path d="M133.779 117.566C133.779 118.88 134.844 119.945 136.159 119.945C137.473 119.945 138.538 118.88 138.538 117.566C138.538 116.251 137.473 115.186 136.159 115.186C134.844 115.186 133.779 116.251 133.779 117.566Z" fill="currentcolor"></path><path d="M117.124 119.945C115.81 119.945 114.745 118.88 114.745 117.566C114.745 116.251 115.81 115.186 117.124 115.186C118.438 115.186 119.503 116.251 119.503 117.566C119.503 118.88 118.438 119.945 117.124 119.945Z" fill="currentcolor"></path><path d="M133.779 136.6C133.779 137.914 134.844 138.979 136.159 138.979C137.473 138.979 138.538 137.914 138.538 136.6C138.538 135.286 137.473 134.221 136.159 134.221C134.844 134.221 133.779 135.286 133.779 136.6Z" fill="currentcolor"></path><path d="M117.124 138.979C115.81 138.979 114.745 137.914 114.745 136.6C114.745 135.286 115.81 134.221 117.124 134.221C118.438 134.221 119.503 135.286 119.503 136.6C119.503 137.914 118.438 138.979 117.124 138.979Z" fill="currentcolor"></path><path d="M95.7103 117.566C95.7103 118.88 96.7755 119.945 98.0896 119.945C99.4036 119.945 100.469 118.88 100.469 117.566C100.469 116.251 99.4036 115.186 98.0896 115.186C96.7755 115.186 95.7103 116.251 95.7103 117.566Z" fill="currentcolor"></path><path d="M79.0551 119.945C77.741 119.945 76.6758 118.88 76.6758 117.566C76.6758 116.251 77.741 115.186 79.0551 115.186C80.3691 115.186 81.4344 116.251 81.4344 117.566C81.4344 118.88 80.3691 119.945 79.0551 119.945Z" fill="currentcolor"></path><path d="M95.7103 136.6C95.7103 137.914 96.7755 138.979 98.0896 138.979C99.4036 138.979 100.469 137.914 100.469 136.6C100.469 135.286 99.4036 134.221 98.0896 134.221C96.7755 134.221 95.7103 135.286 95.7103 136.6Z" fill="currentcolor"></path><path d="M79.0551 138.979C77.741 138.979 76.6758 137.914 76.6758 136.6C76.6758 135.286 77.741 134.221 79.0551 134.221C80.3691 134.221 81.4344 135.286 81.4344 136.6C81.4344 137.914 80.3691 138.979 79.0551 138.979Z" fill="currentcolor"></path><path d="M57.6413 3.35862C57.6413 4.67268 58.7065 5.73793 60.0206 5.73793C61.3347 5.73793 62.3999 4.67268 62.3999 3.35862C62.3999 2.04456 61.3347 0.97931 60.0206 0.97931C58.7065 0.97931 57.6413 2.04456 57.6413 3.35862Z" fill="currentcolor"></path><path d="M40.9861 5.73793C39.6721 5.73793 38.6068 4.67268 38.6068 3.35862C38.6068 2.04456 39.6721 0.97931 40.9861 0.97931C42.3002 0.97931 43.3654 2.04456 43.3654 3.35862C43.3654 4.67268 42.3002 5.73793 40.9861 5.73793Z" fill="currentcolor"></path><path d="M57.6413 22.3931C57.6413 23.7072 58.7065 24.7724 60.0206 24.7724C61.3347 24.7724 62.3999 23.7072 62.3999 22.3931C62.3999 21.079 61.3347 20.0138 60.0206 20.0138C58.7065 20.0138 57.6413 21.079 57.6413 22.3931Z" fill="currentcolor"></path><path d="M40.9861 24.7724C39.6721 24.7724 38.6068 23.7072 38.6068 22.3931C38.6068 21.079 39.6721 20.0138 40.9861 20.0138C42.3002 20.0138 43.3654 21.079 43.3654 22.3931C43.3654 23.7072 42.3002 24.7724 40.9861 24.7724Z" fill="currentcolor"></path><path d="M19.5723 3.35862C19.5723 4.67268 20.6376 5.73793 21.9516 5.73793C23.2657 5.73793 24.3309 4.67268 24.3309 3.35862C24.3309 2.04456 23.2657 0.97931 21.9516 0.97931C20.6376 0.97931 19.5723 2.04456 19.5723 3.35862Z" fill="currentcolor"></path><path d="M2.91716 5.73793C1.60309 5.73793 0.537842 4.67268 0.537842 3.35862C0.537842 2.04456 1.60309 0.97931 2.91716 0.97931C4.23122 0.97931 5.29646 2.04456 5.29646 3.35862C5.29646 4.67268 4.23122 5.73793 2.91716 5.73793Z" fill="currentcolor"></path><path d="M19.5723 22.3931C19.5723 23.7072 20.6376 24.7724 21.9516 24.7724C23.2657 24.7724 24.3309 23.7072 24.3309 22.3931C24.3309 21.079 23.2657 20.0138 21.9516 20.0138C20.6376 20.0138 19.5723 21.079 19.5723 22.3931Z" fill="currentcolor"></path><path d="M2.91716 24.7724C1.60309 24.7724 0.537842 23.7072 0.537842 22.3931C0.537842 21.079 1.60309 20.0138 2.91716 20.0138C4.23122 20.0138 5.29646 21.079 5.29646 22.3931C5.29646 23.7072 4.23122 24.7724 2.91716 24.7724Z" fill="currentcolor"></path><path d="M57.6413 41.4276C57.6413 42.7416 58.7065 43.8069 60.0206 43.8069C61.3347 43.8069 62.3999 42.7416 62.3999 41.4276C62.3999 40.1135 61.3347 39.0483 60.0206 39.0483C58.7065 39.0483 57.6413 40.1135 57.6413 41.4276Z" fill="currentcolor"></path><path d="M40.9861 43.8069C39.6721 43.8069 38.6068 42.7416 38.6068 41.4276C38.6068 40.1135 39.6721 39.0483 40.9861 39.0483C42.3002 39.0483 43.3654 40.1135 43.3654 41.4276C43.3654 42.7416 42.3002 43.8069 40.9861 43.8069Z" fill="currentcolor"></path><path d="M57.6413 60.4621C57.6413 61.7761 58.7065 62.8414 60.0206 62.8414C61.3347 62.8414 62.3999 61.7761 62.3999 60.4621C62.3999 59.148 61.3347 58.0828 60.0206 58.0828C58.7065 58.0828 57.6413 59.148 57.6413 60.4621Z" fill="currentcolor"></path><path d="M40.9861 62.8414C39.6721 62.8414 38.6068 61.7761 38.6068 60.4621C38.6068 59.148 39.6721 58.0828 40.9861 58.0828C42.3002 58.0828 43.3654 59.148 43.3654 60.4621C43.3654 61.7761 42.3002 62.8414 40.9861 62.8414Z" fill="currentcolor"></path><path d="M19.5723 41.4276C19.5723 42.7416 20.6376 43.8069 21.9516 43.8069C23.2657 43.8069 24.3309 42.7416 24.3309 41.4276C24.3309 40.1135 23.2657 39.0483 21.9516 39.0483C20.6376 39.0483 19.5723 40.1135 19.5723 41.4276Z" fill="currentcolor"></path><path d="M2.91716 43.8069C1.60309 43.8069 0.537842 42.7416 0.537842 41.4276C0.537842 40.1135 1.60309 39.0483 2.91716 39.0483C4.23122 39.0483 5.29646 40.1135 5.29646 41.4276C5.29646 42.7416 4.23122 43.8069 2.91716 43.8069Z" fill="currentcolor"></path><path d="M19.5723 60.4621C19.5723 61.7761 20.6376 62.8414 21.9516 62.8414C23.2657 62.8414 24.3309 61.7761 24.3309 60.4621C24.3309 59.148 23.2657 58.0828 21.9516 58.0828C20.6376 58.0828 19.5723 59.148 19.5723 60.4621Z" fill="currentcolor"></path><path d="M2.91716 62.8414C1.60309 62.8414 0.537842 61.7761 0.537842 60.4621C0.537842 59.148 1.60309 58.0828 2.91716 58.0828C4.23122 58.0828 5.29646 59.148 5.29646 60.4621C5.29646 61.7761 4.23122 62.8414 2.91716 62.8414Z" fill="currentcolor"></path><path d="M57.6413 79.4966C57.6413 80.8106 58.7065 81.8759 60.0206 81.8759C61.3347 81.8759 62.3999 80.8106 62.3999 79.4966C62.3999 78.1825 61.3347 77.1172 60.0206 77.1172C58.7065 77.1172 57.6413 78.1825 57.6413 79.4966Z" fill="currentcolor"></path><path d="M40.9861 81.8759C39.6721 81.8759 38.6068 80.8106 38.6068 79.4966C38.6068 78.1825 39.6721 77.1172 40.9861 77.1172C42.3002 77.1172 43.3654 78.1825 43.3654 79.4966C43.3654 80.8106 42.3002 81.8759 40.9861 81.8759Z" fill="currentcolor"></path><path d="M57.6413 98.531C57.6413 99.8451 58.7065 100.91 60.0206 100.91C61.3347 100.91 62.3999 99.8451 62.3999 98.531C62.3999 97.217 61.3347 96.1517 60.0206 96.1517C58.7065 96.1517 57.6413 97.217 57.6413 98.531Z" fill="currentcolor"></path><path d="M40.9861 100.91C39.6721 100.91 38.6068 99.8451 38.6068 98.531C38.6068 97.217 39.6721 96.1517 40.9861 96.1517C42.3002 96.1517 43.3654 97.217 43.3654 98.531C43.3654 99.8451 42.3002 100.91 40.9861 100.91Z" fill="currentcolor"></path><path d="M19.5723 79.4966C19.5723 80.8106 20.6376 81.8759 21.9516 81.8759C23.2657 81.8759 24.3309 80.8106 24.3309 79.4966C24.3309 78.1825 23.2657 77.1172 21.9516 77.1172C20.6376 77.1172 19.5723 78.1825 19.5723 79.4966Z" fill="currentcolor"></path><path d="M2.91716 81.8759C1.60309 81.8759 0.537842 80.8106 0.537842 79.4966C0.537842 78.1825 1.60309 77.1172 2.91716 77.1172C4.23122 77.1172 5.29646 78.1825 5.29646 79.4966C5.29646 80.8106 4.23122 81.8759 2.91716 81.8759Z" fill="currentcolor"></path><path d="M19.5723 98.531C19.5723 99.8451 20.6376 100.91 21.9516 100.91C23.2657 100.91 24.3309 99.8451 24.3309 98.531C24.3309 97.217 23.2657 96.1517 21.9516 96.1517C20.6376 96.1517 19.5723 97.217 19.5723 98.531Z" fill="currentcolor"></path><path d="M2.91716 100.91C1.60309 100.91 0.537842 99.8451 0.537842 98.531C0.537842 97.217 1.60309 96.1517 2.91716 96.1517C4.23122 96.1517 5.29646 97.217 5.29646 98.531C5.29646 99.8451 4.23122 100.91 2.91716 100.91Z" fill="currentcolor"></path><path d="M57.6413 117.566C57.6413 118.88 58.7065 119.945 60.0206 119.945C61.3347 119.945 62.3999 118.88 62.3999 117.566C62.3999 116.251 61.3347 115.186 60.0206 115.186C58.7065 115.186 57.6413 116.251 57.6413 117.566Z" fill="currentcolor"></path><path d="M40.9861 119.945C39.6721 119.945 38.6068 118.88 38.6068 117.566C38.6068 116.251 39.6721 115.186 40.9861 115.186C42.3002 115.186 43.3654 116.251 43.3654 117.566C43.3654 118.88 42.3002 119.945 40.9861 119.945Z" fill="currentcolor"></path><path d="M57.6413 136.6C57.6413 137.914 58.7065 138.979 60.0206 138.979C61.3347 138.979 62.3999 137.914 62.3999 136.6C62.3999 135.286 61.3347 134.221 60.0206 134.221C58.7065 134.221 57.6413 135.286 57.6413 136.6Z" fill="currentcolor"></path><path d="M40.9861 138.979C39.6721 138.979 38.6068 137.914 38.6068 136.6C38.6068 135.286 39.6721 134.221 40.9861 134.221C42.3002 134.221 43.3654 135.286 43.3654 136.6C43.3654 137.914 42.3002 138.979 40.9861 138.979Z" fill="currentcolor"></path><path d="M19.5723 117.566C19.5723 118.88 20.6376 119.945 21.9516 119.945C23.2657 119.945 24.3309 118.88 24.3309 117.566C24.3309 116.251 23.2657 115.186 21.9516 115.186C20.6376 115.186 19.5723 116.251 19.5723 117.566Z" fill="currentcolor"></path><path d="M2.91716 119.945C1.60309 119.945 0.537842 118.88 0.537842 117.566C0.537842 116.251 1.60309 115.186 2.91716 115.186C4.23122 115.186 5.29646 116.251 5.29646 117.566C5.29646 118.88 4.23122 119.945 2.91716 119.945Z" fill="currentcolor"></path><path d="M19.5723 136.6C19.5723 137.914 20.6376 138.979 21.9516 138.979C23.2657 138.979 24.3309 137.914 24.3309 136.6C24.3309 135.286 23.2657 134.221 21.9516 134.221C20.6376 134.221 19.5723 135.286 19.5723 136.6Z" fill="currentcolor"></path><path d="M2.91716 138.979C1.60309 138.979 0.537842 137.914 0.537842 136.6C0.537842 135.286 1.60309 134.221 2.91716 134.221C4.23122 134.221 5.29646 135.286 5.29646 136.6C5.29646 137.914 4.23122 138.979 2.91716 138.979Z" fill="currentcolor"></path></svg>