<svg xmlns="http://www.w3.org/2000/svg" width="15" height="15" viewBox="0 0 15 15" fill="none"><path d="M7.61005 0.638672C3.87084 0.638672 0.828796 3.68072 0.828796 7.41992C0.828796 11.1591 3.87084 14.2012 7.61005 14.2012C11.3492 14.2012 14.3913 11.1591 14.3913 7.41992C14.3913 3.68072 11.3492 0.638672 7.61005 0.638672ZM12.0936 3.76587C12.9003 4.7515 13.3888 6.00688 13.4016 7.37401C13.2106 7.33362 11.2956 6.94521 9.36833 7.18758C9.21105 6.80365 9.0626 6.4659 8.85927 6.0497C11.0009 5.17533 11.9715 3.93105 12.0936 3.76587ZM11.4497 3.09605C11.3455 3.24445 10.4736 4.41638 8.41395 5.18837C7.4648 3.4445 6.4128 2.0119 6.2527 1.79753C8.08955 1.35475 10.0252 1.83225 11.4497 3.09605ZM5.1475 2.18688C5.30021 2.3963 6.33525 3.83067 7.29499 5.53673C4.58558 6.25623 2.19921 6.24586 1.94016 6.24245C2.31575 4.44506 3.52702 2.95121 5.1475 2.18688ZM1.81782 7.42875C1.81782 7.36953 1.819 7.31057 1.82077 7.25176C2.07419 7.25695 4.88109 7.29313 7.77367 6.42745C7.93948 6.75197 8.09789 7.08138 8.24327 7.41043C6.14877 8.00037 4.24578 9.69438 3.30688 11.3016C2.38176 10.2747 1.81782 8.91645 1.81782 7.42875ZM4.05473 11.9983C4.65977 10.7614 6.30178 9.16484 8.63697 8.3682C9.45017 10.4814 9.78647 12.2525 9.8726 12.7606C8.01017 13.554 5.77063 13.3363 4.05473 11.9983ZM10.8464 12.2304C10.787 11.878 10.4787 10.1824 9.72112 8.10056C11.5362 7.81001 13.1309 8.28562 13.329 8.34816C13.0709 9.95983 12.1458 11.3517 10.8464 12.2304Z" fill="currentcolor"></path></svg>