<svg xmlns="http://www.w3.org/2000/svg" width="218" height="228" viewBox="0 0 218 228" fill="none"><path d="M116.926 19.0716C112.274 14.5711 104.891 14.5711 100.239 19.0716L85.9761 32.8697C83.3158 35.4433 79.6168 36.6451 75.952 36.1268L56.3025 33.3475C49.8936 32.441 43.9207 36.7806 42.8023 43.1559L39.3736 62.7025C38.7341 66.3482 36.448 69.4948 33.1783 71.2296L15.6479 80.5307C9.93022 83.5644 7.64876 90.586 10.4913 96.4011L19.2066 114.23C20.8322 117.555 20.8322 121.445 19.2066 124.77L10.4913 142.599C7.64876 148.414 9.93022 155.436 15.6479 158.469L33.1783 167.77C36.448 169.505 38.7341 172.652 39.3736 176.298L42.8023 195.844C43.9207 202.219 49.8936 206.559 56.3025 205.653L75.952 202.873C79.6168 202.355 83.3158 203.557 85.9761 206.13L100.239 219.928C104.891 224.429 112.274 224.429 116.926 219.928L131.189 206.13C133.85 203.557 137.549 202.355 141.214 202.873L160.863 205.653C167.272 206.559 173.245 202.219 174.363 195.844L177.792 176.298C178.431 172.652 180.718 169.505 183.987 167.77L201.518 158.469C207.235 155.436 209.517 148.414 206.674 142.599L197.959 124.77C196.333 121.445 196.333 117.555 197.959 114.23L206.674 96.4011C209.517 90.586 207.235 83.5644 201.518 80.5307L183.987 71.2296C180.718 69.4948 178.431 66.3482 177.792 62.7025L174.363 43.1559C173.245 36.7806 167.272 32.441 160.863 33.3475L141.214 36.1268C137.549 36.6451 133.85 35.4433 131.189 32.8697L116.926 19.0716Z" fill="#121212"></path><path d="M116.926 8.07155C112.274 3.57115 104.891 3.57114 100.239 8.07155L85.9761 21.8697C83.3158 24.4433 79.6168 25.6451 75.952 25.1268L56.3025 22.3475C49.8936 21.441 43.9207 25.7806 42.8023 32.1559L39.3736 51.7025C38.7341 55.3482 36.448 58.4948 33.1783 60.2296L15.6479 69.5307C9.93022 72.5644 7.64876 79.586 10.4913 85.4011L19.2066 103.23C20.8322 106.555 20.8322 110.445 19.2066 113.77L10.4913 131.599C7.64876 137.414 9.93022 144.436 15.6479 147.469L33.1783 156.77C36.448 158.505 38.7341 161.652 39.3736 165.298L42.8023 184.844C43.9207 191.219 49.8936 195.559 56.3025 194.653L75.952 191.873C79.6168 191.355 83.3158 192.557 85.9761 195.13L100.239 208.928C104.891 213.429 112.274 213.429 116.926 208.928L131.189 195.13C133.85 192.557 137.549 191.355 141.214 191.873L160.863 194.653C167.272 195.559 173.245 191.219 174.363 184.844L177.792 165.298C178.431 161.652 180.718 158.505 183.987 156.77L201.518 147.469C207.235 144.436 209.517 137.414 206.674 131.599L197.959 113.77C196.333 110.445 196.333 106.555 197.959 103.23L206.674 85.4011C209.517 79.586 207.235 72.5644 201.518 69.5307L183.987 60.2296C180.718 58.4948 178.431 55.3482 177.792 51.7025L174.363 32.1559C173.245 25.7806 167.272 21.441 160.863 22.3475L141.214 25.1268C137.549 25.6451 133.85 24.4433 131.189 21.8697L116.926 8.07155Z" fill="currentcolor"></path><path d="M72.2999 66.5595C73.1689 64.1744 74.6771 61.9622 76.6089 60.1561C78.5458 58.3414 80.9185 56.9516 83.4874 56.1022C86.0699 55.2492 88.8471 54.9589 91.5945 55.2403C94.3419 55.5217 97.0344 56.4181 99.4297 57.7894C101.815 59.1781 103.937 61.0617 105.555 63.3003C107.177 65.5303 108.318 68.0942 108.862 70.7522C109.406 73.4103 109.389 76.1601 108.79 78.7361C108.192 81.3122 107.03 83.7244 105.399 85.6695C104.406 86.8509 102.645 87.0005 101.458 86.0154C100.58 85.2772 100.269 84.1161 100.577 83.0817L100.628 82.9145C101.668 79.3928 101.55 75.9763 100.439 73.0019C99.3268 70.0276 97.2537 67.6183 94.626 66.0896C91.9933 64.5696 88.8652 63.9876 85.7335 64.5119C82.6017 65.0363 79.5842 66.6428 77.0544 69.3045L76.9521 69.4417C75.8903 70.5608 74.1226 70.6025 73.0036 69.5407C72.1686 68.7469 71.9345 67.5725 72.2999 66.5595Z" fill="black"></path><path d="M135.208 102.88C136.077 100.495 137.585 98.2822 139.517 96.4762C141.454 94.6615 143.827 93.2717 146.396 92.4223C148.978 91.5693 151.755 91.279 154.503 91.5604C157.25 91.8418 159.943 92.7381 162.338 94.1095C164.723 95.4981 166.846 97.3818 168.463 99.6204C170.085 101.85 171.226 104.414 171.77 107.072C172.314 109.73 172.297 112.48 171.699 115.056C171.1 117.632 169.939 120.045 168.308 121.99C167.314 123.171 165.553 123.321 164.367 122.335C163.488 121.597 163.177 120.436 163.485 119.402L163.536 119.235C164.576 115.713 164.459 112.296 163.347 109.322C162.235 106.348 160.162 103.938 157.534 102.41C154.901 100.89 151.773 100.308 148.642 100.832C145.51 101.356 142.492 102.963 139.963 105.625L139.843 105.752C138.781 106.871 137.013 106.913 135.894 105.851C135.085 105.072 134.843 103.893 135.208 102.88Z" fill="black"></path><path d="M71.1737 88.3105C68.5028 98.9967 69.2082 109.935 73.12 119.479C76.9771 129.039 83.9497 137.002 92.7138 142.062C101.478 147.122 111.861 149.179 122.068 147.739C132.289 146.355 142.124 141.502 150.043 133.845L150.124 133.765C151.222 132.702 152.972 132.731 154.035 133.83C154.947 134.772 155.053 136.207 154.362 137.263C153.528 138.548 152.628 139.807 151.744 141.098C150.759 142.284 149.726 143.454 148.7 144.652C147.607 145.764 146.441 146.823 145.296 147.906C144.076 148.899 142.815 149.845 141.56 150.818C136.376 154.476 130.416 157.12 124.145 158.581C117.87 160.05 111.264 160.312 104.821 159.352C103.226 159.054 101.602 158.787 100.026 158.396C98.4679 157.936 96.8796 157.527 95.3339 157.004C93.8196 156.407 92.2917 155.813 90.7937 155.168L86.4388 152.93L82.324 150.278C81.016 149.303 79.7381 148.277 78.4638 147.264C77.2381 146.187 76.0898 145.016 74.9115 143.896C73.7855 142.727 72.7418 141.454 71.6868 140.222C67.6337 135.122 64.5576 129.27 62.6923 123.101C60.8269 116.932 60.1364 110.448 60.7078 104.138C60.9232 102.565 61.1112 100.999 61.3613 99.4461C61.7265 97.9134 62.0608 96.3744 62.4781 94.8717C62.997 93.393 63.4935 91.913 64.0333 90.458C64.7094 89.047 65.3495 87.6383 66.0452 86.2733C66.7359 84.9169 68.3955 84.3624 69.7605 85.0582C70.93 85.6525 71.501 86.9637 71.1941 88.1952L71.1737 88.3105Z" fill="black"></path></svg>