<svg xmlns="http://www.w3.org/2000/svg" width="38" height="41" viewBox="0 0 38 41" fill="none"><path d="M21.723 31.7324H24.2726V35.323C24.2726 36.3904 23.4073 37.2556 22.34 37.2556H15.6608C14.5936 37.2556 13.7283 36.3904 13.7283 35.323V31.7324H19.3792" stroke="currentcolor" stroke-width="1.17187" stroke-miterlimit="10" stroke-linecap="round" stroke-linejoin="round"></path><path d="M15.5911 37.2555C16.0394 38.7127 17.3961 39.772 19.0004 39.772C20.6047 39.772 21.9613 38.7127 22.4097 37.2555H15.5911Z" stroke="currentcolor" stroke-width="1.17187" stroke-miterlimit="10" stroke-linecap="round" stroke-linejoin="round"></path><path d="M19.0003 22.9609C17.2267 22.9609 15.7889 21.5231 15.7889 19.7495C15.7889 17.9759 17.2267 16.5381 19.0003 16.5381C20.7739 16.5381 22.2117 17.9759 22.2117 19.7495C22.2117 21.5231 20.7739 22.9609 19.0003 22.9609ZM26.9894 20.9495V18.5495L25.0261 18.2708C24.8744 17.6501 24.6296 17.0659 24.3067 16.5342L25.4979 14.9488L23.8009 13.2519L22.2156 14.4431C21.6839 14.1202 21.0997 13.8754 20.4789 13.7236L20.2003 11.7604H17.8003L17.5216 13.7236C16.9009 13.8754 16.3167 14.1202 15.785 14.4431L14.1997 13.2519L12.5026 14.9488L13.6938 16.5342C13.371 17.0659 13.1262 17.6501 12.9744 18.2708L11.0112 18.5495V20.9495L12.9744 21.2281C13.1262 21.8488 13.371 22.4331 13.6938 22.9648L12.5026 24.5501L14.1997 26.247L15.785 25.0559C16.3167 25.3788 16.9009 25.6235 17.5216 25.7753L17.8003 27.7385H20.2003L20.4789 25.7753C21.0997 25.6235 21.6839 25.3788 22.2156 25.0559L23.8009 26.247L25.4979 24.5501L24.3067 22.9648C24.6296 22.4331 24.8744 21.8488 25.0262 21.2281L26.9894 20.9495Z" stroke="currentcolor" stroke-width="1.17187" stroke-miterlimit="10" stroke-linecap="round" stroke-linejoin="round"></path><path d="M19 4.3313V0.894736" stroke="currentcolor" stroke-width="1.17187" stroke-miterlimit="10" stroke-linecap="round" stroke-linejoin="round"></path><path d="M33.1016 18.4329H36.5382" stroke="currentcolor" stroke-width="1.17187" stroke-miterlimit="10" stroke-linecap="round" stroke-linejoin="round"></path><path d="M1.46191 18.4329H4.89855" stroke="currentcolor" stroke-width="1.17187" stroke-miterlimit="10" stroke-linecap="round" stroke-linejoin="round"></path><path d="M6.59863 6.03167L9.02871 8.46167" stroke="currentcolor" stroke-width="1.17187" stroke-miterlimit="10" stroke-linecap="round" stroke-linejoin="round"></path><path d="M4.68262 12.8236L5.87027 13.2888" stroke="currentcolor" stroke-width="1.17187" stroke-miterlimit="10" stroke-linecap="round" stroke-linejoin="round"></path><path d="M13.856 5.30322L13.3772 4.08088" stroke="currentcolor" stroke-width="1.17187" stroke-miterlimit="10" stroke-linecap="round" stroke-linejoin="round"></path><path d="M24.144 5.30322L24.6229 4.08088" stroke="currentcolor" stroke-width="1.17187" stroke-miterlimit="10" stroke-linecap="round" stroke-linejoin="round"></path><path d="M31.4014 6.03167L28.9714 8.46167" stroke="currentcolor" stroke-width="1.17187" stroke-miterlimit="10" stroke-linecap="round" stroke-linejoin="round"></path><path d="M33.3175 12.8236L32.1299 13.2888" stroke="currentcolor" stroke-width="1.17187" stroke-miterlimit="10" stroke-linecap="round" stroke-linejoin="round"></path><path d="M10.7036 10.3106C8.45202 12.4898 7.04272 15.5358 7.04272 18.887C7.0428 22.9407 9.06022 26.5228 12.1456 28.685C13.1387 29.3811 13.7283 30.5191 13.7283 31.7319V31.7322H19.0004H19.3791" stroke="currentcolor" stroke-width="1.17187" stroke-miterlimit="10" stroke-linecap="round" stroke-linejoin="round"></path><path d="M21.7228 31.7322H24.2725C24.2725 30.5091 24.879 29.3726 25.879 28.6682C28.951 26.5041 30.9579 22.9301 30.9579 18.8869C30.9579 12.3169 25.6595 6.98444 19.1024 6.9296C16.694 6.90952 14.4368 7.61835 12.5415 8.84749" stroke="currentcolor" stroke-width="1.17187" stroke-miterlimit="10" stroke-linecap="round" stroke-linejoin="round"></path></svg>