<svg xmlns="http://www.w3.org/2000/svg" width="40" height="41" viewBox="0 0 40 41" fill="none"><path d="M35 22.146V20.896C35.345 20.896 35.625 20.6162 35.625 20.271V16.521C35.625 16.1758 35.345 15.896 35 15.896H31.625L31.5039 15.4265C31.2275 14.3528 30.7983 13.3242 30.2288 12.3728L29.9788 11.9546L32.375 9.5542C32.6162 9.3125 32.6162 8.9209 32.375 8.6792L29.7207 6.021C29.4756 5.78735 29.0906 5.78735 28.8455 6.021L26.4448 8.42163L26.0269 8.17163C25.074 7.60181 24.0444 7.17261 22.9692 6.896L22.5 6.77393V3.396C22.5 3.05078 22.2202 2.771 21.875 2.771H18.125C17.7798 2.771 17.5 3.05078 17.5 3.396V6.771L17.0305 6.89234C15.9568 7.16846 14.9282 7.59766 13.9763 8.16651L13.5581 8.41675L11.1582 6.021C10.9128 5.7854 10.5254 5.7854 10.28 6.021L7.625 8.67529C7.5083 8.79175 7.44263 8.94995 7.44263 9.11475C7.44263 9.27979 7.5083 9.43775 7.625 9.5542L10.0256 11.9546L9.77564 12.3728C9.2063 13.3242 8.77686 14.3528 8.50073 15.4265L8.37818 15.896H5C4.65479 15.896 4.375 16.1758 4.375 16.521V20.271C4.375 20.6162 4.65479 20.896 5 20.896V22.146C3.9646 22.146 3.125 21.3064 3.125 20.271V16.521C3.125 15.4856 3.9646 14.646 5 14.646H7.41821C7.67603 13.7817 8.02466 12.9473 8.45825 12.1567L6.7395 10.438C6.38794 10.0872 6.19043 9.61109 6.19043 9.11475C6.19043 8.61841 6.38794 8.14234 6.7395 7.79175L9.39575 5.1355C10.1357 4.42725 11.3025 4.42725 12.0425 5.1355L13.7607 6.85352C14.5513 6.42017 15.386 6.07227 16.25 5.8147V3.396C16.25 2.3606 17.0896 1.521 18.125 1.521H21.875C22.9104 1.521 23.75 2.3606 23.75 3.396V5.8147C24.6143 6.07227 25.4485 6.4209 26.2393 6.85425L27.958 5.1355C28.6982 4.42725 29.8648 4.42725 30.605 5.1355L33.2607 7.79102C33.6121 8.14185 33.8093 8.61743 33.8093 9.11402C33.8093 9.6106 33.6121 10.0867 33.2607 10.4373L31.542 12.156C31.9753 12.947 32.3237 13.7817 32.5818 14.646H35C36.0354 14.646 36.875 15.4856 36.875 16.521V20.271C36.875 21.3064 36.0354 22.146 35 22.146Z" fill="currentcolor"></path><path d="M28.75 18.396H27.5C27.5 14.2539 24.1421 10.896 20 10.896C15.8579 10.896 12.5 14.2539 12.5 18.396H11.25C11.25 13.5635 15.1675 9.646 20 9.646C24.8323 9.646 28.75 13.5635 28.75 18.396Z" fill="currentcolor"></path><path d="M20 23.396C17.929 23.396 16.25 21.7168 16.25 19.646C16.25 17.575 17.929 15.896 20 15.896C22.0713 15.896 23.75 17.575 23.75 19.646C23.7478 21.7163 22.0703 23.3938 20 23.396ZM20 17.146C18.6194 17.146 17.5 18.2654 17.5 19.646C17.5 21.0266 18.6194 22.146 20 22.146C21.3806 22.146 22.5 21.0266 22.5 19.646C22.5 18.2654 21.3806 17.146 20 17.146Z" fill="currentcolor"></path><path d="M30.625 25.896C28.554 25.896 26.875 24.2168 26.875 22.146C26.875 20.075 28.554 18.396 30.625 18.396C32.696 18.396 34.375 20.075 34.375 22.146C34.3728 24.2163 32.6953 25.8938 30.625 25.896ZM30.625 19.646C29.2444 19.646 28.125 20.7654 28.125 22.146C28.125 23.5266 29.2444 24.646 30.625 24.646C32.0056 24.646 33.125 23.5266 33.125 22.146C33.125 20.7654 32.0056 19.646 30.625 19.646Z" fill="currentcolor"></path><path d="M9.375 25.896C7.30396 25.896 5.625 24.2168 5.625 22.146C5.625 20.075 7.30396 18.396 9.375 18.396C11.4463 18.396 13.125 20.075 13.125 22.146C13.1228 24.2163 11.4453 25.8938 9.375 25.896ZM9.375 19.646C7.99439 19.646 6.875 20.7654 6.875 22.146C6.875 23.5266 7.99439 24.646 9.375 24.646C10.7556 24.646 11.875 23.5266 11.875 22.146C11.875 20.7654 10.7556 19.646 9.375 19.646Z" fill="currentcolor"></path><path d="M36.291 27.4995C35.3596 26.8594 34.2554 26.5179 33.125 26.521H28.125C27.8211 26.5237 27.5176 26.5513 27.218 26.6033C26.8181 25.9778 26.2979 25.4383 25.6875 25.0152C25.596 24.9461 25.4998 24.8833 25.3994 24.8279C24.5252 24.2984 23.522 24.0196 22.5 24.021H17.5C15.5886 24.0142 13.8076 24.9895 12.7837 26.6033C12.4834 26.5513 12.1794 26.5237 11.875 26.521H6.875C5.74561 26.5179 4.6416 26.8589 3.71069 27.4983C2.17212 28.5452 1.25098 30.2852 1.25 32.146V34.646C1.2522 36.3526 2.24512 37.9024 3.79517 38.6172C4.36743 38.8868 4.99268 39.0247 5.625 39.021H11.875V37.771H6.25V30.896H5V37.7083C4.76465 37.6612 4.53613 37.585 4.31934 37.4822C3.21216 36.9717 2.50244 35.865 2.5 34.646V32.146C2.50147 30.6978 3.21899 29.344 4.41626 28.5296C5.13965 28.033 5.99732 27.7686 6.875 27.771H11.875C11.9851 27.771 12.0913 27.7828 12.1987 27.7901C11.9873 28.3863 11.8777 29.0137 11.875 29.646V35.896C11.8772 37.6211 13.2751 39.0188 15 39.021H16.875V29.021H15.625V37.771H15C13.9646 37.771 13.125 36.9314 13.125 35.896V29.646C13.125 27.2295 15.084 25.271 17.5 25.271H22.5C23.3042 25.2715 24.0923 25.4942 24.7781 25.9141C24.8416 25.9488 24.9026 25.9878 24.9605 26.0308C25.5461 26.4319 26.0269 26.9678 26.3618 27.5933C26.6985 28.2251 26.875 28.93 26.875 29.646V35.896C26.875 36.9314 26.0354 37.771 25 37.771H24.375V29.021H23.125V39.021H25C26.7251 39.0188 28.1228 37.6211 28.125 35.896V29.646C28.1221 29.0137 28.0129 28.3865 27.8018 27.7901C27.9094 27.7828 28.0156 27.771 28.125 27.771H33.125C34.0032 27.7686 34.8616 28.0337 35.5855 28.5308C36.7817 29.3457 37.4983 30.6985 37.5 32.146V34.646C37.4978 35.8694 36.7827 36.9793 35.6702 37.4871C35.4566 37.5882 35.2315 37.6624 35 37.7083V30.896H33.75V37.771H28.125V39.021H34.375C35.0037 39.0249 35.6253 38.8887 36.1943 38.6221C37.7495 37.9095 38.7476 36.3567 38.75 34.646V32.146C38.749 30.2859 37.8286 28.5467 36.291 27.4995Z" fill="currentcolor"></path><path d="M17.5 37.771H22.5V39.021H17.5V37.771Z" fill="currentcolor"></path></svg>