<svg xmlns="http://www.w3.org/2000/svg" width="40" height="41" viewBox="0 0 40 41" fill="none"><path d="M5.92538 13.3699H13.0451C13.0233 13.5225 13.0048 13.676 12.993 13.8315V13.8316C12.9708 14.1287 13.0737 14.4237 13.2755 14.6412C13.4772 14.8586 13.7637 14.9833 14.0615 14.9833H25.9385C26.2364 14.9833 26.523 14.8585 26.7248 14.641C26.9265 14.4235 27.0294 14.1284 27.007 13.8315C26.9954 13.676 26.9767 13.5224 26.955 13.3699H34.0747C34.3574 13.3699 34.6295 13.2515 34.8211 13.045C35.0127 12.8385 35.1105 12.5583 35.0894 12.2763C34.9065 9.83756 33.312 7.79654 31.1493 6.93428C31.9851 6.26178 32.5214 5.23147 32.5214 4.07764C32.5215 2.05615 30.8771 0.411621 28.8557 0.411621C26.8343 0.411621 25.1898 2.05615 25.1898 4.07756C25.1898 5.23107 25.7258 6.26123 26.5613 6.93373C25.6269 7.30498 24.7857 7.90037 24.1173 8.67811C23.6036 8.30428 23.0387 7.99873 22.4363 7.77358C23.4363 7.02826 24.0852 5.83686 24.0852 4.49662C24.0851 2.24412 22.2526 0.411621 20.0001 0.411621C17.7476 0.411621 15.9151 2.24412 15.9151 4.49662C15.9151 5.83686 16.564 7.02826 17.564 7.77358C16.9616 7.99873 16.3968 8.30436 15.8831 8.67811C15.2146 7.90037 14.3736 7.30498 13.439 6.93373C14.2745 6.26123 14.8106 5.23107 14.8106 4.07756C14.8105 2.05615 13.166 0.411621 11.1446 0.411621C9.12319 0.411621 7.47874 2.05615 7.47874 4.07756C7.47874 5.23131 8.01507 6.2617 8.85085 6.9342C6.68803 7.79647 5.09366 9.83748 4.91077 12.2761C4.8896 12.558 4.98725 12.8383 5.17881 13.0447C5.37038 13.2514 5.64249 13.3699 5.92538 13.3699ZM26.4398 4.07756C26.4398 2.74545 27.5235 1.66162 28.8557 1.66162C30.1879 1.66162 31.2716 2.74545 31.2716 4.07756C31.2716 5.40943 30.1883 6.49303 28.8565 6.4935C28.8562 6.4935 28.856 6.4935 28.8557 6.4935C28.8554 6.4935 28.8551 6.4935 28.8548 6.4935C27.523 6.49295 26.4398 5.40943 26.4398 4.07756ZM28.8548 7.7435H28.8557H28.8565C31.374 7.74389 33.5064 9.64654 33.818 12.1199H26.6579C26.3218 11.1282 25.7697 10.2367 25.0598 9.49904C26.0083 8.39186 27.3918 7.74373 28.8548 7.7435ZM17.1651 4.49662C17.1651 2.93334 18.4369 1.66162 20.0001 1.66162C21.5634 1.66162 22.8351 2.93334 22.8351 4.49662C22.8351 6.05982 21.5634 7.33154 20.0001 7.33154C18.4369 7.33154 17.1651 6.05975 17.1651 4.49662ZM25.7431 13.7333H14.2572C14.573 10.829 17.059 8.58154 20.0001 8.58154C22.9412 8.58154 25.4273 10.829 25.7431 13.7333ZM8.72874 4.07756C8.72874 2.74545 9.81249 1.66162 11.1447 1.66162C12.4769 1.66162 13.5606 2.74545 13.5606 4.07756C13.5606 5.40936 12.4773 6.49295 11.1456 6.4935C11.1453 6.4935 11.145 6.4935 11.1447 6.4935C11.1444 6.4935 11.1442 6.4935 11.1439 6.4935C9.81202 6.49311 8.72874 5.40943 8.72874 4.07756ZM11.1439 7.7435H11.1447H11.1456C12.6086 7.74373 13.9922 8.39186 14.9407 9.49904C14.2308 10.2367 13.6787 11.1282 13.3426 12.1199H6.18241C6.49397 9.64654 8.62631 7.74389 11.1439 7.7435ZM39.4022 30.1537L36.7116 16.648C36.6433 16.3046 36.4445 16.0079 36.1522 15.8126C35.8599 15.6175 35.5098 15.5476 35.1661 15.616L31.7039 16.3058C31.3605 16.3742 31.0637 16.5729 30.8685 16.8652C30.6733 17.1576 30.6034 17.5078 30.6719 17.8512L30.7023 18.0041C28.634 18.6874 26.1211 18.8785 22.9958 16.3001C21.5602 15.1158 19.6893 15.077 18.3401 16.2034L16.9436 17.3695H9.33319C9.24225 16.8507 8.84335 16.4147 8.29655 16.3058L4.83428 15.616C4.49085 15.5475 4.14053 15.6174 3.84827 15.8126C3.55592 16.0079 3.35717 16.3046 3.28881 16.648L0.598112 30.1537C0.529674 30.4972 0.599518 30.8473 0.794752 31.1397C0.989908 31.4321 1.28663 31.6308 1.63006 31.6992L5.09233 32.389C5.17842 32.4062 5.26483 32.4146 5.35077 32.4146C5.60764 32.4146 5.85936 32.3387 6.07842 32.1924C6.37077 31.9972 6.56952 31.7005 6.63788 31.357L6.64842 31.3042L14.8398 39.4955C15.3473 40.003 16.014 40.2567 16.6806 40.2566C17.3473 40.2566 18.0138 40.0029 18.5213 39.4955C18.8639 39.153 19.0989 38.7306 19.2094 38.2696L20.3306 39.3908C21.3457 40.4057 22.9973 40.4055 24.0122 39.3907C24.3625 39.0403 24.592 38.6139 24.7005 38.1641C25.1851 38.6258 25.8198 38.8792 26.4951 38.8791C27.192 38.8791 27.8458 38.6091 28.3359 38.119C28.8953 37.5595 29.1463 36.8067 29.0891 36.0737C29.1565 36.0789 29.2244 36.0815 29.2928 36.0815C29.9896 36.0815 30.6433 35.8115 31.1336 35.3212C31.818 34.6369 32.0533 33.6155 31.7748 32.7069L33.323 31.1587L33.3625 31.357C33.4308 31.7005 33.6296 31.9972 33.9219 32.1924C34.1411 32.3387 34.3926 32.4146 34.6496 32.4146C34.7355 32.4146 34.8219 32.4062 34.908 32.389L38.3702 31.6992C38.7137 31.6308 39.0104 31.4321 39.2056 31.1397C39.4008 30.8473 39.4706 30.4972 39.4022 30.1537ZM5.38436 31.1528C5.37397 31.1597 5.3571 31.1671 5.33663 31.163L1.87444 30.4733C1.85381 30.4691 1.84124 30.4559 1.83428 30.4455C1.82733 30.4351 1.81991 30.4185 1.82405 30.398L4.5146 16.8922C4.51874 16.8716 4.53194 16.8591 4.54225 16.8522C4.55053 16.8466 4.56303 16.8408 4.57819 16.8408C4.58194 16.8408 4.58592 16.8412 4.58991 16.8419L8.0521 17.5317C8.08561 17.5383 8.10913 17.5737 8.10256 17.607L5.41202 31.1128C5.40796 31.1333 5.39475 31.1458 5.38436 31.1528ZM30.2496 34.4372C29.9954 34.6913 29.6555 34.8313 29.2926 34.8313C28.9296 34.8313 28.5898 34.6914 28.3358 34.4373L22.4455 28.547C22.2012 28.3029 21.8056 28.303 21.5615 28.547C21.3175 28.7911 21.3175 29.1868 21.5615 29.4308L27.4519 35.3212C27.9795 35.8487 27.9795 36.7073 27.4519 37.2349C27.1978 37.489 26.8579 37.6289 26.4949 37.6289C26.1319 37.6289 25.7921 37.489 25.5381 37.235L19.314 31.0109C19.0699 30.7668 18.6743 30.7669 18.4301 31.0109C18.1861 31.255 18.1861 31.6507 18.4301 31.8947L23.1282 36.5928L23.1306 36.5952C23.6558 37.123 23.655 37.9797 23.1283 38.5065C22.6005 39.034 21.742 39.0342 21.2144 38.5066L16.1828 33.475C15.9387 33.2309 15.5431 33.2309 15.2989 33.475C15.0548 33.719 15.0548 34.1147 15.2989 34.3588L17.6376 36.6976C17.6378 36.6977 17.638 36.6978 17.638 36.698C17.8919 36.952 18.0317 37.2916 18.0317 37.6544C18.0317 38.0174 17.8917 38.3572 17.6376 38.6114C17.1101 39.139 16.2515 39.139 15.7239 38.6114L6.9421 29.83L9.17538 18.6195H15.4462L13.6974 20.0797C12.9209 20.7279 12.5875 21.6123 12.7825 22.5062L14.1908 28.9594C14.2268 29.1242 14.3278 29.2675 14.4709 29.3566C14.6141 29.4458 14.7873 29.4734 14.951 29.433C16.647 29.0151 17.7813 28.1972 18.4187 26.9328C18.969 25.841 19.078 24.6005 19.1937 23.2871C19.2083 23.1205 19.223 22.953 19.2388 22.7851C19.24 22.7767 19.2412 22.77 19.2425 22.7647C19.4659 22.6877 20.4962 22.9117 22.0446 24.3187L30.523 32.9208C30.7519 33.429 30.6451 34.0417 30.2496 34.4372ZM31.0445 31.6691L22.923 23.4292C22.9151 23.4212 22.9071 23.4135 22.8987 23.4059C21.2708 21.9228 19.7359 21.2472 18.7929 21.599C18.3458 21.7658 18.0556 22.1465 17.9969 22.6437C17.9962 22.6487 17.9957 22.6536 17.9952 22.6586C17.9789 22.8322 17.9637 23.0055 17.9484 23.1776C17.7444 25.4972 17.5927 27.2218 15.269 28.0372L14.0038 22.2397C13.8773 21.6602 14.2594 21.2389 14.4985 21.0393L19.1411 17.163C20.014 16.4342 21.2434 16.475 22.2002 17.2644C25.7251 20.1725 28.6776 19.9581 30.948 19.2384L33.0291 29.6847L31.0445 31.6691ZM38.166 30.4455C38.1591 30.4559 38.1465 30.4692 38.1258 30.4733L34.6636 31.163C34.643 31.1671 34.6263 31.1597 34.6159 31.1528C34.6055 31.1458 34.5923 31.1333 34.5883 31.1127L31.8976 17.6069C31.8935 17.5865 31.9009 17.5697 31.9079 17.5594C31.9148 17.5491 31.9274 17.5358 31.948 17.5317L35.4102 16.8419C35.4144 16.8412 35.4183 16.8408 35.422 16.8408C35.4372 16.8408 35.4497 16.8466 35.458 16.8522C35.4683 16.8591 35.4815 16.8717 35.4856 16.8922L38.1762 30.3981C38.1804 30.4185 38.173 30.4351 38.166 30.4455Z" fill="currentcolor"></path></svg>