<svg xmlns="http://www.w3.org/2000/svg" width="40" height="40" viewBox="0 0 40 40" fill="none"><path d="M38.4318 17.1485L36.5577 16.4251C36.139 14.642 35.4382 12.9511 34.4711 11.3902L35.2853 9.55175C35.5662 8.91628 35.3976 8.15581 34.8562 7.61433L32.719 5.4773C32.1852 4.94331 31.4096 4.77019 30.7811 5.04815L28.9431 5.86237C27.3822 4.89503 25.691 4.19394 23.9079 3.77448L23.1847 1.90136C22.9339 1.25339 22.277 0.834717 21.5115 0.834717H18.4889C17.723 0.834717 17.066 1.25331 16.8151 1.90175L16.0922 3.7744C14.309 4.19362 12.6179 4.89472 11.0563 5.86214L9.21825 5.04792C8.59185 4.77104 7.81489 4.94362 7.28083 5.47737L5.1438 7.61417C4.60192 8.15589 4.43349 8.91659 4.71458 9.55222L5.52864 11.39C4.56122 12.9514 3.86013 14.6425 3.44106 16.4257L1.56763 17.1487C0.919893 17.3994 0.501221 18.0565 0.501221 18.8223V21.8448C0.501221 22.6106 0.919893 23.2675 1.56825 23.5185L3.442 24.2418C3.86099 26.0252 4.56169 27.716 5.52911 29.2767L4.71458 31.1148C4.43349 31.7503 4.602 32.5109 5.1438 33.0525L7.28083 35.1896C7.81458 35.7236 8.59083 35.896 9.21888 35.6187L11.0572 34.8042C12.6186 35.7721 14.3093 36.4731 16.0922 36.8922L16.8153 38.7657C17.066 39.4135 17.723 39.8321 18.4889 39.8321H21.5115C22.277 39.8321 22.9339 39.4136 23.1849 38.7652L23.9086 36.8913C25.6916 36.4721 27.3826 35.7713 28.9431 34.8043L30.7813 35.6189C31.4087 35.896 32.1856 35.7235 32.7189 35.1896L34.8561 33.0525C35.3975 32.511 35.5661 31.7505 35.285 31.1144L34.471 29.2767C35.4384 27.7157 36.1395 26.0247 36.5589 24.2414L38.4323 23.5183C39.0802 23.2675 39.4986 22.6107 39.4986 21.8449V18.8224C39.4986 18.0564 39.0803 17.3994 38.4318 17.1485ZM38.2398 21.8448C38.2398 22.0828 38.1345 22.2838 37.9786 22.3442L35.7918 23.1879C35.5936 23.2645 35.4473 23.4357 35.4033 23.6435C35.0031 25.5115 34.2725 27.2739 33.2311 28.882C33.1154 29.0603 33.098 29.2847 33.1838 29.4791L34.1343 31.6235C34.202 31.7774 34.1344 31.9939 33.9661 32.1625L31.8289 34.2996C31.6624 34.4657 31.4418 34.5347 31.291 34.4678L29.1459 33.5172C28.9515 33.4313 28.7274 33.4488 28.5483 33.5645C26.9411 34.6054 25.1788 35.3359 23.311 35.7355C23.103 35.7801 22.9318 35.9262 22.8554 36.1244L22.0108 38.3115C21.9502 38.4681 21.7493 38.5735 21.5115 38.5735H18.4889C18.2507 38.5735 18.0499 38.4682 17.9894 38.3121L17.1454 36.1254C17.0689 35.9271 16.8976 35.781 16.6898 35.7367C14.8228 35.3371 13.0604 34.6064 11.4519 33.5646C11.3483 33.4975 11.2294 33.4634 11.1095 33.4634C11.0233 33.4634 10.9361 33.4813 10.855 33.5173L8.70958 34.4678C8.55591 34.5349 8.33685 34.4658 8.17067 34.2998L6.0338 32.1625C5.86552 31.994 5.79778 31.7777 5.86552 31.6244L6.81583 29.4792C6.90208 29.2848 6.88435 29.0605 6.7688 28.8821C5.72802 27.2745 4.99739 25.5122 4.59778 23.6439C4.55341 23.4364 4.40724 23.2651 4.20896 23.1886L2.02192 22.3444C1.86521 22.2837 1.75989 22.0829 1.75989 21.8449V18.8224C1.75989 18.5841 1.86521 18.3835 2.0213 18.3229L4.20786 17.479C4.40606 17.4025 4.55239 17.2312 4.59669 17.0234C4.99599 15.1558 5.72708 13.3933 6.76864 11.7846C6.88419 11.6064 6.90185 11.3819 6.81583 11.1878L5.86583 9.04269C5.79778 8.88925 5.86505 8.673 6.0338 8.5044L8.17067 6.36753C8.33685 6.20136 8.55856 6.1323 8.70919 6.19909L10.854 7.14933C11.0473 7.23534 11.2725 7.21753 11.4508 7.10222C13.0598 6.06081 14.8225 5.33019 16.6899 4.93042C16.8977 4.88597 17.069 4.73972 17.1455 4.54151L17.9895 2.35565C18.0499 2.19894 18.2508 2.09362 18.489 2.09362H21.5115C21.7494 2.09362 21.9502 2.19894 22.0108 2.35519L22.8545 4.54151C22.9311 4.73972 23.1025 4.88597 23.3101 4.93042C25.1779 5.33019 26.9404 6.06104 28.5483 7.10222C28.727 7.21784 28.9519 7.23565 29.1456 7.1494L31.2902 6.19948C31.4436 6.13104 31.6625 6.20128 31.829 6.3673L33.9662 8.50433C34.1345 8.67269 34.2022 8.8894 34.1345 9.04237L33.1839 11.1879C33.0981 11.3821 33.1155 11.6066 33.2311 11.785C34.2721 13.3927 35.0024 15.1549 35.4017 17.0228C35.4461 17.2306 35.5924 17.4019 35.7907 17.4784L37.9779 18.3225C38.1346 18.383 38.2399 18.5839 38.2399 18.8222L38.2398 21.8448ZM24.5686 11.0676L24.8078 13.4642C24.8422 13.8099 24.59 14.1184 24.2441 14.1529C24.2228 14.155 24.2017 14.156 24.1809 14.156C23.8612 14.156 23.5876 13.9138 23.5553 13.589L23.479 12.8266C20.3517 16.8343 16.1903 19.852 11.3868 21.585C11.3165 21.6104 11.2443 21.6224 11.1734 21.6224C10.9157 21.6224 10.6741 21.4627 10.5814 21.2064C10.4634 20.8796 10.6331 20.5187 10.9598 20.4007C15.5979 18.7275 19.6059 15.7959 22.6003 11.9016L21.6115 12.0038C21.2675 12.0405 20.9565 11.7882 20.9204 11.4426C20.885 11.0968 21.1364 10.7873 21.4822 10.7517L23.8775 10.5039C24.0439 10.487 24.2105 10.5365 24.3404 10.6422C24.4698 10.7479 24.5521 10.9008 24.5686 11.0676ZM20.0015 7.04831C12.6746 7.04831 6.71372 13.009 6.71372 20.3358C6.71372 27.6627 12.6746 33.6235 20.0015 33.6235C27.328 33.6235 33.289 27.6626 33.289 20.3358C33.2891 13.009 27.3281 7.04831 20.0015 7.04831ZM15.1723 31.3493C14.4615 31.0364 13.7867 30.6571 13.1558 30.2186C13.1561 30.2075 13.1589 30.1969 13.1589 30.1858V23.8853H15.1722V31.3493H15.1723ZM18.9929 32.3192V20.14H21.0066V32.3196C20.6749 32.347 20.3401 32.3647 20.0015 32.3647C19.6613 32.3647 19.3259 32.347 18.9929 32.3192ZM26.8406 30.2233C26.2103 30.6606 25.5368 31.0387 24.8273 31.3508V16.3946H26.8406V30.2233ZM28.0994 29.2222V15.7652C28.0994 15.4174 27.8178 15.1357 27.4701 15.1357H24.1979C23.8501 15.1357 23.5684 15.4174 23.5684 15.7652V31.8245C23.1439 31.9567 22.7084 32.0632 22.2654 32.1478V19.5105C22.2654 19.1629 21.9836 18.8811 21.6361 18.8811H18.3634C18.0157 18.8811 17.734 19.1628 17.734 19.5105V32.1474C17.2908 32.0624 16.8555 31.9559 16.431 31.8238V23.256C16.431 22.9082 16.1493 22.6266 15.8015 22.6266H12.5294C12.1817 22.6266 11.9 22.9082 11.9 23.256V29.2192C9.48833 27.018 7.97239 23.8508 7.97239 20.3358C7.97239 13.7033 13.3685 8.30714 20.0014 8.30714C26.634 8.30714 32.03 13.7033 32.03 20.3358C32.0302 23.8523 30.513 27.0209 28.0994 29.2222Z" fill="currentcolor"></path></svg>