<svg xmlns="http://www.w3.org/2000/svg" width="4" height="9" viewBox="0 0 4 9" fill="none"><path d="M0.4125 7.34082H0.725V5.0752H0.4125C0.225 5.0752 0.0999999 4.93457 0.0999999 4.7627V4.0127C0.0999999 3.84082 0.225 3.7002 0.4125 3.7002H2.1625C2.33437 3.7002 2.475 3.84082 2.475 4.0127V7.34082H2.7875C2.95937 7.34082 3.1 7.48145 3.1 7.65332V8.3877C3.1 8.5752 2.95937 8.7002 2.7875 8.7002H0.4125C0.225 8.7002 0.0999999 8.5752 0.0999999 8.3877V7.65332C0.0999999 7.48145 0.225 7.34082 0.4125 7.34082ZM1.6 0.700195C2.20937 0.700195 2.725 1.21582 2.725 1.8252C2.725 2.4502 2.20937 2.9502 1.6 2.9502C0.975 2.9502 0.475 2.4502 0.475 1.8252C0.475 1.21582 0.975 0.700195 1.6 0.700195Z" fill="currentcolor"></path></svg>