<svg xmlns="http://www.w3.org/2000/svg" width="14" height="14" viewBox="0 0 14 14" fill="none"><path fill-rule="evenodd" clip-rule="evenodd" d="M5.50009 5.23175H7.66659V6.31092C7.97867 5.69025 8.779 5.13259 9.98125 5.13259C12.286 5.13259 12.8332 6.36809 12.8332 8.63492V12.8332H10.4998V9.15117C10.4998 7.86025 10.1878 7.13225 9.39326 7.13225C8.29134 7.13225 7.83342 7.91684 7.83342 9.15059V12.8332H5.50009V5.23175ZM1.499 12.734H3.83234V5.13259H1.499V12.734ZM4.16659 2.654C4.16667 2.84958 4.12789 3.04322 4.05248 3.22368C3.97707 3.40414 3.86655 3.5678 3.72734 3.70517C3.44524 3.98553 3.06339 4.14247 2.66567 4.1415C2.26865 4.14124 1.88769 3.9847 1.60517 3.70575C1.46646 3.56792 1.35631 3.40407 1.28104 3.22359C1.20576 3.04311 1.16684 2.84955 1.1665 2.654C1.1665 2.25909 1.324 1.88109 1.60575 1.60225C1.88802 1.32293 2.26914 1.16633 2.66625 1.1665C3.06409 1.1665 3.44559 1.32342 3.72734 1.60225C4.0085 1.88109 4.16659 2.25909 4.16659 2.654Z" fill="currentcolor"></path></svg>