<svg xmlns="http://www.w3.org/2000/svg" width="17" height="16" viewBox="0 0 17 16" fill="none"><path d="M15.7681 0.0982143C15.9645 0.241071 16.0449 0.431548 16.0092 0.669643L13.7234 14.3839C13.6937 14.5565 13.5984 14.6905 13.4377 14.7857C13.3544 14.8333 13.2621 14.8571 13.1609 14.8571C13.0955 14.8571 13.024 14.8423 12.9467 14.8125L8.90201 13.1607L6.7413 15.7946C6.63415 15.9315 6.48832 16 6.3038 16C6.22642 16 6.16094 15.9881 6.10737 15.9643C5.99427 15.9226 5.9035 15.8527 5.83505 15.7545C5.76659 15.6563 5.73237 15.5476 5.73237 15.4286V12.3125L13.4467 2.85714L3.90201 11.1161L0.375225 9.66964C0.154987 9.58631 0.0359391 9.42262 0.0180819 9.17857C0.00617714 8.94048 0.101415 8.76488 0.303796 8.65179L15.1609 0.0803571C15.2502 0.0267857 15.3455 0 15.4467 0C15.5657 0 15.6728 0.0327381 15.7681 0.0982143Z" fill="currentcolor"></path></svg>