<svg xmlns="http://www.w3.org/2000/svg" width="140" height="48" viewBox="0 0 140 48" fill="none"><path d="M48.2364 31.1343C46.9504 31.1343 45.9292 30.6653 45.1727 29.7273H45.0138C45.0744 30.1811 45.1122 30.5442 45.1273 30.8166C45.1576 31.0738 45.1727 31.2402 45.1727 31.3158V35.7638H42.1544V19.9009H44.6281L45.0365 21.3306H45.1727C45.8989 20.2413 46.9428 19.6966 48.3045 19.6966C49.6358 19.6966 50.6646 20.1883 51.3908 21.1717C52.117 22.1551 52.4801 23.5621 52.4801 25.3928C52.4801 27.2234 52.1019 28.638 51.3454 29.6365C50.6041 30.635 49.5677 31.1343 48.2364 31.1343ZM47.3286 22.1022C46.5873 22.1022 46.0426 22.3215 45.6947 22.7603C45.3467 23.199 45.1727 23.963 45.1727 25.0523V25.3701C45.1727 26.5804 45.3467 27.4352 45.6947 27.9345C46.0578 28.4337 46.6175 28.6834 47.374 28.6834C48.7205 28.6834 49.3938 27.5714 49.3938 25.3474C49.3938 23.1839 48.7054 22.1022 47.3286 22.1022ZM62.0672 30.93L61.6814 29.523H61.5225C61.2048 30.0223 60.7509 30.4157 60.1609 30.7031C59.586 30.9906 58.9127 31.1343 58.1412 31.1343C55.5238 31.1343 54.2151 29.7878 54.2151 27.0948V19.9009H57.2107V26.3459C57.2107 27.9345 57.8083 28.7287 59.0035 28.7287C59.8659 28.7287 60.4786 28.4489 60.8417 27.8891C61.2048 27.3142 61.3864 26.3837 61.3864 25.0977V19.9009H64.4046V30.93H62.0672ZM73.0279 19.6966C73.6029 19.6966 73.9433 19.7269 74.0492 19.7874L73.8222 22.6014C73.6407 22.5712 73.4743 22.5485 73.323 22.5333C73.1868 22.5031 73.0582 22.4879 72.9372 22.4879C71.9689 22.4879 71.2124 22.7376 70.6678 23.2368C70.1383 23.721 69.8735 24.4169 69.8735 25.3247V30.93H66.8552V19.9009H69.1246L69.6012 21.7617H69.7373C70.0702 21.1263 70.5241 20.6271 71.099 20.264C71.689 19.8857 72.332 19.6966 73.0279 19.6966ZM81.4314 31.1343C80.1454 31.1343 79.1242 30.6653 78.3677 29.7273H78.2089C78.2694 30.1811 78.3072 30.5442 78.3223 30.8166C78.3526 31.0738 78.3677 31.2402 78.3677 31.3158V35.7638H75.3495V19.9009H77.8231L78.2316 21.3306H78.3677C79.0939 20.2413 80.1378 19.6966 81.4995 19.6966C82.8308 19.6966 83.8596 20.1883 84.5858 21.1717C85.312 22.1551 85.6751 23.5621 85.6751 25.3928C85.6751 27.2234 85.2969 28.638 84.5404 29.6365C83.7991 30.635 82.7628 31.1343 81.4314 31.1343ZM80.5236 22.1022C79.7823 22.1022 79.2377 22.3215 78.8897 22.7603C78.5417 23.199 78.3677 23.963 78.3677 25.0523V25.3701C78.3677 26.5804 78.5417 27.4352 78.8897 27.9345C79.2528 28.4337 79.8126 28.6834 80.569 28.6834C81.9155 28.6834 82.5888 27.5714 82.5888 25.3474C82.5888 23.1839 81.9004 22.1022 80.5236 22.1022ZM90.4965 30.93H87.4782V15.5663H90.4965V30.93ZM97.5426 21.8298C96.892 21.8298 96.3852 22.0341 96.0221 22.4426C95.6741 22.851 95.4774 23.426 95.4321 24.1673H99.6304C99.6153 23.426 99.4186 22.851 99.0404 22.4426C98.6773 22.0341 98.178 21.8298 97.5426 21.8298ZM97.9738 31.1343C96.1885 31.1343 94.7966 30.6502 93.7981 29.6819C92.7996 28.7136 92.3003 27.3142 92.3003 25.4835C92.3003 23.5621 92.7542 22.1173 93.6619 21.149C94.5848 20.1807 95.8708 19.6966 97.5199 19.6966C99.1236 19.6966 100.349 20.1278 101.196 20.9902C102.044 21.8525 102.467 23.0855 102.467 24.6892V26.1643H95.364C95.3942 27.0418 95.6363 27.7151 96.0902 28.1841C96.5592 28.6531 97.2324 28.8876 98.1099 28.8876C98.7907 28.8876 99.4186 28.8195 99.9935 28.6834C100.584 28.5472 101.196 28.3203 101.832 28.0025V30.34C101.317 30.6123 100.758 30.8166 100.152 30.9527C99.5623 31.0738 98.8361 31.1343 97.9738 31.1343ZM111.893 30.93H103.179V29.1372L108.308 22.1929H103.519V19.9009H111.735V21.8525L106.765 28.638H111.893V30.93ZM117.966 21.8298C117.316 21.8298 116.809 22.0341 116.446 22.4426C116.098 22.851 115.901 23.426 115.856 24.1673H120.054C120.039 23.426 119.842 22.851 119.464 22.4426C119.101 22.0341 118.602 21.8298 117.966 21.8298ZM118.397 31.1343C116.612 31.1343 115.22 30.6502 114.222 29.6819C113.223 28.7136 112.724 27.3142 112.724 25.4835C112.724 23.5621 113.178 22.1173 114.085 21.149C115.008 20.1807 116.294 19.6966 117.943 19.6966C119.547 19.6966 120.773 20.1278 121.62 20.9902C122.467 21.8525 122.891 23.0855 122.891 24.6892V26.1643H115.788C115.818 27.0418 116.06 27.7151 116.514 28.1841C116.983 28.6531 117.656 28.8876 118.533 28.8876C119.214 28.8876 119.842 28.8195 120.417 28.6834C121.007 28.5472 121.62 28.3203 122.255 28.0025V30.34C121.741 30.6123 121.181 30.8166 120.576 30.9527C119.986 31.0738 119.26 31.1343 118.397 31.1343ZM134.859 30.93H131.84V24.485C131.84 22.8964 131.243 22.1022 130.048 22.1022C129.215 22.1022 128.61 22.3896 128.232 22.9645C127.854 23.5243 127.665 24.4472 127.665 25.7332V30.93H124.646V19.9009H126.961L127.37 21.3079H127.529C127.861 20.7783 128.323 20.3774 128.913 20.1051C129.503 19.8328 130.169 19.6966 130.91 19.6966C133.542 19.6966 134.859 21.0431 134.859 23.7361V30.93Z" fill="currentcolor"></path><path d="M34.6958 34.1226C35.3854 32.7551 34.0005 31.2657 32.585 31.8537C29.9542 32.9493 26.7366 34.694 25.3684 37.0488C22.8711 41.3481 23.0991 45.8775 26.0497 47.4031C26.0497 47.4031 19.3198 40.1387 33.7669 34.9464C34.1674 34.8021 34.4983 34.5137 34.6902 34.1337L34.6958 34.1226Z" fill="currentcolor"></path><path d="M23.6498 47.7443C23.6498 47.7443 16.9699 46.1022 17.0256 41.1234C17.0812 36.2445 22.9101 30.6028 32.7547 25.5879C33.1468 25.3882 33.4416 25.0415 33.5751 24.6227L34.0812 23.0472C34.529 21.652 33.069 20.4094 31.7563 21.0695C26.9258 23.5049 18.4272 28.5253 15.3041 34.9824C14.2168 37.2264 14.0082 39.8142 14.8592 42.158C15.9132 45.051 18.4661 47.4669 23.6498 47.7443Z" fill="currentcolor"></path><path d="M15.5517 45.8745C15.5517 45.8745 8.4018 41.6862 9.42519 35.0653C10.4319 28.5444 18.4272 22.2425 33.7392 14.5399C34.1869 14.3153 34.5067 13.902 34.6124 13.4138L35.1547 10.9091C35.4467 9.55558 34.0395 8.46551 32.7964 9.08405C27.9937 11.4722 18.608 16.5509 12.3758 22.5615C3.69362 30.9381 5.17031 41.2923 15.5517 45.8745Z" fill="currentcolor"></path><path d="M5.50951 38.5186C5.50951 38.5186 -0.277684 27.4848 12.0921 16.5065C21.0607 8.70963 26.859 6.08016 28.7334 5.36177C29.1644 5.19812 29.5037 4.85973 29.6761 4.43535L30.0655 3.46733C30.6217 2.0777 29.1867 0.724134 27.8268 1.35654C22.771 3.71696 13.6939 8.63751 7.78156 15.827C-0.7866 26.2394 4.54452 36.9348 5.50951 38.5186Z" fill="currentcolor"></path><path d="M1.48268 29.4103C1.48268 29.4103 -2.19654 12.0802 19.0501 1.09907C19.1001 1.07411 19.1446 1.03527 19.178 0.990895C19.3949 0.70243 19.1251 0.30579 18.7775 0.397322C14.2612 1.59279 -3.32839 7.70049 1.48268 29.4103Z" fill="currentcolor"></path></svg>