<svg xmlns="http://www.w3.org/2000/svg" width="146" height="36" viewBox="0 0 146 36" fill="none"><path d="M61.042 26.7434L59.6422 22.1302H52.5792L51.1794 26.7434H46.7571L53.5973 7.27261H58.5923L65.4643 26.7434H61.042ZM58.6559 18.6942L56.4607 11.6313L56.1107 10.3269C55.9622 10.8783 55.6759 11.854 55.2517 13.2538C54.8487 14.6325 54.3078 16.4459 53.6291 18.6942H58.6559ZM71.0921 26.7434L65.4608 11.9176H69.6922L72.5238 20.3804C72.6935 20.8682 72.8207 21.3667 72.9056 21.8757C73.0116 22.3635 73.0858 22.8726 73.1283 23.4028H73.2237C73.2449 22.9998 73.3085 22.5438 73.4146 22.0348C73.5206 21.5257 73.6585 20.9743 73.8282 20.3804L76.6597 11.9176H80.8911L75.2599 26.7434H71.0921ZM92.4512 26.7752L91.6558 24.7709H91.5285C91.1892 25.2163 90.8498 25.5875 90.5104 25.8844C90.1711 26.1601 89.8105 26.3934 89.4287 26.5843C89.047 26.754 88.6228 26.8707 88.1561 26.9343C87.7107 27.0191 87.2017 27.0616 86.629 27.0616C85.2079 27.0616 84.0838 26.6586 83.2566 25.8526C82.4506 25.0466 82.0476 23.8801 82.0476 22.3529C82.0476 20.7834 82.5885 19.6274 83.6702 18.8851C84.7519 18.1215 86.4169 17.7079 88.6652 17.6443L91.2104 17.5807V16.9126C91.2104 15.4279 90.4468 14.6855 88.9197 14.6855C87.7107 14.6855 86.3321 15.0355 84.7837 15.7354L83.4157 12.9993C85.1973 12.1297 87.0956 11.6949 89.1106 11.6949C91.1043 11.6949 92.6208 12.1191 93.6601 12.9675C94.7206 13.7947 95.2509 15.1097 95.2509 16.9126V26.7752H92.4512ZM91.2104 19.9032L89.6514 19.9668C87.3395 20.0516 86.1836 20.8576 86.1836 22.3847C86.1836 23.5301 86.8305 24.1028 88.1243 24.1028C89.0788 24.1028 89.8317 23.8376 90.3832 23.3074C90.9346 22.7559 91.2104 22.0348 91.2104 21.144V19.9032ZM109.716 22.3847C109.716 23.9119 109.196 25.0784 108.157 25.8844C107.117 26.6692 105.537 27.0616 103.416 27.0616C102.334 27.0616 101.412 26.9873 100.648 26.8389C99.9059 26.6904 99.1954 26.4677 98.5166 26.1707V22.8302C99.2802 23.2119 100.129 23.5195 101.062 23.7528C101.995 23.9861 102.822 24.1028 103.543 24.1028C105.007 24.1028 105.739 23.6786 105.739 22.8302C105.739 22.5969 105.686 22.3954 105.58 22.2257C105.474 22.056 105.293 21.8863 105.039 21.7166C104.784 21.547 104.455 21.3667 104.052 21.1758C103.649 20.9849 103.151 20.7516 102.557 20.4758C101.688 20.1153 100.988 19.7865 100.457 19.4896C99.9483 19.1714 99.5453 18.8427 99.2484 18.5033C98.9727 18.164 98.7818 17.7822 98.6757 17.358C98.5697 16.9338 98.506 16.4247 98.4848 15.8309C98.4848 14.4946 98.9727 13.4765 99.9483 12.7766C100.945 12.0555 102.409 11.6949 104.339 11.6949C106.184 11.6949 107.923 12.0873 109.556 12.8721L108.347 15.7672C107.605 15.4491 106.905 15.1946 106.248 15.0037C105.611 14.7916 104.964 14.6855 104.307 14.6855C103.119 14.6855 102.525 15.0037 102.525 15.64C102.525 15.8521 102.557 16.0323 102.621 16.1808C102.706 16.3293 102.854 16.4778 103.066 16.6262C103.3 16.7535 103.618 16.9126 104.021 17.1035C104.424 17.2731 104.954 17.4958 105.611 17.7716C106.46 18.1321 107.139 18.4715 107.648 18.7897C108.178 19.0866 108.581 19.4153 108.857 19.7759C109.153 20.1153 109.355 20.4971 109.461 20.9213C109.588 21.3242 109.673 21.8121 109.716 22.3847ZM122.278 26.7752L121.482 24.7709H121.355C121.016 25.2163 120.676 25.5875 120.337 25.8844C119.998 26.1601 119.637 26.3934 119.255 26.5843C118.874 26.754 118.449 26.8707 117.983 26.9343C117.537 27.0191 117.028 27.0616 116.456 27.0616C115.035 27.0616 113.91 26.6586 113.083 25.8526C112.277 25.0466 111.874 23.8801 111.874 22.3529C111.874 20.7834 112.415 19.6274 113.497 18.8851C114.579 18.1215 116.243 17.7079 118.492 17.6443L121.037 17.5807V16.9126C121.037 15.4279 120.273 14.6855 118.746 14.6855C117.537 14.6855 116.159 15.0355 114.61 15.7354L113.242 12.9993C115.024 12.1297 116.922 11.6949 118.937 11.6949C120.931 11.6949 122.447 12.1191 123.487 12.9675C124.547 13.7947 125.077 15.1097 125.077 16.9126V26.7752H122.278ZM121.037 19.9032L119.478 19.9668C117.166 20.0516 116.01 20.8576 116.01 22.3847C116.01 23.5301 116.657 24.1028 117.951 24.1028C118.905 24.1028 119.658 23.8376 120.21 23.3074C120.761 22.7559 121.037 22.0348 121.037 21.144V19.9032ZM142.883 26.7434H138.842V18.1215C138.842 15.9793 138.047 14.9082 136.456 14.9082C135.332 14.9082 134.515 15.2794 134.006 16.0217C133.518 16.7641 133.275 18.0155 133.275 19.7759V26.7434H129.234V11.9176H132.32L132.829 13.8265H133.084C133.529 13.1054 134.144 12.5645 134.929 12.2039C135.714 11.8434 136.615 11.6631 137.633 11.6631C139.436 11.6631 140.762 12.1191 141.61 13.0311C142.458 13.922 142.883 15.2688 142.883 17.0716V26.7434Z" fill="currentcolor"></path><path d="M7.34131 11.0341L0.497756 12.9624C4.13998 20.0042 5.34219 25.1231 7.34131 35.5011V11.0341V11.0341Z" fill="currentcolor"></path><path d="M30.3093 16.8571H34.7539V30.7978H30.3093V16.8571Z" fill="currentcolor"></path><path d="M24.383 8.31018H28.8276V30.8004H24.383V8.31018Z" fill="currentcolor"></path><path d="M18.4511 13.7281H22.8984V30.7974H18.4511V13.7281Z" fill="currentcolor"></path><path d="M12.5248 6.22266H16.9722V30.7976H12.5248V6.22266Z" fill="currentcolor"></path><path d="M7.34131 5.96912L1.72187 7.33649C4.6603 14.6912 5.72832 20.6839 7.34131 31.5231V5.96912V5.96912Z" fill="currentcolor"></path><path d="M29.3344 0.354126L30.7694 1.68914H8.69695V34.4414H38.6098V10.6189L39.9653 12.0321V35.7737H7.34138V0.354126H29.3344Z" fill="currentcolor"></path></svg>