<svg xmlns="http://www.w3.org/2000/svg" width="110" height="36" viewBox="0 0 110 36" fill="none"><path d="M4.11292 26.4789C3.35515 26.4789 2.70788 26.2421 2.17112 25.7685C1.66594 25.2633 1.41335 24.6634 1.41335 23.9687C1.41335 23.6846 1.46071 23.4162 1.55543 23.1636C1.68172 22.911 1.80802 22.69 1.93432 22.5006L10.0804 11.9391C10.2067 11.8128 10.2699 11.6707 10.2699 11.5128C10.2699 11.2286 10.0646 11.0866 9.65416 11.0866H3.87612C3.30779 11.0866 2.83418 10.9129 2.45529 10.5656C2.10797 10.2183 1.93432 9.77624 1.93432 9.23948C1.93432 8.608 2.10797 8.1186 2.45529 7.77129C2.8026 7.42397 3.27621 7.25031 3.87612 7.25031H13.443C14.2324 7.25031 14.8797 7.48712 15.3848 7.96073C15.89 8.40277 16.1426 8.98689 16.1426 9.71309C16.1426 10.3446 15.9216 10.9287 15.4796 11.4654L7.38083 21.7901C7.25454 21.9164 7.19139 22.0585 7.19139 22.2164C7.19139 22.5006 7.39662 22.6426 7.80708 22.6426H15.1954C15.7322 22.6426 16.1742 22.8321 16.5215 23.211C16.8688 23.5583 17.0425 24.0003 17.0425 24.5371C17.0425 25.1054 16.8688 25.579 16.5215 25.9579C16.1742 26.3052 15.7322 26.4789 15.1954 26.4789H4.11292ZM20.7655 26.9525C20.1972 26.9525 19.7078 26.763 19.2973 26.3842C18.8868 25.9737 18.6816 25.5001 18.6816 24.9633V10.3761C18.6816 9.4605 18.9658 8.71851 19.5341 8.15017C20.134 7.58184 20.9234 7.29768 21.9022 7.29768H26.6383C28.5643 7.29768 30.1114 7.86601 31.2796 9.00267C32.4794 10.1393 33.0794 11.5602 33.0794 13.2652C33.0794 14.2755 32.811 15.2228 32.2742 16.1068C31.7375 16.9909 30.9639 17.7013 29.9535 18.2381C30.3956 18.4591 30.7902 18.759 31.1376 19.1379C31.5164 19.5168 31.8164 19.9746 32.0374 20.5114L33.6003 24.1108C33.7582 24.4897 33.8371 24.8055 33.8371 25.0581C33.8371 25.6264 33.6161 26.1 33.1741 26.4789C32.732 26.8262 32.2426 26.9999 31.7059 26.9999C31.3586 26.9999 31.0113 26.9051 30.6639 26.7157C30.3482 26.5262 30.0956 26.2263 29.9062 25.8158L28.1065 21.506C27.7907 20.7482 27.3645 20.2114 26.8277 19.8957C26.3225 19.5484 25.7226 19.3747 25.028 19.3747H23.7966C23.1651 19.3747 22.8494 19.6905 22.8494 20.322V24.9633C22.8494 25.5001 22.6441 25.9737 22.2337 26.3842C21.8232 26.763 21.3338 26.9525 20.7655 26.9525ZM23.5598 15.8227H26.4488C27.2382 15.8227 27.8539 15.6016 28.2959 15.1596C28.7695 14.7176 29.0063 14.1492 29.0063 13.4546C29.0063 12.7284 28.7695 12.1601 28.2959 11.7496C27.8539 11.3076 27.2382 11.0866 26.4488 11.0866H23.5598C23.0862 11.0866 22.8494 11.3234 22.8494 11.797V15.1122C22.8494 15.5859 23.0862 15.8227 23.5598 15.8227ZM37.8573 26.9525C37.2258 26.9525 36.7048 26.7788 36.2944 26.4315C35.9155 26.0526 35.726 25.5632 35.726 24.9633V9.571C35.726 8.75008 35.9786 8.13439 36.4838 7.72392C36.989 7.28189 37.5573 7.06087 38.1888 7.06087C38.6308 7.06087 39.0571 7.17138 39.4675 7.3924C39.878 7.58184 40.2253 7.89758 40.5095 8.33962L47.3295 18.617C47.4558 18.838 47.6452 18.9485 47.8978 18.9485C48.2135 18.9485 48.3714 18.759 48.3714 18.3802L48.0399 9.05003C48.0083 8.41855 48.1978 7.92916 48.6082 7.58184C49.0187 7.23453 49.5396 7.06087 50.1711 7.06087C50.8026 7.06087 51.3078 7.23453 51.6867 7.58184C52.0971 7.92916 52.3024 8.41855 52.3024 9.05003V24.395C52.3024 25.1843 52.0498 25.8 51.5446 26.2421C51.0394 26.6841 50.4711 26.9051 49.8396 26.9051C49.4291 26.9051 49.0187 26.7946 48.6082 26.5736C48.1978 26.3842 47.8504 26.0684 47.5663 25.6264L40.7936 15.0175C40.6674 14.7965 40.4779 14.686 40.2253 14.686C39.878 14.686 39.7043 14.8912 39.7043 15.3017L39.9885 24.9633C40.0201 25.5632 39.8306 26.0526 39.4202 26.4315C39.0097 26.7788 38.4887 26.9525 37.8573 26.9525ZM58.8585 26.4789C57.8797 26.4789 57.0904 26.2105 56.4905 25.6737C55.9222 25.1054 55.638 24.3634 55.638 23.4478V10.2341C55.638 9.31841 55.9064 8.608 56.4431 8.10281C56.9799 7.56605 57.6903 7.29768 58.5744 7.29768H62.8842C64.9681 7.29768 66.7363 7.72392 68.1887 8.57642C69.6411 9.39735 70.7461 10.534 71.5039 11.9864C72.2933 13.4072 72.688 15.0333 72.688 16.8646C72.688 18.759 72.2933 20.4325 71.5039 21.8849C70.7146 23.3373 69.6411 24.4739 68.2834 25.2949C66.9257 26.0842 65.4101 26.4789 63.7367 26.4789H58.8585ZM61.0845 22.69H62.9316C64.7313 22.69 66.1048 22.1848 67.052 21.1744C67.9992 20.1325 68.457 18.6959 68.4255 16.8646C68.3939 14.9702 67.9045 13.5335 66.9573 12.5547C66.01 11.576 64.6524 11.0866 62.8842 11.0866H61.0845C60.2952 11.0866 59.9005 11.4812 59.9005 12.2706V21.506C59.9005 22.2953 60.2952 22.69 61.0845 22.69Z" fill="currentcolor"></path><path d="M109.439 14.4967C109.392 14.0573 108.888 13.7233 108.453 13.7233C107.045 13.7233 105.796 12.8797 105.275 11.5791C104.741 10.2433 105.086 8.68784 106.132 7.70798C106.464 7.4004 106.502 6.8863 106.227 6.526C105.508 5.59447 104.69 4.75083 103.794 4.02142C103.445 3.73581 102.933 3.77536 102.627 4.11809C101.714 5.15068 100.069 5.53735 98.7992 4.99689C97.4773 4.43006 96.6463 3.06353 96.7281 1.59594C96.7539 1.13458 96.4267 0.739117 95.9746 0.686389C95.4062 0.616085 94.8292 0.585327 94.2565 0.585327H94.2393C93.6666 0.585327 93.094 0.611691 92.5213 0.677601C92.0778 0.725935 91.7462 1.117 91.7634 1.56958C91.8108 3.01959 90.9712 4.36415 89.6622 4.90901C88.4092 5.43189 86.7772 5.04962 85.8644 4.02582C85.563 3.68748 85.0592 3.64793 84.7061 3.92915C83.789 4.66295 82.9493 5.50659 82.2216 6.43372C81.9374 6.79403 81.9805 7.31252 82.3121 7.62449C83.3799 8.61314 83.7244 10.1818 83.1689 11.5307C82.6393 12.8182 81.3303 13.6486 79.8319 13.6486C79.3453 13.6311 79.0138 13.965 78.9621 14.4176C78.8975 15.002 78.876 15.5908 78.876 16.184V16.1972C78.876 16.7903 78.8932 17.3835 78.9578 17.9723C79.0052 18.4161 79.5176 18.7413 79.9567 18.7413C81.2916 18.7061 82.5704 19.5498 83.1086 20.8855C83.6469 22.2213 83.2981 23.7768 82.2475 24.7566C81.9202 25.0642 81.8772 25.5783 82.1527 25.9342C82.8632 26.8614 83.6813 27.705 84.5813 28.4388C84.9343 28.7288 85.4424 28.6849 85.7481 28.3421C86.6653 27.3052 88.3101 26.9229 89.5718 27.4633C89.645 27.4941 89.7139 27.5292 89.7871 27.5644C89.4943 25.8991 88.6115 24.5721 87.7504 23.2847C86.5275 21.4568 85.2659 19.5717 85.2659 16.2455C85.2702 11.4956 89.2703 7.6157 94.1876 7.6157C99.105 7.6157 103.105 11.4956 103.105 16.2631C103.105 19.5893 101.843 21.4787 100.625 23.3022C99.7551 24.6029 98.8638 25.9386 98.5839 27.6259C98.627 27.6039 98.6701 27.5864 98.7131 27.5688C99.9747 27.0415 101.598 27.4282 102.515 28.452C102.817 28.7859 103.32 28.8299 103.673 28.5486C104.591 27.8149 105.426 26.9712 106.158 26.0441C106.442 25.6838 106.399 25.1653 106.068 24.8533C105 23.8647 104.651 22.296 105.206 20.9471C105.727 19.6772 106.989 18.8248 108.345 18.8248L108.535 18.8292C108.974 18.8643 109.379 18.5216 109.435 18.0602C109.568 16.8826 109.568 15.6831 109.439 14.4967Z" fill="currentcolor"></path><path d="M89.9119 29.045V30.9169C89.9119 31.5364 90.4716 32.0066 91.0788 32.0066H97.3007C97.9079 32.0066 98.3815 31.5364 98.3815 30.9169V29.045H89.9119Z" fill="currentcolor"></path><path d="M94.1873 34.4146C95.2337 34.4146 96.1293 33.7907 96.491 32.8284H91.8794C92.2454 33.7907 93.141 34.4146 94.1873 34.4146Z" fill="currentcolor"></path></svg>