<svg xmlns="http://www.w3.org/2000/svg" width="100" height="26" viewBox="0 0 100 26" fill="none"><path d="M11.5977 10.0383C11.4624 10.0383 11.3271 10.0496 11.1918 10.0721C11.0564 10.0721 10.8084 10.106 10.4475 10.1736C10.1092 10.2187 9.94007 10.4781 9.94007 10.9517C9.94007 11.1998 9.96262 11.414 10.0077 11.5944C10.0528 11.7749 10.1318 12.0004 10.2445 12.271L12.8156 19.1045L15.2174 12.88C15.4881 12.0906 15.6234 11.4704 15.6234 11.0193C15.6234 10.7036 15.5445 10.4893 15.3866 10.3766C15.2287 10.2638 14.9806 10.1736 14.6423 10.1059L13.5598 10.0383V9.49702H19.2093V10.0383L17.9576 10.1736C17.5968 10.2413 17.2697 10.4555 16.9766 10.8164C16.6834 11.1547 16.3789 11.7298 16.0632 12.5417C15.7474 13.331 15.1272 14.9097 14.2026 17.2778C13.3004 19.6458 12.6126 21.45 12.139 22.6904C11.6654 23.9309 11.2932 24.9232 11.0226 25.6674H8.62073C8.23733 24.6976 7.76372 23.4798 7.1999 22.0139C6.63608 20.5254 5.92566 18.6873 5.06865 16.4997C4.21165 14.2895 3.62527 12.801 3.30953 12.0342C2.99379 11.2674 2.75699 10.7825 2.59912 10.5796C2.4638 10.354 2.24955 10.2187 1.95636 10.1736C1.66317 10.106 1.39254 10.0721 1.14446 10.0721C0.896375 10.0496 0.715952 10.0383 0.603188 10.0383V9.49702H11.5977V10.0383ZM35.0713 20.4577C34.4398 22.1492 33.4249 23.4798 32.0266 24.4496C30.6284 25.3968 28.982 25.8704 27.0876 25.8704C24.4263 25.8704 22.2387 25.1374 20.5247 23.6715C18.8107 22.183 17.9536 20.1307 17.9536 17.5146C17.9536 15.0789 18.8332 13.0829 20.5923 11.5268C22.374 9.94808 24.5053 9.15873 26.9861 9.15873C29.5796 9.15873 31.5643 9.8917 32.94 11.3576C34.3157 12.8236 35.0036 14.6165 35.0036 16.7365H24.618C24.618 17.5484 24.6744 18.3828 24.7872 19.2399C24.9225 20.0743 25.1593 20.8862 25.4976 21.6756C25.8584 22.4649 26.3546 23.1077 26.9861 23.6038C27.6401 24.0774 28.452 24.3143 29.4218 24.3143C30.7975 24.3143 31.88 23.9309 32.6694 23.1641C33.4813 22.3747 34.1015 21.3937 34.53 20.2209L35.0713 20.4577ZM29.1173 16.0599C29.0948 15.8118 29.0722 15.5186 29.0497 15.1803C29.0497 14.8421 29.0497 14.4135 29.0497 13.8948C29.0497 12.5191 28.8805 11.4817 28.5422 10.7825C28.2039 10.0608 27.6175 9.7 26.7831 9.7C26.0614 9.7 25.554 10.0496 25.2608 10.7487C24.9901 11.4253 24.7984 12.474 24.6857 13.8948L24.618 16.0599H29.1173ZM44.7895 24.8555C45.8721 24.8555 47.0674 24.0774 48.3754 22.5213C49.6835 20.9652 50.7096 19.4203 51.4539 17.8867H51.8937V25.5321H34.7422V25.2276L44.9587 10.2074L43.1319 10.1398C42.0268 10.1398 40.8089 10.8727 39.4783 12.3387C38.1703 13.8046 37.1328 15.3044 36.366 16.838H35.9262V9.49702H52.3673V9.80149L42.1847 24.8217L44.7895 24.8555ZM63.5983 25.5321H52.6377V24.9908L53.4496 24.957C54.1036 24.8893 54.4983 24.7315 54.6336 24.4834C54.7689 24.2353 54.8366 23.694 54.8366 22.8596L54.8704 21.3034V4.59178L54.8366 3.20478C54.7914 2.66351 54.7238 2.25756 54.6336 1.98692C54.5434 1.71629 54.1374 1.54714 53.4157 1.47948L52.2655 1.41182V0.870555H61.3656V21.3034L61.3994 22.8596C61.3994 23.6715 61.4671 24.2128 61.6024 24.4834C61.7377 24.7315 62.1324 24.8893 62.7864 24.957L63.5983 24.9908V25.5321ZM81.8632 17.5146C81.8632 19.9052 80.9499 21.9011 79.1231 23.5023C77.3188 25.081 75.1876 25.8704 72.7293 25.8704C70.1358 25.8704 67.9594 25.081 66.2003 23.5023C64.4637 21.9011 63.5954 19.9052 63.5954 17.5146C63.5954 15.124 64.475 13.1393 66.2341 11.5606C68.0158 9.95936 70.1809 9.15873 72.7293 9.15873C75.2327 9.15873 77.3752 9.94808 79.1569 11.5268C80.9611 13.1055 81.8632 15.1014 81.8632 17.5146ZM75.1312 17.4807C75.1312 17.165 75.1087 16.5335 75.0636 15.5863C75.0185 14.6391 74.9959 14.0753 74.9959 13.8948C74.9959 12.677 74.8042 11.6734 74.4208 10.884C74.06 10.0947 73.4849 9.7 72.6955 9.7C71.9738 9.7 71.4213 10.1172 71.0379 10.9517C70.6545 11.7636 70.4628 12.7446 70.4628 13.8948C70.4628 14.3233 70.4402 14.8533 70.3951 15.4848C70.3726 16.0937 70.35 16.759 70.3275 17.4807C70.3275 17.7965 70.35 18.4505 70.3951 19.4428C70.4402 20.4126 70.4628 20.9764 70.4628 21.1343C70.4628 22.3522 70.6432 23.3558 71.004 24.1451C71.3874 24.9345 71.9625 25.3291 72.7293 25.3291C73.4736 25.3291 74.0374 24.9232 74.4208 24.1113C74.8042 23.2994 74.9959 22.307 74.9959 21.1343C74.9959 20.6832 75.0072 20.1532 75.0297 19.5443C75.0523 18.9128 75.0861 18.225 75.1312 17.4807ZM81.9076 25.5321V24.9908L82.821 24.957C83.4751 24.8893 83.8697 24.7315 84.0051 24.4834C84.1404 24.2353 84.208 23.694 84.208 22.8596L84.2419 21.3034V13.2182L84.208 11.8312C84.1629 11.29 84.0953 10.884 84.0051 10.6134C83.9149 10.3428 83.5089 10.1736 82.7872 10.1059L81.9076 10.0383V9.49702H90.6694V12.3387C90.8273 11.9327 91.1656 11.3238 91.6843 10.5119C92.203 9.7 93.3871 9.29405 95.2364 9.29405C96.3189 9.29405 97.2323 9.67745 97.9766 10.4442C98.7434 11.1885 99.1268 12.0793 99.1268 13.1168C99.1268 14.1542 98.7659 15.0225 98.0442 15.7216C97.3451 16.3982 96.4768 16.7365 95.4394 16.7365C94.5824 16.7365 93.8381 16.4433 93.2066 15.8569C92.5977 15.248 92.2932 14.5601 92.2932 13.7933C92.2932 13.2295 92.3947 12.7108 92.5977 12.2372C92.8232 11.8087 93.0488 11.3689 93.2743 10.9179C93.1615 10.76 93.0488 10.681 92.936 10.681C92.3496 10.681 91.8309 11.0306 91.3798 11.7298C90.9513 12.4289 90.7371 13.0829 90.7371 13.6919V21.5064L90.7709 23.1979C90.7709 23.8294 90.8499 24.2579 91.0077 24.4834C91.1656 24.7089 91.5603 24.8555 92.1918 24.9232L93.2066 24.9908V25.5321H81.9076Z" fill="currentcolor"></path></svg>