<svg xmlns="http://www.w3.org/2000/svg" width="95" height="41" viewBox="0 0 95 41" fill="none"><path d="M94.947 3.76406L89.5704 30.6413C84.1938 30.6413 79.5606 34.439 78.506 39.7118L78.4311 40.0749H0.288818L6.46068 9.22711C7.09458 6.0461 9.88949 3.7583 13.1281 3.7583H94.947V3.76406Z" fill="currentcolor"></path><path d="M89.5769 35.2343L88.6087 40.0807H83.8545L83.8948 39.8963C84.4308 37.182 86.8108 35.2343 89.5769 35.2343Z" fill="currentcolor"></path><path d="M13.9176 24.9879H9.41113L12.5979 9.05981H25.0684L24.3654 12.5405H16.4013L13.9176 24.9879ZM15.3755 16.0442H22.723L22.0199 19.5249H14.6955L15.3755 16.0442Z" fill="white"></path><path d="M24.0259 24.9881L27.2127 9.05994H31.7191L29.2642 21.4152H36.8652L36.1391 24.9881H24.0259Z" fill="white"></path><path d="M36.1499 24.9881L46.3672 9.05994H50.8045L54.6482 24.9881H50.1648L47.318 11.1979H49.0929L40.9099 24.9881H36.1499ZM40.6102 21.8935L42.4313 18.5684H50.2109L50.7123 21.8935H40.6102Z" fill="white"></path><path d="M73.6998 24.988H69.1934L72.3801 9.05984H76.8866L73.6998 24.988ZM81.3872 18.7758H74.6276L75.3767 15.0415H82.1364L81.3872 18.7758ZM83.0066 9.05408H87.513L84.3262 24.9822H79.8198L83.0066 9.05408Z" fill="white"></path><path d="M13.1169 30.4972C13.4857 30.8429 13.6759 31.3097 13.6932 31.8917H12.3908C12.3389 31.6555 12.2237 31.4653 12.045 31.3328C11.8664 31.1944 11.6416 31.1311 11.3593 31.1311C11.002 31.1311 10.6908 31.2636 10.4199 31.5287C10.1491 31.7938 9.97622 32.1511 9.9013 32.6005C9.87825 32.7446 9.86672 32.8714 9.86672 32.9694C9.86672 33.3094 9.95893 33.5744 10.1318 33.7704C10.3105 33.9663 10.5525 34.0585 10.8521 34.0585C11.1288 34.0585 11.3766 33.9894 11.6013 33.8568C11.826 33.7185 12.0047 33.5341 12.1372 33.3036H13.4454C13.2149 33.8856 12.8518 34.3524 12.3677 34.6982C11.8837 35.0439 11.3132 35.2168 10.6677 35.2168C10.2355 35.2168 9.86096 35.1304 9.54977 34.9633C9.23859 34.7961 8.99655 34.5541 8.8352 34.2487C8.67384 33.9375 8.5874 33.5802 8.5874 33.1768C8.5874 32.9751 8.60469 32.785 8.63927 32.6005C8.72571 32.0934 8.90435 31.6382 9.18096 31.2405C9.45757 30.8429 9.80333 30.5317 10.2125 30.3128C10.6274 30.0938 11.0827 29.9785 11.5782 29.9785C12.241 29.9785 12.7481 30.1514 13.1169 30.4972Z" fill="white"></path><path d="M21.7949 30.232C22.1349 30.4164 22.4 30.6815 22.5844 31.0157C22.7688 31.3499 22.861 31.7418 22.861 32.1855C22.861 32.3757 22.8438 32.5831 22.8034 32.8021C22.7227 33.2804 22.5499 33.7011 22.2963 34.0642C22.037 34.433 21.7085 34.7153 21.3109 34.917C20.9132 35.1187 20.4695 35.2225 19.9855 35.2225C19.5071 35.2225 19.098 35.1303 18.7522 34.9459C18.4065 34.7614 18.1471 34.5021 17.9627 34.1679C17.7841 33.8336 17.6919 33.4418 17.6919 32.9981C17.6919 32.8079 17.7092 32.6004 17.7495 32.3642C17.8302 31.8916 18.0031 31.4767 18.2624 31.1079C18.5217 30.7391 18.8502 30.4567 19.2478 30.255C19.6455 30.0533 20.0892 29.9496 20.5848 29.9496C21.0458 29.9496 21.4492 30.0476 21.7949 30.232ZM19.4841 31.494C19.2075 31.7475 19.0288 32.0991 18.9539 32.537C18.9309 32.6811 18.9194 32.8021 18.9194 32.9001C18.9194 33.2631 19.0231 33.5513 19.2248 33.753C19.4265 33.9604 19.7088 34.0642 20.0777 34.0642C20.4638 34.0642 20.7922 33.9374 21.0746 33.6781C21.3512 33.4187 21.5299 33.0787 21.6048 32.6465C21.6221 32.5313 21.6336 32.4045 21.6336 32.2777C21.6336 31.9147 21.5356 31.6265 21.3339 31.4248C21.1322 31.2174 20.8556 31.1137 20.4926 31.1137C20.0949 31.1079 19.7607 31.2347 19.4841 31.494Z" fill="white"></path><path d="M28.5257 30.0305L29.0962 33.9031L31.0267 30.0305H32.3522L29.6783 35.1766H28.082L27.2061 30.0305H28.5257Z" fill="white"></path><path d="M37.5102 31.0217L37.3316 32.0993H39.0546L38.8875 33.0387H37.1587L36.9627 34.1797H38.9105L38.7377 35.1766H35.5566L36.4556 30.0305H39.6366L39.4638 31.0217H37.5102Z" fill="white"></path><path d="M47.2604 30.3878C47.5312 30.6241 47.6695 30.941 47.6695 31.3329C47.6695 31.4539 47.658 31.5634 47.6407 31.6614C47.5716 32.0359 47.416 32.3529 47.1624 32.618C46.9146 32.8773 46.5862 33.0617 46.177 33.1539L47.0356 35.1766H45.6699L44.9034 33.2346H44.6211L44.2811 35.1766H43.0479L43.9468 30.0305H46.056C46.5862 30.0305 46.9895 30.1515 47.2604 30.3878ZM46.3787 31.5807C46.3787 31.2465 46.1712 31.0793 45.7621 31.0793H45.0072L44.7709 32.3817H45.5373C46.0214 32.3817 46.298 32.1627 46.3672 31.7363C46.3787 31.6671 46.3787 31.6153 46.3787 31.5807Z" fill="white"></path><path d="M54.6023 34.237H52.6833L52.1993 35.1763H50.8911L53.663 30.0648H55.0864L56.0603 35.1763H54.7521L54.6023 34.237ZM54.4525 33.2919L54.1413 31.4018L53.1731 33.2919H54.4525Z" fill="white"></path><path d="M64.9231 30.4627C65.2747 30.7854 65.4706 31.2061 65.5109 31.7363H64.2086C64.1509 31.5519 64.0414 31.402 63.8859 31.2983C63.7245 31.1888 63.5228 31.1369 63.2692 31.1369C62.8774 31.1369 62.5431 31.2695 62.255 31.5346C61.9726 31.7997 61.7882 32.1569 61.7133 32.6064C61.6903 32.7274 61.6787 32.86 61.6787 33.0041C61.6787 33.3671 61.7825 33.6437 61.9842 33.8397C62.1916 34.0298 62.4855 34.1278 62.8774 34.1278C63.1713 34.1278 63.4421 34.0471 63.6957 33.8858C63.9492 33.7244 64.1452 33.4939 64.2892 33.1885H62.7275L62.8889 32.2952H65.4764L65.2689 33.5227C65.0442 34.0298 64.6984 34.4447 64.2431 34.7559C63.7879 35.0671 63.2289 35.2285 62.5604 35.2285C62.1109 35.2285 61.7248 35.142 61.4021 34.9691C61.0794 34.7963 60.8316 34.5542 60.6587 34.2373C60.4859 33.9203 60.3994 33.5515 60.3994 33.1308C60.3994 32.9349 60.4167 32.739 60.4513 32.5488C60.5377 32.0532 60.7221 31.6095 60.9987 31.2234C61.2753 30.8373 61.6269 30.5319 62.0533 30.3129C62.4798 30.0939 62.9465 29.9844 63.4537 29.9844C64.0818 29.9786 64.5716 30.14 64.9231 30.4627Z" fill="white"></path><path d="M71.2451 31.0217L71.0664 32.0993H72.7895L72.6223 33.0387H70.8935L70.6976 34.1797H72.6454L72.4725 35.1766H69.2915L70.1905 30.0305H73.3715L73.1986 31.0217H71.2451Z" fill="white"></path><path d="M65.8164 0.0469971L55.1611 17.5829H62.451L58.1289 34.3236L69.5621 13.0361H62.1974L65.8164 0.0469971Z" fill="white"></path><path d="M62.1982 13.0361L65.8172 0.0469971L66.941 6.54157" fill="currentcolor"></path></svg>