<svg xmlns="http://www.w3.org/2000/svg" width="97" height="38" viewBox="0 0 97 38" fill="none"><path fill-rule="evenodd" clip-rule="evenodd" d="M16.327 24.4695C16.327 26.1038 14.9452 27.4867 13.1865 27.4867C11.4277 27.4867 10.0459 26.1038 10.0459 24.4695C10.0459 22.8352 11.4277 21.4523 13.1865 21.4523C14.9452 21.4523 16.327 22.8352 16.327 24.4695Z" fill="currentcolor"></path><path fill-rule="evenodd" clip-rule="evenodd" d="M1.50351 37.6698C0.247293 38.1727 0.498537 34.4012 0.498537 34.024C1.37789 26.8582 9.79457 4.60628 15.9501 0.960491C18.7137 -0.673829 20.9749 1.21193 21.7287 4.22913C22.1055 5.98917 22.3568 9.25781 22.608 11.2693C23.4874 17.0523 25.2461 25.8524 32.1553 26.9839C37.6827 27.8639 49.6168 23.7153 55.2698 22.3324C67.9576 19.1894 81.9016 18.058 93.7101 24.721C95.092 25.4753 95.2176 25.4753 96.3482 26.6067C94.7151 26.481 94.5895 26.3553 93.2076 25.9782C81.0223 22.2067 71.7262 22.5838 59.5409 26.1039C52.2548 28.2411 41.9538 32.6412 34.919 33.144C19.97 34.2755 17.7088 18.8123 17.0807 7.37206C17.0807 6.86919 16.955 6.49204 16.955 5.98917C15.5732 7.62349 13.6889 10.6407 13.0607 11.5207C10.6739 15.4179 0.498537 33.8983 1.50351 37.6698ZM18.0856 5.10915H18.2112C18.2112 5.10915 18.2112 5.10915 18.0856 5.10915Z" fill="currentcolor"></path></svg>