<svg xmlns="http://www.w3.org/2000/svg" width="309" height="228" viewBox="0 0 309 228" fill="none"><path d="M26.7481 35.7395C48.3193 12.3541 80.9604 0.5 123.749 0.5H139.124V43.8421L126.763 46.3175C105.699 50.5303 91.0464 58.8174 83.2052 70.979C79.1125 77.5301 76.7919 85.0322 76.4709 92.75H123.749C127.827 92.75 131.737 94.3699 134.621 97.2532C137.504 100.137 139.124 104.047 139.124 108.125V215.75C139.124 232.709 125.333 246.5 108.374 246.5H16.124C12.0463 246.5 8.13562 244.88 5.25225 241.997C2.36888 239.113 0.749019 235.203 0.749019 231.125V154.25L0.795144 109.37C0.656769 107.664 -2.26448 67.2275 26.7481 35.7395ZM277.499 246.5H185.249C181.171 246.5 177.261 244.88 174.377 241.997C171.494 239.113 169.874 235.203 169.874 231.125V154.25L169.92 109.37C169.782 107.664 166.861 67.2275 195.873 35.7395C217.444 12.3541 250.085 0.5 292.874 0.5H308.249V43.8421L295.888 46.3175C274.824 50.5303 260.171 58.8174 252.33 70.979C248.237 77.5301 245.917 85.0322 245.596 92.75H292.874C296.952 92.75 300.862 94.3699 303.746 97.2532C306.629 100.137 308.249 104.047 308.249 108.125V215.75C308.249 232.709 294.458 246.5 277.499 246.5Z" fill="currentcolor"></path></svg>