<svg xmlns="http://www.w3.org/2000/svg" width="57" height="51" viewBox="0 0 57 51" fill="none"><path d="M21.76 3.8242C24.0224 6.53909 24.9273 9.25398 24.9273 12.8738C24.9273 14.6838 24.9273 16.4937 24.4749 18.3036C24.0224 20.1135 23.1174 22.3759 22.2124 25.5433L13.6153 50.8823H1.85076L8.63799 23.7334C6.37558 23.2809 4.56565 21.9235 3.20821 19.6611C1.85076 17.8511 0.945801 15.5887 0.945801 12.8738C0.945801 9.25398 2.30325 6.08661 4.56565 3.8242C6.82806 1.56179 9.54295 0.204346 13.1628 0.204346C16.7827 0.656827 19.4976 1.56179 21.76 3.8242Z" fill="currentcolor"></path><path d="M53.4338 3.8242C55.6962 6.08661 56.6012 9.25398 56.6012 12.4214C56.6012 14.2313 56.6012 16.0412 56.1487 17.8511C55.6962 19.6611 54.7912 21.9235 53.8863 25.5433L45.2891 50.8823H33.5246L40.3118 23.7334C38.0494 23.2809 36.2395 21.9235 34.882 19.6611C33.5246 17.8511 32.6196 15.5887 32.6196 12.8738C32.6196 9.25398 33.9771 6.08661 36.2395 3.8242C38.5019 1.56179 41.2168 0.204346 44.8366 0.204346C48.4565 0.656827 51.1714 1.56179 53.4338 3.8242Z" fill="currentcolor"></path></svg>