<svg xmlns="http://www.w3.org/2000/svg" id="svg-radial-burst" width="186" height="186" viewBox="0 0 186 186" fill="none"><path d="M93.9199 0H92.08V47.31H93.9199V0Z" fill="currentcolor"></path><path d="M106.19 47.32L118.87 0H116.97L104.29 47.32H106.19Z" fill="currentcolor"></path><path d="M120.43 47.32L147.75 0H145.63L118.31 47.32H120.43Z" fill="currentcolor"></path><path d="M138.68 48.62L185.99 1.29999L184.69 0L137.38 47.32L138.68 48.62Z" fill="currentcolor"></path><path d="M138.68 67.68L185.99 40.37V38.25L138.68 65.56V67.68Z" fill="currentcolor"></path><path d="M138.68 81.7001L185.99 69.0201V67.1201L138.68 79.8001V81.7001Z" fill="currentcolor"></path><path d="M185.99 92.0801H138.68V93.92H185.99V92.0801Z" fill="currentcolor"></path><path d="M138.68 106.19L185.99 118.86V116.97L138.68 104.29V106.19Z" fill="currentcolor"></path><path d="M138.68 120.43L185.99 147.74V145.62L138.68 118.31V120.43Z" fill="currentcolor"></path><path d="M137.38 138.68L184.69 185.99L185.99 184.7L138.68 137.38L137.38 138.68Z" fill="currentcolor"></path><path d="M118.32 138.68L145.63 185.99H147.75L120.43 138.68H118.32Z" fill="currentcolor"></path><path d="M104.29 138.68L116.97 185.99H118.87L106.19 138.68H104.29Z" fill="currentcolor"></path><path d="M93.9199 138.68H92.08V185.99H93.9199V138.68Z" fill="currentcolor"></path><path d="M79.8099 138.68L67.13 185.99H69.03L81.71 138.68H79.8099Z" fill="currentcolor"></path><path d="M65.5699 138.68L38.25 185.99H40.37L67.6899 138.68H65.5699Z" fill="currentcolor"></path><path d="M47.3099 137.38L0 184.7L1.29993 185.99L48.61 138.68L47.3099 137.38Z" fill="currentcolor"></path><path d="M47.3099 118.31L0 145.62V147.74L47.3099 120.43V118.31Z" fill="currentcolor"></path><path d="M47.3099 104.29L0 116.97V118.87L47.3099 106.19V104.29Z" fill="currentcolor"></path><path d="M47.3099 92.0801H0V93.92H47.3099V92.0801Z" fill="currentcolor"></path><path d="M47.3099 79.7999L0 67.1299V69.0298L47.3099 81.6999V79.7999Z" fill="currentcolor"></path><path d="M47.3099 65.56L0 38.24V40.36L47.3099 67.68V65.56Z" fill="currentcolor"></path><path d="M48.61 47.32L1.29993 0L0 1.29999L47.3099 48.62L48.61 47.32Z" fill="currentcolor"></path><path d="M67.6899 47.32L40.37 0H38.25L65.5699 47.32H67.6899Z" fill="currentcolor"></path><path d="M81.71 47.32L69.03 0H67.13L79.8099 47.32H81.71Z" fill="currentcolor"></path></svg>