<svg width="78" height="77" viewBox="0 0 78 77" fill="none" xmlns="http://www.w3.org/2000/svg">
<path d="M76.9983 10.0299V76.7291H78V0H58.9419H57.9402V66.6992C57.9402 71.6866 53.8993 75.7274 48.912 75.7274C43.9246 75.7274 39.8838 71.6866 39.8838 66.6992V0H38.882H20.8299H19.8282V66.6992C19.8282 71.6866 15.7873 75.7274 10.7999 75.7274C5.81257 75.7274 1.77175 71.6866 1.77175 66.6992V0H0.77002V76.7291H19.8282H20.8299V10.0299C20.8299 5.04255 24.8707 1.00171 29.8581 1.00171C34.8454 1.00171 38.8863 5.04255 38.8863 10.0299V76.7291H39.888H57.9444H58.9461V10.0299C58.9461 5.04255 62.987 1.00171 67.9743 1.00171C72.9575 1.00171 76.9983 5.04255 76.9983 10.0299Z" fill="currentcolor"/>
</svg>
