<svg width="99" height="76" viewBox="0 0 99 76" fill="none" xmlns="http://www.w3.org/2000/svg">
<path d="M67.0097 19.2552C70.9162 18.447 73.259 13.8091 72.2426 8.89598C71.2262 3.98291 67.2354 0.655235 63.3289 1.46342C59.4224 2.2716 57.0796 6.90959 58.096 11.8227C59.1125 16.7357 63.1033 20.0634 67.0097 19.2552Z" fill="currentcolor"/>
<path d="M41.5652 42.3683C44.014 42.3593 45.99 39.8574 45.9787 36.7802C45.9674 33.7031 43.973 31.2158 41.5241 31.2249C39.0753 31.2339 37.0993 33.7357 37.1106 36.8129C37.122 39.8901 39.1163 42.3773 41.5652 42.3683Z" fill="currentcolor"/>
<path d="M43.4289 76.0001C19.8177 76.0001 0.611328 67.1029 0.611328 56.1695C0.611328 45.2361 19.8177 36.3389 43.4289 36.3389C67.0402 36.3389 86.2466 45.2361 86.2466 56.1695C86.2466 67.1029 67.0402 76.0001 43.4289 76.0001ZM43.4289 37.004C20.1853 37.004 1.27643 45.6037 1.27643 56.1695C1.27643 66.7412 20.1853 75.3351 43.4289 75.3351C66.6726 75.3351 85.5815 66.7353 85.5815 56.1695C85.5815 45.6037 66.6726 37.004 43.4289 37.004Z" fill="currentcolor"/>
<path d="M17.729 63.1996C8.59258 63.1996 2.56579 60.79 0.646322 56.3035C-1.46568 51.3794 1.63815 44.6058 9.37437 37.2196C17.0348 29.9093 28.3532 22.844 41.2353 17.319C67.927 5.87219 93.1485 4.73449 97.46 14.7811C101.772 24.8277 83.5628 42.3188 56.8711 53.7656C43.989 59.2906 31.0661 62.6162 20.4945 63.1296C19.5376 63.1762 18.6158 63.1996 17.729 63.1996ZM80.389 8.52093C70.004 8.52093 55.9784 11.7123 41.492 17.9199C28.6799 23.4158 17.4315 30.4344 9.82944 37.6922C2.30325 44.8684 -0.742231 51.3852 1.25309 56.0351C3.2484 60.685 10.0686 62.9779 20.4536 62.4645C30.9495 61.9569 43.7907 58.6489 56.6027 53.153C82.956 41.852 101.013 24.7518 96.8474 15.0378C94.9688 10.6679 88.9011 8.52093 80.389 8.52093Z" fill="currentcolor"/>
</svg>
