<svg width="77" height="73" viewBox="0 0 77 73" fill="none" xmlns="http://www.w3.org/2000/svg">
<path d="M40.7992 43.5772C40.6343 43.5772 40.4752 43.4749 40.4183 43.31C40.4013 43.2645 40.3842 43.219 40.3672 43.1736C40.2535 42.8893 40.1398 42.6221 40.0148 42.3606C39.4976 41.2235 38.878 40.132 38.1618 39.12C38.0311 38.9381 38.0766 38.6823 38.2585 38.5515C38.4403 38.4207 38.6961 38.4662 38.8268 38.6481C39.5714 39.7056 40.2137 40.8426 40.748 42.0195C40.8731 42.2924 40.9981 42.5709 41.1118 42.8552C41.1345 42.9007 41.1573 42.9632 41.18 43.0314C41.2539 43.2418 41.1459 43.4749 40.9356 43.5545C40.8958 43.5715 40.8503 43.5772 40.7992 43.5772Z" fill="currentcolor"/>
<path d="M21.3374 72.2193C9.57171 72.2193 0 62.6454 0 50.8771C0 39.7852 8.30988 30.6548 19.331 29.6315C19.3822 29.6201 19.4276 29.6201 19.4504 29.6201C19.6777 29.6201 19.8596 29.802 19.8596 30.0295C19.8596 30.2455 19.6891 30.4217 19.4788 30.4331C19.4617 30.4388 19.4447 30.4388 19.4333 30.4388C8.82144 31.4166 0.824168 40.2003 0.824168 50.8771C0.824168 62.1963 10.0321 71.4063 21.3488 71.4063C28.0388 71.4063 34.3252 68.1316 38.1675 62.6454C38.1845 62.6227 38.2016 62.6056 38.2186 62.5886C38.2925 62.5147 38.3949 62.4635 38.5085 62.4635C38.7359 62.4635 38.9178 62.6454 38.9178 62.8728C38.9178 62.9638 38.8894 63.0434 38.8382 63.1116C38.8325 63.123 38.8268 63.1287 38.8155 63.14C34.8083 68.8252 28.2775 72.2193 21.3374 72.2193Z" fill="currentcolor"/>
<path d="M55.6512 72.2193C48.7111 72.2193 42.186 68.8252 38.1902 63.14C38.1675 63.1173 38.1504 63.0889 38.1334 63.0548C38.1049 62.9979 38.0879 62.9354 38.0879 62.8672C38.0879 62.6397 38.2698 62.4578 38.4971 62.4578C38.6108 62.4578 38.7131 62.5033 38.787 62.5772C38.7984 62.5886 38.8041 62.5943 38.8154 62.6056C38.8268 62.617 38.8325 62.6284 38.8382 62.6397C42.6805 68.1259 48.9669 71.4006 55.6569 71.4006C66.9735 71.4006 76.1815 62.1906 76.1815 50.8714C76.1815 40.1889 68.1729 31.3996 57.5496 30.4274C57.5439 30.4274 57.5382 30.4274 57.5326 30.4274C57.5269 30.4274 57.5212 30.4274 57.5212 30.4274C57.3507 30.4274 57.1915 30.3194 57.1347 30.1432C57.0665 29.9271 57.1858 29.6997 57.3962 29.6315C57.453 29.6144 57.5382 29.6088 57.5951 29.6144C57.6178 29.6144 57.6349 29.6144 57.6576 29.6201C68.6844 30.6435 77 39.7739 77 50.8714C76.9886 62.6454 67.4169 72.2193 55.6512 72.2193Z" fill="currentcolor"/>
<path d="M36.1896 43.5314C36.1555 43.5314 36.1157 43.5257 36.0816 43.5144C35.8656 43.4405 35.7349 43.2585 35.8031 43.0425C35.8201 42.9856 35.8429 42.9345 35.8713 42.8833C35.9736 42.6161 36.1043 42.3148 36.2407 42.0192C36.775 40.8423 37.423 39.711 38.1619 38.6535C38.2926 38.4716 38.5427 38.4261 38.7303 38.5569C38.9122 38.6876 38.9576 38.9378 38.8269 39.1254C38.1164 40.1374 37.4912 41.2289 36.9796 42.3659C36.8489 42.6502 36.7239 42.9288 36.6159 43.2187C36.5533 43.3893 36.3715 43.5314 36.1896 43.5314Z" fill="currentcolor"/>
<path d="M57.5212 30.4783C57.4587 30.4783 57.3962 30.4613 57.3337 30.4328C57.1347 30.3305 57.0551 30.0861 57.1574 29.8871C57.1688 29.8473 57.1802 29.8245 57.1972 29.8018C58.4022 27.1411 59.0161 24.2985 59.0161 21.3479C59.0161 10.0287 49.8081 0.818669 38.4915 0.818669C27.1748 0.818669 17.9669 10.0287 17.9669 21.3479C17.9669 24.2871 18.575 27.1241 19.7743 29.7791C19.7857 29.7961 19.7914 29.8132 19.8028 29.8302C19.888 29.9837 19.8653 30.1827 19.7346 30.3135C19.5754 30.4727 19.3196 30.4727 19.1605 30.3135C19.1321 30.285 19.1093 30.2509 19.0866 30.2168C19.0638 30.177 19.0468 30.1429 19.0297 30.1031C17.785 27.3458 17.1541 24.3952 17.1541 21.3422C17.1541 9.57387 26.7258 0 38.4915 0C50.2572 0 59.8289 9.57387 59.8289 21.3422C59.8289 24.4236 59.1866 27.397 57.9191 30.1713C57.9191 30.177 57.9134 30.1827 57.9134 30.1884C57.902 30.2168 57.8907 30.2452 57.8793 30.2623C57.8111 30.3987 57.669 30.4783 57.5212 30.4783Z" fill="currentcolor"/>
<path d="M41.7711 42.4287C41.6574 42.4287 41.5438 42.3832 41.4642 42.2865C41.3164 42.116 41.3335 41.8601 41.504 41.7123C41.6745 41.5645 41.9303 41.5816 42.0781 41.7464C42.2258 41.917 42.2088 42.1728 42.044 42.3206L42.0383 42.3263C41.9587 42.3945 41.8621 42.4287 41.7711 42.4287Z" fill="currentcolor"/>
<path d="M38.4973 42.6846C37.855 42.6846 37.207 42.6562 36.5761 42.5993C36.3601 42.5823 36.1441 42.5596 35.9281 42.5311C35.7064 42.5027 35.5473 42.3037 35.57 42.082C35.5928 41.8603 35.7974 41.7011 36.0191 41.7238C36.2237 41.7466 36.434 41.7693 36.6443 41.7864C37.872 41.9001 39.1338 41.9001 40.3502 41.7864C40.5776 41.7636 40.7708 41.9285 40.7935 42.1559C40.8163 42.3776 40.6515 42.5766 40.4241 42.5993C39.7875 42.6505 39.1395 42.6846 38.4973 42.6846Z" fill="currentcolor"/>
<path d="M38.4972 48.3413C38.4119 48.3413 38.3266 48.3129 38.2528 48.2561C38.0766 48.1196 38.0424 47.8638 38.1789 47.6875C38.787 46.8973 39.2929 46.0445 39.6965 45.152C40.0034 44.464 40.2421 43.7648 40.4126 43.0768C40.4354 42.9859 40.4581 42.9006 40.4808 42.8153C40.5377 42.5652 40.5888 42.3207 40.6286 42.0706C40.748 41.3827 40.8048 40.672 40.8048 39.95C40.8048 39.6657 40.7991 39.3815 40.7764 39.1029C40.7366 38.5116 40.657 37.9374 40.5491 37.3973C40.4752 37.0392 40.3956 36.7037 40.299 36.3797C39.8556 34.8674 39.1451 33.4632 38.1845 32.2068C36.7295 30.3136 34.7856 28.8639 32.5632 28.0225C31.1308 27.4824 29.6189 27.2095 28.0672 27.2095C25.0092 27.2095 22.0479 28.3124 19.7289 30.3136C19.7175 30.325 19.7061 30.3363 19.6948 30.3477C19.5243 30.4898 19.2571 30.4842 19.1093 30.3193C18.9615 30.1544 18.9559 29.9156 19.115 29.7678C19.1207 29.7621 19.1321 29.7508 19.1491 29.7394C19.1605 29.728 19.1719 29.7166 19.1832 29.711C21.65 27.5733 24.8103 26.3965 28.0729 26.3965C29.7212 26.3965 31.3297 26.6864 32.8587 27.2663C35.2232 28.1589 37.2922 29.6996 38.8382 31.7121C39.8613 33.0482 40.6229 34.5434 41.089 36.1523C41.1913 36.4991 41.2766 36.8572 41.3562 37.2382C41.4755 37.818 41.5551 38.432 41.6006 39.0517C41.6233 39.3474 41.629 39.6487 41.629 39.9557C41.629 40.7232 41.5665 41.4793 41.4414 42.207C41.4016 42.4685 41.3448 42.7357 41.288 42.9973C41.2652 43.0939 41.2425 43.1962 41.2141 43.2929C41.0322 44.0206 40.7764 44.7653 40.4524 45.4931C40.0261 46.4482 39.4862 47.3521 38.8382 48.1935C38.7359 48.2845 38.6165 48.3413 38.4972 48.3413Z" fill="currentcolor"/>
<path d="M38.4914 63.2761C38.264 63.2761 38.0821 63.0942 38.0821 62.8668L38.0878 48.0682C37.4739 47.2552 36.9567 46.374 36.5475 45.4417C36.2348 44.7424 35.9848 44.0147 35.7972 43.2642C35.7801 43.2188 35.7631 43.1392 35.7517 43.0653C35.6778 42.7583 35.6153 42.4626 35.5755 42.1784C35.4505 41.462 35.3879 40.7002 35.3879 39.9327C35.3879 39.6314 35.3993 39.3301 35.4164 39.0288C35.4618 38.4034 35.5414 37.7894 35.6608 37.2152C35.7403 36.8343 35.8256 36.4761 35.9279 36.1293C36.394 34.5204 37.1556 33.0252 38.1787 31.6892C39.702 29.6994 41.7426 28.17 44.0786 27.2718C45.6304 26.6748 47.2673 26.3735 48.9441 26.3735C52.1839 26.3735 55.3157 27.5333 57.7712 29.6425C57.828 29.6766 57.8792 29.7278 57.9133 29.779L57.6575 29.9438L57.487 30.1371L57.362 30.3475C57.3506 30.3418 57.3335 30.3304 57.3165 30.3191C57.3108 30.3134 57.3051 30.3077 57.2994 30.302C57.2824 30.2906 57.271 30.2793 57.2596 30.2736C54.9349 28.2781 51.9907 27.1865 48.9441 27.1865C47.3696 27.1865 45.8293 27.4708 44.3742 28.0279C42.1802 28.875 40.2647 30.3077 38.8324 32.1838C37.8661 33.4402 37.1556 34.8445 36.718 36.3567C36.6213 36.6865 36.5418 37.0162 36.4679 37.3801C36.3542 37.9202 36.2803 38.4944 36.2405 39.0856C36.2235 39.3642 36.2121 39.6485 36.2121 39.9327C36.2121 40.6547 36.2689 41.3654 36.3883 42.0476C36.4281 42.3148 36.4849 42.582 36.5588 42.8833C36.5702 42.9459 36.5816 42.9914 36.5929 43.0312C36.7805 43.7645 37.0135 44.4524 37.3091 45.1062C37.7127 46.0159 38.2242 46.88 38.8381 47.676C38.8949 47.7499 38.9233 47.8351 38.9233 47.9261L38.9177 62.8611C38.9006 63.0942 38.7187 63.2761 38.4914 63.2761Z" fill="currentcolor"/>
<path d="M38.4972 63.2819C38.2698 63.2819 38.0823 63.1 38.0823 62.8726C38.0823 62.6964 38.1903 62.5429 38.3494 62.4917C38.3551 62.4917 38.3665 62.486 38.3722 62.486C42.7317 61.0704 46.0057 57.4035 46.9208 52.9178C47.0913 52.0935 47.1765 51.235 47.1765 50.3652C47.1765 48.9098 46.9321 47.4828 46.449 46.1183C45.8806 44.5094 45.011 43.054 43.8514 41.7805C43.5161 41.411 43.158 41.0585 42.7829 40.7345C42.6124 40.5866 42.5953 40.3308 42.7431 40.1603C42.8909 39.9897 43.1466 39.9726 43.3172 40.1205C43.715 40.4673 44.0959 40.8368 44.4539 41.2291C45.6874 42.5878 46.6138 44.1399 47.2163 45.8455C47.7279 47.2952 47.9893 48.8131 47.9893 50.3595C47.9893 51.2805 47.8984 52.1958 47.7165 53.0713C46.7502 57.8298 43.2887 61.7185 38.6734 63.2365C38.6222 63.2649 38.5597 63.2819 38.4972 63.2819Z" fill="currentcolor"/>
<path d="M38.4972 38.2497C38.4574 38.2497 38.4119 38.244 38.3721 38.227C38.0595 38.1247 37.7298 38.0337 37.4002 37.9541C36.9568 37.8461 36.4907 37.7608 36.0019 37.704C34.814 37.5618 33.5237 37.5846 32.3699 37.7779C32.1482 37.8177 31.9379 37.6642 31.8981 37.4481C31.8584 37.2264 32.0118 37.0161 32.2278 36.9763C33.4555 36.7659 34.831 36.7375 36.0929 36.8967C36.6101 36.9592 37.1103 37.0502 37.5821 37.1639C37.9345 37.2491 38.2812 37.3458 38.6108 37.4538C38.8268 37.522 38.9405 37.7494 38.8723 37.9655C38.8268 38.1417 38.6677 38.2497 38.4972 38.2497Z" fill="currentcolor"/>
<path d="M38.5028 63.2817C38.4403 63.2817 38.3834 63.2703 38.3323 63.2476C33.7112 61.7353 30.2384 57.841 29.2721 53.0768C29.0902 52.1956 28.9993 51.286 28.9993 50.365C28.9993 48.8243 29.255 47.3063 29.7609 45.868C30.3691 44.1454 31.3013 42.5876 32.5347 41.2345C32.8814 40.8593 33.2452 40.5012 33.6089 40.1771C34.2228 39.637 34.8935 39.1481 35.604 38.7217C35.7972 38.608 36.0473 38.6705 36.161 38.8638C36.2747 39.0571 36.2122 39.3073 36.0189 39.421C35.3482 39.8189 34.7173 40.2794 34.1432 40.7854C33.7965 41.0924 33.4555 41.4278 33.1315 41.786C31.9776 43.0595 31.0966 44.5263 30.5282 46.1409C30.0508 47.4939 29.8121 48.9209 29.8121 50.3706C29.8121 51.2348 29.8973 52.0933 30.0678 52.9233C30.9773 57.4146 34.2569 61.0816 38.6165 62.4915C38.696 62.5142 38.7585 62.5654 38.8097 62.6222C38.8665 62.6905 38.9063 62.7814 38.9063 62.8838C38.9063 63.0998 38.7301 63.2817 38.5028 63.2817Z" fill="currentcolor"/>
<path d="M38.4971 38.2502C38.3266 38.2502 38.1674 38.1422 38.1106 37.9659C38.0424 37.7499 38.156 37.5225 38.372 37.4543C38.7017 37.3463 39.0484 37.2496 39.4008 37.1643C39.8726 37.0506 40.3728 36.9597 40.89 36.8971C42.1177 36.7436 43.4421 36.7664 44.6698 36.9597C44.8915 36.9938 45.0449 37.2041 45.0108 37.4259C44.9767 37.6476 44.7721 37.8011 44.5448 37.767C43.3852 37.585 42.1461 37.568 40.9923 37.7101C40.5035 37.7727 40.0374 37.8579 39.5941 37.9603C39.2644 38.0398 38.9347 38.1308 38.6221 38.2332C38.5766 38.2445 38.5369 38.2502 38.4971 38.2502Z" fill="currentcolor"/>
<path d="M32.1995 46.5617C31.4833 46.5617 30.7728 46.5049 30.085 46.3969C27.5841 46.0046 25.2423 44.913 23.3155 43.2416C20.3485 40.6605 18.6433 36.9253 18.6433 32.9969C18.6433 31.9622 18.757 30.9445 18.9843 29.9553C18.9843 29.9496 18.99 29.9382 18.99 29.9325C18.99 29.9268 19.0128 29.8359 19.0128 29.8302C19.0753 29.6142 19.297 29.4834 19.513 29.5459C19.7289 29.6028 19.8597 29.8302 19.7971 30.0462L19.3936 29.9894L19.7801 30.1201C19.7858 30.086 19.7915 30.0633 19.7915 30.0462C19.7915 30.069 19.7915 30.0974 19.7858 30.1201V30.1258C19.7858 30.1315 19.7858 30.1372 19.7858 30.1372C19.5698 31.0639 19.4618 32.0247 19.4618 32.9969C19.4618 36.6922 21.059 40.2 23.8498 42.6276C25.6629 44.1967 27.8626 45.22 30.2158 45.5896C31.8527 45.8511 33.6318 45.7772 35.2574 45.3735C35.7576 45.2541 36.2521 45.0949 36.775 44.896C36.9853 44.8164 37.2183 44.9187 37.2979 45.1291C37.3775 45.3394 37.2752 45.5725 37.0649 45.6521C36.5079 45.8624 35.9793 46.033 35.4506 46.1581C34.3991 46.431 33.3021 46.5617 32.1995 46.5617ZM19.7119 30.2736C19.6948 30.2964 19.6721 30.3191 19.655 30.3362C19.6778 30.3191 19.6948 30.2964 19.7119 30.2736Z" fill="currentcolor"/>
<path d="M44.7041 46.5617C43.6355 46.5617 42.5726 46.4366 41.5495 46.1865C41.0096 46.0614 40.4639 45.8966 39.9182 45.6919C39.7079 45.6123 39.5999 45.3792 39.6795 45.1689C39.7591 44.9585 39.9921 44.8505 40.2024 44.9301C40.714 45.1177 41.2255 45.2769 41.7314 45.3963C43.3911 45.7942 45.1759 45.8511 46.7617 45.5782C49.1091 45.1973 51.3031 44.1626 53.1049 42.5821C55.8616 40.1602 57.4418 36.6638 57.4418 32.9969C57.4418 32.0361 57.3338 31.0809 57.1235 30.1599C57.1235 30.1542 57.1235 30.1486 57.1178 30.1429C57.1121 30.1258 57.1064 30.1031 57.1007 30.086C57.0211 29.8757 57.1235 29.6483 57.3338 29.5687C57.5441 29.4891 57.7828 29.5971 57.8624 29.8075C57.8794 29.8529 57.8908 29.9041 57.8965 29.9439C57.9022 29.9553 57.9022 29.9723 57.9078 29.9837C58.1352 30.9672 58.2489 31.9849 58.2489 33.0025C58.2489 36.9026 56.5664 40.615 53.6392 43.1961C51.7237 44.8789 49.3876 45.9762 46.8924 46.3855C46.199 46.4992 45.4601 46.5617 44.7041 46.5617Z" fill="currentcolor"/>
<path d="M40.7366 43.4123C40.6286 43.4123 40.515 43.3668 40.4354 43.2815C40.2819 43.1167 40.2933 42.8608 40.4638 42.7073C40.5093 42.6675 40.5547 42.6277 40.6002 42.588C40.9015 42.3207 41.1857 42.0479 41.4755 41.7409C41.9302 41.2633 42.3452 40.7403 42.7203 40.1945C43.3512 39.2735 43.8571 38.2729 44.2265 37.2268C44.2607 37.1359 44.3232 37.0563 44.4084 37.0108L57.3109 29.6712C57.5042 29.5575 57.7543 29.6257 57.8679 29.8247C57.9816 30.018 57.9134 30.2681 57.7145 30.3818L44.9427 37.6475C44.5562 38.705 44.0333 39.7169 43.391 40.655C42.9931 41.2406 42.5498 41.792 42.0723 42.298C41.7654 42.6277 41.4585 42.9177 41.1402 43.1963C41.0833 43.2418 41.0436 43.2759 41.0095 43.3043C40.9299 43.3782 40.8333 43.4123 40.7366 43.4123Z" fill="currentcolor"/>
<path d="M36.1951 43.4633C36.1269 43.4633 36.053 43.4406 35.9905 43.3894C35.9621 43.3667 35.9336 43.3439 35.9052 43.3155C35.5244 42.9914 35.1663 42.6503 34.8196 42.2808C34.3706 41.8032 33.9386 41.2745 33.5464 40.706C32.8927 39.7623 32.3641 38.7389 31.9719 37.6644L19.1888 30.3874C18.9956 30.2737 18.9274 30.0292 19.0354 29.8302C19.149 29.6369 19.3934 29.5687 19.5924 29.6767L32.5062 37.0277C32.5915 37.0732 32.654 37.1528 32.6881 37.2437C33.0633 38.3068 33.5748 39.3131 34.2171 40.2398C34.5865 40.7742 34.9901 41.2745 35.4164 41.718C35.7461 42.0648 36.0814 42.3888 36.4168 42.6731C36.593 42.8095 36.6669 43.0938 36.5304 43.2757C36.4395 43.3951 36.3145 43.4633 36.1951 43.4633Z" fill="currentcolor"/>
<path d="M4.18326 63.0714C4.11506 63.0714 4.05253 63.0373 4.01275 62.9805C3.95022 62.8838 3.97864 62.7588 4.06958 62.6962L30.0337 45.8226C30.1303 45.76 30.2554 45.7885 30.3179 45.8794C30.3804 45.9761 30.352 46.1011 30.2611 46.1637L4.29126 63.0373C4.25715 63.0601 4.21737 63.0714 4.18326 63.0714Z" fill="currentcolor"/>
<path d="M38.4971 32.1438C38.3834 32.1438 38.2925 32.0529 38.2925 31.9392V0.403398C38.2925 0.289694 38.3834 0.19873 38.4971 0.19873C38.6108 0.19873 38.7017 0.289694 38.7017 0.403398V31.9392C38.696 32.0529 38.6051 32.1438 38.4971 32.1438Z" fill="currentcolor"/>
<path d="M72.8052 63.0773C72.7654 63.0773 72.7313 63.0659 72.6915 63.0432L46.7217 46.1524C46.6251 46.0899 46.6023 45.9648 46.6649 45.8682C46.7274 45.7715 46.8524 45.7488 46.949 45.8113L72.9189 62.7021C73.0155 62.7646 73.0382 62.8897 72.9757 62.9863C72.9416 63.0432 72.8734 63.0773 72.8052 63.0773Z" fill="currentcolor"/>
</svg>
