<svg width="82" height="77" viewBox="0 0 82 77" fill="none" xmlns="http://www.w3.org/2000/svg">
<path d="M5.00063 45.1832C2.65524 45.1832 0.75 42.1746 0.75 38.4846C0.75 34.7947 2.65524 31.7861 5.00063 31.7861C7.34602 31.7861 9.25128 34.7887 9.25128 38.4846C9.25128 42.1806 7.34602 45.1832 5.00063 45.1832ZM5.00063 32.4735C3.03509 32.4735 1.43131 35.1746 1.43131 38.4846C1.43131 41.8008 3.03509 44.5019 5.00063 44.5019C6.96618 44.5019 8.56997 41.8068 8.56997 38.4846C8.56997 35.1685 6.96618 32.4735 5.00063 32.4735Z" fill="currentcolor"/>
<path d="M12.5733 51.5444C8.06943 51.5444 4.40967 45.69 4.40967 38.485C4.40967 31.286 8.06943 25.4316 12.5733 25.4316C17.0772 25.4316 20.7369 31.286 20.7369 38.485C20.7369 45.684 17.0711 51.5444 12.5733 51.5444ZM12.5733 26.113C8.44927 26.113 5.097 31.6659 5.097 38.485C5.097 45.3041 8.44927 50.8571 12.5733 50.8571C16.6973 50.8571 20.0556 45.3041 20.0556 38.485C20.0496 31.6659 16.6973 26.113 12.5733 26.113Z" fill="currentcolor"/>
<path d="M21.9067 57.8989C15.2504 57.8989 9.83008 49.1926 9.83008 38.4846C9.83008 27.7766 15.2444 19.0703 21.9067 19.0703C28.563 19.0703 33.9834 27.7766 33.9834 38.4846C33.9834 49.1926 28.563 57.8989 21.9067 57.8989ZM21.9067 19.7577C15.6242 19.7577 10.5174 28.1564 10.5174 38.4846C10.5174 48.8127 15.6242 57.2115 21.9067 57.2115C28.1892 57.2115 33.296 48.8127 33.296 38.4846C33.296 28.1564 28.1892 19.7577 21.9067 19.7577Z" fill="currentcolor"/>
<path d="M32.657 64.2541C23.8422 64.2541 16.6733 52.6959 16.6733 38.4849C16.6733 24.2739 23.8422 12.7158 32.657 12.7158C41.4718 12.7158 48.6406 24.2739 48.6406 38.4849C48.6406 52.6959 41.4718 64.2541 32.657 64.2541ZM32.657 13.4032C24.222 13.4032 17.3547 24.6538 17.3547 38.4849C17.3547 52.3161 24.216 63.5728 32.657 63.5728C41.0919 63.5728 47.9592 52.3221 47.9592 38.4849C47.9592 24.6538 41.0919 13.4032 32.657 13.4032Z" fill="currentcolor"/>
<path d="M44.1488 70.6152C33.1755 70.6152 24.2522 56.2052 24.2522 38.4912C24.2522 20.7771 33.1755 6.36719 44.1488 6.36719C55.1221 6.36719 64.0454 20.7771 64.0454 38.4912C64.0454 56.1991 55.1221 70.6152 44.1488 70.6152ZM44.1488 7.04246C33.5554 7.04246 24.9395 21.1449 24.9395 38.4851C24.9395 55.8193 33.5554 69.9278 44.1488 69.9278C54.7422 69.9278 63.3581 55.8253 63.3581 38.4851C63.3641 21.1509 54.7422 7.04246 44.1488 7.04246Z" fill="currentcolor"/>
<path d="M57.6905 76.9697C44.5647 76.9697 33.8809 59.7079 33.8809 38.4848C33.8809 17.2618 44.5587 0 57.6905 0C70.8222 0 81.5001 17.2618 81.5001 38.4848C81.5001 59.7079 70.8222 76.9697 57.6905 76.9697ZM57.6905 0.68731C44.9385 0.68731 34.5682 17.6416 34.5682 38.4848C34.5682 59.3281 44.9385 76.2824 57.6905 76.2824C70.4424 76.2824 80.8127 59.3281 80.8127 38.4848C80.8127 17.6416 70.4424 0.68731 57.6905 0.68731Z" fill="currentcolor"/>
</svg>
