<svg xmlns="http://www.w3.org/2000/svg" width="60" height="69" fill="none"><path d="m1.74 38.25.5.17.14.04a18.24 18.24 0 0 1 2.22-4.19c3-4.2 7.56-6.5 12.6-7.17-.3-.46-.59-.92-.86-1.4C8.6 26.92 2.84 31.56.8 37.9l.72.27.22.08Z" fill="currentcolor"></path><path d="M45.07 40.32a21.98 21.98 0 0 1 2.7 7.34l.4.02-.4-.02c.38 3.37.49 6.77-2.29 11.32l.12.08-.12-.08c-3.32 5.09-9.68 8.27-17.5 8C15.3 66.57 3.6 57.2 1.85 46.1c-.43-2.73-.22-5.3.53-7.64l-.13-.04-.5-.17-.23-.08-.72-.26C0 40.4-.22 43.16.24 46.07 2.1 57.95 14.62 67.96 28.19 68.42c8.36.28 15.17-3.13 18.72-8.56l-.65-.4c-.03 0-.05-.02-.07-.03l-.14-.09.2.13.66.39a16.96 16.96 0 0 0 2.45-12.12 22.16 22.16 0 0 0-2.76-7.62c-.5.09-1.01.15-1.53.2Zm.53 18.74.45.28-.45-.28Zm2.57-11.38.28.02-.28-.02Z" fill="currentcolor"></path><path d="m43.62 47.13.08.01.1.02a67.27 67.27 0 0 0 .28.05l.48.08a199.02 199.02 0 0 0 .76.11 22.05 22.05 0 0 0-2.72-6.96 25.74 25.74 0 0 1-1.65-.04c.64.97 1.19 1.99 1.62 3.04.5 1.2.85 2.43 1.05 3.69ZM6.74 35.59a14.78 14.78 0 0 0-1.8 3.63h.01l.02.01.04.02h.01l.19.04.62.16h.01l.12.03.3.07.23.05.19.04.11.03c.27-.84.63-1.64 1.06-2.39 2.21-3.84 6.47-6.48 11.84-7.01-.37-.4-.71-.8-1.05-1.22-.88.1-1.74.25-2.58.46-3.8.92-7.12 2.92-9.32 6.08ZM39.48 44.25c.21.63.37 1.29.47 1.95l.3.09.16.05.14.04.04.02.41.12.35.1c.03 0 .06 0 .09.02a15.62 15.62 0 0 0-2.74-6.45c-.52-.07-1.04-.15-1.55-.24a15.38 15.38 0 0 1 2.33 4.3Z" fill="currentcolor"></path><path d="M13.96 34.15a11.24 11.24 0 0 0-4.6 5.81l-.05.17.05.01.3.04a354.73 354.73 0 0 0 .5.07h.06l.05.01h.06l.04.01.37.05c.1 0 .18.02.27.03l.11.01c.11-.34.24-.67.39-1 1.7-3.78 5.75-6.32 10.93-6.43-.4-.34-.8-.7-1.18-1.06-1.1.07-2.16.23-3.16.49-1.53.4-2.92 1-4.14 1.8ZM34.95 40.55a11.34 11.34 0 0 1 1.53 2.95c.15.46.26.93.34 1.4l.08.05.08.04a10.9 10.9 0 0 0 .43.2l.12.06.3.14.25.1-.06-.25a13.35 13.35 0 0 0-2.73-5.55l-.16-.2c-.47-.11-.94-.25-1.4-.39.45.46.86.94 1.22 1.45Z" fill="currentcolor"></path><path d="M15.38 37.42a8.67 8.67 0 0 0-1.83 3.11h.25l.5.02h.98l.08-.2a7.52 7.52 0 0 1 2.83-3.66 9.24 9.24 0 0 1 2.95-1.34 11.49 11.49 0 0 1 4.11-.29c-.38-.25-.74-.51-1.1-.78l-.45-.01c-3.24-.06-6.3.96-8.32 3.15Z" fill="currentcolor"></path><path d="M24.72 35.88c-2.7 0-4.91 1.07-6.2 2.76a5.98 5.98 0 0 0-.95 1.8h.08l.03-.01h.02l.55-.06h.05l.08-.01h.06l.04-.01h.03l.56-.08.1-.01h.02l.04-.1a5.65 5.65 0 0 1 1.83-2.47 6.33 6.33 0 0 1 2.9-1.19 9.14 9.14 0 0 1 3.86.3h.04c-.08.06-.15.13-.2.21l-.24-.05a7.18 7.18 0 0 0-2.07-.1c-1.1.13-2.05.53-2.77 1.13-.6.5-1.05 1.14-1.28 1.88l.05-.02.6-.14.05-.02h.03l.07-.02.14-.04.08-.02.37-.1h.02l.01-.01h.02l.01-.01.01-.02c.09-.27.21-.53.37-.76.7-1.07 2.03-1.74 3.67-1.69h.02l.34.02h-.01l-.07.02-.05.01h-.01c-1.2.13-2.09.8-2.4 1.76.03 0 .05-.02.08-.03a5.52 5.52 0 0 0 .45-.2h.04l.12-.06.11-.05.23-.11.14-.07.06-.03h.01l.03-.02a1.9 1.9 0 0 1 1.29-1.22h.03l.39.06c-.05.08-.1.16-.13.25l.07-.05c.08-.05.16-.1.24-.17v.01a.42.42 0 0 0-.04.03l-.04.02a.93.93 0 0 1-.05.04h-.02c0 .02-.02.02-.02.03h-.01l-.06.04-.04.03-.03.02a1.2 1.2 0 0 0 .03.79 1.92 1.92 0 0 0 1.03 1.06 2.05 2.05 0 0 0 .75.18h.02c.51.02.94-.17 1.19-.5l.05-.07v-.08l-.02-.2v-.16l-.02-.13V37.92l-.3-.13c-.15.07-.32.1-.51.1h-.1a1.36 1.36 0 0 1-.73-.33 1.35 1.35 0 0 1-.2-.2 1 1 0 0 1-.15-.34v-.04c-.55-.27-1.08-.57-1.6-.88a10.82 10.82 0 0 0-2.2-.22Zm3.4 1v.01h-.01l-.08.07-.09.06-.07.05.07-.05.09-.06.01-.02h.01l.07-.06ZM30.74 38.15l.09.05a9.3 9.3 0 0 1 1.85 1.7 7.68 7.68 0 0 1 1.53 3.14 6.27 6.27 0 0 1 .07.28l.05.04c.02 0 .03.02.04.03l.12.08-.07-.05-.03-.02-.04-.03-.06-.05-.02-.01c.03.3.06.6.06.9a5.03 5.03 0 0 1-.82 2.84v.04l.37.59.03.04.07.1c0 .02.02.04.03.05l.3.45.02.05.02.02.02.04a5.96 5.96 0 0 0 .93-4.15c0-.09-.02-.17-.03-.26l-.04-.02-.03-.02-.03-.02-.02-.02-.03-.02-.05-.03-.06-.05-.06-.03-.05-.04-.07-.05a1.88 1.88 0 0 0-.12-.08l.06.04.07.05.07.05.1.06.1.08.04.02.03.02.05.03a.6.6 0 0 0 .04.03 7.63 7.63 0 0 0-.74-2.3 9.2 9.2 0 0 0-1.6-2.26 10.9 10.9 0 0 0-1.05-.99c-.4-.14-.78-.3-1.16-.46l.02.14Zm3.95 5.48-.03-.02-.04-.03-.02-.02-.04-.03-.08-.06.22.17v-.01ZM44.55 47.3l-.47-.1h-.04l-.15-.02-.2-.04-.07-.01.1.72c.34 3.18-.4 6.08-1.95 8.47l.09.08.58.45.1.08a37.7 37.7 0 0 0 .74.55c1.73-2.94 2.62-5.53 2.04-10.08l-.37-.05-.4-.06ZM41.4 50.7a11.7 11.7 0 0 0 .04-4.06h-.03l-.03-.02h-.02l-.36-.1-.2-.06-.04-.01-.17-.05-.35-.11-.16-.05-.04-.01-.09-.03a11.05 11.05 0 0 1-.02 3.6 9.87 9.87 0 0 1-1.43 3.6l.08.08a30.2 30.2 0 0 0 1.2 1.14l.04.04a10.81 10.81 0 0 0 1.59-3.97ZM36.82 44.91l.04.34a7.36 7.36 0 0 1-1.13 5.04l.06.06.01.02.1.11.3.4.06.06.06.08.02.02.09.1.25.3.14.16.02.02.17-.3c.32-.57.6-1.14.79-1.75.21-.64.34-1.32.37-2.1.03-.59 0-1.24-.1-1.97a2.44 2.44 0 0 0-.08-.04l-.07-.03-.09-.04-.3-.14h-.02l-.03-.02a6.3 6.3 0 0 0-.1-.05h-.02l-.04-.02-.13-.07-.16-.07L37 45h-.02l-.03-.02-.02-.01-.03-.02a1.1 1.1 0 0 0-.08-.04Z" fill="currentcolor"></path><path d="M32.47 45.17v.02l.03-.04a3.94 3.94 0 0 0 .62-1.95c.01-.3 0-.6-.05-.91v-.04l-.02-.02-.05-.04-.02-.03-.02-.02-.02-.02.04.04.09.09a5.26 5.26 0 0 0-1.04-2.4 6.66 6.66 0 0 0-1.16-1.23v-.01l-.02-.01.02.07.01.05.02.05v.02l.06.06.1.33.03.12c.01.05.04.1.06.14 0 .03.02.05.03.07l.02.06.06.13.01.03.01.02.02.04.01.02.03.05.03.06.04.1.03.04.07.14v.02h.01a2.96 2.96 0 0 0-.38-1.05c-.04-.07-.07-.14-.12-.2l-.01-.03-.04-.08.06.06a5.38 5.38 0 0 1 1.05 1.6c.09.23.16.46.2.7l.05.2.01.02.05.06-.06-.08a3.78 3.78 0 0 1-.02 1.26 3.3 3.3 0 0 1-.46 1.13v.03l.01.01.13.29.09.2.03.1.02.03.05.11a25.37 25.37 0 0 0 .29.6Zm.37-3.16h-.01V42l-.01-.01-.06-.07.19.2-.11-.11Zm-.1-.12.02.04v-.01l-.02-.02h-.01l-.07-.08-.02-.03-.01-.01v-.01a3.7 3.7 0 0 1 .11.12Zm-.2-.23.03.04-.01-.01-.07-.07-.02-.03-.03-.04-.04-.05.13.16Z" fill="currentcolor"></path><path d="M31.18 41.95a2.29 2.29 0 0 0 .38-1.18c.01-.17 0-.34-.02-.52v-.02l-.01-.01-.01-.02-.01-.02-.01-.01-.06-.11-.03-.06v-.02l-.05-.09-.01-.02a27.2 27.2 0 0 1-.06-.12l-.02-.04v-.01l-.07-.14-.02-.04c-.02-.07-.06-.14-.09-.2a2 2 0 0 1 0 .67c-.04.19-.11.37-.2.53l-.06.09.01.03.14.6.02.07.02.05a16.97 16.97 0 0 0 .14.52l.02.07ZM30.5 38.13V38.23l.04.5v.08c.06-.1.1-.2.13-.3a1.13 1.13 0 0 0 .04-.5l-.22-.1v.22ZM42.54 56.93l-.1-.08-.58-.45-.1-.08c-2.7 4.12-7.86 6.7-14.2 6.5-9.22-.32-17.8-6.45-20.5-14.2a16.14 16.14 0 0 1-.85-4.1 13.51 13.51 0 0 1 .58-4.85l-.12-.02-.12-.03h-.03l-.1-.03-.05-.01h-.02l-.05-.02h-.04l-.3-.08h-.02l-.12-.03-.04-.01h-.02l-.55-.14h-.03l-.17-.06-.08-.02c-.32.99-.53 2.02-.62 3.1-.1 1.19-.06 2.42.15 3.7v.02c1.57 9.87 11.97 18.18 23.25 18.56 6.95.24 12.61-2.6 15.57-7.12l-.07-.05a54.4 54.4 0 0 1-.67-.5Z" fill="currentcolor"></path><path d="M9.33 40.13H9.3c-.3.93-.47 1.9-.52 2.92-.03.8 0 1.62.14 2.45v.04a13.79 13.79 0 0 0 1.33 4.11c.15.3.3.6.48.9 3.16 5.48 9.71 9.54 16.7 9.77 5.52.2 10.03-2.06 12.38-5.66a41.9 41.9 0 0 1-.75-.7l-.5-.48-.07-.08c-2.11 3.23-6.15 5.25-11.12 5.08a18.6 18.6 0 0 1-14.4-7.87 16.28 16.28 0 0 1-1.4-2.6 13.71 13.71 0 0 1-.8-2.8l-.02-.2a10.92 10.92 0 0 1 .36-4.65l-.11-.01-.3-.03h-.05l-.12-.02-.07-.01-.1-.02h-.11l-.1-.02-.07-.01-.1-.01-.08-.02-.4-.05h-.07l-.02-.01h-.03l-.03-.01h-.03Z" fill="currentcolor"></path><path d="M14.42 48.07a12.69 12.69 0 0 0 2.68 3.5 15.92 15.92 0 0 0 10.28 4.38c3.73.12 6.84-1.2 8.76-3.4.26-.3.49-.6.7-.93l-.02-.02-.14-.16-.09-.1-.16-.2-.02-.01-.09-.11a2.7 2.7 0 0 1-.09-.11l-.02-.04-.08-.1-.17-.2-.07-.08-.08-.1-.02-.04-.06-.06-.2.3a7.67 7.67 0 0 1-1.8 1.76 10.18 10.18 0 0 1-6.3 1.73 13.91 13.91 0 0 1-10.8-5.94 10.78 10.78 0 0 1-1.5-3.47 9.32 9.32 0 0 1-.2-1.97c.02-.75.14-1.47.36-2.15H14.12l-.2-.01h-.36c-.05.12-.08.26-.12.4a8.74 8.74 0 0 0-.17 3.72 11.3 11.3 0 0 0 1.15 3.4Z" fill="currentcolor"></path><path d="M17.6 44.42a8.08 8.08 0 0 0 1.07 2.24 9.64 9.64 0 0 0 2.17 2.37 12.56 12.56 0 0 0 2.19 1.38 11.17 11.17 0 0 0 4.52 1.15 9.46 9.46 0 0 0 3.24-.45 7.67 7.67 0 0 0 2.4-1.34 6.33 6.33 0 0 0 1.18-1.33l-.1-.15-.03-.05-.13-.2-.03-.05-.01-.01-.03-.04a3.76 3.76 0 0 0-.07-.11l-.09-.14v-.01l-.08-.12-.08-.13-.11-.18-.05-.09-.03-.04-.02-.03-.01-.02a5.98 5.98 0 0 1-3.52 2.42 8 8 0 0 1-2.3.24 9.24 9.24 0 0 1-4.01-1.06 9.98 9.98 0 0 1-3.03-2.4 8.67 8.67 0 0 1-1.13-1.81 6.73 6.73 0 0 1-.57-2.66c0-.54.09-1.06.24-1.55h-.01l-.17.03-.24.03h-.06v.01h-.04l-.03.01h-.03l-.12.02-.14.01h-.04l-.03.01-.1.01h-.07l-.03.01h-.05a71 71 0 0 1-.24.03H17.7l-.05.01H17.58a6.4 6.4 0 0 0 .02 4Z" fill="currentcolor"></path><path d="m21.3 39.87-.03.09a4.15 4.15 0 0 0-.11 1.89 5.07 5.07 0 0 0 .5 1.55 6.05 6.05 0 0 0 1.08 1.52 7.07 7.07 0 0 0 1.93 1.46 7.92 7.92 0 0 0 3.05.88l.21.01c1.27.04 2.4-.26 3.27-.83.52-.33.95-.75 1.27-1.25l-.01-.03-.01-.02-.13-.27-.02-.05-.02-.04-.01-.01-.08-.18v-.02a7.49 7.49 0 0 0-.06-.11v-.02l-.05-.08v-.02l-.03-.06-.02-.05-.15-.33-.02-.06v-.02c-.2.29-.43.55-.7.77a4.36 4.36 0 0 1-3 .92 5.83 5.83 0 0 1-2.58-.68 6.26 6.26 0 0 1-2.28-2.03 4.7 4.7 0 0 1-.65-1.63l-.01-.07a3.6 3.6 0 0 1 .11-1.6h-.06l-.03.02h-.03l-.27.08-.07.02-.05.02h-.05l-.02.01-.07.02h-.03l-.01.01-.1.03h-.02l-.06.02-.08.02-.09.02-.35.08h-.01l-.06.02Z" fill="currentcolor"></path><path d="m24.62 38.83-.04.18c-.07.3-.1.61-.04.95v.03a3 3 0 0 0 .51 1.28 3.89 3.89 0 0 0 .83.9 4.77 4.77 0 0 0 1.63.85c.3.08.62.14.94.15h.07c1.16.05 2.11-.42 2.62-1.16l.04-.05-.02-.08-.05-.16c0-.04-.02-.07-.03-.1v-.02l-.02-.06v-.03l-.02-.04-.02-.1-.01-.03-.03-.1v-.03l-.02-.04v-.02a.3.3 0 0 1-.01-.04l-.06-.23-.03-.13v-.05l-.02-.05v-.03a1.9 1.9 0 0 1-.98.75 2.66 2.66 0 0 1-1.34.13 3.2 3.2 0 0 1-1-.3 3.57 3.57 0 0 1-1.18-.92 2.35 2.35 0 0 1-.5-1.04l-.01-.1a1.95 1.95 0 0 1 .06-.88l-.03.02-.07.03-.07.03-.07.04-.12.06-.13.06h-.03c-.01.02-.03.02-.05.03l-.13.06-.1.05c-.03 0-.06.02-.09.04-.02 0-.03 0-.05.02h-.02l-.02.01h-.01l-.05.03-.07.03c-.03 0-.05.02-.08.03l-.08.03ZM36.06 28.35h.02c.18-.28.26-.62.22-.99l-.01-.06-.07.06-.03.02-.4.32-.08.06-.03.03-.04.03-.4.34-.03.03h-.01l-.03.04v.14a1 1 0 0 1-.03.31l.02.01.12.02h.01l.09.01h.01l.04-.03c.02 0 .02-.01.03-.02h.01l.04-.02.09-.05.15-.09.04-.02h.01l.01-.01h.01l.06-.04.04-.02.03-.01.06-.03.05-.03ZM39.1 25.4l-.06.04-.3.18-.07.04-.08.05-.16.1-.26.17-.14.08v.01H38l-.02.02c.02.19.03.36.02.53-.02.4-.14.75-.34 1.06h.02v-.01l.04-.01.03-.01h.01l.08-.03.21-.07.06-.02h.03l.08-.03.13-.04.1-.02.04-.02.04-.01h.02l.1-.03.06-.02.14-.03.06-.02c.21-.32.35-.69.42-1.09.04-.3.05-.62 0-.95l-.08.04-.16.1ZM42.17 26.83a4.5 4.5 0 0 0 .73-2.69c0-.21-.02-.43-.06-.65l-.02.01-.42.2-.25.1c-.02.02-.06.03-.09.04l-.08.04-.57.28-.07.03-.02.01h-.01a3.74 3.74 0 0 1-.5 2.67l-.06.1h.05l.03-.01.25-.03.07-.01h.01l.08-.01h.04l.1-.01h.03l.11-.02h.02l.1-.01h.08l.02-.01h.05l.17-.02H42.17ZM46.73 22.01l-.02.01-.05.02-.39.13-.24.08-.06.02-.19.06-.49.18-.15.05-.03.01-.06.03a5.77 5.77 0 0 1-.85 4.2h.06a1980.85 1980.85 0 0 0 .3.01h.11l.02.01h.09l.1.01h.05l.11.01h.1l.07.01h.02l.12.01.13.01a.2.2 0 0 0 .03 0l.2.02h.03a6.57 6.57 0 0 0 1.08-4.03 8.42 8.42 0 0 0-.09-.85ZM55.22 20.12h-.02l-.1.01-.11.02-.28.04h-.02l-.28.04-.16.02-.1.02c-.03 0-.08 0-.12.02l-.28.04h-.02l-.04.01a3.2 3.2 0 0 0-.15.02l-.11.02a11.65 11.65 0 0 1 .04 3.4c-.2 1.45-.67 2.8-1.38 4l-.23.36.04.02h.03l.03.02c.04 0 .08.02.11.03l.53.17.14.05.12.04.03.01.6.2c.02.02.04.02.07.03a11.75 11.75 0 0 0 1.83-5.23 12.9 12.9 0 0 0-.1-3.37h-.07Z" fill="currentcolor"></path><path d="M32.25 27.13V27.2l.02.05.05.05.05.05.08.06c.07-.1.16-.2.27-.27.1-.07.23-.12.36-.16a1.52 1.52 0 0 1 .66-.03 1.68 1.68 0 0 1 .63.22 1.95 1.95 0 0 1 .5.42 1.4 1.4 0 0 1 .3.65l.03-.03.05-.04.02-.02.07-.06.17-.15.02-.01.03-.03.05-.05h.02l.03-.03.01-.01.08-.06.04-.04.1-.08.06-.05.02-.02.03-.02.02-.02.07-.05.1-.08.03-.02.07-.06a2.14 2.14 0 0 0-.68-1.2 2.69 2.69 0 0 0-1.63-.71h-.09c-.71-.03-1.29.26-1.6.72-.07.1-.13.22-.17.35l.01.07.01.03v.02l.02.09.01.03v.05l.01.01.02.1v.02l.02.1.01.05.01.06v.04ZM38.74 23.77a4.6 4.6 0 0 0-1.48-1.44 5.43 5.43 0 0 0-2.65-.84 4.4 4.4 0 0 0-1.11.1c-.42.1-.8.25-1.13.45a2.95 2.95 0 0 0-1.24 1.56l.02.06.06.11.03.07v.02l.02.03.04.08V24c.03.04.04.09.06.13l.06.13v.02l.02.02v.02l.01.02v.01l.02.03.03.08.01.03.1.25v.02l.01.02.01.02a2.22 2.22 0 0 1 .67-.98c.39-.34.9-.56 1.5-.63a3.42 3.42 0 0 1 1.01.03 4 4 0 0 1 2.15 1.05 3.89 3.89 0 0 1 .73.95 2.89 2.89 0 0 1 .3.87l.02-.01.03-.02.02-.01.07-.05.13-.08.08-.05.09-.06.03-.02h.02v-.01l.11-.07a2.09 2.09 0 0 0 .14-.08l.08-.05.07-.04.04-.03c.02 0 .04-.02.05-.03h.01l.07-.04.21-.13.07-.04-.01-.08a3.6 3.6 0 0 0-.58-1.42Z" fill="currentcolor"></path><path d="M30.39 21.59c.18-.4.43-.78.75-1.1a4.99 4.99 0 0 1 3.8-1.38 6.69 6.69 0 0 1 2.62.62 7.22 7.22 0 0 1 2.51 1.88 5.87 5.87 0 0 1 .96 1.58c.12.3.2.6.26.92l.02.1.02-.01.03-.02.05-.02.25-.12.15-.08.04-.02h.01l.12-.06.03-.01.14-.06.01-.01.16-.07.03-.02h.01l.03-.02h.02a1.63 1.63 0 0 1 .16-.08l.24-.1.02-.01a5.47 5.47 0 0 0-.5-1.62 6.73 6.73 0 0 0-1.13-1.69 8.1 8.1 0 0 0-2.3-1.81 8.43 8.43 0 0 0-5.65-.87c-.86.2-1.62.57-2.24 1.06a4.7 4.7 0 0 0-1.56 2.21l.01.02.04.05.04.06.05.07.06.1.02.02.02.03.02.03h.01l.04.07.02.02c0 .02.02.04.03.05a1.67 1.67 0 0 1 .09.14l.01.02.02.04h.01a1.7 1.7 0 0 1 .09.14c0 .02.02.03.03.05l.1.16.03.04.04.07.16-.37Z" fill="currentcolor"></path><path d="m27.14 18.05.02.01.06.06.02.02.12.13.13.14.02.03.05.05.07.07.12.13.03.03.05.06.02.02.03.04.07.08.01.01.1.11.1.1.02.04.01.01a5.67 5.67 0 0 1 1.45-2.33A6.37 6.37 0 0 1 32 15.37a7.92 7.92 0 0 1 1.95-.46 10.47 10.47 0 0 1 6.26 1.33 11.25 11.25 0 0 1 2.63 2.04 10.2 10.2 0 0 1 1.2 1.59 8.24 8.24 0 0 1 .95 2.4l.06.33.06-.02.05-.02.13-.05.04-.01.1-.04.04-.01.12-.05.16-.05.03-.01.18-.07h.01l.1-.04.07-.02.06-.02.07-.02.03-.01.05-.02.05-.01.21-.07.04-.02.06-.02h.02a8.65 8.65 0 0 0-1.21-3.25 10.83 10.83 0 0 0-2.54-2.9l-.45-.35-.17-.12a12.68 12.68 0 0 0-6.9-2.4 9.74 9.74 0 0 0-5.36 1.33 7.73 7.73 0 0 0-2 1.84c-.36.5-.65 1.03-.86 1.6l-.1.28Z" fill="currentcolor"></path><path d="M48.55 15.4a15.09 15.09 0 0 0-.85-1.05A17.28 17.28 0 0 0 35.57 8.6c-4.7-.16-8.49 1.8-10.4 4.9a8.88 8.88 0 0 0-.92 1.96l.04.03.3.24.12.1.1.08.05.04.13.1.17.14.02.02.08.06.1.1c.02 0 .03.02.04.03l.07.06.08.06a8.02 8.02 0 0 1 2.01-3.25c1.86-1.84 4.67-2.93 7.99-2.82a15.31 15.31 0 0 1 11.13 5.56 13.62 13.62 0 0 1 1.5 2.35 10.92 10.92 0 0 1 .9 2.76l.04.18.05-.01.05-.02h.04l.2-.06.06-.02h.03l.08-.03.08-.01.05-.02.14-.03.11-.03.07-.02-.18.05c-.05 0-.1.02-.14.03h-.01l-.5.14h-.03l-.08.02h-.02a9 9 0 0 1 .09 2.1 8.06 8.06 0 0 1-1.28 3.8h.1l.05.02.12.02c.05 0 .1.02.14.03h.03l.05.01h.01l.14.03a10.5 10.5 0 0 0 .07.02c.06 0 .11.02.17.03l.23.05.08.01h.03l.18.05.05.01h.02l.13.03.04.01a8.95 8.95 0 0 0 1.47-5.02c0-.53-.04-1.07-.12-1.63a.4.4 0 0 1-.05.01l.05-.01-.08-.43a11.57 11.57 0 0 0-1.38-3.65c-.15-.27-.31-.53-.48-.78l-.43-.61Zm2.08 5.54-.43.1-.1.02-.02.01h.04l.07-.03h.01l.06-.02.17-.04h.02l.15-.04.12-.02.1-.03h.05l-.24.05Z" fill="currentcolor"></path><path d="m21.55 13.58.13.08.56.36.1.07c1.57-4.92 6.63-8.24 13.19-8.01 6.5.22 12.62 3.86 15.8 8.87a15.33 15.33 0 0 1 2.1 5.43l.11-.02.3-.04h.01l.04-.01h.04l.04-.01.06-.01h.04l.18-.03.15-.03h.03l.22-.03.17-.03h.07l.1-.02h.04l.2-.03h.07a13.94 13.94 0 0 0-.74-2.81c-.16-.43-.33-.85-.53-1.27C50.98 9.5 43.48 4.52 35.45 4.24 28.2 4 22.57 7.69 20.83 13.14l.05.04.67.4Z" fill="currentcolor"></path><path d="m17.75 11.46.08.04.69.34.1.05C20.6 5.7 27 1.5 35.28 1.78c10.7.36 20.6 8.07 22.47 17.37.05.23.1.46.13.7h.09l.02-.01h-.11a14.2 14.2 0 0 1-.12 5.35c-.35 1.62-.98 3.11-1.86 4.46l.1.04.17.08.18.08.06.02.27.13h.02l.02.01.06.04.14.06.05.02.31.15.2.1.05.02.02.01h.01l.07.04.3-.49a14.55 14.55 0 0 0 2.02-6.4c.1-1.23.05-2.5-.16-3.81h-.09.1C58.13 9.25 47.08.42 35.1 0c-9.03-.3-16.02 4.28-18.2 11.05l.1.04.75.36Zm40.34 8.37.2-.01h.03l.44-.03c-.15 0-.3.02-.44.03l-.32.02h.1Zm.67-.04h.1-.1ZM31.57 32.71l.01-.02-.02.04a5.57 5.57 0 0 0 .01-.02ZM31.92 26.87a2.85 2.85 0 0 1-.36-1.78l.07-.25v-.05l-.08-.2-.02-.05-.03-.07a7.78 7.78 0 0 0-.08-.19v-.02l-.06-.13-.06-.13-.1-.22-.05-.12-.02-.05-.04.16a2.97 2.97 0 0 0-.06 1.21l.02.07a3.56 3.56 0 0 0 .43 1.18 4.51 4.51 0 0 0 .5.72l-.06-.08ZM36.47 28.73h.01l.06-.01a3.46 3.46 0 0 0 2.38-1.4l-.06.01-.14.04-.23.06-.13.03-.13.04h-.02l-.01.01-.33.1-.17.06h-.01l-.03.01-.14.2a2.62 2.62 0 0 1-1.74.88h-.06H35.9c.2 0 .4-.01.58-.03ZM35.67 28.76h.05-.05Z" fill="currentcolor"></path><path d="M35.55 29.97a12 12 0 0 0 3.83.36 8.48 8.48 0 0 0 5.55-2.41c.3-.32.58-.65.82-1.02h-.02l-.25-.02c-.13 0-.25-.02-.38-.03h-.13l-.1-.01-.3-.02h-.25a.8.8 0 0 1-.06-.01h-.06c-1.23 1.88-3.6 3.06-6.5 2.96a10.06 10.06 0 0 1-2.96-.54l.03-.02.1-.05.24-.12.08-.05.1-.04h.01l.1.02a7.18 7.18 0 0 0 3.52.03c.8-.19 1.51-.52 2.1-.96.46-.34.85-.75 1.15-1.2h-.02a.3.3 0 0 0-.05 0l-.3.02-.26.02h-.05l-.06.01h-.05l-.57.07h-.05c-.82 1.24-2.37 2.02-4.27 1.96l-.1-.01a6.4 6.4 0 0 1-.77-.08l-.05-.01c.21-.13.39-.29.51-.48l-.06.03-.4.21c-.02 0-.02.01-.03.02l-.08.04-.03.02-.18.1a7.08 7.08 0 0 1-3.02-1.43v-.04l-.01-.04v-.02l-.02-.11v-.05l-.02-.1-.08-.4v-.02l-.01-.01v-.02l-.02-.07-.01.07a1.55 1.55 0 0 0-.05.51l-.07-.08.07.08c0 .04 0 .08.02.12-.02 0-.03-.02-.04-.03l-.02-.02a6.63 6.63 0 0 1-1.21-1.44 5.53 5.53 0 0 1-.69-1.84 4.3 4.3 0 0 1 .13-1.86h-.01a.5.5 0 0 0-.03-.05l-.14-.23-.16-.25-.09-.13-.22-.33-.09-.12-.01-.02-.01-.02-.02-.02v-.01a4.72 4.72 0 0 0-.16 2.25l.02.1a5.65 5.65 0 0 0 .65 1.85 7.23 7.23 0 0 0 2.17 2.46v.04a11.2 11.2 0 0 1 .11.57A10.88 10.88 0 0 1 29.91 26a9.37 9.37 0 0 1-1.42-2.3 7.49 7.49 0 0 1-.56-2.57 6.03 6.03 0 0 1 .27-1.95 12.96 12.96 0 0 0-.42-.46l-.01-.02a8.2 8.2 0 0 0-.13-.14l-.04-.04-.34-.36-.04-.04-.02-.02-.04-.04-.01-.01a6.68 6.68 0 0 0-.27 2.98l.04.31a8.3 8.3 0 0 0 .86 2.6 10.24 10.24 0 0 0 2.15 2.88 12.4 12.4 0 0 0 2.42 1.82l.02.01.02.01a13.18 13.18 0 0 0 1.8.87l.06.02c.42.16.86.3 1.3.42Zm-1.93-1.62c.47.22.97.4 1.47.55h-.02v.01h-.01l-.04.03a1 1 0 0 1-.3.3l-.09-.04a9.9 9.9 0 0 1-2.27-1.08l-.08-.06a.98.98 0 0 1 .04-.4v-.03a.7.7 0 0 0-.01-.06l.08.06c.4.27.8.5 1.23.72Z" fill="currentcolor"></path><path d="M29.34 28.55c.88.68 1.84 1.3 2.85 1.8l.06.04v.07-.04l.01-.03.67.32-.02.01v.01l-.02.03.04-.05-.03.04-.02.02.06-.06a17.3 17.3 0 0 0 6.35 1.51c4.59.16 8.33-1.71 10.28-4.7a.3.3 0 0 0-.04 0l-.07-.02h-.04l-.3-.07-.2-.05-.11-.02-.17-.03h-.03l-.04-.02-.37-.06-.15-.03h-.02l-.1-.03c-1.73 2.64-5.03 4.3-9.09 4.16a14.56 14.56 0 0 1-5.26-1.18c-.03 0-.05-.02-.07-.03l.13-.12a.6.6 0 0 0 .09-.1l-.02.01-.22.2c-.39-.16-.76-.34-1.13-.53l.02-.28v-.05.02l-.02.1v.08l-.01.12a15.73 15.73 0 0 1-3.33-2.37 13.97 13.97 0 0 1-2.65-3.46 10.93 10.93 0 0 1-1.17-3.9 8.64 8.64 0 0 1 .35-3.32l-.08-.06-.05-.05a.7.7 0 0 0-.04-.03l-.22-.19-.07-.06-.1-.08-.12-.1-.07-.06-.35-.28-.16-.13-.03-.02a10.1 10.1 0 0 0-.33 4.35l.02.13a13 13 0 0 0 1.7 4.5 14.98 14.98 0 0 0 3.7 4.09Z" fill="currentcolor"></path><path d="M31.59 32.62c0 .03-.02.05-.03.07l-.09.22.07-.15.06-.13h.01l-.03.06.01-.02.01-.01.01-.03h.01a22.54 22.54 0 0 0 8.65 2.15c5.93.2 10.76-2.21 13.29-6.07l-.07-.03-.6-.2-.09-.04-.05-.02-.15-.04-.31-.1-.33-.1-.06-.03-.04-.01c-2.28 3.48-6.64 5.66-12 5.48a19.3 19.3 0 0 1-7.62-1.86l-.09-.04-.25.38.05-.07.03-.06.17-.25-.18-.09h-.01l-.02-.01a20.33 20.33 0 0 1-6.47-4.97c-.82-.97-1.52-2-2.08-3.1a14.2 14.2 0 0 1-1.42-4.24 12.06 12.06 0 0 1 .16-4.5l.2-.73-.09-.06a25.1 25.1 0 0 0-.56-.37l-.13-.08-.67-.41-.06-.03a12.03 12.03 0 0 0-.56 3.34 13.29 13.29 0 0 0 .31 3.27c.3 1.34.78 2.64 1.42 3.88.74 1.43 1.7 2.78 2.82 4.02a21.71 21.71 0 0 0 6.78 4.98Z" fill="currentcolor"></path><path d="M28.2 34.2A27.52 27.52 0 0 0 41.1 38c7.38.26 13.39-2.75 16.53-7.55l-.09-.04-.69-.33a1.05 1.05 0 0 0-.07-.04l-.06-.03h-.02l-.05-.03-.65-.3c-.03 0-.06-.02-.1-.04l-.16.24c-2.91 4.25-8.34 6.9-14.98 6.68-1.96-.06-3.9-.38-5.77-.9-3.37-.96-6.5-2.6-9.14-4.72a23.1 23.1 0 0 1-5.05-5.6 18.6 18.6 0 0 1-2.64-6.84c-.37-2.36-.19-4.59.46-6.6l-.1-.06-.68-.34-.09-.04-.76-.36-.08-.04c-.7 2.2-.9 4.64-.5 7.21.42 2.65 1.43 5.2 2.91 7.53a26.16 26.16 0 0 0 8.88 8.4Z" fill="currentcolor"></path></svg>