<svg xmlns="http://www.w3.org/2000/svg" width="145" height="145" viewBox="0 0 145 145" fill="none"><mask id="mask0_new" style="mask-type:luminance" maskUnits="userSpaceOnUse" x="1" y="1" width="143" height="143"><path d="M1.3708 1.7843H143.267V143.63L1.3708 1.7843Z" fill="white"></path></mask><g mask="url(#mask0_new)"><path d="M70.9935 202.619L219.54 54.0972L217.356 51.9138L68.8099 200.435L70.9935 202.619Z" fill="currentcolor"></path></g><mask id="mask1_new" style="mask-type:luminance" maskUnits="userSpaceOnUse" x="1" y="1" width="143" height="143"><path d="M1.3708 1.7843H143.267V143.63L1.3708 1.7843Z" fill="white"></path></mask><g mask="url(#mask1_new)"><path d="M59.3881 191.031L207.935 42.509L205.751 40.3257L57.2044 188.847L59.3881 191.031Z" fill="currentcolor"></path></g><mask id="mask2_new" style="mask-type:luminance" maskUnits="userSpaceOnUse" x="1" y="1" width="143" height="143"><path d="M1.3708 1.7843H143.267V143.63L1.3708 1.7843Z" fill="white"></path></mask><g mask="url(#mask2_new)"><path d="M47.8207 179.442L196.367 30.9207L194.184 28.7374L45.6371 177.259L47.8207 179.442Z" fill="currentcolor"></path></g><mask id="mask3_new" style="mask-type:luminance" maskUnits="userSpaceOnUse" x="1" y="1" width="143" height="143"><path d="M1.3708 1.7843H143.267V143.63L1.3708 1.7843Z" fill="white"></path></mask><g mask="url(#mask3_new)"><path d="M36.1698 167.822L184.737 19.3003L182.554 17.1167L33.9861 165.638L36.1698 167.822Z" fill="currentcolor"></path></g><mask id="mask4_new" style="mask-type:luminance" maskUnits="userSpaceOnUse" x="1" y="1" width="143" height="143"><path d="M1.3708 1.7843H143.267V143.63L1.3708 1.7843Z" fill="white"></path></mask><g mask="url(#mask4_new)"><path d="M24.5683 156.253L173.115 7.71021L170.931 5.52691L22.3843 154.069L24.5683 156.253Z" fill="currentcolor"></path></g><mask id="mask5_new" style="mask-type:luminance" maskUnits="userSpaceOnUse" x="1" y="1" width="143" height="143"><path d="M1.3708 1.7843H143.267V143.63L1.3708 1.7843Z" fill="white"></path></mask><g mask="url(#mask5_new)"><path d="M13.0438 144.677L161.59 -3.84497L159.407 -6.02826L10.8602 142.493L13.0438 144.677Z" fill="currentcolor"></path></g><mask id="mask6_new" style="mask-type:luminance" maskUnits="userSpaceOnUse" x="1" y="1" width="143" height="143"><path d="M1.3708 1.7843H143.267V143.63L1.3708 1.7843Z" fill="white"></path></mask><g mask="url(#mask6_new)"><path d="M1.39001 133.055L149.958 -15.4661L147.774 -17.6497L-0.793645 130.872L1.39001 133.055Z" fill="currentcolor"></path></g><mask id="mask7_new" style="mask-type:luminance" maskUnits="userSpaceOnUse" x="1" y="1" width="143" height="143"><path d="M1.3708 1.7843H143.267V143.63L1.3708 1.7843Z" fill="white"></path></mask><g mask="url(#mask7_new)"><path d="M-10.1285 121.5L138.418 -27.0217L136.234 -29.2051L-12.3122 119.316L-10.1285 121.5Z" fill="currentcolor"></path></g><mask id="mask8_new" style="mask-type:luminance" maskUnits="userSpaceOnUse" x="1" y="1" width="143" height="143"><path d="M1.3708 1.7843H143.267V143.63L1.3708 1.7843Z" fill="white"></path></mask><g mask="url(#mask8_new)"><path d="M-21.7574 109.949L126.789 -38.5725L124.605 -40.7558L-23.9411 107.766L-21.7574 109.949Z" fill="currentcolor"></path></g><path d="M1.37039 0.41478H143.267C144.019 0.41478 144.636 1.03233 144.636 1.78412V143.63C144.636 144.194 144.287 144.704 143.777 144.892C143.267 145.106 142.676 144.999 142.273 144.596L0.403641 2.75066C0.000839233 2.34792 -0.106583 1.75725 0.108246 1.2471C0.323074 0.736969 0.833313 0.41478 1.37039 0.41478ZM141.87 3.18027H4.70027L141.87 140.327V3.18027Z" fill="currentcolor"></path></svg>