<svg xmlns="http://www.w3.org/2000/svg" id="svg-abstract-circular-grid" width="720" height="721" viewBox="0 0 720 721" fill="none"><path d="M360.134 1.00003C161.79 1.00001 1.00023 161.954 1.00021 360.5C1.0002 559.046 161.79 720 360.134 720C558.478 720 719.268 559.047 719.268 360.5C719.268 161.954 558.478 1.00005 360.134 1.00003Z" stroke="currentcolor" stroke-width="0.5"></path><path d="M9.21257 368.248C8.94551 350.181 9.57975 332.615 11.6829 315.316C16.924 272.47 30.6443 231.361 51.4419 194.759C65.1289 170.748 81.2196 148.707 98.7122 128.203C116.405 107.464 136.201 88.8963 158.802 72.8332C185.207 54.065 214.684 39.1707 246.332 29.2523C267.863 22.4731 290.197 17.9648 312.997 15.7273C327.519 14.3247 342.274 13.8906 357.296 14.1911C377.627 14.6253 397.69 16.5622 417.252 19.8683C428.569 21.7718 439.719 24.1429 450.635 26.9815C503.08 40.7404 551.452 65.4863 590.61 101.386C602.961 112.707 614.479 124.863 625.328 137.72C638.247 153.015 650.165 169.179 660.647 186.143C671.096 203.008 680.109 220.707 687.687 239.275C693.997 254.704 699.104 270.7 702.877 287.231C708.452 311.71 711.055 337.324 710.555 363.572C710.187 384.244 708.051 404.482 704.512 424.285C694.764 479.153 674.868 529.614 643.555 573.094C621.856 603.183 594.916 629.365 564.538 650.605C534.393 671.677 500.877 687.974 464.923 698.961C431.206 709.28 395.286 715.124 358.365 715.659C297.441 716.594 240.055 701.466 189.747 674.249C138.872 646.697 95.5741 606.59 64.3944 557.933C29.309 503.165 10.3142 437.944 9.21257 368.248Z" stroke="currentcolor" stroke-width="0.5"></path><path d="M17.4579 375.996C16.8904 358.229 16.8572 341.098 18.3928 324.133C22.2986 282.121 35.3179 240.979 56.1823 204.811C69.9694 180.967 85.8597 159.361 102.251 138.655C118.708 117.85 137.002 99.2156 158.968 82.8519C184.606 63.7833 213.75 48.7888 245.263 39.4715C266.662 33.093 288.728 29.2192 311.094 27.6496C325.349 26.6811 339.737 26.7813 354.459 27.4159C374.255 28.2841 393.884 30.388 413.113 33.594C424.229 35.4307 435.179 37.6348 445.895 40.273C497.204 53.0634 545.376 75.672 583.199 111.672C595.05 122.96 606.133 135.015 616.749 147.639C629.367 162.667 641.318 178.296 651.867 194.559C662.383 210.722 671.496 227.654 679.308 245.42C685.851 260.314 691.192 275.81 694.931 291.873C700.573 315.784 702.776 340.897 701.808 366.645C701.04 386.849 698.604 406.619 695.065 426.055C685.25 479.989 667.991 529.547 637.579 572.727C616.515 602.482 589.742 628.097 559.664 648.501C529.819 668.772 496.703 684.1 461.318 694.586C428.101 704.405 392.716 710.215 356.629 711.318C297.641 713.154 242.025 699.095 192.785 673.113C143.111 646.798 100.748 607.993 70.5703 560.571C36.6199 507.139 19.5944 443.621 17.4579 375.996Z" stroke="currentcolor" stroke-width="0.5"></path><path d="M25.6704 383.743C24.8358 366.278 24.068 349.613 25.0695 332.949C27.64 291.739 39.9582 250.596 60.8894 214.83C74.7767 191.153 90.4667 170.014 105.789 149.075C121.012 128.236 137.837 109.468 159.102 92.8705C183.972 73.5012 212.782 58.4399 244.195 49.657C265.427 43.6792 287.292 40.4065 309.192 39.5382C323.179 39.0373 337.233 39.6384 351.655 40.6069C370.883 41.8759 390.079 44.1802 408.973 47.2525C419.856 49.0225 430.605 51.0262 441.121 53.4641C491.296 65.1524 539.233 85.7907 575.788 121.891C587.138 133.112 597.754 145.067 608.136 157.49C620.487 172.284 632.439 187.379 643.054 202.941C653.637 218.403 662.85 234.533 670.929 251.565C677.739 265.925 683.247 280.886 687.02 296.548C692.695 319.858 694.564 344.537 693.095 369.751C691.96 389.487 689.19 408.79 685.651 427.892C675.77 480.924 661.115 529.58 631.604 572.427C611.207 601.848 584.534 626.861 554.79 646.464C525.246 665.9 492.564 680.327 457.712 690.245C424.997 699.529 390.112 705.306 354.893 707.009C297.875 709.748 243.961 696.757 195.856 672.011C147.418 646.965 105.956 609.429 76.7796 563.276C43.8974 511.146 28.8418 449.265 25.6704 383.743Z" stroke="currentcolor" stroke-width="0.5"></path><path d="M33.8823 391.491C32.7473 374.292 31.2783 358.096 31.7123 341.732C32.9475 301.324 44.5982 260.181 65.5293 224.848C79.5501 201.372 95.0397 180.666 109.227 159.494C123.248 138.622 138.538 119.72 159.168 102.856C183.271 83.1523 211.746 68.0242 243.026 59.8424C264.124 54.2654 285.723 51.5937 307.188 51.4268C320.909 51.3266 334.596 52.4955 348.75 53.7645C367.444 55.4676 386.206 57.9389 404.733 60.9111C415.416 62.6142 425.965 64.4176 436.28 66.6884C485.32 77.3749 533.057 95.9093 568.31 132.11C579.193 143.297 589.341 155.153 599.456 167.375C611.507 181.902 623.492 196.462 634.174 211.323C644.823 226.117 654.137 241.412 662.483 257.709C669.56 271.535 675.235 285.995 679.008 301.19C684.716 323.899 686.218 348.11 684.315 372.79C682.813 392.059 679.708 410.894 676.136 429.662C666.188 481.792 654.171 529.514 625.561 572.059C605.832 601.146 579.293 625.592 549.816 644.36C520.572 662.994 488.291 676.453 454.006 685.837C421.759 694.62 387.441 700.364 353.057 702.635C297.975 706.275 245.797 694.353 198.794 670.842C151.59 647.031 110.997 610.798 82.8884 565.881C51.208 515.12 38.0885 454.908 33.8823 391.491Z" stroke="currentcolor" stroke-width="0.5"></path><path d="M42.1281 399.239C40.6926 382.341 38.5228 366.578 38.4227 350.549C38.3225 310.975 49.272 269.799 70.2699 234.867C84.3909 211.557 99.6803 191.32 112.8 169.947C125.585 149.041 139.373 130.04 159.369 112.874C182.704 92.8707 210.845 77.6424 241.992 70.0617C262.956 64.8854 284.321 62.8149 305.353 63.3492C318.806 63.6832 332.126 65.353 346.013 66.9893C364.14 69.0932 382.5 71.7648 400.694 74.6034C411.176 76.2398 421.492 77.8762 431.64 79.9133C479.545 89.598 527.082 106.028 560.999 142.362C571.381 153.483 581.062 165.272 590.977 177.261C602.761 191.554 614.712 205.546 625.495 219.739C636.211 233.832 645.625 248.359 654.204 263.854C661.548 277.146 667.391 291.105 671.196 305.832C676.971 327.94 678.106 351.684 675.703 375.862C673.833 394.664 670.428 413.031 666.823 431.465C656.808 482.694 647.494 529.581 619.72 571.759C600.725 600.579 574.219 624.356 545.075 642.323C516.132 660.156 484.285 672.646 450.568 681.496C418.821 689.778 385.038 695.488 351.488 698.327C298.375 702.869 247.867 692.115 201.999 669.74C155.964 647.265 116.338 612.234 89.2314 568.553C58.4857 519.128 47.3025 460.553 42.1281 399.239Z" stroke="currentcolor" stroke-width="0.5"></path><path d="M50.3402 406.986C48.6043 390.355 45.6999 375.094 45.0991 359.365C43.5634 320.593 53.9122 279.416 74.9768 244.919C89.198 221.776 104.32 202.039 116.305 180.399C127.889 159.494 140.14 140.325 159.469 122.893C182.036 102.588 209.877 87.3601 240.89 80.2803C261.721 75.5381 282.819 74.0354 303.416 75.3044C316.603 76.1059 329.555 78.2766 343.142 80.2469C360.701 82.7849 378.628 85.5901 396.488 88.3286C406.736 89.8981 416.885 91.3342 426.799 93.2043C473.569 101.92 520.906 116.214 553.521 152.648C563.436 163.702 572.65 175.39 582.297 187.179C593.781 201.205 605.766 214.696 616.615 228.155C627.398 241.546 636.945 255.272 645.758 270.032C653.37 282.789 659.378 296.248 663.184 310.541C668.959 332.081 669.794 355.324 666.89 379.001C664.653 397.335 660.914 415.235 657.309 433.335C647.261 483.628 640.584 529.614 613.644 571.491C595.317 599.977 568.944 623.187 540.101 640.319C511.425 657.351 480.045 668.905 446.863 677.187C415.616 684.968 382.333 690.612 349.685 694.052C298.542 699.462 249.736 689.844 204.97 668.672C160.17 647.466 121.446 613.703 95.3403 571.258C65.7964 523.135 56.4827 466.196 50.3402 406.986Z" stroke="currentcolor" stroke-width="0.5"></path><path d="M58.586 414.734C56.5496 398.37 52.9777 383.576 51.8093 368.181C48.9384 330.244 58.586 289.001 79.684 254.937C94.0053 231.962 108.928 212.726 119.844 190.819C130.226 169.947 140.942 150.611 159.636 132.911C181.435 112.273 208.943 96.9779 239.822 90.4992C260.519 86.1579 281.384 85.2895 301.514 87.2265C314.466 88.4621 327.018 91.1671 340.338 93.438C357.363 96.3768 374.856 99.3824 392.382 102.021C402.43 103.523 412.345 104.792 422.093 106.429C467.727 114.143 514.864 126.332 546.177 162.9C555.591 173.887 564.337 185.509 573.751 197.064C584.968 210.822 596.953 223.78 607.869 236.57C618.718 249.294 628.399 262.218 637.446 276.177C645.358 288.4 651.5 301.324 655.339 315.183C661.148 336.121 661.649 358.897 658.244 382.073C655.606 399.906 651.567 417.372 647.928 435.105C637.813 484.497 633.774 529.58 607.735 571.124C590.109 599.276 563.837 621.885 535.294 638.215C506.919 654.445 475.939 665.031 443.324 672.779C412.579 680.026 379.83 685.636 348.016 689.677C298.843 695.922 251.773 687.473 208.108 667.503C164.51 647.566 126.721 615.072 101.617 573.896C73.0742 527.109 65.6631 471.84 58.586 414.734Z" stroke="currentcolor" stroke-width="0.5"></path><path d="M66.7978 422.482C64.461 406.419 60.188 392.092 58.4521 376.964C54.2124 339.829 63.2259 298.585 84.3573 264.956C98.8121 242.181 113.534 223.446 123.315 201.238C132.495 180.366 141.676 160.863 159.702 142.897C180.734 121.958 207.907 106.596 238.653 100.685C259.217 96.7445 279.848 96.4774 299.51 99.1156C312.196 100.785 324.381 103.991 337.433 106.63C353.891 109.936 370.983 113.175 388.142 115.68C397.957 117.116 407.704 118.184 417.218 119.62C461.718 126.333 508.654 136.385 538.632 173.086C547.579 184.04 555.824 195.528 565.005 206.882C575.921 220.407 587.939 232.797 598.922 244.886C609.838 256.908 619.653 269.031 628.9 282.255C637.079 293.944 643.388 306.367 647.26 319.791C653.102 340.163 653.269 362.437 649.397 385.113C646.392 402.478 642.019 419.476 638.38 436.875C628.199 485.365 626.796 529.547 601.626 570.757C584.667 598.575 558.495 620.616 530.253 636.111C502.178 651.507 471.633 661.191 439.552 668.371C409.307 675.117 377.126 680.661 346.113 685.303C298.943 692.382 253.542 685.069 210.979 666.334C168.616 647.666 131.728 616.442 107.658 576.501C80.3846 531.117 74.7763 477.45 66.7978 422.482Z" stroke="currentcolor" stroke-width="0.5"></path><path d="M75.0101 430.23C72.3729 414.434 67.399 400.575 65.1289 385.781C59.554 349.48 67.7995 308.17 89.0645 274.975C103.586 252.333 118.208 234.166 126.854 211.658C134.866 190.819 142.511 171.116 159.87 152.882C180.133 131.642 206.973 116.181 237.619 110.837C258.049 107.264 278.412 107.665 297.641 110.971C310.059 113.108 321.877 116.782 334.663 119.787C350.553 123.494 367.211 126.934 384.036 129.338C393.65 130.707 403.198 131.609 412.512 132.845C455.876 138.589 502.612 146.503 531.288 183.338C539.734 194.225 547.546 205.646 556.492 216.767C567.142 230.025 579.159 241.914 590.209 253.302C601.225 264.623 611.14 275.943 620.621 288.433C629.1 299.587 635.543 311.509 639.415 324.467C645.324 344.237 645.157 366.077 640.751 388.218C637.379 405.116 632.706 421.68 629.033 438.712C618.785 486.267 620.02 529.547 595.751 570.49C579.46 597.974 553.421 619.414 525.479 634.108C497.705 648.701 467.594 657.418 436.047 664.063C406.269 670.308 374.655 675.785 344.477 681.061C299.277 688.943 255.579 682.831 214.117 665.299C172.989 647.9 137.002 617.944 113.935 579.239C87.6624 535.091 83.89 483.094 75.0101 430.23Z" stroke="currentcolor" stroke-width="0.5"></path><path d="M83.2561 437.977C80.285 422.448 74.6434 409.057 71.8392 394.597C64.9289 359.098 72.4733 317.788 93.7716 285.027C108.393 262.552 122.882 244.919 130.359 222.144C137.203 201.372 143.279 181.468 159.97 162.934C179.466 141.361 206.005 125.865 236.484 121.09C256.747 117.917 276.911 118.952 295.672 122.926C307.823 125.498 319.274 129.706 331.759 133.012C347.082 137.086 363.339 140.759 379.83 143.03C389.244 144.333 398.558 145.067 407.672 146.069C449.901 150.811 496.47 156.555 523.811 193.557C531.789 204.377 539.1 215.732 547.813 226.652C558.162 239.676 570.213 250.997 581.33 261.684C592.413 272.303 602.494 282.856 612.175 294.545C620.955 305.164 627.532 316.552 631.437 329.109C637.38 348.278 636.879 369.651 631.971 391.257C628.266 407.688 623.225 423.784 619.52 440.482C609.204 487.135 613.043 529.514 589.675 570.122C574.052 597.273 548.113 618.145 520.506 632.004C492.998 645.796 463.321 653.577 432.375 659.655C403.098 665.366 372.019 670.776 342.675 676.687C299.477 685.369 257.448 680.427 217.088 664.13C177.162 648 142.11 619.314 120.044 581.877C94.9736 539.098 92.9705 488.705 83.2561 437.977Z" stroke="currentcolor" stroke-width="0.5"></path><path d="M91.4678 445.725C88.1629 430.463 81.8535 417.572 78.4818 403.413C70.2363 368.749 77.0797 327.372 98.4448 295.045C113.167 272.737 127.521 255.672 133.864 232.563C139.539 211.858 144.046 191.72 160.103 172.952C178.831 151.078 205.037 135.483 235.382 131.308C255.512 128.536 275.441 130.173 293.735 134.848C305.619 137.887 316.736 142.562 328.921 146.236C343.676 150.711 359.533 154.551 375.657 156.722C384.837 157.958 393.984 158.492 402.897 159.327C443.958 163.101 490.394 166.674 516.366 203.843C523.877 214.596 530.721 225.85 539.166 236.57C549.248 249.327 561.299 260.147 572.483 270.132C583.632 280.084 593.848 289.802 603.729 300.756C612.809 310.841 619.552 321.728 623.425 333.817C629.4 352.385 628.566 373.29 623.191 394.396C619.118 410.359 613.744 425.988 610.038 442.352C599.656 488.103 606.132 529.547 583.666 569.855C568.71 596.671 542.905 616.942 515.565 630C488.358 642.991 459.114 649.803 428.702 655.38C399.926 660.59 369.381 665.9 340.872 672.445C299.644 681.896 259.351 678.189 220.092 663.095C181.401 648.2 147.251 620.816 126.186 584.616C102.25 543.072 101.983 494.315 91.4678 445.725Z" stroke="currentcolor" stroke-width="0.5"></path><path d="M99.6802 453.472C96.0414 438.478 89.0979 426.055 85.1587 412.196C75.5778 378.333 81.7537 336.956 103.152 305.064C117.974 282.956 132.229 266.425 137.37 242.982C141.91 222.31 144.814 202.006 160.203 182.937C178.163 160.763 204.035 145.067 234.28 141.494C254.277 139.123 273.939 141.394 291.799 146.737C303.416 150.21 314.166 155.353 326.083 159.427C340.304 164.236 355.694 168.344 371.517 170.414C380.497 171.583 389.411 171.95 398.124 172.551C438.05 175.357 484.319 176.726 508.955 214.062C515.999 224.715 522.342 235.936 530.587 246.422C540.368 258.912 552.453 269.197 563.703 278.481C574.92 287.732 585.335 296.648 595.383 306.834C604.797 316.351 611.641 326.771 615.547 338.426C621.589 356.426 620.421 376.83 614.512 397.435C610.072 412.931 604.363 428.092 600.658 444.088C590.209 488.905 599.323 529.48 577.724 569.454C563.436 595.937 537.764 615.606 510.724 627.863C483.818 640.018 454.975 645.896 425.13 650.939C396.855 655.647 366.877 660.824 339.169 668.037C299.944 678.223 261.32 675.751 223.164 661.859C185.708 648.234 152.425 622.119 132.429 587.154C109.562 547.079 110.997 499.959 99.6802 453.472Z" stroke="currentcolor" stroke-width="0.5"></path><path d="M107.926 461.22C103.92 446.526 96.3422 434.571 91.8689 421.012C80.9527 387.984 86.4274 346.574 107.859 315.082C122.815 293.142 136.936 277.179 140.908 253.401C144.347 232.797 145.615 212.258 160.371 192.923C177.563 170.414 203.101 154.685 233.212 151.679C253.075 149.709 272.504 152.614 289.896 158.659C301.247 162.6 311.629 168.21 323.279 172.618C336.933 177.795 351.922 182.136 367.378 184.073C376.125 185.175 384.871 185.375 393.383 185.776C432.174 187.613 478.276 186.778 501.578 224.314C508.154 234.9 514.03 246.021 522.008 256.307C531.522 268.563 543.607 278.281 554.89 286.897C566.174 295.446 576.756 303.561 587.004 313.012C596.719 321.995 603.696 331.88 607.602 343.101C613.678 360.5 612.175 380.437 605.766 400.541C600.959 415.569 594.916 430.263 591.177 445.925C580.662 489.84 592.413 529.48 571.715 569.187C558.095 595.336 532.524 614.438 505.817 625.859C479.211 637.213 450.802 642.156 421.492 646.631C393.717 650.805 364.274 655.881 337.4 663.762C300.145 674.683 263.257 673.48 226.168 660.79C189.948 648.401 157.566 623.588 138.572 589.892C116.839 551.087 119.977 505.569 107.926 461.22Z" stroke="currentcolor" stroke-width="0.5"></path><path d="M116.138 468.968C111.765 454.541 103.553 443.053 98.512 429.829C86.2605 397.602 91.0343 356.192 112.533 325.134C127.589 303.361 141.643 287.966 144.38 263.854C146.717 243.316 146.35 222.544 160.471 202.941C176.895 180.132 202.099 164.303 232.077 161.898C251.807 160.295 270.968 163.869 287.927 170.581C299.01 174.956 309.025 181.034 320.375 185.843C333.461 191.386 348.049 195.962 363.138 197.765C371.684 198.8 380.197 198.8 388.543 199.001C426.166 199.869 472.167 196.83 494.066 234.533C500.175 245.053 505.55 256.106 513.295 266.158C522.509 278.147 534.627 287.364 545.977 295.246C557.327 303.127 568.076 310.374 578.492 319.123C588.54 327.539 595.617 336.956 599.556 347.71C605.665 364.508 603.863 383.977 596.953 403.58C591.812 418.14 585.435 432.367 581.663 447.695C571.081 490.708 585.436 529.447 565.673 568.82C552.72 594.634 527.282 613.135 500.876 623.755C474.537 634.308 446.596 638.282 417.82 642.223C390.546 645.896 361.636 650.805 335.597 659.388C300.312 670.976 265.126 671.076 229.139 659.621C194.121 648.501 162.674 624.957 144.68 592.497C124.15 555.061 128.89 511.213 116.138 468.968Z" stroke="currentcolor" stroke-width="0.5"></path><path d="M124.383 476.716C119.643 462.556 110.797 451.535 105.222 438.645C91.6348 407.253 95.7408 365.81 117.273 335.153C132.429 313.58 146.45 298.719 147.952 274.273C149.22 253.802 147.217 232.83 160.637 212.96C176.294 189.85 201.164 173.921 231.042 172.084C250.604 170.882 269.566 175.089 286.09 182.47C296.906 187.312 306.554 193.824 317.637 199.034C330.189 204.911 344.31 209.754 359.099 211.457C367.445 212.425 375.757 212.258 383.869 212.258C420.357 212.158 466.225 206.915 486.755 244.819C492.397 255.238 497.304 266.259 504.782 276.077C513.729 287.799 525.847 296.481 537.264 303.695C548.681 310.875 559.63 317.287 570.213 325.301C580.595 333.183 587.805 342.099 591.745 352.418C597.92 368.615 595.784 387.617 588.339 406.719C582.831 420.812 576.121 434.571 572.349 449.565C561.7 491.677 578.692 529.48 559.797 568.553C547.479 594.033 522.174 611.966 496.069 621.751C470.03 631.503 442.489 634.542 414.281 637.915C387.474 641.087 359.132 645.829 333.961 655.113C300.645 667.369 267.195 668.772 232.31 658.553C198.527 648.668 167.981 626.427 150.989 595.202C131.427 559.068 137.803 516.857 124.383 476.716Z" stroke="currentcolor" stroke-width="0.5"></path><path d="M132.596 484.464C127.488 470.604 118.041 460.052 111.899 447.462C97.0097 416.872 100.448 375.461 121.947 345.205C137.269 323.832 151.19 309.472 151.424 284.76C151.624 264.355 147.952 243.149 160.738 223.012C175.627 199.569 200.163 183.572 229.907 182.337C249.336 181.535 268.064 186.377 284.121 194.426C294.67 199.736 303.984 206.682 314.766 212.259C326.751 218.47 340.471 223.58 354.893 225.149C363.005 226.051 371.117 225.717 379.062 225.483C414.381 224.448 460.183 216.934 479.311 255.038C484.485 265.391 488.892 276.311 496.169 285.962C504.816 297.45 516.934 305.565 528.451 312.077C539.934 318.556 551.084 324.133 561.834 331.446C572.55 338.727 579.86 347.176 583.8 357.061C590.009 372.69 587.572 391.224 579.593 409.758C573.751 423.384 566.674 436.675 562.902 451.335C552.219 492.512 571.782 529.414 553.822 568.185C542.171 593.332 517 610.664 491.195 619.648C465.457 628.564 438.35 630.668 410.709 633.507C384.403 636.145 356.595 640.72 332.259 650.739C300.912 663.629 269.165 666.368 235.382 657.384C202.834 648.735 173.189 627.796 157.232 597.807C138.705 563.043 146.65 522.534 132.596 484.464Z" stroke="currentcolor" stroke-width="0.5"></path><path d="M140.808 492.211C135.266 478.653 125.251 468.534 118.575 456.244C102.351 426.489 105.088 385.046 126.654 355.19C142.076 333.984 155.997 320.192 154.962 295.146C154.094 274.808 148.753 253.401 160.871 232.964C174.992 209.22 199.195 193.123 228.805 192.489C248.101 192.054 266.561 197.565 282.185 206.281C292.467 212.025 301.413 219.439 311.929 225.416C323.379 231.928 336.666 237.305 350.753 238.808C358.665 239.643 366.577 239.142 374.288 238.674C408.472 236.671 454.173 226.919 471.866 265.257C476.607 275.509 480.479 286.396 487.523 295.814C495.902 307.034 508.02 314.648 519.604 320.459C531.155 326.237 542.505 330.979 553.388 337.558C564.471 344.27 571.848 352.252 575.821 361.702C582.097 376.73 579.326 394.797 570.813 412.831C564.638 425.988 557.193 438.812 553.388 453.105C542.638 493.38 564.805 529.38 547.746 567.818C536.763 592.597 511.726 609.395 486.221 617.544C460.783 625.659 434.077 626.827 407.003 629.098C381.198 631.236 353.891 635.577 330.423 646.364C301.013 659.855 271.035 663.963 238.319 656.215C207.006 648.801 178.263 629.165 163.308 600.445C146.016 567.05 155.463 528.211 140.808 492.211Z" stroke="currentcolor" stroke-width="0.5"></path><path d="M149.054 499.992C143.111 486.734 132.529 477.049 125.251 465.094C107.692 436.14 109.728 394.697 131.36 365.276C146.917 344.237 160.838 330.979 158.501 305.632C156.598 285.327 149.554 263.721 161.038 243.015C174.391 218.971 198.26 202.774 227.77 202.741C246.932 202.707 265.159 208.852 280.315 218.236C290.33 224.448 298.943 232.262 309.158 238.674C320.074 245.52 332.893 251.164 346.647 252.533C354.325 253.301 362.037 252.633 369.581 251.965C402.63 249.027 448.265 237.038 464.522 275.542C468.829 285.728 472.2 296.548 478.977 305.732C487.056 316.719 499.207 323.765 510.858 328.875C522.475 333.984 534.025 337.825 545.075 343.736C556.492 349.847 564.003 357.361 567.943 366.378C574.285 380.804 571.181 398.437 562.167 415.936C555.624 428.626 547.879 440.983 544.04 454.942C533.224 494.315 557.994 529.38 541.87 567.551C531.522 591.996 506.618 608.193 481.414 615.54C456.243 622.853 430.004 623.054 403.465 624.79C378.16 626.427 351.354 630.534 328.754 642.089C301.28 656.148 273.071 661.625 241.424 655.146C211.346 648.968 183.505 630.634 169.55 603.15C153.293 571.024 164.276 533.922 149.054 499.992Z" stroke="currentcolor" stroke-width="0.5"></path><path d="M157.266 507.74C150.89 494.782 139.773 485.532 131.928 473.91C113.1 445.725 114.402 404.315 136.034 375.294C151.691 354.422 165.645 341.698 161.973 316.051C159.069 295.78 150.289 273.973 161.105 253.034C173.69 228.655 197.225 212.359 226.602 212.96C245.631 213.294 263.591 220.106 278.312 230.158C288.06 236.837 296.339 245.086 306.22 251.865C316.636 259.012 328.988 264.956 342.374 266.192C349.852 266.893 357.363 266.058 364.674 265.156C396.588 261.316 442.189 247.023 456.978 285.761C460.817 295.847 463.688 306.6 470.231 315.583C478.042 326.303 490.194 332.849 501.911 337.257C513.629 341.665 525.346 344.637 536.563 349.88C548.347 355.357 555.925 362.47 559.897 371.053C566.274 384.879 562.869 402.044 553.321 419.042C546.444 431.265 538.332 443.153 534.493 456.779C523.61 495.216 550.984 529.38 535.762 567.25C526.081 591.361 501.31 606.99 476.407 613.503C451.537 620.015 425.731 619.28 399.726 620.482C374.923 621.618 348.583 625.425 326.884 637.814C301.28 652.408 274.874 659.321 244.362 654.078C215.519 649.135 188.579 632.104 175.626 605.855C160.604 575.031 173.023 539.666 157.266 507.74Z" stroke="currentcolor" stroke-width="0.5"></path><path d="M165.511 515.488C158.668 502.864 147.017 494.048 138.638 482.727C118.475 455.376 119.076 413.899 140.775 385.346C156.531 364.675 170.552 352.419 165.545 326.504C161.606 306.233 151.123 284.292 161.305 263.053C173.123 238.374 196.357 221.977 225.601 223.179C244.462 223.88 262.188 231.361 276.476 242.114C285.924 249.261 293.936 257.91 303.483 265.123C313.364 272.57 325.249 278.815 338.335 279.951C345.612 280.585 352.89 279.583 360.034 278.481C390.779 273.706 436.381 257.142 449.667 296.081C453.072 306.099 455.442 316.786 461.752 325.535C469.263 335.988 481.448 341.999 493.232 345.706C505.016 349.413 516.934 351.517 528.284 356.059C540.402 360.934 548.113 367.613 552.052 375.728C558.495 388.953 554.756 405.684 544.675 422.148C537.464 433.903 528.985 445.324 525.112 458.616C514.163 496.152 544.074 529.347 529.853 566.95C520.773 590.694 496.203 605.755 471.6 611.466C447.03 617.176 421.625 615.473 396.187 616.141C371.851 616.742 345.98 620.282 325.215 633.507C301.48 648.601 276.91 656.95 247.467 652.976C219.859 649.236 193.787 633.54 181.902 608.56C167.882 579.039 181.736 545.443 165.511 515.488Z" stroke="currentcolor" stroke-width="0.5"></path><path d="M173.724 523.235C166.413 510.979 154.228 502.53 145.282 491.51C123.783 464.961 123.683 423.484 145.449 395.331C161.305 374.827 175.393 363.072 169.017 336.89C164.076 316.619 151.891 294.511 161.372 273.005C172.422 248.025 195.323 231.561 224.432 233.298C243.16 234.4 260.62 242.515 274.473 253.936C283.654 261.517 291.332 270.6 300.579 278.248C309.96 286.029 321.377 292.541 334.096 293.543C341.139 294.11 348.25 292.942 355.16 291.606C384.771 285.929 430.372 267.06 442.156 306.233C445.127 316.151 446.963 326.771 453.039 335.32C460.283 345.539 472.468 350.983 484.319 354.022C496.17 357.027 508.288 358.229 519.805 362.137C532.257 366.344 540.101 372.623 544.041 380.337C550.55 392.96 546.511 409.257 535.895 425.153C528.351 436.474 519.504 447.395 515.632 460.352C504.616 496.987 537.164 529.28 523.844 566.549C515.432 589.959 490.962 604.453 466.659 609.328C442.39 614.204 417.419 611.566 392.549 611.699C368.713 611.8 343.242 615.005 323.446 629.098C301.514 644.694 278.847 654.412 250.471 651.774C224.099 649.202 198.928 634.876 188.045 611.132C175.193 583.013 190.449 551.254 173.724 523.235Z" stroke="currentcolor" stroke-width="0.5"></path><path d="M536.129 385.012C532.156 377.765 524.245 371.888 511.459 368.315C499.775 365.075 487.457 364.775 475.539 362.47C463.621 360.133 451.436 355.224 444.459 345.272C438.617 336.923 437.315 326.37 434.778 316.518C424.53 277.112 378.929 298.285 350.42 304.897C343.676 306.466 336.799 307.769 329.956 307.268C317.571 306.366 306.655 299.554 297.741 291.472C288.828 283.39 281.484 273.906 272.537 265.891C259.117 253.802 241.925 245.053 223.331 243.55C194.354 241.212 171.788 257.743 161.506 283.056C152.659 304.83 166.58 327.071 172.522 347.376C180.233 373.758 166.112 385.079 150.122 405.383C128.323 433.101 129.124 474.612 151.925 500.326C161.405 511.012 174.091 519.094 181.902 530.983C199.095 557.131 182.437 587.02 194.221 613.836C204.102 636.345 228.372 649.369 253.509 650.705C280.783 652.141 301.547 640.92 321.71 624.824C340.471 609.829 365.609 606.99 388.944 607.391C413.28 607.825 437.816 611.399 461.785 607.324C485.787 603.25 510.09 589.358 517.868 566.282C530.287 529.313 495.135 497.922 506.218 462.189C510.124 449.599 519.304 439.146 527.182 428.259C538.365 412.897 542.705 397.068 536.129 385.012Z" stroke="currentcolor" stroke-width="0.5"></path></svg>