<svg xmlns="http://www.w3.org/2000/svg" width="22" height="22" viewBox="0 0 22 22" fill="none"><path d="M2.97795 2.17876L19.5329 10.0964C19.7003 10.1763 19.8416 10.3019 19.9405 10.4588C20.0394 10.6156 20.0919 10.7973 20.0919 10.9827C20.0919 11.1681 20.0394 11.3498 19.9405 11.5066C19.8416 11.6634 19.7003 11.7891 19.5329 11.869L2.97795 19.7866C2.80823 19.8679 2.61874 19.8987 2.43202 19.8754C2.24529 19.8521 2.06919 19.7756 1.92467 19.6551C1.78015 19.5346 1.6733 19.3751 1.61682 19.1956C1.56034 19.0161 1.55661 18.8242 1.60609 18.6426L3.26237 12.5706C3.28265 12.4962 3.32438 12.4294 3.38237 12.3785C3.44035 12.3277 3.51202 12.295 3.58845 12.2846L11.6106 11.1948C11.6441 11.1901 11.6759 11.1767 11.7027 11.1561C11.7295 11.1354 11.7506 11.1082 11.7638 11.077L11.7779 11.0283C11.7841 10.9844 11.7753 10.9397 11.7529 10.9015C11.7305 10.8633 11.6959 10.8337 11.6546 10.8177L11.6114 10.8059L3.59709 9.71612C3.52081 9.70557 3.4493 9.67284 3.39147 9.622C3.33364 9.57115 3.29202 9.50442 3.2718 9.43012L1.60609 3.32355C1.55641 3.14194 1.55999 2.94988 1.61638 2.77025C1.67277 2.59061 1.77961 2.43097 1.92417 2.31034C2.06873 2.18971 2.24491 2.11317 2.43174 2.08984C2.61857 2.06652 2.80816 2.09738 2.97795 2.17876Z" fill="currentcolor"></path></svg>