<svg xmlns="http://www.w3.org/2000/svg" width="59" height="231" viewBox="0 0 59 231" fill="none"><path d="M29.075 202.638C29.075 202.638 27.2491 213.789 19.2547 221.782C11.2602 229.775 0.107422 231.601 0.107422 231.601C0.107422 231.601 1.93332 220.45 9.92779 212.457C17.9223 204.513 29.075 202.638 29.075 202.638Z" fill="currentColor"></path><path d="M58.0428 173.725C58.0428 173.725 56.2169 184.876 48.2224 192.869C40.228 200.862 29.0752 202.688 29.0752 202.688C29.0752 202.688 30.9011 191.537 38.8956 183.544C46.89 175.551 58.0428 173.725 58.0428 173.725Z" fill="currentColor"></path><path d="M29.0752 202.638C29.0752 202.638 40.228 204.464 48.2224 212.457C56.2169 220.45 58.0428 231.601 58.0428 231.601C58.0428 231.601 46.89 229.775 38.8956 221.782C30.9011 213.789 29.0752 202.638 29.0752 202.638Z" fill="currentColor"></path><path d="M0.107422 173.725C0.107422 173.725 11.2602 175.551 19.2547 183.544C27.2491 191.537 29.075 202.688 29.075 202.688C29.075 202.688 17.9223 200.862 9.92779 192.869C1.93332 184.827 0.107422 173.725 0.107422 173.725Z" fill="currentColor"></path><path d="M29.075 144.763C29.075 144.763 27.2491 155.914 19.2547 163.907C11.2602 171.9 0.107422 173.725 0.107422 173.725C0.107422 173.725 1.93332 162.574 9.92779 154.581C17.9223 146.588 29.075 144.763 29.075 144.763Z" fill="currentColor"></path><path d="M58.0428 115.8C58.0428 115.8 56.2169 126.951 48.2224 134.944C40.228 142.937 29.0752 144.763 29.0752 144.763C29.0752 144.763 30.9011 133.612 38.8956 125.619C46.89 117.626 58.0428 115.8 58.0428 115.8Z" fill="currentColor"></path><path d="M29.0752 144.763C29.0752 144.763 40.228 146.588 48.2224 154.581C56.2169 162.574 58.0428 173.725 58.0428 173.725C58.0428 173.725 46.89 171.9 38.8956 163.907C30.9011 155.914 29.0752 144.763 29.0752 144.763Z" fill="currentColor"></path><path d="M0.107422 115.8C0.107422 115.8 11.2602 117.626 19.2547 125.619C27.2491 133.612 29.075 144.763 29.075 144.763C29.075 144.763 17.9223 142.937 9.92779 134.944C1.93332 126.951 0.107422 115.8 0.107422 115.8Z" fill="currentColor"></path><path d="M29.075 86.838C29.075 86.838 27.2491 97.9887 19.2547 105.982C11.2602 113.975 0.107422 115.8 0.107422 115.8C0.107422 115.8 1.93332 104.65 9.92779 96.6566C17.9223 88.6635 29.075 86.838 29.075 86.838Z" fill="currentColor"></path><path d="M58.0428 57.8755C58.0428 57.8755 56.2169 69.0263 48.2224 77.0193C40.228 85.0124 29.0752 86.8379 29.0752 86.8379C29.0752 86.8379 30.9011 75.6871 38.8956 67.6941C46.89 59.701 58.0428 57.8755 58.0428 57.8755Z" fill="currentColor"></path><path d="M29.0752 86.838C29.0752 86.838 40.228 88.6635 48.2224 96.6566C56.2169 104.65 58.0428 115.8 58.0428 115.8C58.0428 115.8 46.89 113.975 38.8956 105.982C30.9011 97.9887 29.0752 86.838 29.0752 86.838Z" fill="currentColor"></path><path d="M0.107422 57.8755C0.107422 57.8755 11.2602 59.701 19.2547 67.6941C27.2491 75.6871 29.075 86.8379 29.075 86.8379C29.075 86.8379 17.9223 85.0124 9.92779 77.0193C1.93332 69.0263 0.107422 57.8755 0.107422 57.8755Z" fill="currentColor"></path><path d="M29.075 28.9131C29.075 28.9131 27.2491 40.0639 19.2547 48.0569C11.2602 56.0499 0.107422 57.8755 0.107422 57.8755C0.107422 57.8755 1.93332 46.7247 9.92779 38.7317C17.9223 30.7386 29.075 28.9131 29.075 28.9131Z" fill="currentColor"></path><path d="M58.0428 0C58.0428 0 56.2169 11.1508 48.2224 19.1438C40.228 27.1368 29.0752 28.9624 29.0752 28.9624C29.0752 28.9624 30.9011 17.8116 38.8956 9.8186C46.89 1.82556 58.0428 0 58.0428 0Z" fill="currentColor"></path><path d="M29.0752 28.9131C29.0752 28.9131 40.228 30.7386 48.2224 38.7317C56.2169 46.7247 58.0428 57.8755 58.0428 57.8755C58.0428 57.8755 46.89 56.0499 38.8956 48.0569C30.9011 40.0639 29.0752 28.9131 29.0752 28.9131Z" fill="currentColor"></path><path d="M0.107422 0C0.107422 0 11.2602 1.82556 19.2547 9.8186C27.2491 17.8116 29.075 28.9624 29.075 28.9624C29.075 28.9624 17.9223 27.1368 9.92779 19.1438C1.93332 11.1014 0.107422 0 0.107422 0Z" fill="currentColor"></path></svg>