<svg xmlns="http://www.w3.org/2000/svg" width="232" height="58" viewBox="0 0 232 58" fill="none"><path d="M29.3618 28.9676C29.3618 28.9676 18.211 27.1417 10.218 19.1472C2.22497 11.1528 0.399376 -1.26599e-06 0.399376 -1.26599e-06C0.399376 -1.26599e-06 11.5502 1.8259 19.5432 9.82037C27.4869 17.8148 29.3618 28.9676 29.3618 28.9676Z" fill="url(#paint0_linear_1_408)"></path><path d="M58.2749 57.9354C58.2749 57.9354 47.1241 56.1095 39.1311 48.115C31.1381 40.1206 29.3125 28.9678 29.3125 28.9678C29.3125 28.9678 40.4633 30.7937 48.4563 38.7881C56.4493 46.7826 58.2749 57.9354 58.2749 57.9354Z" fill="url(#paint0_linear_1_408)"></path><path d="M29.3618 28.9678C29.3618 28.9678 27.5363 40.1206 19.5432 48.115C11.5502 56.1095 0.399375 57.9354 0.399375 57.9354C0.399375 57.9354 2.22497 46.7826 10.218 38.7881C18.211 30.7937 29.3618 28.9678 29.3618 28.9678Z" fill="url(#paint0_linear_1_408)"></path><path d="M58.2749 0C58.2749 0 56.4493 11.1528 48.4563 19.1472C40.4633 27.1417 29.3125 28.9676 29.3125 28.9676C29.3125 28.9676 31.1381 17.8148 39.1311 9.82037C47.1735 1.8259 58.2749 0 58.2749 0Z" fill="url(#paint0_linear_1_408)"></path><path d="M87.2373 28.9676C87.2373 28.9676 76.0865 27.1417 68.0935 19.1472C60.1004 11.1528 58.2749 -1.26599e-06 58.2749 -1.26599e-06C58.2749 -1.26599e-06 69.4256 1.8259 77.4187 9.82037C85.4117 17.8148 87.2373 28.9676 87.2373 28.9676Z" fill="url(#paint0_linear_1_408)"></path><path d="M116.2 57.9354C116.2 57.9354 105.049 56.1095 97.0559 48.115C89.0629 40.1206 87.2373 28.9678 87.2373 28.9678C87.2373 28.9678 98.3881 30.7937 106.381 38.7881C114.374 46.7826 116.2 57.9354 116.2 57.9354Z" fill="url(#paint0_linear_1_408)"></path><path d="M87.2373 28.9678C87.2373 28.9678 85.4117 40.1206 77.4187 48.115C69.4256 56.1095 58.2749 57.9354 58.2749 57.9354C58.2749 57.9354 60.1004 46.7826 68.0935 38.7881C76.0865 30.7937 87.2373 28.9678 87.2373 28.9678Z" fill="url(#paint0_linear_1_408)"></path><path d="M116.2 0C116.2 0 114.374 11.1528 106.381 19.1472C98.3881 27.1417 87.2373 28.9676 87.2373 28.9676C87.2373 28.9676 89.0629 17.8148 97.0559 9.82037C105.049 1.8259 116.2 0 116.2 0Z" fill="url(#paint0_linear_1_408)"></path><path d="M145.162 28.9676C145.162 28.9676 134.011 27.1417 126.018 19.1472C118.025 11.1528 116.2 -1.26599e-06 116.2 -1.26599e-06C116.2 -1.26599e-06 127.35 1.8259 135.343 9.82037C143.337 17.8148 145.162 28.9676 145.162 28.9676Z" fill="url(#paint0_linear_1_408)"></path><path d="M174.125 57.9354C174.125 57.9354 162.974 56.1095 154.981 48.115C146.988 40.1206 145.162 28.9678 145.162 28.9678C145.162 28.9678 156.313 30.7937 164.306 38.7881C172.299 46.7826 174.125 57.9354 174.125 57.9354Z" fill="url(#paint0_linear_1_408)"></path><path d="M145.162 28.9678C145.162 28.9678 143.337 40.1206 135.343 48.115C127.35 56.1095 116.2 57.9354 116.2 57.9354C116.2 57.9354 118.025 46.7826 126.018 38.7881C134.011 30.7937 145.162 28.9678 145.162 28.9678Z" fill="url(#paint0_linear_1_408)"></path><path d="M174.125 0C174.125 0 172.299 11.1528 164.306 19.1472C156.313 27.1417 145.162 28.9676 145.162 28.9676C145.162 28.9676 146.988 17.8148 154.981 9.82037C162.974 1.8259 174.125 0 174.125 0Z" fill="url(#paint0_linear_1_408)"></path><path d="M203.087 28.9676C203.087 28.9676 191.936 27.1417 183.943 19.1472C175.95 11.1528 174.124 -1.26599e-06 174.124 -1.26599e-06C174.124 -1.26599e-06 185.275 1.8259 193.268 9.82037C201.261 17.8148 203.087 28.9676 203.087 28.9676Z" fill="url(#paint0_linear_1_408)"></path><path d="M232 57.9354C232 57.9354 220.849 56.1095 212.856 48.115C204.863 40.1206 203.038 28.9678 203.038 28.9678C203.038 28.9678 214.188 30.7937 222.181 38.7881C230.174 46.7826 232 57.9354 232 57.9354Z" fill="url(#paint0_linear_1_408)"></path><path d="M203.087 28.9678C203.087 28.9678 201.261 40.1206 193.268 48.115C185.275 56.1095 174.124 57.9354 174.124 57.9354C174.124 57.9354 175.95 46.7826 183.943 38.7881C191.936 30.7937 203.087 28.9678 203.087 28.9678Z" fill="url(#paint0_linear_1_408)"></path><path d="M232 0C232 0 230.174 11.1528 222.181 19.1472C214.188 27.1417 203.038 28.9676 203.038 28.9676C203.038 28.9676 204.863 17.8148 212.856 9.82037C220.899 1.8259 232 0 232 0Z" fill="url(#paint0_linear_1_408)"></path><linearGradient id="paint0_linear_1_408" x1="14.8806" y1="-6.32994e-07" x2="14.8806" y2="28.9676" gradientUnits="userSpaceOnUse"><stop stop-color="var(--gradient-color-from)"></stop><stop offset="1" stop-color="var(--gradient-color-to)"></stop></linearGradient></svg>