<svg xmlns="http://www.w3.org/2000/svg" width="147" height="148" viewBox="0 0 147 148" fill="none"><path d="M0.747136 141.562C0.747136 145.118 3.63062 148 7.18755 148C10.7445 148 13.6279 145.118 13.6279 141.562C13.6279 138.006 10.7445 135.124 7.18756 135.124C3.63062 135.124 0.747136 138.006 0.747136 141.562Z" fill="currentcolor"></path><path d="M18.6403 141.562C18.6403 144.76 21.2341 147.353 24.4337 147.353C27.6333 147.353 30.2271 144.76 30.2271 141.562C30.2271 138.364 27.6333 135.771 24.4337 135.771C21.2341 135.771 18.6403 138.364 18.6403 141.562Z" fill="currentcolor"></path><path d="M36.5332 141.562C36.5332 144.407 38.8406 146.714 41.687 146.714C44.5333 146.714 46.8408 144.407 46.8408 141.562C46.8408 138.717 44.5333 136.41 41.687 136.41C38.8406 136.41 36.5332 138.717 36.5332 141.562Z" fill="currentcolor"></path><path d="M54.4266 141.562C54.4266 144.054 56.4477 146.074 58.9408 146.074C61.434 146.074 63.4551 144.054 63.4551 141.562C63.4551 139.07 61.434 137.049 58.9408 137.049C56.4477 137.049 54.4266 139.07 54.4266 141.562Z" fill="currentcolor"></path><path d="M76.1947 137.696C78.3291 137.696 80.0693 139.428 80.0693 141.57C80.0693 143.711 78.3365 145.443 76.1947 145.443C74.0603 145.443 72.32 143.711 72.32 141.57C72.32 139.428 74.0528 137.696 76.1947 137.696Z" fill="currentcolor"></path><path d="M90.2131 141.562C90.2131 143.344 91.6582 144.788 93.4408 144.788C95.2234 144.788 96.6685 143.344 96.6685 141.562C96.6685 139.78 95.2234 138.335 93.4408 138.335C91.6582 138.335 90.2131 139.78 90.2131 141.562Z" fill="currentcolor"></path><path d="M108.106 141.562C108.106 142.991 109.265 144.149 110.694 144.149C112.124 144.149 113.282 142.991 113.282 141.562C113.282 140.133 112.124 138.975 110.694 138.975C109.265 138.975 108.106 140.133 108.106 141.562Z" fill="currentcolor"></path><path d="M126 141.562C126 142.638 126.872 143.51 127.948 143.51C129.025 143.51 129.897 142.638 129.897 141.562C129.897 140.486 129.025 139.614 127.948 139.614C126.872 139.614 126 140.486 126 141.562Z" fill="currentcolor"></path><path d="M145.202 140.261C145.923 140.261 146.503 140.841 146.503 141.562C146.503 142.283 145.916 142.863 145.202 142.863C144.481 142.863 143.9 142.275 143.9 141.562C143.893 140.848 144.481 140.261 145.202 140.261Z" fill="currentcolor"></path><path d="M0.747136 122.263C0.747136 125.818 3.63062 128.701 7.18755 128.701C10.7445 128.701 13.6279 125.818 13.6279 122.263C13.6279 118.707 10.7445 115.825 7.18756 115.825C3.63062 115.825 0.747136 118.707 0.747136 122.263Z" fill="currentcolor"></path><path d="M18.6403 122.263C18.6403 125.461 21.2341 128.054 24.4337 128.054C27.6333 128.054 30.2271 125.461 30.2271 122.263C30.2271 119.064 27.6333 116.471 24.4337 116.471C21.2341 116.471 18.6403 119.064 18.6403 122.263Z" fill="currentcolor"></path><path d="M36.5332 122.262C36.5332 125.108 38.8406 127.414 41.687 127.414C44.5333 127.414 46.8408 125.108 46.8408 122.262C46.8408 119.417 44.5333 117.111 41.687 117.111C38.8406 117.111 36.5332 119.417 36.5332 122.262Z" fill="currentcolor"></path><path d="M58.9408 117.75C61.4322 117.75 63.4551 119.772 63.4551 122.263C63.4551 124.753 61.4322 126.775 58.9408 126.775C56.4495 126.775 54.4266 124.753 54.4266 122.263C54.4266 119.772 56.4495 117.75 58.9408 117.75Z" fill="currentcolor"></path><path d="M76.1947 118.389C78.3291 118.389 80.0693 120.122 80.0693 122.263C80.0693 124.404 78.3365 126.136 76.1947 126.136C74.0603 126.136 72.32 124.404 72.32 122.263C72.32 120.122 74.0528 118.389 76.1947 118.389Z" fill="currentcolor"></path><path d="M93.4408 119.036C95.2257 119.036 96.6685 120.479 96.6685 122.263C96.6685 124.047 95.2257 125.489 93.4408 125.489C91.6559 125.489 90.2131 124.047 90.2131 122.263C90.2131 120.479 91.6559 119.036 93.4408 119.036Z" fill="currentcolor"></path><path d="M108.106 122.263C108.106 123.691 109.265 124.85 110.694 124.85C112.124 124.85 113.282 123.691 113.282 122.263C113.282 120.834 112.124 119.676 110.694 119.676C109.265 119.676 108.106 120.834 108.106 122.263Z" fill="currentcolor"></path><path d="M127.948 120.315C129.027 120.315 129.897 121.185 129.897 122.263C129.897 123.341 129.027 124.21 127.948 124.21C126.87 124.21 126 123.341 126 122.263C126 121.185 126.87 120.315 127.948 120.315Z" fill="currentcolor"></path><path d="M145.202 120.954C145.923 120.954 146.503 121.541 146.503 122.255C146.503 122.976 145.916 123.556 145.202 123.556C144.481 123.556 143.9 122.969 143.9 122.255C143.893 121.541 144.481 120.954 145.202 120.954Z" fill="currentcolor"></path><path d="M0.747136 102.956C0.747136 106.512 3.63062 109.394 7.18755 109.394C10.7445 109.394 13.6279 106.512 13.6279 102.956C13.6279 99.4007 10.7445 96.5183 7.18756 96.5183C3.63062 96.5183 0.747136 99.4007 0.747136 102.956Z" fill="currentcolor"></path><path d="M18.6403 102.956C18.6403 106.154 21.2341 108.747 24.4337 108.747C27.6333 108.747 30.2271 106.154 30.2271 102.956C30.2271 99.7577 27.6333 97.1648 24.4337 97.1648C21.2341 97.1648 18.6403 99.7577 18.6403 102.956Z" fill="currentcolor"></path><path d="M36.5332 102.956C36.5332 105.801 38.8406 108.108 41.687 108.108C44.5333 108.108 46.8408 105.801 46.8408 102.956C46.8408 100.111 44.5333 97.8042 41.687 97.8042C38.8406 97.8042 36.5332 100.111 36.5332 102.956Z" fill="currentcolor"></path><path d="M54.4266 102.956C54.4266 105.448 56.4477 107.469 58.9408 107.469C61.434 107.469 63.4551 105.448 63.4551 102.956C63.4551 100.464 61.434 98.4436 58.9408 98.4436C56.4477 98.4436 54.4266 100.464 54.4266 102.956Z" fill="currentcolor"></path><path d="M76.1947 99.0903C78.3291 99.0903 80.0693 100.822 80.0693 102.964C80.0693 105.097 78.3365 106.837 76.1947 106.837C74.0603 106.837 72.32 105.105 72.32 102.964C72.32 100.822 74.0528 99.0903 76.1947 99.0903Z" fill="currentcolor"></path><path d="M90.2131 102.956C90.2131 104.738 91.6582 106.183 93.4408 106.183C95.2234 106.183 96.6685 104.738 96.6685 102.956C96.6685 101.174 95.2234 99.7297 93.4408 99.7297C91.6582 99.7297 90.2131 101.174 90.2131 102.956Z" fill="currentcolor"></path><path d="M108.106 102.957C108.106 104.385 109.265 105.544 110.694 105.544C112.124 105.544 113.282 104.385 113.282 102.957C113.282 101.528 112.124 100.369 110.694 100.369C109.265 100.369 108.106 101.528 108.106 102.957Z" fill="currentcolor"></path><path d="M126 102.956C126 104.032 126.872 104.904 127.948 104.904C129.025 104.904 129.897 104.032 129.897 102.956C129.897 101.881 129.025 101.009 127.948 101.009C126.872 101.009 126 101.881 126 102.956Z" fill="currentcolor"></path><path d="M145.202 101.655C145.923 101.655 146.503 102.243 146.503 102.956C146.503 103.677 145.916 104.257 145.202 104.257C144.481 104.257 143.9 103.67 143.9 102.956C143.893 102.235 144.481 101.655 145.202 101.655Z" fill="currentcolor"></path><path d="M0.747136 83.657C0.747136 87.2126 3.63062 90.095 7.18755 90.095C10.7445 90.095 13.6279 87.2126 13.6279 83.657C13.6279 80.1014 10.7445 77.219 7.18756 77.219C3.63062 77.219 0.747136 80.1014 0.747136 83.657Z" fill="currentcolor"></path><path d="M18.6403 83.657C18.6403 86.8554 21.2341 89.4482 24.4337 89.4482C27.6333 89.4482 30.2271 86.8554 30.2271 83.657C30.2271 80.4586 27.6333 77.8657 24.4337 77.8657C21.2341 77.8657 18.6403 80.4586 18.6403 83.657Z" fill="currentcolor"></path><path d="M36.5332 83.657C36.5332 86.5023 38.8406 88.8089 41.687 88.8089C44.5333 88.8089 46.8408 86.5023 46.8408 83.657C46.8408 80.8117 44.5333 78.5051 41.687 78.5051C38.8406 78.5051 36.5332 80.8117 36.5332 83.657Z" fill="currentcolor"></path><path d="M58.9408 79.1445C61.4322 79.1445 63.4551 81.1666 63.4551 83.6571C63.4551 86.1476 61.4322 88.1697 58.9408 88.1697C56.4495 88.1697 54.4266 86.1476 54.4266 83.6571C54.4266 81.1592 56.4495 79.1445 58.9408 79.1445Z" fill="currentcolor"></path><path d="M76.1947 79.7839C78.3291 79.7839 80.0693 81.5161 80.0693 83.6571C80.0693 85.7908 78.3365 87.5304 76.1947 87.5304C74.0603 87.5304 72.32 85.7982 72.32 83.6571C72.32 81.5161 74.0528 79.7839 76.1947 79.7839Z" fill="currentcolor"></path><path d="M93.4408 80.4231C95.2257 80.4231 96.6685 81.8653 96.6685 83.6495C96.6685 85.4337 95.2257 86.876 93.4408 86.876C91.6559 86.876 90.2131 85.4337 90.2131 83.6495C90.2131 81.8728 91.6559 80.4231 93.4408 80.4231Z" fill="currentcolor"></path><path d="M110.694 81.0701C112.122 81.0701 113.282 82.2298 113.282 83.6572C113.282 85.0845 112.122 86.2443 110.694 86.2443C109.266 86.2443 108.106 85.0845 108.106 83.6572C108.106 82.2224 109.266 81.0701 110.694 81.0701Z" fill="currentcolor"></path><path d="M127.948 81.7092C129.027 81.7092 129.897 82.579 129.897 83.657C129.897 84.7349 129.027 85.6047 127.948 85.6047C126.87 85.6047 126 84.7349 126 83.657C126 82.579 126.87 81.7092 127.948 81.7092Z" fill="currentcolor"></path><path d="M145.202 82.3486C145.923 82.3486 146.503 82.9359 146.503 83.6496C146.503 84.3707 145.916 84.9506 145.202 84.9506C144.481 84.9506 143.9 84.3633 143.9 83.6496C143.893 82.9359 144.481 82.3486 145.202 82.3486Z" fill="currentcolor"></path><path d="M0.747136 64.3504C0.747136 67.906 3.63062 70.7884 7.18755 70.7884C10.7445 70.7884 13.6279 67.906 13.6279 64.3504C13.6279 60.7948 10.7445 57.9124 7.18756 57.9124C3.63062 57.9124 0.747136 60.7948 0.747136 64.3504Z" fill="currentcolor"></path><path d="M18.6403 64.3503C18.6403 67.5487 21.2341 70.1416 24.4337 70.1416C27.6333 70.1416 30.2271 67.5487 30.2271 64.3503C30.2271 61.1519 27.6333 58.5591 24.4337 58.5591C21.2341 58.5591 18.6403 61.1519 18.6403 64.3503Z" fill="currentcolor"></path><path d="M36.5332 64.3506C36.5332 67.1959 38.8406 69.5025 41.687 69.5025C44.5333 69.5025 46.8408 67.1959 46.8408 64.3506C46.8408 61.5053 44.5333 59.1987 41.687 59.1987C38.8406 59.1987 36.5332 61.5053 36.5332 64.3506Z" fill="currentcolor"></path><path d="M54.4266 64.3505C54.4266 66.8427 56.4477 68.863 58.9408 68.863C61.434 68.863 63.4551 66.8427 63.4551 64.3505C63.4551 61.8582 61.434 59.8379 58.9408 59.8379C56.4477 59.8379 54.4266 61.8582 54.4266 64.3505Z" fill="currentcolor"></path><path d="M76.1947 60.4773C78.3291 60.4773 80.0693 62.2095 80.0693 64.3505C80.0693 66.4916 78.3365 68.2237 76.1947 68.2237C74.0603 68.2237 72.32 66.4916 72.32 64.3505C72.32 62.2095 74.0528 60.4773 76.1947 60.4773Z" fill="currentcolor"></path><path d="M90.2131 64.3505C90.2131 66.1324 91.6582 67.5769 93.4408 67.5769C95.2234 67.5769 96.6685 66.1324 96.6685 64.3505C96.6685 62.5685 95.2234 61.124 93.4408 61.124C91.6582 61.124 90.2131 62.5685 90.2131 64.3505Z" fill="currentcolor"></path><path d="M108.106 64.3505C108.106 65.7794 109.265 66.9376 110.694 66.9376C112.124 66.9376 113.282 65.7794 113.282 64.3505C113.282 62.9217 112.124 61.7634 110.694 61.7634C109.265 61.7634 108.106 62.9217 108.106 64.3505Z" fill="currentcolor"></path><path d="M126 64.3503C126 65.4261 126.872 66.2981 127.948 66.2981C129.025 66.2981 129.897 65.4261 129.897 64.3503C129.897 63.2746 129.025 62.4026 127.948 62.4026C126.872 62.4026 126 63.2746 126 64.3503Z" fill="currentcolor"></path><path d="M145.202 63.0496C145.923 63.0496 146.503 63.6369 146.503 64.3505C146.503 65.0717 145.916 65.6515 145.202 65.6515C144.481 65.6515 143.9 65.0642 143.9 64.3505C143.893 63.6294 144.481 63.0496 145.202 63.0496Z" fill="currentcolor"></path><path d="M0.747136 45.0437C0.747136 48.5993 3.63062 51.4817 7.18755 51.4817C10.7445 51.4817 13.6279 48.5993 13.6279 45.0437C13.6279 41.4881 10.7445 38.6057 7.18756 38.6057C3.63062 38.6057 0.747136 41.4881 0.747136 45.0437Z" fill="currentcolor"></path><path d="M18.6403 45.0437C18.6403 48.2421 21.2341 50.8349 24.4337 50.8349C27.6333 50.8349 30.2271 48.2421 30.2271 45.0437C30.2271 41.8453 27.6333 39.2524 24.4337 39.2524C21.2341 39.2524 18.6403 41.8453 18.6403 45.0437Z" fill="currentcolor"></path><path d="M36.5332 45.0437C36.5332 47.8891 38.8406 50.1956 41.687 50.1956C44.5333 50.1956 46.8408 47.8891 46.8408 45.0437C46.8408 42.1984 44.5333 39.8918 41.687 39.8918C38.8406 39.8918 36.5332 42.1984 36.5332 45.0437Z" fill="currentcolor"></path><path d="M58.9408 40.5386C61.4322 40.5386 63.4551 42.5607 63.4551 45.0511C63.4551 47.5416 61.4322 49.5637 58.9408 49.5637C56.4495 49.5637 54.4266 47.5416 54.4266 45.0511C54.4266 42.5607 56.4495 40.5386 58.9408 40.5386Z" fill="currentcolor"></path><path d="M76.1947 41.178C78.3291 41.178 80.0693 42.9102 80.0693 45.0512C80.0693 47.1848 78.3365 48.9244 76.1947 48.9244C74.0603 48.9244 72.32 47.1923 72.32 45.0512C72.32 42.9102 74.0528 41.178 76.1947 41.178Z" fill="currentcolor"></path><path d="M93.4408 41.8174C95.2257 41.8174 96.6685 43.2596 96.6685 45.0438C96.6685 46.828 95.2257 48.2703 93.4408 48.2703C91.6559 48.2703 90.2131 46.828 90.2131 45.0438C90.2131 43.267 91.6559 41.8174 93.4408 41.8174Z" fill="currentcolor"></path><path d="M110.694 42.4568C112.122 42.4568 113.282 43.6165 113.282 45.0439C113.282 46.4713 112.122 47.631 110.694 47.631C109.266 47.631 108.106 46.4713 108.106 45.0439C108.106 43.6165 109.266 42.4568 110.694 42.4568Z" fill="currentcolor"></path><path d="M127.948 43.1035C129.027 43.1035 129.897 43.9733 129.897 45.0513C129.897 46.1292 129.027 46.999 127.948 46.999C126.87 46.999 126 46.1292 126 45.0513C126 43.9733 126.87 43.1035 127.948 43.1035Z" fill="currentcolor"></path><path d="M145.202 43.7429C145.923 43.7429 146.503 44.3302 146.503 45.0439C146.503 45.765 145.916 46.3449 145.202 46.3449C144.481 46.3449 143.9 45.7576 143.9 45.0439C143.893 44.3302 144.481 43.7429 145.202 43.7429Z" fill="currentcolor"></path><path d="M0.747136 25.7447C0.747136 29.3003 3.63062 32.1827 7.18755 32.1827C10.7445 32.1827 13.6279 29.3003 13.6279 25.7447C13.6279 22.189 10.7445 19.3066 7.18756 19.3066C3.63062 19.3066 0.747136 22.189 0.747136 25.7447Z" fill="currentcolor"></path><path d="M18.6403 25.7446C18.6403 28.943 21.2341 31.5358 24.4337 31.5358C27.6333 31.5358 30.2271 28.943 30.2271 25.7446C30.2271 22.5462 27.6333 19.9534 24.4337 19.9534C21.2341 19.9534 18.6403 22.5462 18.6403 25.7446Z" fill="currentcolor"></path><path d="M36.5332 25.7447C36.5332 28.59 38.8406 30.8966 41.687 30.8966C44.5333 30.8966 46.8408 28.59 46.8408 25.7447C46.8408 22.8994 44.5333 20.5928 41.687 20.5928C38.8406 20.5928 36.5332 22.8994 36.5332 25.7447Z" fill="currentcolor"></path><path d="M54.4266 25.7447C54.4266 28.237 56.4477 30.2573 58.9408 30.2573C61.434 30.2573 63.4551 28.237 63.4551 25.7447C63.4551 23.2525 61.434 21.2322 58.9408 21.2322C56.4477 21.2322 54.4266 23.2525 54.4266 25.7447Z" fill="currentcolor"></path><path d="M76.1947 21.8713C78.3291 21.8713 80.0693 23.6035 80.0693 25.7446C80.0693 27.8782 78.3365 29.6178 76.1947 29.6178C74.0603 29.6178 72.32 27.8856 72.32 25.7446C72.32 23.6035 74.0528 21.8713 76.1947 21.8713Z" fill="currentcolor"></path><path d="M90.2131 25.7447C90.2131 27.5267 91.6582 28.9712 93.4408 28.9712C95.2234 28.9712 96.6685 27.5267 96.6685 25.7448C96.6685 23.9628 95.2234 22.5183 93.4408 22.5183C91.6582 22.5183 90.2131 23.9628 90.2131 25.7447Z" fill="currentcolor"></path><path d="M108.106 25.7446C108.106 27.1734 109.265 28.3317 110.694 28.3317C112.124 28.3317 113.282 27.1734 113.282 25.7446C113.282 24.3158 112.124 23.1575 110.694 23.1575C109.265 23.1575 108.106 24.3158 108.106 25.7446Z" fill="currentcolor"></path><path d="M126 25.7446C126 26.8203 126.872 27.6924 127.948 27.6924C129.025 27.6924 129.897 26.8203 129.897 25.7446C129.897 24.6689 129.025 23.7969 127.948 23.7969C126.872 23.7969 126 24.6689 126 25.7446Z" fill="currentcolor"></path><path d="M145.202 24.4363C145.923 24.4363 146.503 25.0236 146.503 25.7373C146.503 26.4584 145.916 27.0382 145.202 27.0382C144.481 27.0382 143.9 26.4509 143.9 25.7373C143.893 25.0236 144.481 24.4363 145.202 24.4363Z" fill="currentcolor"></path><path d="M0.747136 6.43802C0.747136 9.99364 3.63062 12.876 7.18755 12.876C10.7445 12.876 13.6279 9.99364 13.6279 6.43802C13.6279 2.8824 10.7445 -1.26039e-07 7.18756 -2.81518e-07C3.63062 -4.36996e-07 0.747136 2.8824 0.747136 6.43802Z" fill="currentcolor"></path><path d="M18.6403 6.43797C18.6403 9.63639 21.2341 12.2292 24.4337 12.2292C27.6333 12.2292 30.2271 9.63639 30.2271 6.43798C30.2271 3.23956 27.6333 0.646728 24.4337 0.646728C21.2341 0.646728 18.6403 3.23956 18.6403 6.43797Z" fill="currentcolor"></path><path d="M36.5332 6.43803C36.5332 9.28334 38.8406 11.5899 41.687 11.5899C44.5333 11.5899 46.8408 9.28334 46.8408 6.43803C46.8408 3.59271 44.5333 1.28613 41.687 1.28613C38.8406 1.28613 36.5332 3.59271 36.5332 6.43803Z" fill="currentcolor"></path><path d="M58.9408 1.92529C61.4322 1.92529 63.4551 3.9474 63.4551 6.43786C63.4551 8.92831 61.4322 10.9504 58.9408 10.9504C56.4495 10.9504 54.4266 8.92831 54.4266 6.43786C54.4266 3.9474 56.4495 1.92529 58.9408 1.92529Z" fill="currentcolor"></path><path d="M76.1947 2.57227C78.3291 2.57227 80.0693 4.30443 80.0693 6.44548C80.0693 8.58653 78.3365 10.3187 76.1947 10.3187C74.0603 10.3187 72.32 8.58653 72.32 6.44548C72.32 4.30443 74.0528 2.57227 76.1947 2.57227Z" fill="currentcolor"></path><path d="M93.4408 3.21143C95.2257 3.21143 96.6685 4.65366 96.6685 6.43787C96.6685 8.22207 95.2257 9.6643 93.4408 9.6643C91.6559 9.6643 90.2131 8.22207 90.2131 6.43786C90.2131 4.65366 91.6559 3.21143 93.4408 3.21143Z" fill="currentcolor"></path><path d="M108.106 6.43818C108.106 7.867 109.265 9.02527 110.694 9.02527C112.124 9.02527 113.282 7.867 113.282 6.43818C113.282 5.00937 112.124 3.85107 110.694 3.85107C109.265 3.85107 108.106 5.00937 108.106 6.43818Z" fill="currentcolor"></path><path d="M126 6.43799C126 7.51371 126.872 8.38575 127.948 8.38575C129.025 8.38575 129.897 7.51371 129.897 6.43799C129.897 5.36227 129.025 4.49023 127.948 4.49023C126.872 4.49023 126 5.36227 126 6.43799Z" fill="currentcolor"></path><path d="M145.202 5.13721C145.923 5.13721 146.503 5.72451 146.503 6.43819C146.503 7.15931 145.916 7.73918 145.202 7.73918C144.481 7.73918 143.9 7.15187 143.9 6.43819C143.893 5.71707 144.481 5.13721 145.202 5.13721Z" fill="currentcolor"></path></svg>