<svg xmlns="http://www.w3.org/2000/svg" width="161" height="399" viewBox="0 0 161 399" fill="none"><path d="M5.26274 144.868L0.648839 141.12L19.6814 117.65L0.648839 94.1808C-0.21628 93.0852 -0.21628 91.5282 0.648839 90.4326L19.6814 66.963L0.648839 43.4933C-0.21628 42.3977 -0.21628 40.8408 0.648839 39.7451L19.6814 16.2755L0.648839 -7.1941L5.26274 -10.9423L25.7949 14.3726C26.66 15.4682 26.66 17.0252 25.7949 18.1208L6.76233 41.5904L25.7949 65.06C26.66 66.1556 26.66 67.7126 25.7949 68.8082L6.76233 92.2778L25.7949 115.747C26.66 116.843 26.66 118.4 25.7949 119.496L5.26274 144.868Z" fill="currentcolor"></path><path d="M31.9659 195.556L27.352 191.807L46.3845 168.338L27.352 144.868C26.4868 143.773 26.4868 142.216 27.352 141.12L46.3845 117.65L27.352 94.1808C26.4868 93.0852 26.4868 91.5282 27.352 90.4326L46.3845 66.963L27.352 43.4933C26.4868 42.3977 26.4868 40.8408 27.352 39.7451L46.3845 16.2755L27.352 -7.1941L31.9659 -10.9423L52.498 14.3726C53.3631 15.4682 53.3631 17.0252 52.498 18.1208L33.4655 41.5904L52.498 65.06C53.3631 66.1556 53.3631 67.7126 52.498 68.8082L33.4655 92.2778L52.498 115.747C53.3631 116.843 53.3631 118.4 52.498 119.496L33.4655 142.965L52.498 166.435C53.3631 167.531 53.3631 169.087 52.498 170.183L31.9659 195.556Z" fill="currentcolor"></path><path d="M58.6695 246.243L54.0556 242.495L73.0881 219.025L54.0556 195.556C53.1905 194.46 53.1905 192.903 54.0556 191.807L73.0881 168.338L54.0556 144.868C53.1905 143.773 53.1905 142.216 54.0556 141.12L73.0881 117.65L54.0556 94.1808C53.1905 93.0852 53.1905 91.5282 54.0556 90.4326L73.0881 66.963L54.0556 43.4934C53.1905 42.3977 53.1905 40.8408 54.0556 39.7451L73.0881 16.2755L54.0556 -7.1941L58.6695 -10.9423L79.2016 14.3726C80.0667 15.4682 80.0667 17.0252 79.2016 18.1208L60.1691 41.5904L79.2016 65.06C80.0667 66.1556 80.0667 67.7126 79.2016 68.8082L60.1691 92.2778L79.2016 115.747C80.0667 116.843 80.0667 118.4 79.2016 119.496L60.1691 142.965L79.2016 166.435C80.0667 167.531 80.0667 169.088 79.2016 170.183L60.1691 193.653L79.2016 217.122C80.0667 218.218 80.0667 219.775 79.2016 220.871L58.6695 246.243Z" fill="currentcolor"></path><path d="M85.4302 296.931L80.8163 293.182L99.8489 269.713L80.8163 246.243C79.9512 245.147 79.9512 243.591 80.8163 242.495L99.8489 219.025L80.8163 195.556C79.9512 194.46 79.9512 192.903 80.8163 191.807L99.8489 168.338L80.8163 144.868C79.9512 143.773 79.9512 142.216 80.8163 141.12L99.8489 117.65L80.8163 94.1808C79.9512 93.0852 79.9512 91.5282 80.8163 90.4326L99.8489 66.963L80.8163 43.4934C79.9512 42.3977 79.9512 40.8408 80.8163 39.7451L99.8489 16.2755L80.8163 -7.1941L85.4302 -10.9423L105.963 14.3726C106.828 15.4682 106.828 17.0252 105.963 18.1208L86.9298 41.5904L105.963 65.06C106.828 66.1556 106.828 67.7126 105.963 68.8082L86.9298 92.2778L105.963 115.747C106.828 116.843 106.828 118.4 105.963 119.496L86.9298 142.965L105.963 166.435C106.828 167.531 106.828 169.088 105.963 170.183L86.9298 193.653L105.963 217.122C106.828 218.218 106.828 219.775 105.963 220.871L86.9298 244.34L105.963 267.81C106.828 268.905 106.828 270.462 105.963 271.558L85.4302 296.931Z" fill="currentcolor"></path><path d="M112.134 347.618L107.52 343.87L126.552 320.4L107.52 296.931C106.655 295.835 106.655 294.278 107.52 293.182L126.552 269.713L107.52 246.243C106.655 245.147 106.655 243.591 107.52 242.495L126.552 219.025L107.52 195.556C106.655 194.46 106.655 192.903 107.52 191.807L126.552 168.338L107.52 144.868C106.655 143.773 106.655 142.216 107.52 141.12L126.552 117.65L107.52 94.1808C106.655 93.0852 106.655 91.5282 107.52 90.4326L126.552 66.963L107.52 43.4933C106.655 42.3977 106.655 40.8408 107.52 39.7451L126.552 16.2755L107.52 -7.1941L112.134 -10.9423L132.666 14.3726C133.531 15.4682 133.531 17.0252 132.666 18.1208L113.633 41.5904L132.666 65.06C133.531 66.1556 133.531 67.7126 132.666 68.8082L113.633 92.2778L132.666 115.747C133.531 116.843 133.531 118.4 132.666 119.496L113.633 142.965L132.666 166.435C133.531 167.531 133.531 169.087 132.666 170.183L113.633 193.653L132.666 217.122C133.531 218.218 133.531 219.775 132.666 220.871L113.633 244.34L132.666 267.81C133.531 268.905 133.531 270.462 132.666 271.558L113.633 295.028L132.666 318.497C133.531 319.593 133.531 321.15 132.666 322.245L112.134 347.618Z" fill="currentcolor"></path><path d="M155.197 372.605L156.474 371.03L155.197 369.455L136.185 346.011C136.183 346.008 136.181 346.006 136.179 346.003C136.039 345.819 136.039 345.554 136.179 345.369C136.181 345.367 136.183 345.364 136.185 345.361L155.197 321.917L156.474 320.343L155.197 318.768L136.185 295.324C136.183 295.321 136.181 295.318 136.179 295.316C136.039 295.131 136.039 294.866 136.179 294.682C136.181 294.679 136.183 294.677 136.185 294.674L155.197 271.23L156.474 269.655L155.197 268.08L136.185 244.636C136.183 244.634 136.181 244.631 136.179 244.629C136.039 244.444 136.039 244.179 136.179 243.994C136.181 243.992 136.183 243.989 136.185 243.987L155.197 220.542L156.474 218.968L155.197 217.393L136.185 193.949C136.183 193.946 136.181 193.944 136.179 193.941C136.039 193.757 136.039 193.491 136.179 193.307C136.181 193.304 136.183 193.302 136.185 193.299L155.197 169.855L156.474 168.28L155.197 166.706L136.185 143.261C136.183 143.259 136.181 143.256 136.179 143.254C136.039 143.069 136.039 142.804 136.179 142.619C136.181 142.616 136.183 142.614 136.185 142.612L155.197 119.167L156.474 117.593L155.197 116.018L136.179 92.5664C136.039 92.3818 136.039 92.1162 136.179 91.9316L155.197 68.4799L156.474 66.9053L155.197 65.3306L136.179 41.8789C136.039 41.6944 136.039 41.4287 136.179 41.2442L155.197 17.7925L156.474 16.2178L155.197 14.6432L137.738 -6.88633L138.471 -7.482L157.413 15.8717C157.553 16.0563 157.553 16.3218 157.413 16.5064L138.395 39.9581L137.118 41.5327L138.395 43.1074L157.413 66.5591C157.553 66.7437 157.553 67.0093 157.413 67.1938L138.395 90.6455L137.118 92.2202L138.395 93.7948L157.407 117.239C157.409 117.242 157.411 117.244 157.413 117.246C157.553 117.431 157.553 117.697 157.413 117.881C157.411 117.884 157.409 117.886 157.407 117.889L138.395 141.333L137.118 142.908L138.395 144.482L157.407 167.926C157.409 167.929 157.411 167.932 157.413 167.934C157.553 168.119 157.553 168.384 157.413 168.569C157.411 168.571 157.409 168.574 157.407 168.576L138.395 192.02L137.118 193.595L138.395 195.17L157.407 218.614C157.409 218.616 157.411 218.619 157.413 218.621C157.553 218.806 157.553 219.072 157.413 219.256C157.411 219.259 157.409 219.261 157.407 219.264L138.395 242.708L137.118 244.283L138.395 245.857L157.407 269.301C157.409 269.304 157.411 269.306 157.413 269.309C157.553 269.493 157.553 269.759 157.413 269.943C157.411 269.946 157.409 269.949 157.407 269.951L138.395 293.395L137.118 294.97L138.395 296.545L157.407 319.989C157.409 319.991 157.411 319.994 157.413 319.997C157.553 320.181 157.553 320.446 157.413 320.631C157.411 320.633 157.409 320.636 157.407 320.639L138.395 344.083L137.118 345.657L138.395 347.232L157.407 370.676C157.409 370.679 157.411 370.681 157.413 370.684C157.553 370.869 157.553 371.134 157.413 371.319C157.411 371.321 157.409 371.324 157.407 371.326L138.469 394.728L137.738 394.134L155.197 372.605Z" stroke="currentcolor" stroke-width="5"></path></svg>