<svg xmlns="http://www.w3.org/2000/svg" width="24" height="24" viewBox="0 0 24 24" fill="none"><path d="M13.6364 3C15.0928 3 16.5165 3.43187 17.7274 4.24099C18.9383 5.05011 19.8821 6.20015 20.4395 7.54567C20.9968 8.89119 21.1426 10.3718 20.8585 11.8002C20.5744 13.2286 19.8731 14.5406 18.8433 15.5704C17.8134 16.6003 16.5014 17.3016 15.073 17.5857C13.6446 17.8698 12.164 17.724 10.8185 17.1667C9.47296 16.6093 8.32292 15.6655 7.5138 14.4546C6.70468 13.2437 6.27281 11.82 6.27281 10.3636C6.27294 8.41069 7.04878 6.5378 8.42969 5.15688C9.81061 3.77597 11.6835 3.00012 13.6364 3Z" stroke="currentcolor" stroke-width="1.5" stroke-miterlimit="10"></path><path d="M8.14267 15.8574L3.00001 21.0001" stroke="currentcolor" stroke-width="1.5" stroke-miterlimit="10" stroke-linecap="round"></path></svg>