<svg xmlns="http://www.w3.org/2000/svg" width="40" height="41" viewBox="0 0 40 41" fill="none"><path d="M20 0.30957C8.95552 0.30957 0 9.26509 0 20.3096C0 31.354 8.95552 40.3096 20 40.3096C21.8445 40.3096 23.3333 38.8207 23.3333 36.9762C23.3333 36.1096 23.0111 35.3318 22.4667 34.7429C21.9445 34.154 21.6333 33.3874 21.6333 32.5318C21.6333 30.6873 23.1222 29.1984 24.9667 29.1984H28.8889C35.0222 29.1984 40 24.2206 40 18.0873C40 8.26509 31.0445 0.30957 20 0.30957ZM7.77781 20.3096C5.93333 20.3096 4.44448 18.8207 4.44448 16.9762C4.44448 15.1318 5.93333 13.6429 7.77781 13.6429C9.62229 13.6429 11.1111 15.1318 11.1111 16.9762C11.1111 18.8207 9.62219 20.3096 7.77781 20.3096ZM14.4445 11.4207C12.6 11.4207 11.1111 9.93186 11.1111 8.08738C11.1111 6.2429 12.6 4.75405 14.4445 4.75405C16.289 4.75405 17.7778 6.2429 17.7778 8.08738C17.7778 9.93186 16.2889 11.4207 14.4445 11.4207ZM25.5555 11.4207C23.711 11.4207 22.2222 9.93186 22.2222 8.08738C22.2222 6.2429 23.711 4.75405 25.5555 4.75405C27.4 4.75405 28.8889 6.2429 28.8889 8.08738C28.8889 9.93186 27.4 11.4207 25.5555 11.4207ZM32.2222 20.3096C30.3777 20.3096 28.8889 18.8207 28.8889 16.9762C28.8889 15.1318 30.3777 13.6429 32.2222 13.6429C34.0667 13.6429 35.5555 15.1318 35.5555 16.9762C35.5555 18.8207 34.0667 20.3096 32.2222 20.3096Z" fill="currentcolor"></path></svg>