<svg xmlns="http://www.w3.org/2000/svg" width="22" height="21" viewBox="0 0 22 21" fill="none"><path d="M21.1909 10.7617L21.23 10.1367H21.2104C21.2104 10.1367 21.2039 10.1367 21.1909 10.1367C21.1779 10.1367 21.1649 10.1367 21.1519 10.1367C21.1128 10.1237 21.0705 10.1139 21.0249 10.1074C20.9793 10.1009 20.9305 10.0911 20.8784 10.0781C20.7612 10.0521 20.6213 10.0195 20.4585 9.98047C20.2957 9.94141 20.1102 9.88932 19.9019 9.82422C19.5112 9.70703 19.075 9.54753 18.5933 9.3457C18.1115 9.14388 17.6362 8.88672 17.1675 8.57422C16.7378 8.28776 16.3504 7.92318 16.0054 7.48047C15.6603 7.03776 15.3706 6.59505 15.1362 6.15234C15.019 5.93099 14.9149 5.72591 14.8237 5.53711C14.7326 5.34831 14.661 5.18229 14.6089 5.03906C14.5828 4.96094 14.5568 4.89583 14.5308 4.84375C14.5047 4.79167 14.4852 4.74609 14.4722 4.70703C14.4722 4.68099 14.4689 4.66146 14.4624 4.64844C14.4559 4.63542 14.4461 4.6224 14.4331 4.60938V4.58984C14.4331 4.58984 14.4071 4.59961 14.355 4.61914C14.3029 4.63867 14.1336 4.69401 13.8472 4.78516C13.5477 4.88932 13.3719 4.94792 13.3198 4.96094C13.2677 4.97396 13.2417 4.98047 13.2417 4.98047L13.2612 5.01953C13.2612 5.03255 13.2645 5.04883 13.271 5.06836C13.2775 5.08789 13.2873 5.11068 13.3003 5.13672C13.3133 5.17578 13.3328 5.22786 13.3589 5.29297C13.3849 5.35807 13.4175 5.42969 13.4565 5.50781C13.5216 5.66406 13.603 5.84961 13.7007 6.06445C13.7983 6.2793 13.9123 6.50391 14.0425 6.73828C14.3029 7.22005 14.6349 7.72786 15.0386 8.26172C15.4422 8.79557 15.924 9.2513 16.4839 9.62891C16.6271 9.72005 16.7703 9.80794 16.9136 9.89258C17.0568 9.97721 17.2 10.0586 17.3433 10.1367H1.22998V11.3867H17.3433C17.2 11.4648 17.0568 11.5462 16.9136 11.6309C16.7703 11.7155 16.6271 11.8034 16.4839 11.8945C15.924 12.2721 15.4422 12.7279 15.0386 13.2617C14.6349 13.7956 14.3029 14.3034 14.0425 14.7852C13.9123 15.0195 13.7983 15.2409 13.7007 15.4492C13.603 15.6576 13.5216 15.8464 13.4565 16.0156C13.4175 16.0938 13.3849 16.1654 13.3589 16.2305C13.3328 16.2956 13.3133 16.3477 13.3003 16.3867C13.2873 16.4128 13.2775 16.4355 13.271 16.4551C13.2645 16.4746 13.2612 16.4844 13.2612 16.4844L13.2417 16.5234V16.543C13.2417 16.543 13.2677 16.5495 13.3198 16.5625C13.3719 16.5755 13.5477 16.6341 13.8472 16.7383C14.1336 16.8294 14.3029 16.8848 14.355 16.9043C14.4071 16.9238 14.4331 16.9336 14.4331 16.9336V16.9141C14.4461 16.901 14.4559 16.888 14.4624 16.875C14.4689 16.862 14.4722 16.8424 14.4722 16.8164C14.4852 16.7773 14.5047 16.7318 14.5308 16.6797C14.5568 16.6276 14.5828 16.5625 14.6089 16.4844C14.661 16.3411 14.7326 16.1751 14.8237 15.9863C14.9149 15.7975 15.019 15.5924 15.1362 15.3711C15.3706 14.9284 15.6603 14.4857 16.0054 14.043C16.3504 13.6003 16.7378 13.2357 17.1675 12.9492C17.6362 12.6367 18.1115 12.3796 18.5933 12.1777C19.075 11.9759 19.5112 11.8164 19.9019 11.6992C20.1102 11.6341 20.2957 11.582 20.4585 11.543C20.6213 11.5039 20.7612 11.4714 20.8784 11.4453C20.9305 11.4323 20.9793 11.4225 21.0249 11.416C21.0705 11.4095 21.1128 11.3997 21.1519 11.3867C21.1649 11.3867 21.1779 11.3867 21.1909 11.3867C21.2039 11.3867 21.2104 11.3867 21.2104 11.3867H21.23L21.1909 10.7617Z" fill="currentcolor"></path></svg>