<svg xmlns="http://www.w3.org/2000/svg" width="320" height="326" viewBox="0 0 320 326" fill="none"><path d="M148.854 7.89211C154.28 0.402902 165.44 0.402898 170.866 7.8921L180.419 21.0771C185.584 28.2057 195.23 30.4073 202.976 26.2256L217.304 18.4912C225.442 14.098 235.496 18.9398 237.136 28.0417L240.022 44.0659C241.582 52.7295 249.317 58.8981 258.111 58.4916L274.376 57.7397C283.614 57.3126 290.572 66.0373 288.1 74.9491L283.747 90.6387C281.394 99.1214 285.687 108.035 293.786 111.484L308.766 117.864C317.275 121.488 319.758 132.367 313.664 139.324L302.936 151.571C297.135 158.193 297.135 168.086 302.936 174.708L313.664 186.956C319.758 193.912 317.275 204.792 308.766 208.415L293.786 214.795C285.687 218.244 281.394 227.158 283.747 235.641L288.1 251.33C290.572 260.242 283.614 268.967 274.376 268.54L258.111 267.788C249.317 267.381 241.582 273.55 240.022 282.213L237.136 298.238C235.496 307.34 225.442 312.181 217.304 307.788L202.976 300.054C195.23 295.872 185.584 298.074 180.419 305.202L170.866 318.387C165.44 325.876 154.28 325.876 148.854 318.387L139.301 305.202C134.136 298.074 124.491 295.872 116.744 300.054L102.417 307.788C94.2785 312.181 84.2242 307.34 82.5848 298.238L79.6986 282.213C78.1382 273.55 70.403 267.381 61.6095 267.788L45.3448 268.54C36.1063 268.967 29.1485 260.242 31.6207 251.33L35.973 235.641C38.3261 227.158 34.0334 218.244 25.9342 214.795L10.954 208.415C2.44515 204.792 -0.0380659 193.912 6.05593 186.956L16.7847 174.708C22.5852 168.087 22.5852 158.193 16.7847 151.571L6.05595 139.324C-0.0380573 132.367 2.44514 121.488 10.954 117.864L25.9342 111.484C34.0333 108.035 38.3261 99.1214 35.973 90.6387L31.6207 74.9492C29.1485 66.0374 36.1063 57.3126 45.3448 57.7397L61.6095 58.4916C70.403 58.8981 78.1382 52.7295 79.6986 44.0659L82.5848 28.0417C84.2242 18.9399 94.2785 14.098 102.417 18.4912L116.744 26.2256C124.491 30.4072 134.136 28.2057 139.301 21.0772L148.854 7.89211Z" fill="#FF6B35" stroke="black" stroke-width="3.96541"></path></svg>