<svg xmlns="http://www.w3.org/2000/svg" width="40" height="41" viewBox="0 0 40 41" fill="none"><path d="M1.17188 9.58477C1.81906 9.58477 2.34375 9.06008 2.34375 8.41289V3.00391H7.75273C8.39992 3.00391 8.92461 2.47922 8.92461 1.83203C8.92461 1.18484 8.39992 0.660156 7.75273 0.660156H1.17188C0.524687 0.660156 0 1.18484 0 1.83203V8.41289C0 9.06016 0.524687 9.58477 1.17188 9.58477Z" fill="currentcolor"></path><path d="M38.8282 0.660156H32.2473C31.6001 0.660156 31.0754 1.18484 31.0754 1.83203C31.0754 2.47922 31.6001 3.00391 32.2473 3.00391H37.6563V8.41289C37.6563 9.06008 38.181 9.58477 38.8282 9.58477C39.4754 9.58477 40 9.06008 40 8.41289V1.83203C40 1.18484 39.4754 0.660156 38.8282 0.660156Z" fill="currentcolor"></path><path d="M38.8282 31.7354C38.181 31.7354 37.6563 32.26 37.6563 32.9072V38.3162H32.2473C31.6001 38.3162 31.0754 38.8409 31.0754 39.4881C31.0754 40.1353 31.6001 40.66 32.2473 40.66H38.8282C39.4754 40.66 40 40.1353 40 39.4881V32.9072C40 32.26 39.4754 31.7354 38.8282 31.7354Z" fill="currentcolor"></path><path d="M7.75273 38.3162H2.34375V32.9072C2.34375 32.26 1.81906 31.7354 1.17188 31.7354C0.524687 31.7354 0 32.26 0 32.9072V39.4881C0 40.1353 0.524687 40.66 1.17188 40.66H7.75273C8.39992 40.66 8.92461 40.1353 8.92461 39.4881C8.92461 38.8409 8.4 38.3162 7.75273 38.3162Z" fill="currentcolor"></path><path d="M32.786 15.6115V8.21074C32.786 7.84355 32.4883 7.5459 32.1204 7.5459H20H7.87974C7.51177 7.5459 7.21411 7.84355 7.21411 8.21074V15.6115C7.21411 15.9795 7.51177 16.2771 7.87974 16.2771H11.4141C11.7813 16.2771 12.079 15.9795 12.079 15.6115V13.0764C12.079 12.7084 12.3774 12.4107 12.7446 12.4107H16.9016C17.2696 12.4107 17.5672 12.7084 17.5672 13.0764V31.3686C17.5672 31.7365 17.2696 32.0342 16.9016 32.0342H15.0836C14.7157 32.0342 14.418 32.3318 14.418 32.6998V36.2342C14.418 36.6014 14.7157 36.899 15.0836 36.899H20H24.9165C25.2844 36.899 25.5821 36.6014 25.5821 36.2342V32.6998C25.5821 32.3318 25.2844 32.0342 24.9165 32.0342H23.0985C22.7305 32.0342 22.4329 31.7365 22.4329 31.3686V13.0764C22.4329 12.7084 22.7305 12.4107 23.0985 12.4107H27.2555C27.6227 12.4107 27.9211 12.7084 27.9211 13.0764V15.6115C27.9211 15.9795 28.2188 16.2771 28.586 16.2771H32.1204C32.4883 16.2771 32.786 15.9795 32.786 15.6115Z" fill="currentcolor"></path></svg>