<svg xmlns="http://www.w3.org/2000/svg" width="46" height="47" viewBox="0 0 46 47" fill="none"><path d="M45.2601 25.6447C45.3312 27.343 44.7257 29.0002 43.5765 30.2526C42.4273 31.5051 40.8282 32.2506 39.13 32.3255C39.0307 32.3301 38.9316 32.3324 38.8326 32.3324C38.3814 32.3321 37.9316 32.2833 37.4908 32.1868C36.183 34.206 34.4682 35.93 32.456 37.2486C30.4438 38.5671 28.1785 39.4512 25.8051 39.8442C25.5244 40.6689 24.9643 41.3696 24.2218 41.8252C23.4792 42.2808 22.6008 42.4626 21.7384 42.3392C20.876 42.2159 20.0838 41.7951 19.4988 41.1496C18.9137 40.5041 18.5726 39.6745 18.5343 38.8041C18.4961 37.9338 18.7631 37.0774 19.2892 36.3831C19.8154 35.6887 20.5676 35.2 21.4159 35.0015C22.2641 34.8029 23.1551 34.907 23.9347 35.2956C24.7144 35.6843 25.3338 36.3332 25.6858 37.1301C29.0272 36.5121 32.0459 34.7412 34.2156 32.1259C36.3854 29.5107 37.5686 26.217 37.5591 22.8189C37.5591 14.791 31.0279 8.25977 22.9999 8.25977C14.9719 8.25977 8.44075 14.791 8.44075 22.8189C8.44031 25.3013 9.07474 27.7426 10.2837 29.9107C10.3247 29.9822 10.3554 30.0592 10.3751 30.1392C10.4919 30.4638 10.4794 30.8209 10.3402 31.1365C10.2011 31.4521 9.94589 31.7021 9.6275 31.8349C8.84788 32.163 8.01054 32.3319 7.1647 32.3318C7.06515 32.3318 6.9654 32.3295 6.86543 32.3249C5.168 32.249 3.56992 31.5031 2.42162 30.2507C1.27332 28.9983 0.668501 27.3417 0.739794 25.6441C0.768454 24.9671 0.752462 24.3631 0.736829 23.779C0.722275 23.2291 0.707091 22.6604 0.732068 22.067C0.806609 20.4094 1.51963 18.845 2.7218 17.7013C3.92396 16.5577 5.52201 15.9236 7.18123 15.9318C9.84564 9.83572 15.9328 5.56445 22.9999 5.56445C30.067 5.56445 36.1543 9.83571 38.8187 15.9319C40.4781 15.9224 42.0767 16.556 43.279 17.6996C44.4814 18.8433 45.1941 20.4082 45.2677 22.066C45.2928 22.6603 45.2777 23.2289 45.2629 23.7788C45.2475 24.363 45.2314 24.9673 45.2601 25.6447ZM34.3027 22.8189C34.3021 24.5505 33.9037 26.2589 33.1384 27.8122C32.3731 29.3654 31.2612 30.7222 29.8886 31.7778C28.5159 32.8334 26.9192 33.5597 25.2215 33.9006C23.5238 34.2415 21.7704 34.1879 20.0967 33.7439L15.5218 36.386C15.291 36.5193 15.0258 36.5811 14.7598 36.5637C14.4938 36.5463 14.2389 36.4504 14.0274 36.2881C13.816 36.1259 13.6574 35.9045 13.5717 35.6521C13.486 35.3997 13.4771 35.1275 13.5461 34.87L14.7153 30.5083C12.779 28.4154 11.7017 25.6702 11.6976 22.8189C11.6976 16.5849 16.7676 11.5135 22.9999 11.5135C29.2323 11.5135 34.3027 16.5849 34.3027 22.8189ZM19.8576 22.8189C19.8576 22.4615 19.7157 22.1187 19.4629 21.866C19.2102 21.6133 18.8674 21.4713 18.51 21.4713H18.5077C18.2413 21.4718 17.981 21.5512 17.7597 21.6996C17.5384 21.848 17.3661 22.0587 17.2645 22.305C17.1629 22.5513 17.1365 22.8221 17.1888 23.0834C17.2411 23.3447 17.3696 23.5845 17.5582 23.7728C17.7468 23.961 17.9869 24.0891 18.2483 24.1409C18.5096 24.1927 18.7805 24.1658 19.0266 24.0638C19.2727 23.9617 19.483 23.789 19.631 23.5674C19.7789 23.3458 19.8579 23.0854 19.8579 22.8189H19.8576ZM24.3479 22.8189C24.3477 22.7748 24.3453 22.7307 24.3407 22.6869C24.3364 22.6428 24.3299 22.5991 24.321 22.5557C24.3129 22.5125 24.3021 22.4699 24.2886 22.4281C24.2761 22.3859 24.2608 22.3446 24.2446 22.3032C24.2285 22.2619 24.2087 22.2233 24.188 22.1846C24.1675 22.1458 24.145 22.108 24.1206 22.0714C24.0961 22.0345 24.0697 21.9988 24.0415 21.9645C24.0138 21.9302 23.9841 21.8975 23.9526 21.8666C23.9221 21.8352 23.8888 21.8055 23.8547 21.7768C23.8205 21.7498 23.7845 21.7229 23.7477 21.6986C23.7112 21.6742 23.6734 21.6517 23.6346 21.6312C23.5959 21.6105 23.5555 21.5917 23.515 21.5746C23.4745 21.5577 23.4332 21.543 23.3911 21.5306C23.3071 21.5036 23.2203 21.4861 23.1324 21.4785C23.0004 21.4658 22.8672 21.4721 22.737 21.4973C22.6937 21.5062 22.6509 21.5173 22.6087 21.5306C22.5665 21.5429 22.5252 21.5576 22.4847 21.5746C22.4442 21.5917 22.4038 21.6105 22.3652 21.6312C22.3266 21.6519 22.2888 21.6743 22.2519 21.6986C22.215 21.7229 22.1791 21.7498 22.146 21.7768C22.1109 21.8055 22.0786 21.8352 22.0471 21.8666C22.0156 21.8975 21.9859 21.9302 21.9581 21.9645C21.9303 21.9988 21.9042 22.0345 21.88 22.0714C21.8553 22.108 21.8325 22.1458 21.8117 22.1846C21.791 22.2231 21.7724 22.2627 21.756 22.3032C21.7389 22.3441 21.7239 22.3858 21.711 22.4281C21.6985 22.4695 21.6878 22.5126 21.6788 22.5557C21.6699 22.5991 21.6633 22.6428 21.6589 22.6869C21.6545 22.7309 21.6526 22.7749 21.6526 22.8189C21.6526 22.863 21.6545 22.9079 21.6589 22.9519C21.6633 22.9956 21.67 23.0391 21.6788 23.0822C21.6878 23.1253 21.6985 23.1684 21.711 23.2107C21.7239 23.2527 21.7389 23.2941 21.756 23.3346C21.7724 23.3755 21.791 23.4153 21.8117 23.4541C21.8323 23.4928 21.8558 23.5305 21.88 23.5673C21.9042 23.604 21.9303 23.6394 21.9581 23.6734C21.9861 23.7078 22.0158 23.7408 22.0471 23.7722C22.0786 23.8027 22.1109 23.8333 22.146 23.8611C22.1798 23.8892 22.2151 23.9153 22.2519 23.9393C22.2888 23.9636 22.3265 23.9869 22.3652 24.0076C22.4432 24.0483 22.5247 24.0819 22.6087 24.1082C22.6508 24.1208 22.6939 24.1316 22.737 24.1405C22.8237 24.1583 22.9119 24.167 23.0003 24.1666C23.3573 24.1657 23.6995 24.0239 23.9526 23.7722C24.0147 23.7091 24.071 23.6406 24.1206 23.5673C24.1449 23.5305 24.1674 23.4928 24.188 23.4541C24.2087 23.4155 24.2276 23.3751 24.2446 23.3346C24.2617 23.2942 24.2761 23.252 24.2886 23.2107C24.302 23.1685 24.3128 23.1256 24.321 23.0822C24.3298 23.0391 24.3364 22.9956 24.3407 22.9519C24.3453 22.9077 24.3476 22.8632 24.3476 22.8188L24.3479 22.8189ZM28.84 22.8189C28.84 22.4615 28.6981 22.1187 28.4453 21.866C28.1926 21.6133 27.8498 21.4713 27.4924 21.4713H27.4898C27.2234 21.4718 26.9631 21.5513 26.7418 21.6997C26.5205 21.8481 26.3482 22.0587 26.2466 22.305C26.145 22.5513 26.1187 22.8222 26.1709 23.0835C26.2232 23.3447 26.3518 23.5846 26.5404 23.7728C26.7289 23.961 26.9691 24.0891 27.2304 24.1409C27.4918 24.1927 27.7626 24.1658 28.0087 24.0638C28.2548 23.9617 28.4651 23.789 28.6131 23.5674C28.7611 23.3458 28.84 23.0854 28.84 22.8189Z" fill="currentcolor"></path></svg>