<svg xmlns="http://www.w3.org/2000/svg" width="45" height="45" viewBox="0 0 45 45" fill="none"><path d="M44.0679 0.66595C35.4787 0.51195 25.6832 5.00178 19.4829 11.9666C13.5575 12.0784 7.78803 14.5076 3.5402 18.7554C3.2927 18.9993 3.2047 19.3641 3.31287 19.6941C3.42287 20.0259 3.70887 20.2661 4.05353 20.3156L11.1192 21.3276L10.2465 22.3048C9.92203 22.6678 9.93853 23.2196 10.2832 23.5643L22.066 35.3471C22.2439 35.5249 22.4785 35.6148 22.715 35.6148C22.9332 35.6148 23.1514 35.5378 23.3255 35.3819L24.3027 34.5093L25.3147 41.5749C25.3642 41.9196 25.6355 42.1726 25.9637 42.2826C26.048 42.3101 26.136 42.3229 26.2259 42.3229C26.4862 42.3229 26.752 42.2093 26.9354 42.0278C31.1245 37.8386 33.5537 32.0691 33.6655 26.1438C40.6377 19.9306 45.1642 10.1388 44.9644 1.56062C44.9515 1.07295 44.5574 0.678783 44.0679 0.66595ZM35.6199 16.4913C34.727 17.3841 33.5537 17.8314 32.3785 17.8314C31.2034 17.8314 30.03 17.3841 29.1372 16.4913C27.3515 14.7038 27.3515 11.7961 29.1372 10.0086C30.9247 8.22112 33.8324 8.22112 35.6199 10.0086C37.4074 11.7961 37.4074 14.7056 35.6199 16.4913Z" fill="currentcolor"></path><path d="M5.96408 31.6523C4.00241 33.6139 1.30924 42.4763 1.00858 43.4791C0.911409 43.8018 1.00124 44.1519 1.23774 44.3903C1.41374 44.5663 1.64658 44.6598 1.88674 44.6598C1.97474 44.6598 2.06274 44.6469 2.15074 44.6213C3.15358 44.3206 12.0159 41.6274 13.9776 39.6658C16.1867 37.4566 16.1867 33.8614 13.9776 31.6523C11.7666 29.4431 8.17324 29.4449 5.96408 31.6523Z" fill="currentcolor"></path></svg>