<svg xmlns="http://www.w3.org/2000/svg" width="47" height="47" viewBox="0 0 47 47" fill="none"><path d="M14.6318 26.7144C15.2699 25.9824 14.7501 24.8394 13.7789 24.8394H10.8712C10.8523 24.5517 10.8417 24.2618 10.8417 23.9694C10.8417 16.7248 16.7355 10.831 23.98 10.831C27.4614 10.831 30.6304 12.1926 32.9838 14.4106L37.0839 9.614C33.4947 6.33067 28.8758 4.53223 23.98 4.53223C18.7882 4.53223 13.9071 6.55409 10.2359 10.2252C6.56476 13.8964 4.54289 18.7775 4.54289 23.9693C4.54289 24.2604 4.55016 24.5504 4.56282 24.8393H2.11367C1.1425 24.8393 0.622582 25.9823 1.26081 26.7143L6.78576 33.0517L7.94624 34.3829L12.1128 29.6036L14.6318 26.7144Z" fill="currentcolor"></path><path d="M46.6991 23.0172L42.5783 18.2903L40.0137 15.3486L36.3521 19.5486L33.3283 23.0172C32.6901 23.7492 33.21 24.8922 34.1811 24.8922H37.0854C36.6103 31.7079 30.9142 37.1079 23.98 37.1079C20.953 37.1079 18.1622 36.0784 15.9383 34.3519L11.8379 39.1488C15.2729 41.9074 19.5109 43.4068 23.98 43.4068C29.1719 43.4068 34.0529 41.385 37.7242 37.7138C41.1771 34.2609 43.1704 29.7376 43.3952 24.8923H45.8464C46.8174 24.8922 47.3373 23.7492 46.6991 23.0172Z" fill="currentcolor"></path></svg>