<svg xmlns="http://www.w3.org/2000/svg" width="49" height="49" viewBox="0 0 49 49" fill="none"><path d="M24.98 32.6289C29.381 32.6289 32.9487 29.0612 32.9487 24.6602C32.9487 20.2591 29.381 16.6914 24.98 16.6914C20.579 16.6914 17.0112 20.2591 17.0112 24.6602C17.0112 29.0612 20.579 32.6289 24.98 32.6289Z" fill="currentcolor"></path><path d="M14.4477 22.355C15.5063 17.5142 19.8262 13.8789 24.98 13.8789H46.4357C45.2973 11.6189 43.792 9.53097 41.9506 7.68953C37.4175 3.15663 31.3906 0.660156 24.98 0.660156C18.5694 0.660156 12.5425 3.15663 8.00938 7.68953C7.57344 8.12547 7.15681 8.57547 6.75903 9.03803L14.4477 22.355Z" fill="currentcolor"></path><path d="M28.25 34.9344C27.2182 35.2635 26.1195 35.4418 24.98 35.4418C20.9752 35.4418 17.4736 33.2468 15.6145 29.9967C15.6012 29.9761 15.588 29.9557 15.5756 29.9343L4.91851 11.4756C2.35632 15.3568 0.97998 19.9028 0.97998 24.6606C0.97998 31.0712 3.47645 37.0981 8.00936 41.6312C11.4821 45.1039 15.8321 47.3796 20.5593 48.255L28.25 34.9344Z" fill="currentcolor"></path><path d="M32.2343 16.6914C34.4 18.6647 35.7613 21.5064 35.7613 24.6602C35.7613 26.6437 35.2222 28.5034 34.2838 30.1018C34.2742 30.1202 34.266 30.1388 34.2556 30.1569L23.5962 48.6197C24.0553 48.6455 24.5165 48.6602 24.98 48.6602C31.3907 48.6602 37.4176 46.1637 41.9507 41.6308C46.4836 37.0977 48.98 31.0708 48.98 24.6602C48.98 21.9033 48.5171 19.218 47.6304 16.6914H32.2343Z" fill="currentcolor"></path></svg>