<svg xmlns="http://www.w3.org/2000/svg" width="39" height="39" viewBox="0 0 39 39" fill="none"><path d="M11.2648 11.1377H10.7884L9.89795 15.5908H12.1552L11.2648 11.1377Z" fill="black"></path><path d="M29.2751 20.0439C29.7559 21.3353 30.3953 22.3806 31.1029 23.27C31.8105 22.3806 32.5241 21.3352 33.0048 20.0439H29.2751Z" fill="currentcolor"></path><path d="M35.6302 7.72363H21.8045L24.6873 30.8561C24.7383 31.8022 24.4797 32.693 23.8622 33.3903L18.9802 38.9697H35.6302C37.4719 38.9697 38.9701 37.4715 38.9701 35.6299V11.1377C38.9701 9.29603 37.4719 7.72363 35.6302 7.72363ZM35.6302 20.0439H35.3329C34.6995 22.0763 33.6949 23.6666 32.6509 24.9203C33.4688 25.6679 34.3433 26.2813 35.2128 26.9683C35.6922 27.352 35.7705 28.0521 35.3856 28.5327C35.0025 29.0125 34.2996 29.0903 33.8212 28.7056C32.8764 27.9599 31.9897 27.3357 31.1029 26.522C30.2161 27.3357 29.4036 27.9599 28.4588 28.7056C27.9804 29.0903 27.2775 29.0125 26.8944 28.5327C26.5095 28.0521 26.5878 27.352 27.0672 26.9683C27.9367 26.2813 28.737 25.6679 29.5548 24.9203C28.5109 23.6666 27.5805 22.0764 26.9471 20.0439H26.6498C26.0344 20.0439 25.5365 19.546 25.5365 18.9307C25.5365 18.3153 26.0344 17.8174 26.6498 17.8174H29.9896V16.7041C29.9896 16.0888 30.4875 15.5908 31.1029 15.5908C31.7182 15.5908 32.2162 16.0888 32.2162 16.7041V17.8174H35.6302C36.2456 17.8174 36.7435 18.3153 36.7435 18.9307C36.7435 19.546 36.2456 20.0439 35.6302 20.0439Z" fill="currentcolor"></path><path d="M19.0915 3.89536C18.8839 2.22759 17.4586 0.969727 15.7778 0.969727H4.30981C2.46815 0.969727 0.969971 2.46791 0.969971 4.30957V28.9502C0.969971 30.7919 2.46815 32.29 4.30981 32.29C10.965 32.29 15.7526 32.29 21.8663 32.29C22.1911 31.9188 22.4634 31.6863 22.4749 31.2018C22.4777 31.0803 19.1066 4.01589 19.0915 3.89536ZM14.6221 22.2488C14.0317 22.3703 13.4337 21.987 13.312 21.3757L12.6005 17.8174H9.4528L8.74127 21.3757C8.6217 21.978 8.04109 22.3737 7.43123 22.2488C6.82895 22.1281 6.43752 21.5421 6.5582 20.9387L8.78469 9.80591C8.88904 9.28623 9.34571 8.91113 9.87622 8.91113H12.177C12.7075 8.91113 13.1642 9.28623 13.2685 9.80591L15.4951 20.9387C15.6158 21.5421 15.2244 22.1281 14.6221 22.2488Z" fill="currentcolor"></path><path d="M13.9775 34.5166L14.1686 36.0441C14.2959 37.0671 14.9756 38.1102 16.0937 38.6311C18.2036 36.3085 16.9271 37.7136 19.8312 34.5166H13.9775Z" fill="currentcolor"></path></svg>