<svg xmlns="http://www.w3.org/2000/svg" width="45" height="45" viewBox="0 0 45 45" fill="none"><path d="M25.72 26.4346C25.72 28.8642 24.0246 30.5596 21.595 30.5596C19.3207 30.5596 17.47 28.7088 17.47 26.4346C17.47 24.1603 19.3207 22.3096 21.595 22.3096C23.8692 22.3096 25.72 24.1603 25.72 26.4346ZM3.71997 11.3096V7.18457C3.71997 4.91032 5.57072 3.05957 7.84497 3.05957H38.095C40.3692 3.05957 42.22 4.91032 42.22 7.18457V11.3096H3.71997ZM33.97 7.18457C33.97 7.94357 34.586 8.55957 35.345 8.55957C36.104 8.55957 36.72 7.94357 36.72 7.18457C36.72 6.42557 36.104 5.80957 35.345 5.80957C34.586 5.80957 33.97 6.42557 33.97 7.18457ZM28.47 7.18457C28.47 7.94357 29.086 8.55957 29.845 8.55957C30.604 8.55957 31.22 7.94357 31.22 7.18457C31.22 6.42557 30.604 5.80957 29.845 5.80957C29.086 5.80957 28.47 6.42557 28.47 7.18457ZM42.22 14.0596V37.4346C42.22 39.7088 40.3692 41.5596 38.095 41.5596H7.84497C5.57072 41.5596 3.71997 39.7088 3.71997 37.4346V14.0596H42.22ZM29.4421 33.7124L26.7581 31.0298C27.821 29.8281 28.47 28.2427 28.47 26.4346C28.47 22.6437 25.3858 19.5596 21.595 19.5596C17.8041 19.5596 14.72 22.6437 14.72 26.4346C14.72 30.2254 17.8041 33.3096 21.595 33.3096C22.6578 33.3096 23.6396 33.0772 24.521 32.6812L27.4978 35.6567C27.766 35.9248 28.118 36.0596 28.47 36.0596C28.822 36.0596 29.174 35.9248 29.4421 35.6567C29.9797 35.1191 29.9797 34.2487 29.4421 33.7124Z" fill="currentcolor"></path></svg>