<svg xmlns="http://www.w3.org/2000/svg" width="49" height="49" viewBox="0 0 49 49" fill="none"><path d="M20.98 6.30957H8.97998C8.44954 6.30957 7.94084 6.52029 7.56576 6.89535C7.1907 7.27043 6.97998 7.77913 6.97998 8.30957V20.3096C6.97998 20.84 7.1907 21.3488 7.56576 21.7238C7.94084 22.0988 8.44954 22.3096 8.97998 22.3096H20.98C21.5104 22.3096 22.0192 22.0988 22.3942 21.7238C22.7692 21.3488 22.98 20.84 22.98 20.3096V8.30957C22.98 7.77913 22.7692 7.27043 22.3942 6.89535C22.0192 6.52029 21.5104 6.30957 20.98 6.30957ZM40.98 6.30957H28.98C28.4496 6.30957 27.9408 6.52029 27.5658 6.89535C27.1908 7.27043 26.98 7.77913 26.98 8.30957V20.3096C26.98 20.84 27.1908 21.3488 27.5658 21.7238C27.9408 22.0988 28.4496 22.3096 28.98 22.3096H40.98C41.5104 22.3096 42.0192 22.0988 42.3942 21.7238C42.7692 21.3488 42.98 20.84 42.98 20.3096V8.30957C42.98 7.77913 42.7692 7.27043 42.3942 6.89535C42.0192 6.52029 41.5104 6.30957 40.98 6.30957ZM20.98 26.3096H8.97998C8.44954 26.3096 7.94084 26.5204 7.56576 26.8954C7.1907 27.2704 6.97998 27.7792 6.97998 28.3096V40.3096C6.97998 40.84 7.1907 41.3488 7.56576 41.7238C7.94084 42.0988 8.44954 42.3096 8.97998 42.3096H20.98C21.5104 42.3096 22.0192 42.0988 22.3942 41.7238C22.7692 41.3488 22.98 40.84 22.98 40.3096V28.3096C22.98 27.7792 22.7692 27.2704 22.3942 26.8954C22.0192 26.5204 21.5104 26.3096 20.98 26.3096ZM36.98 28.3096H32.98V32.3096H28.98V36.3096H32.98V40.3096H36.98V36.3096H40.98V32.3096H36.98V28.3096Z" fill="currentcolor"></path></svg>