<svg xmlns="http://www.w3.org/2000/svg" width="24" height="24" viewBox="0 0 24 24" fill="none"><path d="M13.1026 19.1476C12.9972 19.0422 12.9381 18.8992 12.9381 18.7501C12.9381 18.6011 12.9972 18.4581 13.1026 18.3526L18.8916 12.5626L3.75007 12.5626C3.60089 12.5626 3.45781 12.5034 3.35232 12.3979C3.24683 12.2924 3.18757 12.1493 3.18757 12.0001C3.18757 11.8509 3.24683 11.7079 3.35232 11.6024C3.45781 11.4969 3.60089 11.4376 3.75007 11.4376L18.8916 11.4376L13.1026 5.64763C13.0032 5.541 12.9491 5.39996 12.9517 5.25424C12.9543 5.10851 13.0133 4.96947 13.1164 4.86641C13.2194 4.76335 13.3585 4.70432 13.5042 4.70175C13.6499 4.69918 13.7909 4.75327 13.8976 4.85263L20.6476 11.6026C20.7529 11.7081 20.8121 11.8511 20.8121 12.0001C20.8121 12.1492 20.7529 12.2922 20.6476 12.3976L13.8976 19.1476C13.7921 19.253 13.6491 19.3121 13.5001 19.3121C13.351 19.3121 13.208 19.253 13.1026 19.1476Z" fill="currentcolor"></path></svg>