<svg xmlns="http://www.w3.org/2000/svg" width="50" height="19" viewBox="0 0 50 19" fill="currentcolor">
  <path fill-rule="evenodd" clip-rule="evenodd" d="M39.9898 18.404C40.0142 18.4628 40.0499 18.5162 40.0949 18.5612C40.1399 18.6063 40.1933 18.642 40.2521 18.6664C40.3109 18.6907 40.374 18.7033 40.4376 18.7033C40.5013 18.7033 40.5643 18.6907 40.6231 18.6664C40.6819 18.642 40.7353 18.6063 40.7803 18.5612L49.4991 9.84247C49.5441 9.79749 49.5798 9.74407 49.6042 9.68527C49.6286 9.62646 49.6411 9.56343 49.6411 9.49978C49.6411 9.43612 49.6286 9.37309 49.6042 9.31429C49.5798 9.25549 49.5441 9.20207 49.4991 9.15708L40.7803 0.438335C40.7353 0.393332 40.6819 0.357633 40.6231 0.333277C40.5643 0.308922 40.5013 0.296387 40.4376 0.296387C40.374 0.296387 40.311 0.308922 40.2522 0.333277C40.1934 0.357633 40.1399 0.393332 40.0949 0.438335C40.0499 0.483338 40.0142 0.536765 39.9899 0.595565C39.9655 0.654365 39.953 0.717386 39.953 0.78103C39.953 0.844675 39.9655 0.907696 39.9899 0.966496C40.0142 1.0253 40.0499 1.07872 40.0949 1.12373L47.9866 9.0154L30 9.0154V9H0V10H30V9.98415L47.9866 9.98415L40.0949 17.8758C40.0499 17.9208 40.0142 17.9742 39.9898 18.033C39.9654 18.0918 39.9529 18.1549 39.9529 18.2185C39.9529 18.2822 39.9654 18.3452 39.9898 18.404Z"/>
</svg>