<svg xmlns="http://www.w3.org/2000/svg" width="50" height="19" viewBox="0 0 50 19" fill="currentcolor">
  <path fill-rule="evenodd" clip-rule="evenodd" d="M10.0102 18.404C9.98583 18.4628 9.9501 18.5162 9.90507 18.5612C9.86008 18.6063 9.80666 18.642 9.74786 18.6664C9.68906 18.6907 9.62603 18.7033 9.56237 18.7033C9.49872 18.7033 9.43569 18.6907 9.37689 18.6664C9.31808 18.642 9.26466 18.6063 9.21968 18.5612L0.500931 9.84247C0.455898 9.79749 0.42017 9.74407 0.395794 9.68527C0.371418 9.62646 0.358871 9.56343 0.358871 9.49978C0.358871 9.43612 0.371418 9.37309 0.395794 9.31429C0.42017 9.25549 0.455898 9.20207 0.500931 9.15708L9.21968 0.438335C9.26468 0.393332 9.31811 0.357633 9.37691 0.333277C9.43571 0.308922 9.49873 0.296387 9.56237 0.296387C9.62602 0.296387 9.68904 0.308922 9.74784 0.333277C9.80664 0.357633 9.86007 0.393332 9.90507 0.438335C9.95007 0.483338 9.98577 0.536765 10.0101 0.595565C10.0345 0.654365 10.047 0.717386 10.047 0.78103C10.047 0.844675 10.0345 0.907696 10.0101 0.966496C9.98577 1.0253 9.95007 1.07872 9.90507 1.12373L2.01339 9.0154L20 9.0154V9H50V10H20V9.98415L2.01339 9.98415L9.90507 17.8758C9.9501 17.9208 9.98583 17.9742 10.0102 18.033C10.0346 18.0918 10.0471 18.1549 10.0471 18.2185C10.0471 18.2822 10.0346 18.3452 10.0102 18.404Z"/>
</svg>