<svg xmlns="http://www.w3.org/2000/svg" width="24" height="25" viewBox="0 0 24 25" fill="none">
    <path d="M12.1465 12.9802C26.5443 4.94733 20.0328 -1.56534 12 12.8337C3.96716 -1.56534 -2.5455 4.94733 11.8535 12.9802C-2.54427 21.013 3.96716 27.5256 12 13.1266C20.0328 27.5256 26.5455 21.013 12.1465 12.9802Z" fill="currentcolor"/>
    <path d="M12.1036 13.0838C27.9644 17.5845 27.9653 8.37506 12.1036 12.8766C16.6052 -2.98507 7.39485 -2.98507 11.8964 12.8766C-3.96441 8.37593 -3.96528 17.5854 11.8964 13.0838C7.39485 28.9455 16.6052 28.9455 12.1036 13.0838Z" fill="currentcolor"/>
    <path d="M12 13.1264C12.0809 13.1264 12.1465 13.0609 12.1465 12.98C12.1465 12.8991 12.0809 12.8335 12 12.8335C11.9191 12.8335 11.8535 12.8991 11.8535 12.98C11.8535 13.0609 11.9191 13.1264 12 13.1264Z" fill="currentcolor"/>
</svg>