<svg xmlns="http://www.w3.org/2000/svg" width="247" height="247" viewBox="0 0 247 247" fill="none"><path d="M40.3852 103.925L213.395 -0.00480056L2.77517 120.145C1.49517 120.875 0.705176 122.235 0.715176 123.705C0.715176 125.175 1.51516 126.535 2.79516 127.255L213.875 246.585L40.4652 143.335L225.645 223.595L42.3152 139.185L234.925 199.485L43.7252 134.865L241.615 174.535L44.6752 130.415L245.635 149.025L45.1452 125.895L246.955 123.225L45.1352 121.345L245.535 97.4352L44.6452 116.825L241.415 71.9352L43.6852 112.385L234.625 47.0152L42.2552 108.075L225.245 22.9552L40.3852 103.925Z" fill="currentcolor"></path></svg>