<svg xmlns="http://www.w3.org/2000/svg" width="14" height="14" viewBox="0 0 14 14" fill="none"><path fill-rule="evenodd" clip-rule="evenodd" d="M0.5 6.27778C0.5 3.55428 0.5 2.19217 1.34644 1.34644C2.19217 0.5 3.55428 0.5 6.27778 0.5H7.72222C10.4457 0.5 11.8078 0.5 12.6536 1.34644C13.5 2.19217 13.5 3.55428 13.5 6.27778V7.72222C13.5 10.4457 13.5 11.8078 12.6536 12.6536C11.8078 13.5 10.4457 13.5 7.72222 13.5H6.27778C3.55428 13.5 2.19217 13.5 1.34644 12.6536C0.5 11.8078 0.5 10.4457 0.5 7.72222V6.27778ZM11.3333 3.75C11.3333 4.03732 11.2192 4.31287 11.016 4.51603C10.8129 4.7192 10.5373 4.83333 10.25 4.83333C9.96268 4.83333 9.68713 4.7192 9.48397 4.51603C9.2808 4.31287 9.16667 4.03732 9.16667 3.75C9.16667 3.46268 9.2808 3.18713 9.48397 2.98397C9.68713 2.7808 9.96268 2.66667 10.25 2.66667C10.5373 2.66667 10.8129 2.7808 11.016 2.98397C11.2192 3.18713 11.3333 3.46268 11.3333 3.75ZM8.44444 7.72222C8.44444 8.10531 8.29226 8.47271 8.02138 8.7436C7.75049 9.01448 7.38309 9.16667 7 9.16667C6.61691 9.16667 6.24951 9.01448 5.97862 8.7436C5.70774 8.47271 5.55556 8.10531 5.55556 7.72222C5.55556 7.33913 5.70774 6.97173 5.97862 6.70085C6.24951 6.42996 6.61691 6.27778 7 6.27778C7.38309 6.27778 7.75049 6.42996 8.02138 6.70085C8.29226 6.97173 8.44444 7.33913 8.44444 7.72222ZM9.88889 7.72222C9.88889 8.4884 9.58453 9.2232 9.04275 9.76498C8.50098 10.3067 7.76618 10.6111 7 10.6111C6.23382 10.6111 5.49902 10.3067 4.95725 9.76498C4.41548 9.2232 4.11111 8.4884 4.11111 7.72222C4.11111 6.95604 4.41548 6.22124 4.95725 5.67947C5.49902 5.1377 6.23382 4.83333 7 4.83333C7.76618 4.83333 8.50098 5.1377 9.04275 5.67947C9.58453 6.22124 9.88889 6.95604 9.88889 7.72222Z" fill="currentColor"></path></svg>