<svg xmlns="http://www.w3.org/2000/svg" width="74" height="74" viewBox="0 0 74 74" fill="none"><path d="M70.011 6.37049L49.6899 41.2517C49.6565 41.3101 49.5214 41.5305 49.2355 41.6332C48.9448 41.7376 48.6967 41.6491 48.6348 41.6251C44.5788 40.0956 40.523 38.5658 36.467 37.0363L24.5663 47.8978L23.1268 47.402L23.0383 46.8878L23.0074 46.8731L23.0285 46.8291L20.3402 30.9547L6.47071 25.0798C6.16951 24.9133 5.9874 24.5907 6.00171 24.2489C6.01645 23.8972 6.23672 23.584 6.56437 23.4492C27.3815 17.3335 48.1986 11.2178 69.0157 5.10208C69.3698 5.02014 69.7381 5.15701 69.9457 5.44665C70.1376 5.71461 70.1626 6.07189 70.011 6.37049ZM9.38186 24.4276L21.0811 29.3836L60.458 9.42357L9.38186 24.4276ZM48.5605 39.7462L66.4824 8.98015L32.0571 33.5216L48.5605 39.7462ZM34.6465 36.3523L30.6696 34.8527L26.3299 43.9428L34.6465 36.3523ZM29.7267 33.0541L59.3703 11.9199L22.0784 30.8246L24.3278 44.1096L29.4477 33.3863C29.4755 33.3292 29.5187 33.2552 29.5857 33.1806C29.635 33.1258 29.6845 33.0845 29.7267 33.0541Z" fill="currentcolor"></path><path d="M11.44 46.9597C11.6335 46.933 11.8286 46.9194 12.0239 46.9189C12.9084 46.9266 13.7711 47.1949 14.504 47.6902L13.5585 49.1439C13.0097 48.7639 12.3408 48.5983 11.6782 48.6782L11.44 46.9597Z" fill="currentcolor"></path><path d="M10.0348 68.4252C9.1874 68.7599 8.31588 69.0297 7.42774 69.2325L7.03721 67.5426C7.83951 67.3597 8.62677 67.1161 9.39221 66.8142L10.0348 68.4252Z" fill="currentcolor"></path><path d="M9.41384 59.9885L10.0267 58.366C10.7775 58.6556 11.5575 58.8629 12.353 58.984L12.1062 60.7007C11.1855 60.5615 10.2828 60.3228 9.41384 59.9885Z" fill="currentcolor"></path><path d="M21.3745 52.7192L22.9513 53.4419C22.5751 54.2703 22.1403 55.0711 21.6505 55.8379L20.1925 54.8985C20.6376 54.201 21.0326 53.4728 21.3745 52.7192Z" fill="currentcolor"></path><path d="M13.9817 66.0536C13.28 66.6642 12.5144 67.1972 11.6981 67.6434L10.8624 66.1235C11.5689 65.7378 12.2316 65.277 12.839 64.749L13.9817 66.0536Z" fill="currentcolor"></path><path d="M5.97434 54.3209C6.02464 53.3611 6.22727 52.4153 6.57444 51.519L8.19666 52.1327C7.91453 52.8571 7.74933 53.6217 7.70698 54.3978L5.97434 54.3209Z" fill="currentcolor"></path><path d="M8.8678 57.7548L7.59159 58.9292C6.89986 58.1842 6.40831 57.2758 6.16276 56.2892L7.8451 55.8687C8.02114 56.5737 8.37307 57.2226 8.8678 57.7548Z" fill="currentcolor"></path><path d="M7.40545 49.815C7.68469 49.3408 8.02564 48.9058 8.4192 48.5212C8.75003 48.2132 9.1089 47.9367 9.49104 47.6953L10.4088 49.1672C10.1192 49.3509 9.84731 49.5614 9.59684 49.7956C9.32136 50.0734 9.08187 50.3848 8.8843 50.7224L7.40545 49.815Z" fill="currentcolor"></path><path d="M15.2527 61.6023L16.8093 62.3672C16.3967 63.2079 15.8856 63.9967 15.2868 64.7169L13.9543 63.6069C14.4649 62.9925 14.9008 62.3196 15.2527 61.6023Z" fill="currentcolor"></path><path d="M14.0039 60.7925L13.914 59.0604C14.6819 59.0229 15.4377 58.854 16.1485 58.5609L16.2063 58.6985C16.2653 58.384 16.3124 58.0649 16.3477 57.7412L17.5363 57.8704L17.4984 57.8163C18.1437 57.3564 18.7266 56.8149 19.2328 56.2051L20.5587 57.3229C19.9556 58.0479 19.261 58.6913 18.4922 59.2373L17.9942 58.5254C17.8865 59.2423 17.7221 59.9495 17.5027 60.6405L16.448 60.3043C15.6617 60.5864 14.8382 60.7509 14.0039 60.7925Z" fill="currentcolor"></path><path d="M15.3863 51.2958C15.178 50.8822 14.9261 50.4921 14.6347 50.1321L15.9783 49.0356C16.3486 49.4915 16.669 49.9857 16.9339 50.5099C17.1039 50.8479 17.2527 51.1961 17.3796 51.5525L15.7476 52.1402C15.6447 51.8515 15.524 51.5696 15.3863 51.2958Z" fill="currentcolor"></path><path d="M22.7741 48.8377L22.7995 48.751L24.4636 49.2392L24.4385 49.3259C24.2714 49.8962 24.0188 50.7577 23.6384 51.7783L22.0132 51.1713C22.372 50.2102 22.6139 49.3843 22.7741 48.8377Z" fill="currentcolor"></path><path d="M18.1569 56.0912L16.4225 56.1149C16.4122 55.3 16.3275 54.4879 16.1696 53.6885L17.8704 53.3491C18.0493 54.2524 18.1452 55.1704 18.1569 56.0912Z" fill="currentcolor"></path></svg>