<svg xmlns="http://www.w3.org/2000/svg" fill="none" viewBox="0 0 209 44"><path d="M46.541 10.477H42.31v25.145h4.232V10.477ZM21.155 10.477h-4.232v25.145h4.232V10.477Z" fill="currentcolor"></path><path d="M27.5 0v4.192h23.268v35.616h-12.69V19.724l7.84-7.766-1.495-1.481H41.43l-7.586 7.514V44H55V0H27.5Z" fill="currentcolor"></path><path d="M0 0v44h4.232V4.192h21.155v35.616H12.69V19.724l7.846-7.766-1.501-1.481h-2.991L8.464 17.99V44h21.15V0H0ZM72.87 15.37l.127.01c.113.009.17.051.17.126 0 .113-.061.634-.184 1.574-.01.066-.099.155-.273.268-.174.113-.39.23-.654.343a4.935 4.935 0 0 1-2.01.428c-.714 0-1.378-.141-1.985-.428a3.442 3.442 0 0 1-1.478-1.33c-.39-.615-.583-1.376-.583-2.283 0-1.424.555-2.509 1.666-3.265.692-.47 1.51-.71 2.451-.71.824 0 1.581.25 2.278.752l.136.099c.02.014.038.028.057.032.019.01.033.01.042-.004.01-.01.014-.033.014-.061v-.306c0-.07.014-.122.038-.145.024-.024.085-.038.174-.038a.42.42 0 0 1 .198.038c.042.023.06.075.06.145l-.046 2.26c0 .07-.014.113-.043.132-.028.019-.089.028-.188.028a.444.444 0 0 1-.193-.028c-.033-.019-.047-.061-.047-.118l.047-1.052c0-.085-.122-.226-.362-.423a6.049 6.049 0 0 0-.668-.474 3.045 3.045 0 0 0-1.577-.428c-.978 0-1.74.48-2.287 1.433-.343.601-.517 1.32-.517 2.152 0 .47.085.925.25 1.353.164.432.385.803.663 1.118.277.315.611.564 1.002.752.386.188.748.282 1.082.282.334 0 .617-.024.857-.066.235-.042.442-.099.611-.165.17-.065.32-.131.457-.201.268-.142.405-.245.41-.31l.145-1.325c.02-.109.07-.165.16-.165ZM79.496 16.352a3.324 3.324 0 0 1-.414-.944 4.264 4.264 0 0 1-.15-1.142c0-.404.046-.794.145-1.165.094-.371.23-.705.4-1.006.17-.3.376-.568.621-.812.24-.245.508-.447.795-.611a3.92 3.92 0 0 1 1.963-.512c1.105 0 2.014.394 2.715 1.184.668.751.997 1.705.997 2.856 0 .569-.094 1.095-.287 1.574-.193.48-.46.888-.8 1.222a3.538 3.538 0 0 1-1.233.78c-.48.188-.94.282-1.374.282-.437 0-.804-.038-1.105-.113a4.136 4.136 0 0 1-.871-.324 3.581 3.581 0 0 1-.776-.536 3.449 3.449 0 0 1-.626-.733Zm.579-2.34c0 .376.037.747.112 1.123.076.371.189.714.34 1.02.15.305.329.573.54.803.438.48.98.719 1.624.719.861 0 1.548-.376 2.07-1.132.457-.658.683-1.47.683-2.443 0-.588-.1-1.152-.297-1.692a3.137 3.137 0 0 0-.899-1.325c-.418-.357-.922-.535-1.515-.535-.927 0-1.656.488-2.188 1.46-.31.583-.47 1.25-.47 2.002ZM93.119 17.935l-.95.038c-.08 0-.128-.014-.151-.047-.024-.033-.033-.09-.033-.179s.014-.14.047-.16a.431.431 0 0 1 .193-.028h.47c.019 0 .038-.164.052-.488l.042-.968c.014-.32.052-1.208.109-2.65.056-1.447.08-2.27.08-2.471 0-.198-.01-.306-.033-.32-.02-.014-.08-.019-.184-.019h-.574c-.052 0-.085-.009-.099-.032a.524.524 0 0 1-.019-.165c0-.084.005-.14.02-.169.009-.028.041-.042.098-.042l1.266.037.724-.037c.062 0 .104.01.132.033.029.023.057.07.085.14l2.4 5.982a.629.629 0 0 0 .07.136c.02.014.033.014.043 0a.699.699 0 0 0 .07-.146l2.24-5.821a.783.783 0 0 1 .118-.235c.033-.033.09-.047.179-.047h.55l1.167-.037c.076 0 .123.014.141.042.019.028.029.089.029.178 0 .09-.014.146-.038.16-.024.019-.085.028-.179.028h-.536c-.038.066-.057.357-.057.879v1.029c0 1.062.019 2.16.057 3.303.037 1.137.075 1.71.117 1.71h.593c.071 0 .118.014.141.037.029.024.038.08.038.16s-.009.136-.033.17c-.019.032-.061.046-.127.046l-1.223-.037-1.224.037c-.08 0-.127-.014-.15-.047-.024-.028-.033-.089-.033-.178 0-.09.014-.141.047-.16a.431.431 0 0 1 .193-.028h.513c.051 0 .08-.625.08-1.87 0-1.25-.02-2.72-.057-4.421-.005-.155-.019-.23-.033-.235-.014 0-.033.037-.061.108l-.052.127-2.117 5.403a3.014 3.014 0 0 1-.33.601c-.132.193-.23.348-.287.46-.094.188-.17.287-.23.287-.052 0-.104-.056-.156-.174-.009-.018-.018-.037-.023-.051-.024-.052-.042-.09-.052-.118l-2.663-6.563c-.062-.15-.1-.23-.113-.23-.02 0-.033.08-.043.24a122.727 122.727 0 0 0-.094 4.463c0 1.315.02 1.973.057 1.973h.79c.066 0 .109.014.127.037a.3.3 0 0 1 .033.16c0 .08-.01.136-.033.17-.018.032-.06.046-.127.046l-.997-.047ZM108.379 17.935l-1.247.038c-.075 0-.122-.014-.141-.043-.019-.028-.028-.089-.028-.178 0-.09.014-.146.047-.165a.43.43 0 0 1 .193-.028h.546c.07 0 .103-1.691.103-5.07v-.591c0-.799-.014-1.203-.042-1.203l-.758.023c-.085 0-.141-.014-.165-.042-.023-.028-.037-.09-.037-.183 0-.094.014-.15.042-.174.028-.023.08-.033.165-.033l1.35.024 1.497-.057c1.007 0 1.755.263 2.254.794.353.376.527.87.527 1.476 0 .85-.367 1.447-1.097 1.785-.447.207-1.002.31-1.675.31l-.993-.033c-.037 0-.061.005-.07.019-.01.01-.014.038-.014.075v.752c0 1.414.014 2.123.047 2.123h.809c.066 0 .113.015.132.038.019.028.033.08.033.16s-.01.136-.033.169c-.019.033-.066.047-.132.047l-1.313-.033Zm.471-3.745c0 .076.136.113.4.113.268 0 .517-.019.743-.06.231-.043.447-.114.65-.212.202-.099.376-.221.522-.372.31-.319.461-.756.461-1.31 0-.353-.104-.663-.311-.93-.428-.536-1.115-.804-2.065-.804-.17 0-.287.005-.353.01-.033.009-.047.206-.047.582v2.983ZM117.866 17.935l-.866.038c-.075 0-.122-.014-.137-.042a.455.455 0 0 1-.023-.179c0-.094.009-.15.033-.164.023-.019.08-.028.169-.028h.344c.07 0 .574-1.147 1.515-3.444.08-.193.122-.296.132-.31l1.209-2.81c.028-.08.094-.178.198-.3.103-.123.179-.25.24-.377.089-.192.164-.286.23-.29.08 0 .123.032.137.103l1.369 3.848c.861 2.39 1.322 3.584 1.374 3.584h.4c.052 0 .09.014.104.038.014.023.023.08.023.16s-.009.136-.023.169-.047.047-.104.047l-1.063-.038-1.313.038c-.066 0-.108-.014-.123-.043a.472.472 0 0 1-.023-.178c0-.09.009-.146.028-.165.019-.018.075-.028.165-.028h.626c.009 0 .009-.028.009-.08 0-.051-.094-.376-.287-.968-.193-.591-.329-1.014-.423-1.273a3.953 3.953 0 0 0-.156-.413c-.014-.019-.051-.028-.108-.028h-2.31c-.08 0-.132.01-.16.033-.024.018-.052.07-.08.15-.612 1.54-.918 2.396-.927 2.57l.009.01h.88c.061 0 .103.009.118.032.014.024.018.066.018.122v.118c0 .019-.004.037-.004.06-.005.024-.01.038-.024.048a.162.162 0 0 1-.108.033l-1.068-.043Zm3.534-3.481c.07 0 .103-.01.103-.033a.415.415 0 0 0-.037-.122l-.946-2.777c-.028-.089-.047-.136-.066-.136-.019 0-.042.047-.075.136l-1.12 2.74a.778.778 0 0 0-.057.168c0 .02.052.029.151.029h2.047v-.005ZM130.641 17.936l-.959.037c-.076 0-.123-.014-.142-.042-.018-.028-.028-.09-.028-.178 0-.09.014-.146.038-.165.023-.019.084-.028.179-.028h.527c.051 0 .08-.165.089-.498.009-.334.019-.719.033-1.16.047-1.645.071-3.397.071-5.258h-.744c-.066 0-.108-.014-.127-.037-.019-.029-.033-.08-.033-.16s.009-.136.033-.17c.019-.032.061-.046.127-.046l1.28.037.626-.037c.033 0 .056 0 .07.004.015.005.029.01.033.01.01 0 .014.004.024.014.009.01.019.014.023.019.005.004.015.009.024.023.009.01.019.019.019.024.004.004.014.014.023.033.014.014.024.028.029.032l4.639 5.695c.09.113.141.16.16.14.024-.023.033-.093.033-.21v-.48l-.023-4.294a7.88 7.88 0 0 0-.01-.606h-1.063c-.061 0-.104-.01-.118-.033a.264.264 0 0 1-.019-.122v-.118c0-.019.005-.037.005-.06.005-.024.009-.038.019-.048a.173.173 0 0 1 .108-.033l1.233.038.969-.038c.076 0 .123.014.137.043.014.028.023.089.023.178 0 .09-.014.146-.042.165-.028.018-.089.028-.188.028h-.518c-.028 0-.047.235-.047.71 0 .474-.014 1.244-.038 2.32a508.103 508.103 0 0 1-.07 2.89c-.024.85-.033 1.282-.033 1.296 0 .188-.052.287-.151.287-.047 0-.094-.028-.141-.09l-.085-.107c-3.75-4.548-5.646-6.85-5.684-6.893-.038-.047-.066-.066-.08-.056-.019.014-.033.521-.033 1.517l-.009 3.914c0 .752.014 1.128.042 1.128h.984c.061 0 .103.009.117.032.014.024.024.07.024.141 0 .07 0 .123-.005.146-.009.061-.056.09-.136.09l-1.215-.024ZM145.822 17.56c.075 0 .113-.916.113-2.749 0-.019 0-.037-.005-.056-.004-.019-.004-.033-.004-.043a.073.073 0 0 0-.015-.042c-.009-.014-.014-.028-.018-.033-.01-.023-.09-.174-.245-.455-.151-.282-.527-.94-1.115-1.978-.593-1.039-.908-1.556-.956-1.556h-.334c-.08 0-.131-.009-.16-.032-.028-.024-.042-.08-.042-.17 0-.089.014-.15.042-.169.029-.023.08-.033.165-.033l1.214.038 1.346-.038c.061 0 .103.014.127.047.024.033.033.094.033.179 0 .09-.009.14-.033.16-.024.018-.08.028-.174.028h-.678c-.07 0-.108.005-.117.019-.01.014.009.075.061.192.047.118.179.376.39.78.212.404.452.855.716 1.344.263.489.414.766.447.827.033.06.056.108.07.136.014.028.028.052.033.061.01.014.019.019.033.024.019 0 .137-.202.348-.606.212-.405.372-.72.49-.945.117-.225.221-.427.31-.61l.264-.536c.174-.371.263-.578.263-.62 0-.047-.009-.066-.023-.066h-.593c-.099 0-.165-.01-.193-.028-.033-.02-.047-.07-.047-.16s.014-.146.038-.179c.023-.033.075-.047.155-.047l.894.038.866-.038c.08 0 .136.014.169.038s.047.08.047.17c0 .088-.019.145-.047.168-.033.024-.089.038-.169.038h-.386c-.019 0-.344.55-.969 1.649a74.263 74.263 0 0 1-1.05 1.813c-.07.113-.108.184-.108.226 0 2.152.033 3.228.103 3.228h.786c.066 0 .113.014.132.037.019.029.033.08.033.16s-.009.136-.033.17c-.019.032-.066.046-.132.046l-1.369-.037-1.304.037c-.075 0-.122-.014-.145-.042-.019-.028-.029-.09-.029-.179s.015-.145.038-.164c.024-.019.085-.028.179-.028h.588v-.014ZM162.776 17.936l-.96.037c-.075 0-.122-.014-.141-.042-.019-.028-.028-.09-.028-.178 0-.09.014-.146.038-.165.023-.019.084-.028.178-.028h.528c.051 0 .08-.165.089-.498.009-.334.019-.719.033-1.16.047-1.645.07-3.397.07-5.258h-.743c-.066 0-.108-.014-.127-.037-.019-.029-.033-.08-.033-.16s.009-.136.033-.17c.019-.032.061-.046.127-.046l1.28.037.626-.037c.033 0 .056 0 .07.004.014.005.029.01.033.01.01 0 .014.004.024.014.009.01.019.014.023.019.005.004.014.009.024.023.009.01.019.019.019.024.004.004.014.014.023.033.014.014.024.028.028.032l4.64 5.695c.09.113.141.16.16.14.024-.023.033-.093.033-.21v-.48l-.023-4.294a7.88 7.88 0 0 0-.01-.606h-1.063c-.061 0-.104-.01-.118-.033a.264.264 0 0 1-.019-.122v-.118c0-.019.005-.037.005-.06.005-.024.009-.038.019-.048a.173.173 0 0 1 .108-.033l1.233.038.969-.038c.076 0 .123.014.137.043.014.028.023.089.023.178 0 .09-.014.146-.042.165-.028.018-.09.028-.188.028h-.518c-.028 0-.047.235-.047.71 0 .474-.014 1.244-.038 2.32a508.103 508.103 0 0 1-.07 2.89c-.024.85-.033 1.282-.033 1.296 0 .188-.052.287-.151.287-.047 0-.094-.028-.141-.09l-.085-.107c-3.75-4.548-5.646-6.85-5.684-6.893-.038-.047-.066-.066-.08-.056-.019.014-.033.521-.033 1.517l-.009 3.914c0 .752.014 1.128.042 1.128h.983c.062 0 .104.009.118.032.014.024.024.07.024.141 0 .07 0 .123-.005.146-.01.061-.052.09-.132.09l-1.219-.024ZM176.437 17.935l-.866.038c-.075 0-.122-.014-.136-.042a.45.45 0 0 1-.024-.179c0-.094.01-.15.033-.164.024-.019.08-.028.17-.028h.343c.071 0 .574-1.147 1.515-3.444.08-.193.123-.296.132-.31l1.209-2.81a1.1 1.1 0 0 1 .198-.3c.104-.123.179-.25.24-.377.089-.192.165-.286.231-.29.08 0 .122.032.136.103l1.369 3.848c.862 2.39 1.323 3.584 1.374 3.584h.4c.052 0 .09.014.104.038.014.023.023.08.023.16s-.009.136-.023.169-.047.047-.104.047l-1.063-.038-1.313.038c-.066 0-.108-.014-.122-.043a.466.466 0 0 1-.024-.178c0-.09.01-.146.028-.165.019-.018.076-.028.165-.028h.626c.009 0 .009-.028.009-.08 0-.051-.094-.376-.287-.968-.193-.591-.329-1.014-.423-1.273a4.107 4.107 0 0 0-.155-.413c-.015-.019-.052-.028-.109-.028h-2.31c-.08 0-.132.01-.16.033-.024.018-.052.07-.08.15-.612 1.54-.918 2.396-.927 2.57l.009.01h.88c.061 0 .104.009.118.032a.265.265 0 0 1 .019.122v.118c0 .019-.005.037-.005.06-.005.024-.009.038-.024.048a.162.162 0 0 1-.108.033l-1.068-.043Zm3.534-3.481c.071 0 .104-.01.104-.033a.426.426 0 0 0-.038-.122l-.946-2.777c-.028-.089-.047-.136-.066-.136-.019 0-.042.047-.075.136l-1.12 2.74a.778.778 0 0 0-.057.168c0 .02.052.029.151.029h2.047v-.005ZM189.156 17.935l-.95.038c-.08 0-.127-.014-.151-.047-.023-.033-.033-.09-.033-.179s.014-.14.047-.16a.43.43 0 0 1 .193-.028h.471c.019 0 .037-.164.051-.488l.043-.968c.014-.32.052-1.208.108-2.65.057-1.447.08-2.27.08-2.471 0-.198-.009-.306-.033-.32-.019-.014-.08-.019-.183-.019h-.574c-.052 0-.085-.009-.099-.032a.504.504 0 0 1-.019-.165c0-.084.005-.14.019-.169.009-.028.042-.042.099-.042l1.265.037.725-.037c.061 0 .104.01.132.033.028.023.056.07.084.14l2.4 5.982a.627.627 0 0 0 .071.136c.019.014.033.014.042 0a.67.67 0 0 0 .071-.146l2.24-5.821a.792.792 0 0 1 .117-.235c.033-.033.09-.047.179-.047h.551l1.167-.037c.075 0 .122.014.141.042.019.028.028.089.028.178 0 .09-.014.146-.037.16-.024.019-.085.028-.179.028h-.537c-.037.066-.056.357-.056.879v1.029c0 1.062.019 2.16.056 3.303.038 1.137.076 1.71.118 1.71h.593c.07 0 .117.014.141.037.028.024.038.08.038.16s-.01.136-.033.17c-.019.032-.061.046-.127.046l-1.224-.037-1.223.037c-.08 0-.127-.014-.151-.047-.023-.028-.033-.089-.033-.178 0-.09.014-.141.047-.16a.43.43 0 0 1 .193-.028h.513c.052 0 .08-.625.08-1.87 0-1.25-.019-2.72-.056-4.421-.005-.155-.019-.23-.033-.235-.014 0-.033.037-.061.108-.029.07-.048.113-.052.127l-2.118 5.403a3.053 3.053 0 0 1-.329.601 4.31 4.31 0 0 0-.287.46c-.094.188-.17.287-.231.287-.052 0-.103-.056-.155-.174a.42.42 0 0 1-.024-.051c-.023-.052-.042-.09-.051-.118l-2.664-6.563c-.061-.15-.099-.23-.113-.23-.019 0-.033.08-.042.24a123.165 123.165 0 0 0-.094 4.463c0 1.315.019 1.973.056 1.973h.791c.066 0 .108.014.127.037.019.028.033.08.033.16s-.01.136-.033.17c-.019.032-.061.046-.127.046l-.998-.047ZM204.459 17.935l-1.398.038c-.08 0-.127-.014-.15-.047-.024-.028-.033-.09-.033-.174 0-.084.014-.14.042-.16.028-.018.09-.032.184-.032h.696c.033 0 .047-.273.047-.823v-1.094l-.047-3.355c0-.521-.014-.92-.042-1.198-.028-.277-.047-.413-.061-.413h-.537c-.075 0-.127-.01-.155-.033-.028-.024-.042-.09-.042-.198 0-.112.051-.164.15-.164l.504.019c.334.01.583.018.743.018l2.88-.032c.386 0 .598-.005.635-.02.038-.009.057-.037.057-.074 0-.01.004-.024.009-.047.005-.024.01-.043.01-.057a.131.131 0 0 1 .023-.047c.019-.028.071-.042.151-.042.084 0 .141.01.174.028.033.019.047.066.047.132l-.047 1.503c0 .052-.014.09-.043.104a.457.457 0 0 1-.174.023c-.136 0-.202-.056-.202-.174l.033-.878c0-.02-.362-.038-1.092-.057a75.201 75.201 0 0 0-1.962-.023c-.042 0-.066.32-.066.954 0 .634.005 1.16.01 1.578.009.418.014.63.028.644.009.014.037.019.089.019h1.911c.395 0 .593-.047.593-.146v-.592c0-.075.07-.113.211-.113s.212.033.212.104l-.023.911.023.968c0 .07-.071.103-.212.103-.141 0-.211-.037-.211-.112v-.569c0-.117-.198-.174-.593-.174h-1.963c-.009 0-.018.005-.018.005l-.015.014a.04.04 0 0 0-.009.023c0 .01-.005.024-.005.038 0 .014.01.545.033 1.593.024 1.047.052 1.574.09 1.574l3.496-.033c.038 0 .061-.01.071-.033a1.01 1.01 0 0 0 .028-.188c.009-.103.023-.446.037-1.02 0-.07.071-.103.212-.103.141 0 .212.038.212.113l-.033 1.597c0 .108-.075.16-.231.16l-4.277-.038ZM68.16 30.65v-5.557H66v-.457h4.838v.457h-2.16v5.556h-.518ZM79.879 30.65l-.685-1.605h-3.25l-.696 1.604h-.541l2.624-6.013h.477l2.612 6.013h-.541Zm-3.738-2.063h2.85l-1.421-3.321-1.429 3.321ZM90.091 27.566v2.745c-.22.119-.523.214-.904.291-.381.077-.768.113-1.16.113-.59 0-1.09-.125-1.512-.368a2.427 2.427 0 0 1-.97-1.058c-.22-.464-.334-1.016-.334-1.658 0-.636.113-1.182.334-1.646a2.37 2.37 0 0 1 .958-1.058c.416-.243.91-.362 1.482-.362.85 0 1.535.261 2.047.784l-.22.416a2.929 2.929 0 0 0-.87-.564 2.659 2.659 0 0 0-.97-.173c-.708 0-1.261.226-1.642.678-.387.451-.577 1.093-.577 1.925 0 .85.196 1.503.589 1.949.393.452.958.677 1.696.677.572 0 1.095-.095 1.583-.279v-1.967h-1.589v-.445h2.06ZM95.81 30.65v-6.014h.524v5.556h3.113v.457H95.81ZM104.595 30.65v-6.014h.524v6.013h-.524ZM115.135 24.636h.488v6.013h-.405l-3.827-5.128v5.128h-.488v-6.013h.417l3.815 5.128v-5.128ZM121.413 30.65v-6.014h3.714v.445h-3.196v2.282h3.029v.464h-3.029v2.37h3.196v.446h-3.714v.006ZM141.345 24.636h.523v6.013h-.523v-2.822h-3.839v2.822h-.524v-6.013h.524v2.727h3.839v-2.727ZM147.659 30.65v-6.014h3.714v.445h-3.196v2.282h3.029v.464h-3.029v2.37h3.196v.446h-3.714v.006ZM161.472 30.65h-.541l-.756-2.003c-.095-.268-.226-.452-.399-.547-.166-.095-.416-.137-.738-.137h-1.684v2.686h-.524v-6.013h2.327c.625 0 1.113.142 1.458.428.346.285.518.689.518 1.218 0 .386-.101.713-.309.98-.209.267-.5.452-.887.559.173.03.327.1.446.22.125.118.227.29.316.522l.773 2.086Zm-2.338-3.144c.987 0 1.481-.41 1.481-1.236 0-.796-.494-1.189-1.481-1.189h-1.78v2.425h1.78ZM166.888 30.65v-6.014h3.714v.445h-3.196v2.282h3.029v.464h-3.029v2.37h3.196v.446h-3.714v.006Z" fill="currentcolor"></path></svg>