<svg xmlns="http://www.w3.org/2000/svg" fill="none" viewBox="0 0 176 60"><path d="m75.942 59.93-.5-1.349a2.578 2.578 0 0 0-.176-.391.894.894 0 0 0-.208-.25.69.69 0 0 0-.285-.135 1.861 1.861 0 0 0-.416-.039h-.974v2.163h-.428v-4.717h1.123c.13 0 .266 0 .422.006.15.007.305.02.454.045.156.026.3.058.442.11.143.05.266.115.377.205.11.09.201.205.266.34.065.135.097.308.097.5 0 .16-.026.302-.084.43a.942.942 0 0 1-.234.34c-.097.097-.22.18-.357.245a1.726 1.726 0 0 1-.468.14c-.006.014-.006.02-.006.026V57.612a.993.993 0 0 1 .383.154c.097.077.182.174.26.309.078.128.15.288.227.48.078.193.162.425.273.688l.26.674h-.448v.012Zm-2.546-2.536h.961c.162 0 .318-.013.474-.038.156-.026.299-.077.429-.142a.93.93 0 0 0 .311-.282.799.799 0 0 0 .117-.45.897.897 0 0 0-.097-.442.745.745 0 0 0-.273-.276 1.264 1.264 0 0 0-.415-.141 3.285 3.285 0 0 0-.52-.039h-.987v1.81ZM83.143 59.557v.372h-2.85v-4.717h2.759v.372h-2.325v1.74h2.195v.365h-2.201v1.868h2.422ZM86.987 59.93h-.454l1.993-4.718h.493l1.974 4.717h-.46l-.585-1.38h-2.403l-.558 1.38Zm.675-1.682h2.176l-.805-2.1-.26-.712-.254.713-.857 2.099ZM97.41 59.93h-2.767v-4.718h.435v4.345h2.331v.372ZM108.792 59.557v.372h-2.85v-4.717h2.759v.372h-2.324v1.74h2.194v.365h-2.201v1.868h2.422ZM112.701 59.12c.111.116.215.213.325.283.11.07.214.122.325.154.11.032.214.058.324.064.104.013.215.013.318.013.189 0 .358-.02.52-.058.156-.038.292-.09.403-.16.11-.07.201-.16.266-.263a.692.692 0 0 0 .097-.372.677.677 0 0 0-.117-.405 1.178 1.178 0 0 0-.305-.289 2.502 2.502 0 0 0-.435-.218c-.162-.064-.325-.122-.5-.186-.169-.064-.338-.128-.5-.2a2.221 2.221 0 0 1-.435-.256 1.16 1.16 0 0 1-.305-.36 1.028 1.028 0 0 1-.117-.506c0-.206.045-.379.143-.533a1.21 1.21 0 0 1 .383-.385c.162-.103.338-.18.545-.231a2.52 2.52 0 0 1 .948-.058 1.959 1.959 0 0 1 .65.199c.104.058.195.122.279.205l-.162.302a1.424 1.424 0 0 0-.513-.276 2.297 2.297 0 0 0-.585-.083c-.149 0-.298.013-.441.045a1.25 1.25 0 0 0-.396.147.84.84 0 0 0-.286.257.63.63 0 0 0-.111.372.65.65 0 0 0 .117.392c.078.109.182.205.306.289.129.083.272.16.435.224.162.064.331.135.5.2.168.063.337.134.5.211.162.077.305.167.435.27.13.102.227.224.305.365.078.142.117.308.117.508a.966.966 0 0 1-.279.719 1.24 1.24 0 0 1-.306.23c-.117.065-.24.116-.376.155a2.906 2.906 0 0 1-.857.115c-.28 0-.546-.051-.786-.154a1.608 1.608 0 0 1-.611-.469l.182-.256ZM120.669 59.93v-4.346h-1.565v-.372h3.565v.372h-1.559v4.345h-.441ZM125.682 59.93h-.455l1.994-4.718h.493l1.974 4.717h-.461l-.584-1.38h-2.403l-.558 1.38Zm.669-1.682h2.181l-.805-2.1-.259-.712-.254.713-.863 2.099ZM133.857 59.93v-4.346h-1.565v-.372h3.565v.372h-1.558v4.345h-.442ZM142.39 59.557v.372h-2.851v-4.717h2.76v.372h-2.325v1.74h2.195v.365h-2.201v1.868h2.422ZM79.662 48.902l-4.039-13.016h-.104c.143 2.65.221 4.416.221 5.301v7.715h-3.182V32.311h4.845L81.377 45h.071l4.214-12.69h4.844v16.592h-3.318v-7.85c0-.372.007-.795.02-1.283.013-.481.065-1.772.156-3.858h-.104l-4.331 12.991h-3.267ZM110.221 40.584c0 2.747-.689 4.859-2.065 6.335-1.377 1.476-3.351 2.215-5.922 2.215-2.572 0-4.546-.739-5.922-2.215-1.377-1.476-2.065-3.594-2.065-6.354 0-2.76.688-4.872 2.071-6.329 1.383-1.457 3.364-2.182 5.942-2.182 2.578 0 4.552.732 5.915 2.201 1.357 1.464 2.046 3.576 2.046 6.33Zm-12.254 0c0 1.855.358 3.248 1.066 4.185.714.937 1.772 1.406 3.194 1.406 2.838 0 4.26-1.868 4.26-5.597 0-3.736-1.409-5.604-4.234-5.604-1.415 0-2.487.469-3.201 1.412-.72.95-1.085 2.343-1.085 4.198ZM127.883 40.45c0 2.727-.786 4.82-2.357 6.277-1.571 1.45-3.844 2.175-6.812 2.175h-4.753V32.311h5.273c2.74 0 4.87.712 6.383 2.143 1.506 1.432 2.266 3.428 2.266 5.995Zm-3.701.09c0-3.563-1.591-5.347-4.773-5.347h-1.896v10.802h1.526c3.429 0 5.143-1.817 5.143-5.456ZM141.286 48.902h-9.669V32.311h9.669v2.882h-6.111v3.639h5.682v2.888h-5.682v4.281h6.111v2.901ZM148.604 42.535v6.367h-3.559V32.311h4.89c2.279 0 3.968.41 5.065 1.232 1.097.822 1.643 2.067 1.643 3.742 0 .976-.273 1.842-.818 2.606-.546.757-1.312 1.354-2.306 1.784 2.526 3.73 4.169 6.136 4.936 7.227h-3.949l-4.006-6.367h-1.896Zm0-2.856h1.149c1.124 0 1.955-.186 2.494-.558.539-.373.805-.957.805-1.746 0-.79-.273-1.348-.818-1.682-.546-.334-1.396-.5-2.546-.5h-1.078v4.486h-.006ZM175.714 48.902h-4.526l-7.298-12.548h-.104c.143 2.215.22 3.8.22 4.744v7.804h-3.181V32.311h4.487l7.292 12.426h.078c-.117-2.157-.176-3.678-.176-4.57V32.31h3.202v16.591h.006ZM54.312 17.484l2.039-2.324L43.05 0 0 49.07h13.39L47.708 9.954l6.604 7.529Z" fill="currentcolor"></path><path d="M95.35 21.874 76.157 0 33.11 49.07h13.383L80.813 9.954l10.46 11.92h4.079ZM21.208 17.477v-4.274H7.188v20.25l14.02-15.976Z" fill="currentcolor"></path></svg>