<svg xmlns="http://www.w3.org/2000/svg" fill="none" viewBox="0 0 150 64"><path d="M49.218 64c-4.435 0-7.729-1.304-9.57-3.87-2.628-3.655-1.896-9.436 2.057-16.282a1.205 1.205 0 0 1 1.653-.438 1.22 1.22 0 0 1 .438 1.663c-3.443 5.96-4.222 10.801-2.189 13.63 2.217 3.081 7.853 3.705 15.465 1.704 8.1-2.127 17.504-6.9 26.476-13.443 17.92-13.06 28.99-29.754 24.178-36.456-2.214-3.083-7.853-3.706-15.464-1.703-8.1 2.127-17.503 6.9-26.477 13.441a1.206 1.206 0 0 1-1.69-.272 1.227 1.227 0 0 1 .273-1.702c9.21-6.712 18.9-11.621 27.282-13.826 8.755-2.303 15.159-1.364 18.037 2.637 5.775 8.037-5.084 25.544-24.72 39.856-9.212 6.714-18.902 11.623-27.284 13.825C54.541 63.592 51.7 64 49.218 64ZM18.774 27.715c.541 0 1.052.103 1.525.307.474.204.89.481 1.246.834a3.78 3.78 0 0 1 1.148 2.746 3.805 3.805 0 0 1-1.148 2.748c-.356.35-.772.629-1.246.833a3.818 3.818 0 0 1-1.525.305H2.784v3.567c0 .389-.14.722-.42.995-.28.273-.606.408-.973.408-.386 0-.715-.136-.986-.408A1.363 1.363 0 0 1 0 39.055v-9.938c0-.388.135-.72.405-.992.271-.272.6-.41.986-.41h17.383Zm103.511 9.937h-15.989c-.677 0-1.225-.12-1.638-.365a3.035 3.035 0 0 1-.988-.892c-.188-.27-.288-.58-.38-.894a75.763 75.763 0 0 1-1.997 2.235c.121.215.232.434.375.632a5.488 5.488 0 0 0 1.581 1.506c.619.389 1.325.584 2.119.584h16.917c.386 0 .717-.136.988-.408.271-.273.405-.606.405-.995 0-.39-.134-.72-.405-.992a1.335 1.335 0 0 0-.988-.411Zm-68.629 2.28c-.29.35-.646.526-1.075.526a1.34 1.34 0 0 1-.985-.408 1.36 1.36 0 0 1-.406-.995c0-.35.099-.632.29-.846l7.053-9.56a3.723 3.723 0 0 1 1.304-1.093 3.7 3.7 0 0 1 1.743-.425c.58 0 1.13.127 1.653.38.523.254.947.604 1.278 1.053l7.05 9.498.291.454c.077.163.115.345.115.539 0 .389-.135.722-.405.995-.269.273-.6.408-.986.408-.465 0-.832-.185-1.103-.554l-6.763-9.09a6.025 6.025 0 0 0-.508-.512c-.202-.185-.411-.277-.623-.277-.213 0-.42.092-.625.277-.2.185-.363.354-.477.511l-6.82 9.119Zm40.83-11.56c-.619-.4-1.325-.619-2.119-.657h-12.16c-.832 0-1.577.195-2.233.584a5.766 5.766 0 0 0-1.684 1.506 6.832 6.832 0 0 0-1.06 2.046 7.279 7.279 0 0 0-.362 2.235v4.97c0 .388.137.721.407.995.271.273.6.408.986.408.388 0 .717-.136.988-.408.268-.273.405-.606.405-.995v-4.97c0-.35.043-.735.13-1.152.087-.418.251-.803.493-1.156.244-.35.572-.648.988-.892.416-.242.962-.365 1.64-.365h10.477c.658 0 1.2.122 1.624.365.424.243.76.542 1 .892.244.353.408.738.494 1.156.087.417.132.802.132 1.152v.055a79.741 79.741 0 0 0 2.327-2.518 6.99 6.99 0 0 0-.89-1.744 5.873 5.873 0 0 0-1.583-1.507ZM28.032 40.151a4.004 4.004 0 0 1-2.119-2.06 3.612 3.612 0 0 1-.32-1.52v-7.453c0-.39.137-.72.408-.993.268-.272.599-.41.985-.41.367 0 .69.138.973.41.279.273.42.604.42.992v7.454c0 .292.111.546.335.758.222.218.478.323.768.323h17.413c.386 0 .714.135.985.41.271.272.405.603.405.992 0 .39-.134.722-.405.995-.27.273-.6.408-.986.408H29.57c-.541.001-1.054-.1-1.538-.306Zm119.911-12.436c.384 0 .715.138.985.41.272.273.406.604.406.992 0 .372-.126.688-.378.95-.249.264-.55.415-.898.454h-5.835c-.578.038-1.058.18-1.436.423a2.796 2.796 0 0 0-.885.892c-.213.35-.356.73-.435 1.14a6.117 6.117 0 0 0-.115 1.109v4.97c0 .389-.137.722-.407.995-.271.273-.6.408-.986.408a1.33 1.33 0 0 1-.985-.408 1.353 1.353 0 0 1-.407-.995v-4.97a7.4 7.4 0 0 1 .232-1.826 6.894 6.894 0 0 1 .696-1.738h-9.519c-.386 0-.717-.136-.988-.408a1.358 1.358 0 0 1-.406-.995c0-.39.135-.72.406-.993.271-.272.602-.41.988-.41h19.967Zm-88.165 9.586c0-.507.175-.934.525-1.287.348-.35.772-.526 1.276-.526.503 0 .928.176 1.275.526.35.353.525.78.525 1.287 0 .508-.175.935-.525 1.285-.347.35-.772.527-1.275.527-.504 0-.928-.176-1.276-.527a1.75 1.75 0 0 1-.525-1.285Zm46.838-1.813h14.453c.384 0 .715-.136.983-.408.271-.273.407-.604.407-.995 0-.389-.136-.72-.407-.993a1.33 1.33 0 0 0-.983-.408h-14.453a1.34 1.34 0 0 0-.988.408 1.351 1.351 0 0 0-.406.993c0 .39.135.722.406.995s.6.408.988.408ZM2.784 30.521v2.163h16.107c.29 0 .546-.103.768-.307a1.01 1.01 0 0 0 .335-.776c0-.29-.113-.545-.335-.76a1.079 1.079 0 0 0-.768-.32H2.784Zm104.363 0h15.138c.386 0 .717-.136.988-.408.271-.274.405-.607.405-.995 0-.39-.134-.72-.405-.993a1.345 1.345 0 0 0-.988-.41h-13.31a52.654 52.654 0 0 1-1.828 2.806ZM49.274 18.897c0 3.43-2.76 6.21-6.166 6.21-3.407 0-6.167-2.78-6.167-6.21 0-3.431 2.76-6.212 6.167-6.212 3.406 0 6.166 2.78 6.166 6.212Zm8.262-6.515a2.123 2.123 0 0 1-2.116 2.13 2.123 2.123 0 0 1-2.117-2.13c0-1.177.947-2.133 2.117-2.133s2.116.956 2.116 2.133Zm-5.608-9.118c0 1.804-1.451 3.265-3.24 3.265-1.793 0-3.244-1.46-3.244-3.265C45.444 1.463 46.895 0 48.688 0c1.79 0 3.24 1.463 3.24 3.264Z" fill="currentcolor"></path></svg>