<svg xmlns="http://www.w3.org/2000/svg" fill="none" viewBox="0 0 125 55"><path fill-rule="evenodd" clip-rule="evenodd" d="M52.497 46.973a8.65 8.65 0 0 0 .21 2.235c.79 3.864 3.562 5.792 7.352 5.792 2.982 0 6.43-1.63 5.649-5.438-.334-1.63-1.639-3.308-3.905-3.308-2.172 0-4.392 1.726-3.572 5.744.152.768.447 1.679.81 2.494-2.83-.25-5.278-2.081-5.84-4.834-1.228-6.003 3.43-8.9 7.554-9.206l-.086-14.693c0-.968-.124-2.08-.295-2.896-.59-2.896-2.277-5.189-5.858-5.189-2.829 0-7.315 2.743-8.334 14.031-.048 0-.162-.048-.162-.048.143-4.728.352-8.64.247-13.32l-.152-14.78-.172-.105c-1.571.202-12.325 1.43-12.258 1.784.105.508 3.381-.508 4.029 2.647.114.556.124 1.275.133 1.88l.324 32.501h8.22l-.038-6.57c-.048-7.978 2.381-15.2 4.553-15.2.857 0 1.2.662 1.372 1.525.123.614.18 1.371.18 1.88l.039 23.074ZM111.37 30.852c-.476-6.004.648-12.861 3.619-12.861 1.162 0 2.048.614 2.467 2.695.829 4.018-.238 9.916-6.086 10.166Zm3.324 11.402c4.896 0 8.334-2.435 10.306-5.39l-.229-.143c-1.981 2.896-4.533 4.22-7.058 4.22-2.676 0-5.038-2.504-5.991-7.136a17.126 17.126 0 0 1-.333-2.589c5.82-.403 14.011-2.34 12.83-8.085-.657-3.203-3.391-5.437-9.249-5.437-9.591 0-13.668 7.221-12.154 14.587 1.115 5.39 5.011 9.974 11.878 9.974ZM79.385 17.636c-1.943 0-3.705 1.074-6.067 4.316v.489c1.01-1.41 2.114-2.724 3.286-3.587l.352 23.4h8.182l-.067-4.526c-.123-7.98 2.62-17.253 4.649-17.253 1.667 0 1.629 2.138 1.61 3.404l-.22 12.727c-.066 3.817 1.258 6.358 5.344 6.358 1.752 0 3.924-1.218 6.191-4.037v-.509c-1.067 1.372-2.191 2.475-3.19 3.175l.028-16.131c.01-4.067-1.496-7.778-6.144-7.778-2.781 0-7.105 3.002-8.344 14.443l-.162-.048c.229-5.284-.171-9.964-.304-10.578-.486-2.34-2.315-3.865-5.144-3.865Zm-6.877 5.476c-.143.22-.295.441-.447.672l.228.153.21-.317v-.508h.01ZM19.493 4.104c-6.01 0-13.04 3.338-11.506 10.665 1.847 8.823 17.383 14.798 19.383 24.32 1.105 5.285-1.515 11.116-9.335 11.116-7.877 0-12.763-5.236-14.106-11.662-1.42-6.78 1.305-10.664 5.648-10.664 3.286 0 6.601 2.09 7.468 4.334-.867-.297-1.772-.498-2.524-.498-2.677 0-4.582 1.745-4 4.536.304 1.448 1.638 2.743 3.504 2.743 2.725 0 4.468-2.542 3.839-5.534-.695-3.337-4.62-5.927-8.41-5.927C1.68 27.533-.873 33.211.252 38.6c1.534 7.328 9.011 11.912 17.24 11.912 15.25 0 20.174-7.826 18.479-15.949C33.78 24.138 17.378 16.907 15.9 9.887c-.57-2.743 1.058-5.332 5.192-5.332 1.057 0 3.286.25 4.267.595-.81 1.198-1.095 3.193-.724 4.986.457 2.197 1.877 4.134 4.648 4.134 1.915 0 3.2-1.592 2.734-3.836-.638-3.088-4.4-6.33-12.525-6.33Z" fill="currentcolor"></path><path fill-rule="evenodd" clip-rule="evenodd" d="M69.394 42.255c1.695 0 4.105-1.343 6.496-4.383v-.441c-1.114 1.457-2.324 2.627-3.496 3.443l.19-21.157h-.009l.124-6.32c.22-3.577-1.572-7.24-5.4-7.624-4.077-.412-5.525 4.162-2.8 6.195l.056.039h.01l.047.038.02.01.01.01.047.037h.01l.056.039.02.02.114.076.019.01.01.009.047.029.01.01.057.038.038.019.047.02.01.009.057.019.095.048.067.019.01.01.019.01.114.037h.01l.085.03h.01l.066.018h.01l.047-.019.058.01h.009l.076.019h.01l.028.01.038.01.02.009h.009l.076.019h.01l.066.01h.105l.067.01h.343c2.514-.03 4.534-3.338 2.648-5.669 1.428.806 2.505 2.12 2.829 3.817 1.085 5.812-3.477 8.622-7.525 8.92v.009h-.029c-.038 2.206-.057 13.762-.085 15.977-.01.93.066 1.957.219 2.782.4 2.503 1.79 3.769 4.705 3.769ZM71.87 53.974c1.105 0 2.038-.393 2.657-1.132l-.8-.767a2.33 2.33 0 0 1-1.79.796c-1.39 0-2.391-.978-2.391-2.369 0-1.39 1.01-2.369 2.39-2.369.696 0 1.306.26 1.791.787l.8-.758c-.619-.729-1.562-1.132-2.647-1.132-2.058 0-3.591 1.458-3.591 3.472.01 2.014 1.533 3.472 3.581 3.472Zm10.182-.096h1.305l-3.02-6.742H79.11l-3.01 6.742h1.286l.657-1.563h3.353l.657 1.563Zm-3.6-2.541 1.257-2.945 1.267 2.944h-2.524Zm9.963-4.201h-2.753v6.742h1.248V51.93h1.514c1.762 0 2.848-.911 2.848-2.398-.01-1.496-1.095-2.397-2.857-2.397Zm-.057 3.74H86.9v-2.675h1.458c1.095 0 1.657.489 1.657 1.342 0 .834-.572 1.333-1.657 1.333Zm6.772 3.002h1.248V48.19h2.219v-1.055h-5.686v1.055h2.219v5.687Zm8.61.096c1.829 0 2.925-1.074 2.925-3.03v-3.808h-1.229v3.76c0 1.39-.61 1.984-1.696 1.984-1.085 0-1.705-.594-1.705-1.985v-3.76h-1.247v3.808c.009 1.966 1.114 3.03 2.952 3.03Zm11.84-.096-1.543-2.215c.905-.355 1.429-1.113 1.429-2.13 0-1.496-1.096-2.397-2.848-2.397h-2.753v6.742h1.248v-1.966h1.514c.086 0 .172 0 .257-.01l1.372 1.976h1.324Zm-1.362-4.345c0 .844-.562 1.353-1.658 1.353h-1.457V48.2h1.457c1.086-.01 1.658.49 1.658 1.333Zm5.334 3.3v-1.86h3.238v-1.027h-3.238V48.19h3.648v-1.046h-4.886v6.742h5.019v-1.054h-3.781ZM85.11 2.905h-8.268l-3.676 4.47-.02-.03-.028-.038-.019-.038-.02-.029-.028-.029-.038-.057-.019-.038-.047-.068-.038-.057-.03-.029-.037-.057-.029-.03-.019-.028-.143-.144-.01-.067-.066-.067-.01-.029-.028-.029-.02-.028-.028-.039-.085-.086-.02-.029-.17-.172-.02-.039-.029-.029-.019-.028-.114-.115-.028-.02-.029-.028v-.01l-.029-.02-.171-.172-.029-.019-.2-.201-.019.01-.019-.02L75.261.901c.229-.297.59-.499 1-.499H93.96c.41 0 .771.202.99.499l6.429 7.826h12.249c.41 0 .772.201 1.001.498l5.915 7.193h-.01c-1.21-.422-2.515-.662-3.839-.767l-3.638-4.43h-12.249c-.352 0-.714-.154-.953-.451l-6.477-7.874H85.11v.01ZM61.498 11.23h-4.334l-4.277 5.198h-3.22l5.916-7.193c.228-.307.59-.499 1-.499h4.581c-.095.825.01 1.679.334 2.494Z" fill="currentcolor"></path><path fill-rule="evenodd" clip-rule="evenodd" d="M109.475 2.877c.409 0 .771.201 1 .498l1.648 1.995h-9.592l1.648-1.995c.228-.307.59-.498.99-.498h4.306ZM85.557 8.151c2.915 0 5.553 1.19 7.468 3.117a10.632 10.632 0 0 1 2.695 4.613 9.682 9.682 0 0 0-2.324-.297 8.529 8.529 0 0 0-1.857-2.82 8.424 8.424 0 0 0-5.982-2.493c-2.343 0-4.457.95-5.981 2.493a8.483 8.483 0 0 0-1.924 3.002c-.915.24-1.743.671-2.496 1.218a10.654 10.654 0 0 1 2.943-5.716 10.45 10.45 0 0 1 7.458-3.117Z" fill="currentcolor"></path></svg>