<svg xmlns="http://www.w3.org/2000/svg" fill="none" viewBox="0 0 123 54"><path d="m122.034 38.273.734.115.232-1.469-.734-.114c-.067-.01-3.795-.606-9.368-1.984v-2.59h-1.654v2.17a151.13 151.13 0 0 1-10.351-3.072v-2.953h-.97v2.62c-.758-.263-1.519-.532-2.287-.815v-5.153h-1.943v4.429c-.855-.33-1.694-.664-2.522-1.004V23.75h-.97v4.293c-5.33-2.253-10.055-4.738-14.11-7.419v-2.966h-1.653v1.835c-.236-.169-.475-.334-.707-.505-6.442-4.698-10.897-9.962-13.261-15.65V0h-1.943v3.34c-2.36 5.685-6.816 10.946-13.251 15.643-.199.145-.4.287-.6.428V17.66h-1.653v2.89c-3.075 2.043-6.536 3.97-10.358 5.768v-2.57h-.97v3.021c-.825.378-1.664.751-2.522 1.115v-2.86H29.23v3.668c-.704.287-1.415.57-2.135.846-.05.02-.101.037-.152.057v-1.216h-.97v1.583c-5.425 2.02-10.624 3.53-14.884 4.61v-2.34H9.436v2.751C4.233 36.246.798 36.795.734 36.805L0 36.923l.232 1.468.734-.114c.064-.01 3.398-.543 8.473-1.762v4.813H.849v.99h8.587v.225h1.653v-.225h18.144v1.63H.849v.99h25.12v5.809h-1.69v2.142h-1.363v1.118h14.847v-1.118h-1.364v-2.142h-1.731v-5.81h23.34v9.07h6.789v-9.07H92.2v5.81h-1.596v2.142h-1.367v1.118h14.847v-1.118h-1.364v-2.142h-1.828v-5.81h21.255v-.99H97.633v-1.63h13.611v.226h1.654v-.225h9.253v-.99h-9.253v-4.974c5.448 1.33 9.068 1.909 9.136 1.92Zm-26.637-7.338.296.111v10.278h-2.522V30.056c.734.296 1.472.59 2.226.88ZM92.2 29.66v11.665h-14.11V22.402c4.092 2.623 8.817 5.05 14.11 7.257Zm-17.346-9.467a65.18 65.18 0 0 0 1.583 1.112v20.02H64.797v-2.37h-2.324V6.768c2.65 4.85 6.8 9.352 12.382 13.423Zm-26.71 0c5.583-4.071 9.732-8.574 12.385-13.42v32.185h-2.522v2.37H46.68v-20.1c.495-.344.986-.688 1.465-1.035Zm-3.119 2.132v19H34.668V27.962c3.799-1.758 7.26-3.641 10.358-5.638Zm-11.331 6.079v12.921h-2.522V29.501c.855-.36 1.697-.725 2.522-1.098ZM11.089 41.324v-5.22c4.236-1.064 9.44-2.559 14.884-4.56v9.78H11.09Zm15.854 0v-10.14c.219-.084.438-.165.66-.249.549-.209 1.091-.424 1.63-.64v11.03h-2.29Zm0 3.61h2.287v5.81h-2.287v-5.81Zm6.752 5.806h-2.522v-5.809h2.522v5.81Zm-2.519-6.796v-1.63h13.85v.226h1.654v-.226h11.328v1.63H31.176Zm61.995.99h2.522v5.81h-2.522v-5.81Zm6.752 0v5.81h-2.287v-5.81h2.287Zm-4.23-.99H64.797v-1.63h11.641v.226h1.653v-.226h17.602v1.63Zm1.943-12.177c.768.28 1.532.545 2.287.805v8.752h-2.287v-9.557Zm13.608 9.557h-10.351v-8.422c3.744 1.25 7.28 2.25 10.351 3.037v5.385Z" fill="currentcolor"></path><path d="m122.034 38.273.734.115.232-1.469-.734-.114c-.067-.01-3.795-.606-9.368-1.984v-2.59h-1.654v2.17a151.13 151.13 0 0 1-10.351-3.072v-2.953h-.97v2.62c-.758-.263-1.519-.532-2.287-.815v-5.153h-1.943v4.429c-.855-.33-1.694-.664-2.522-1.004V23.75h-.97v4.293c-5.33-2.253-10.055-4.738-14.11-7.419v-2.966h-1.653v1.835c-.236-.169-.475-.334-.707-.505-6.442-4.698-10.897-9.962-13.261-15.65V0h-1.943v3.34c-2.36 5.685-6.816 10.946-13.251 15.643-.199.145-.4.287-.6.428V17.66h-1.653v2.89c-3.075 2.043-6.536 3.97-10.358 5.768v-2.57h-.97v3.021c-.825.378-1.664.751-2.522 1.115v-2.86H29.23v3.668c-.704.287-1.415.57-2.135.846-.05.02-.101.037-.152.057v-1.216h-.97v1.583c-5.425 2.02-10.624 3.53-14.884 4.61v-2.34H9.436v2.751C4.233 36.246.798 36.795.734 36.805L0 36.923l.232 1.468.734-.114c.064-.01 3.398-.543 8.473-1.762v4.813H.849v.99h8.587v.225h1.653v-.225h18.144v1.63H.849v.99h25.12v5.809h-1.69v2.142h-1.363v1.118h14.847v-1.118h-1.364v-2.142h-1.731v-5.81h23.34v9.07h6.789v-9.07H92.2v5.81h-1.596v2.142h-1.367v1.118h14.847v-1.118h-1.364v-2.142h-1.828v-5.81h21.255v-.99H97.633v-1.63h13.611v.226h1.654v-.225h9.253v-.99h-9.253v-4.974c5.448 1.33 9.068 1.909 9.136 1.92Zm-26.637-7.338.296.111v10.278h-2.522V30.056c.734.296 1.472.59 2.226.88ZM92.2 29.66v11.665h-14.11V22.402c4.092 2.623 8.817 5.05 14.11 7.257Zm-17.346-9.467a65.18 65.18 0 0 0 1.583 1.112v20.02H64.797v-2.37h-2.324V6.768c2.65 4.85 6.8 9.352 12.382 13.423Zm-26.71 0c5.583-4.071 9.732-8.574 12.385-13.42v32.185h-2.522v2.37H46.68v-20.1c.495-.344.986-.688 1.465-1.035Zm-3.119 2.132v19H34.668V27.962c3.799-1.758 7.26-3.641 10.358-5.638Zm-11.331 6.079v12.921h-2.522V29.501c.855-.36 1.697-.725 2.522-1.098ZM11.089 41.324v-5.22c4.236-1.064 9.44-2.559 14.884-4.56v9.78H11.09Zm15.854 0v-10.14c.219-.084.438-.165.66-.249.549-.209 1.091-.424 1.63-.64v11.03h-2.29Zm0 3.61h2.287v5.81h-2.287v-5.81Zm6.752 5.806h-2.522v-5.809h2.522v5.81Zm-2.519-6.796v-1.63h13.85v.226h1.654v-.226h11.328v1.63H31.176Zm61.995.99h2.522v5.81h-2.522v-5.81Zm6.752 0v5.81h-2.287v-5.81h2.287Zm-4.23-.99H64.797v-1.63h11.641v.226h1.653v-.226h17.602v1.63Zm1.943-12.177c.768.28 1.532.545 2.287.805v8.752h-2.287v-9.557Zm13.608 9.557h-10.351v-8.422c3.744 1.25 7.28 2.25 10.351 3.037v5.385Z" fill="currentcolor"></path></svg>