<svg xmlns="http://www.w3.org/2000/svg" width="13" height="17" viewBox="0 0 13 17" fill="none"><path d="M7.01562 0.357422C10.1367 0.357422 12.9922 2.51562 12.9922 5.80273C12.9922 8.89062 11.3984 12.3438 7.87891 12.3438C7.01562 12.3438 5.98633 11.9121 5.55469 11.1484C4.82422 14.1367 4.85742 14.6016 3.19727 16.8926C3.03125 16.959 3.06445 16.959 2.96484 16.8262C2.89844 16.1953 2.83203 15.5977 2.83203 14.9668C2.83203 12.9414 3.76172 9.98633 4.22656 8.02734C3.96094 7.49609 3.89453 6.89844 3.89453 6.33398C3.89453 3.67773 7.01562 3.2793 7.01562 5.4707C7.01562 6.76562 6.11914 7.99414 6.11914 9.25586C6.11914 10.0859 6.84961 10.6836 7.67969 10.6836C9.9707 10.6836 10.668 7.39648 10.668 5.63672C10.668 3.2793 9.00781 1.98438 6.7168 1.98438C4.09375 1.98438 2.06836 3.87695 2.06836 6.5332C2.06836 7.82812 2.86523 8.49219 2.86523 8.79102C2.86523 9.05664 2.66602 9.95312 2.33398 9.95312C1.53711 9.95312 0.242188 8.625 0.242188 6.30078C0.242188 2.61523 3.5957 0.357422 7.01562 0.357422Z" fill="currentcolor"></path></svg>