<svg xmlns="http://www.w3.org/2000/svg" width="206" height="164" viewBox="0 0 206 164" fill="none"><path d="M51.004 0.0469072C39.8048 0.0469072 30.4721 3.91327 23.006 11.646C15.5399 19.3788 11.8068 28.3115 11.8068 38.444C11.7411 47.8684 15.1597 56.9848 21.4061 64.0422C27.4114 71.2981 36.0332 75.8964 45.4044 76.8412C44.3378 90.1736 40.0714 101.773 32.6053 111.639C25.1392 121.505 14.4733 130.971 0.607666 140.037L15.0066 163.235C35.2718 153.102 52.6038 136.57 67.0028 113.639C81.4017 90.7069 88.6012 67.5086 88.6012 44.0437C88.6012 31.2446 84.8681 20.712 77.402 12.446C69.9359 4.1799 61.1365 0.0469072 51.004 0.0469072ZM167.795 0.0469072C162.703 -0.0303012 157.65 0.962185 152.965 2.96021C148.28 4.95823 144.067 7.91727 140.597 11.646C133.131 19.3788 129.398 28.3115 129.398 38.444C129.332 47.8684 132.751 56.9848 138.997 64.0422C145.24 71.4276 154.16 76.0314 163.796 76.8412C162.729 90.1736 158.329 101.773 150.597 111.639C142.864 121.505 132.065 130.971 118.199 140.037L132.598 163.235C152.33 153.102 169.395 136.57 183.794 113.639C198.193 90.7069 205.393 67.5086 205.393 44.0437C205.393 31.2446 201.66 20.712 194.193 12.446C186.727 4.1799 177.928 0.0469072 167.795 0.0469072Z" fill="currentcolor"></path></svg>