<svg xmlns="http://www.w3.org/2000/svg" width="52" height="52" viewBox="0 0 52 52" fill="none">
  <path d="M27.6125 51.9778H16.499C16.1746 51.9778 15.9103 51.7135 15.9103 51.3892V36.0733H0.591706C0.267312 36.0733 0.00299072 35.809 0.00299072 35.4847V24.3732C0.00299072 24.0488 0.267312 23.7846 0.591706 23.7846H15.8983V8.4807C15.8983 8.15637 16.1626 7.89209 16.487 7.89209H27.6005C27.9249 7.89209 28.1892 8.15637 28.1892 8.4807V23.7846H43.4958C43.8202 23.7846 44.0846 24.0488 44.0846 24.3732V35.4847C44.0846 35.809 43.8202 36.0733 43.4958 36.0733H28.2013V51.3771C28.2013 51.7135 27.9369 51.9778 27.6125 51.9778ZM17.0878 50.7885H27.0118V35.4847C27.0118 35.1603 27.2761 34.8961 27.6005 34.8961H42.9071V24.9738H27.6125C27.2881 24.9738 27.0238 24.7095 27.0238 24.3852V9.06931H17.0998V24.3732C17.0998 24.6975 16.8354 24.9618 16.5111 24.9618H1.19244V34.8841H16.499C16.8234 34.8841 17.0878 35.1483 17.0878 35.4727V50.7885Z" fill="currentcolor"/>
  <path d="M51.4015 28.1812C51.0771 28.1812 50.8128 27.9169 50.8128 27.5926V17.0817H35.5062C35.1818 17.0817 34.9175 16.8174 34.9175 16.4931V1.17722H24.3927C24.0683 1.17722 23.804 0.912948 23.804 0.588612C23.804 0.264276 24.0683 0 24.3927 0H35.5062C35.8306 0 36.0949 0.264276 36.0949 0.588612V15.8925H51.4015C51.7259 15.8925 51.9902 16.1567 51.9902 16.4811V27.5926C51.9902 27.9169 51.7259 28.1812 51.4015 28.1812Z" fill="currentcolor"/>
  <path d="M0.59172 24.9739C0.43553 24.9739 0.291354 24.9139 0.171208 24.8058C-0.0570694 24.5775 -0.0570694 24.2051 0.171208 23.9649L8.0648 16.0727C8.17293 15.9646 8.32912 15.9045 8.48531 15.9045H16.487C16.8114 15.9045 17.0758 16.1688 17.0758 16.4931C17.0758 16.8175 16.8114 17.0818 16.487 17.0818H8.7256L1.00022 24.8058C0.904099 24.9139 0.747909 24.9739 0.59172 24.9739Z" fill="currentcolor"/>
  <path d="M27.6126 9.0694H16.4991C16.2588 9.0694 16.0425 8.92525 15.9464 8.70902C15.8503 8.4928 15.9103 8.22853 16.0785 8.06035L23.9721 0.168174C24.0803 0.0600615 24.2365 0 24.3926 0H35.5062C35.7464 0 35.9627 0.144148 36.0588 0.360372C36.1549 0.576597 36.0949 0.840871 35.9267 1.00905L28.0331 8.90122C27.9129 9.00934 27.7688 9.0694 27.6126 9.0694ZM17.9288 7.89218H27.3603L34.0644 1.18923H24.6329L17.9288 7.89218Z" fill="currentcolor"/>
  <path d="M43.5079 24.9739H27.6126C27.3723 24.9739 27.156 24.8298 27.0599 24.6136C26.9638 24.3973 27.0239 24.1331 27.1921 23.9649L35.0857 16.0727C35.1938 15.9646 35.35 15.9045 35.5062 15.9045H51.4015C51.6418 15.9045 51.858 16.0487 51.9542 16.2649C52.0503 16.4811 51.9902 16.7454 51.822 16.9136L43.9284 24.8058C43.8203 24.9019 43.6641 24.9739 43.5079 24.9739ZM29.0423 23.7847H43.2676L49.9718 17.0818H35.7465L29.0423 23.7847Z" fill="currentcolor"/>
  <path d="M43.5079 36.0733C43.4358 36.0733 43.3517 36.0613 43.2796 36.0253C43.0634 35.9292 42.9192 35.713 42.9192 35.4727V24.3732C42.9192 24.2171 42.9793 24.0609 43.0874 23.9528L50.981 16.0606C51.1492 15.8924 51.4015 15.8444 51.6298 15.9285C51.846 16.0246 51.9902 16.2408 51.9902 16.481V27.5926C51.9902 27.7487 51.9301 27.9049 51.822 28.013L43.9284 35.9052C43.8203 36.0133 43.6641 36.0733 43.5079 36.0733ZM44.0966 24.6255V34.0553L50.8008 27.3523V17.9225L44.0966 24.6255Z" fill="currentcolor"/>
  <path d="M27.6125 51.9777C27.4563 51.9777 27.3122 51.9176 27.192 51.8095C26.9637 51.5813 26.9637 51.2089 27.192 50.9686L34.9174 43.2447V35.4846C34.9174 35.1603 35.1817 34.896 35.5061 34.896C35.8305 34.896 36.0948 35.1603 36.0948 35.4846V43.4849C36.0948 43.6411 36.0348 43.7972 35.9266 43.9053L28.033 51.7975C27.9129 51.9176 27.7567 51.9777 27.6125 51.9777Z" fill="currentcolor"/>
</svg>