<svg width="54" height="54" viewBox="0 0 54 54" fill="none" xmlns="http://www.w3.org/2000/svg">
<path d="M53 27.0028C53 21.8373 51.491 16.8583 48.637 12.5857C50.6489 9.47734 51.881 5.8999 52.1805 2.16422C52.1918 2.02858 52.141 1.8986 52.0449 1.80252C51.9488 1.70644 51.8188 1.65558 51.6832 1.66688C47.9362 1.96642 44.3475 3.20976 41.2278 5.23867C37.0004 2.46941 32.0836 1 27.0028 1C21.9221 1 17.0052 2.46375 12.7722 5.23867C9.65819 3.20976 6.0638 1.96642 2.31681 1.66688C2.18118 1.65558 2.04554 1.70644 1.95511 1.80252C1.85904 1.8986 1.81382 2.02858 1.81948 2.16422C2.11901 5.8999 3.35105 9.47734 5.363 12.5857C2.50897 16.8583 1 21.8373 1 27.0028C1 32.1062 2.47506 37.0287 5.26693 41.2674C3.31149 44.3362 2.11336 47.8627 1.81948 51.5362C1.80817 51.6719 1.85904 51.8019 1.95511 51.8979C2.03989 51.9827 2.15857 52.0336 2.27725 52.0336C2.28856 52.0336 2.29986 52.0336 2.31116 52.0336C5.96772 51.7397 9.48299 50.5529 12.5405 48.6144C16.8244 51.4854 21.8147 53.0057 26.9972 53.0057C32.1797 53.0057 37.17 51.4854 41.4539 48.6144C44.517 50.5529 48.0266 51.7397 51.6888 52.0336C51.7001 52.0336 51.7114 52.0336 51.7227 52.0336C51.8414 52.0336 51.9601 51.9884 52.0449 51.8979C52.141 51.8019 52.1862 51.6719 52.1805 51.5362C51.8866 47.8627 50.6885 44.3362 48.7331 41.2674C51.5249 37.0287 53 32.1005 53 27.0028ZM52.0844 27.0028C52.0844 31.7953 50.7337 36.424 48.1849 40.4366C47.4445 39.3797 46.6081 38.3794 45.6812 37.4526C44.7261 36.4974 43.6862 35.6328 42.5842 34.8698C43.8106 32.4453 44.4605 29.7325 44.4605 26.9972C44.4605 24.1714 43.7654 21.3852 42.4655 18.9041C43.6128 18.1242 44.6866 17.2369 45.6812 16.2423C46.5629 15.3606 47.3597 14.4055 48.0775 13.3995C50.6998 17.4573 52.0844 22.1425 52.0844 27.0028ZM27.048 32.6431C23.9171 32.6431 21.3682 30.0942 21.3682 26.9633C21.3682 23.8323 23.9171 21.2834 27.048 21.2834C30.179 21.2834 32.7279 23.8323 32.7279 26.9633C32.7279 30.0942 30.179 32.6431 27.048 32.6431ZM31.1737 32.1062C31.5523 35.5423 32.7109 38.8315 34.5533 41.7195C32.2305 42.912 29.6365 43.5449 27.0085 43.5449C24.3805 43.5449 21.7808 42.912 19.4636 41.7195C21.3117 38.8146 22.4759 35.5028 22.8489 32.044C23.9905 32.9935 25.4599 33.5643 27.0593 33.5643C28.6079 33.5586 30.0377 33.0161 31.1737 32.1062ZM21.8486 31.0098C18.4011 31.3715 15.095 32.5244 12.1957 34.3612C11.0654 32.0892 10.4664 29.5573 10.4664 27.0028C10.4664 24.3579 11.1106 21.7469 12.3144 19.4128C15.2363 21.2326 18.5537 22.3685 22.0125 22.7076C21.0404 23.8549 20.4527 25.3413 20.4527 26.9633C20.447 28.4892 20.9726 29.8908 21.8486 31.0098ZM19.5936 12.2127C21.8769 11.0654 24.4257 10.4551 26.9972 10.4551C29.5686 10.4551 32.1175 11.0654 34.4007 12.2127C32.6092 15.1006 31.4902 18.3785 31.1454 21.8034C30.0151 20.9048 28.5909 20.3622 27.0424 20.3622C25.4543 20.3622 23.9962 20.9274 22.8546 21.8656C22.5211 18.4238 21.3965 15.1232 19.5936 12.2127ZM33.6434 26.9633C33.6434 25.3413 33.05 23.8493 32.0723 22.702C35.5028 22.3516 38.7976 21.2213 41.6912 19.4128C42.895 21.7469 43.5393 24.3579 43.5393 27.0028C43.5393 29.5573 42.9402 32.0949 41.8099 34.3612C38.9333 32.5414 35.6554 31.3884 32.2362 31.0154C33.1178 29.8964 33.6434 28.4892 33.6434 26.9633ZM51.2141 2.6333C50.6998 7.52755 48.5127 12.111 45.0313 15.5923C41.5443 19.0793 36.9609 21.2608 32.0723 21.7751C32.5866 16.8809 34.7737 12.2975 38.2551 8.81611C41.7364 5.33475 46.3255 3.15324 51.2141 2.6333ZM27.0028 1.9212C31.7784 1.9212 36.4014 3.26628 40.4083 5.80383C39.4193 6.51592 38.4755 7.30149 37.6051 8.17183C36.5992 9.17781 35.7006 10.2742 34.9094 11.4384C32.4735 10.2007 29.7495 9.53951 27.0028 9.53951C24.2505 9.53951 21.5265 10.2007 19.0906 11.4384C18.2994 10.2742 17.4008 9.17781 16.3948 8.17183C15.5245 7.30149 14.5863 6.51027 13.5917 5.80383C17.6043 3.26062 22.2273 1.9212 27.0028 1.9212ZM2.78589 2.6333C7.68014 3.14759 12.2636 5.33475 15.7449 8.81611C19.2319 12.3031 21.4134 16.8865 21.9334 21.7808C17.0391 21.2665 12.4557 19.0793 8.97435 15.598C5.48734 12.111 3.30018 7.52755 2.78589 2.6333ZM1.9212 27.0028C1.9212 22.1425 3.30584 17.4573 5.92816 13.4052C6.64591 14.4112 7.44278 15.3606 8.32442 16.2479C9.31344 17.2369 10.3929 18.1242 11.5402 18.9098C10.2403 21.3965 9.54516 24.1827 9.54516 27.0028C9.54516 29.7382 10.2007 32.4509 11.4271 34.8755C10.3251 35.6384 9.28519 36.4974 8.33007 37.4582C7.40887 38.3794 6.57244 39.3797 5.82643 40.4422C3.26628 36.424 1.9212 31.7953 1.9212 27.0028ZM6.14857 41.5895C6.18248 41.5499 6.21074 41.5104 6.23334 41.4652C7.02456 40.2614 7.94011 39.1367 8.9687 38.1025C12.4557 34.6155 17.0391 32.434 21.9277 31.9197C21.4134 36.8139 19.2263 41.3974 15.7449 44.8844C12.2579 48.3714 7.67449 50.5529 2.78589 51.0672C3.14194 47.6706 4.30616 44.4266 6.14857 41.5895ZM27.0028 52.0844C22.1368 52.0844 17.4347 50.6942 13.3769 48.0605C14.4507 47.3089 15.4623 46.4668 16.3948 45.5343C17.3387 44.5905 18.1864 43.5732 18.9437 42.4881C21.4191 43.7767 24.194 44.4661 27.0028 44.4661C29.8116 44.4661 32.5866 43.7767 35.0619 42.4881C35.8136 43.5676 36.667 44.5905 37.6108 45.5343C38.549 46.4725 39.5606 47.3145 40.6287 48.0662C36.5653 50.6942 31.8745 52.0844 27.0028 52.0844ZM51.2141 51.0672C46.3199 50.5529 41.7364 48.3657 38.2551 44.8844C34.7681 41.3974 32.5866 36.8139 32.0723 31.9197C36.9665 32.434 41.5499 34.6211 45.0313 38.1025C48.5183 41.5895 50.6998 46.1729 51.2141 51.0672Z" fill="currentcolor" stroke="currentcolor" stroke-width="0.5"/>
</svg>
