<svg xmlns="http://www.w3.org/currentcolor/svg" width="49" height="58" viewBox="0 0 49 58" fill="none">
  <path d="M36.0969 27.5436H12.4583C12.2794 27.5436 12.1005 27.467 11.9855 27.3264L0.166211 14.2062C-0.051009 13.9634 -0.051009 13.593 0.166211 13.3374L11.9855 0.217178C12.1133 0.0766496 12.2794 0 12.4583 0H36.0969C36.2758 0 36.4546 0.0766496 36.5696 0.217178L48.3889 13.3374C48.6062 13.5802 48.6062 13.9507 48.3889 14.2062L36.5696 27.3264C36.4419 27.467 36.2758 27.5436 36.0969 27.5436ZM12.7394 26.2533H35.803L47.0345 13.7718L35.803 1.29031H12.7394L1.50786 13.7718L12.7394 26.2533Z" fill="currentcolor"/>
  <path d="M36.0968 58H12.4582C12.2793 58 12.1004 57.9234 11.9854 57.7828L0.166138 44.6626L1.12446 43.8066L12.7521 56.7097H35.8157L47.4433 43.8066L48.4016 44.6626L36.5823 57.7828C36.4418 57.9234 36.2757 58 36.0968 58Z" fill="currentcolor"/>
  <path d="M48.5549 13.7717H47.2644V44.2281H48.5549V13.7717Z" fill="currentcolor"/>
  <path d="M1.29054 13.7717H0V44.2281H1.29054V13.7717Z" fill="currentcolor"/>
  <path d="M13.1099 26.8921H11.8193V57.3485H13.1099V26.8921Z" fill="currentcolor"/>
  <path d="M36.7356 26.8921H35.4451V57.3485H36.7356V26.8921Z" fill="currentcolor"/>
  <path d="M24.2775 21.7564C17.8759 21.7564 12.6754 18.4859 12.6754 14.4617C12.6754 10.3736 17.7737 7.16699 24.2775 7.16699C30.6791 7.16699 35.8796 10.4375 35.8796 14.4617C35.8796 18.4859 30.6791 21.7564 24.2775 21.7564ZM24.2775 8.47007C18.5915 8.47007 13.9532 11.1657 13.9532 14.4745C13.9532 17.7833 18.5787 20.4789 24.2775 20.4789C29.9635 20.4789 34.6018 17.7833 34.6018 14.4745C34.589 11.1657 29.9635 8.47007 24.2775 8.47007Z" fill="currentcolor"/>
  <path d="M34.1162 16.1863C32.749 13.7079 28.7112 11.9705 24.2774 11.9705C19.8436 11.9705 15.7931 13.7079 14.4386 16.1863L13.3142 15.5604C14.9114 12.6348 19.3197 10.6802 24.2902 10.6802C29.2479 10.6802 33.6562 12.6476 35.2534 15.5604L34.1162 16.1863Z" fill="currentcolor"/>
</svg>