<svg xmlns="http://www.w3.org/2000/svg" width="52" height="61" viewBox="0 0 52 61" fill="none">
  <path d="M0.0137939 15.0141V45.0181L25.9999 60.0161L51.9861 45.0181V15.0141L25.9999 0.0161133L0.0137939 15.0141ZM50.3775 44.0933L25.9999 58.1665L1.62235 44.0933V15.947L25.9999 1.87377L36.9703 8.21073C31.7425 7.60759 23.0885 7.67997 16.3084 13.0278C9.52838 18.3675 6.3354 27.6719 6.80188 40.6675L6.81797 41.1098L25.9999 52.1834L45.198 41.1018V18.0057L37.3242 22.5493V36.5501L26.8042 42.6217V14.9256L25.7667 15.2393C25.63 15.2795 22.4772 16.2606 19.3245 19.4532C16.4451 22.3804 13.0109 27.8006 13.0672 37.0165V37.4749L25.9999 44.9377L38.9327 37.4749V23.4741L43.5895 20.7881V40.1689L25.9999 50.3257L8.39435 40.1609C8.03242 27.9373 11.0243 19.2361 17.2977 14.2903C26.4825 7.04466 39.8817 10.2614 41.0721 10.567L50.3775 15.9389V44.0933ZM25.1957 17.1934V42.6217L14.6757 36.5501C14.7803 23.2007 22.3646 18.4882 25.1957 17.1934Z" fill="currentcolor"/>
</svg>