<svg xmlns="http://www.w3.org/2000/svg" width="54" height="62" viewBox="0 0 54 62" fill="none">
  <path d="M53 26.3856V16.3839C53 16.3391 52.9938 16.2959 52.9815 16.2542C52.9768 16.2403 52.9691 16.2264 52.9645 16.2125C52.9552 16.1863 52.946 16.1585 52.9321 16.1338C52.9228 16.1199 52.912 16.1091 52.9027 16.0952C52.8873 16.0736 52.8734 16.052 52.8549 16.0335C52.8364 16.0149 52.8132 16.001 52.7916 15.9856C52.7777 15.9763 52.7669 15.964 52.7515 15.9547L52.7499 15.9532H52.7484H52.7468L27.2509 1.06715C27.0965 0.977616 26.9035 0.977616 26.7491 1.06715L1.25163 15.9516H1.25008C1.25008 15.9516 1.25008 15.9516 1.24854 15.9516L1.24699 15.9547C1.23156 15.964 1.21921 15.9763 1.20531 15.9871C1.18525 16.0026 1.16209 16.0165 1.14511 16.0335C1.12658 16.0535 1.11115 16.0767 1.09571 16.0983C1.08645 16.1106 1.0741 16.1214 1.06638 16.1353C1.05094 16.1631 1.04168 16.1909 1.03087 16.2202C1.02624 16.2326 1.02007 16.2434 1.01698 16.2542C1.00463 16.2974 1 16.3391 1 16.3839V46C1 46.1776 1.09417 46.3412 1.24699 46.4307L26.7491 61.3183C26.7491 61.3183 26.7491 61.3183 26.7507 61.3183C26.7522 61.3183 26.7522 61.3198 26.7522 61.3198C26.7877 61.3399 26.8248 61.3538 26.8618 61.3646C26.8649 61.3662 26.8696 61.3677 26.8726 61.3692C26.9143 61.3801 26.9575 61.3862 27.0008 61.3862C27.044 61.3862 27.0872 61.3801 27.1289 61.3692C27.1335 61.3677 27.1351 61.3662 27.1397 61.3646C27.1768 61.3538 27.2138 61.3399 27.2493 61.3198C27.2509 61.3198 27.2509 61.3198 27.2509 61.3183H27.2524L52.7546 46.4292C52.9074 46.3396 53.0015 46.1776 53.0015 46V36.0493C53.0015 36.0415 52.9985 36.0338 52.9985 36.0246C52.9985 36.0168 53.0015 36.0076 53.0015 35.9999C53.0015 35.8239 52.9074 35.6587 52.7546 35.5707L45.2984 31.2174L52.7546 26.8642C52.9058 26.7746 53 26.5616 53 26.3856ZM52.0043 17.2514V26.1479L27.4963 40.455V31.5586L52.0043 17.2514ZM17.0052 36.0153L10.2808 39.941V32.0896L17.0052 36.0153ZM35.5668 25.6956L26.9992 30.6972L18.4332 25.6956L2.48351 16.3839L27.0008 2.07211L51.5165 16.3839L35.5668 25.6956ZM1.99415 17.2514L26.5022 31.5586V40.4072L10.0338 30.7929C9.88099 30.7034 9.68956 30.7034 9.53519 30.7914C9.38082 30.8809 9.28511 31.0445 9.28511 31.2221V40.807V40.8363C9.28511 41.0138 9.37774 41.1775 9.53211 41.267L26.5022 51.173V60.0216L1.99415 45.716V17.2514ZM52.0043 45.716L27.4963 60.0216V51.2224L52.0043 36.9153V45.716ZM27.0409 50.3348L11.9604 41.5325L10.7439 40.8224L17.9917 36.5911L26.5963 41.6143C26.601 41.6205 26.6087 41.6221 26.6118 41.6282C26.6503 41.6761 26.6951 41.7209 26.7507 41.7533C26.8094 41.7872 26.8742 41.8042 26.939 41.8119C26.9591 41.8135 26.9792 41.8196 26.9992 41.8196C26.9992 41.8196 26.9992 41.8196 27.0008 41.8196C27.0224 41.8196 27.044 41.8135 27.0656 41.8119C27.0872 41.8088 27.1088 41.8088 27.1289 41.8027C27.1706 41.7919 27.2123 41.7749 27.2509 41.7517L44.3089 31.7932L51.5566 36.0246L27.0409 50.3348Z" fill="currentcolor" stroke="currentcolor" stroke-width="0.5"/>
</svg>