    <svg xmlns="http://www.w3.org/2000/svg" width="54" height="54" viewBox="0 0 54 54" fill="none">
        <path fill-rule="evenodd" clip-rule="evenodd" d="M52.7663 22.6693C52.7551 22.5825 52.7054 22.5057 52.6321 22.4574C49.5136 20.4072 45.7923 18.6779 41.2556 17.1691C32.6037 14.2938 26.3928 8.91257 22.7983 1.17514C22.7399 1.04878 22.6032 0.979408 22.4652 1.00542C21.0097 1.28539 19.5742 1.69419 18.1945 2.21943C18.0441 2.27641 17.9658 2.43993 18.0143 2.5923C20.7848 11.3939 26.8055 17.3896 35.9074 20.4134C42.8988 22.7361 48.2632 25.6671 52.3077 29.3723C52.3649 29.4243 52.4382 29.4528 52.5128 29.4528C52.5476 29.4528 52.5836 29.4466 52.6172 29.4342C52.7241 29.3946 52.7999 29.2992 52.8135 29.1865C52.9378 28.1608 53 27.1227 53 26.0982C53.0012 24.9722 52.9217 23.8188 52.7663 22.6693ZM22.3484 1.64463C26.0311 9.42419 32.3278 14.8389 41.0642 17.7426C45.4952 19.2143 49.1345 20.8978 52.1834 22.886C52.3226 23.9638 52.3934 25.044 52.3934 26.097C52.3934 26.9034 52.3537 27.7185 52.2754 28.5287C48.221 24.9523 42.9224 22.1068 36.0988 19.8399C27.2865 16.9126 21.4274 11.1411 18.6793 2.68397C19.87 2.24544 21.1017 1.89735 22.3484 1.64463ZM50.5505 17.646C48.0009 16.3533 45.1099 15.1774 41.9569 14.1515C34.6468 11.7726 29.2906 7.49703 26.0355 1.44404C25.9852 1.35179 25.9889 1.24109 26.0431 1.15129C26.0973 1.0615 26.1955 1.00615 26.3013 1.00369C26.4475 1.00123 26.5835 1 26.717 1C32.0141 1 37.1133 2.54492 41.4631 5.46871C45.8002 8.38389 49.0905 12.4651 50.9801 17.2721C51.0254 17.3877 50.9914 17.5206 50.897 17.603C50.8403 17.6534 50.7672 17.6792 50.6929 17.6792C50.6438 17.6792 50.5959 17.6682 50.5505 17.646ZM50.1021 16.7493C48.2188 12.3753 45.1238 8.65818 41.1141 5.96318C36.8954 3.12796 31.9549 1.61994 26.8191 1.60026C30.0187 7.28055 35.1747 11.3114 42.1521 13.582C45.0381 14.5218 47.7074 15.5857 50.1021 16.7493ZM2.88919 18.8522C6.26572 27.2815 12.6839 33.0744 21.9681 36.0705C30.8707 38.9443 36.8984 42.6586 40.9371 47.7578C40.9889 47.8238 41.0104 47.9095 40.9952 47.9927C40.9801 48.0759 40.9283 48.148 40.855 48.1933C38.8078 49.4302 36.5964 50.3832 34.2839 51.0255C34.2561 51.0341 34.227 51.0377 34.1992 51.0377C34.1158 51.0377 34.0337 51.0047 33.9743 50.9435C29.8598 46.6971 23.9799 43.3804 16.0011 40.8051C10.0984 38.9003 5.38242 35.7818 1.98566 31.5341C1.78474 31.2821 1.58255 31.0166 1.34877 30.6973C1.32097 30.6606 1.30202 30.6165 1.2957 30.57C1.09983 29.316 1 28.0351 1 26.7665C1 24.0713 1.43976 21.4128 2.30916 18.8657C2.34834 18.747 2.46333 18.665 2.59349 18.6613C2.72491 18.6503 2.84117 18.7347 2.88919 18.8522ZM16.1957 40.2399C24.1922 42.8201 30.1138 46.1465 34.294 50.404C36.3778 49.8082 38.3744 48.9543 40.2383 47.863C36.2779 42.9938 30.3993 39.4214 21.771 36.6369C12.5955 33.6763 6.1621 28.0302 2.63772 19.8493C1.95913 22.0918 1.61541 24.4151 1.61541 26.7665C1.61541 27.9813 1.70892 29.2072 1.89342 30.411C2.10445 30.6973 2.28895 30.9395 2.47344 31.1695C5.79437 35.3218 10.4106 38.373 16.1957 40.2399ZM28.1331 29.2276C15.4956 25.0413 10.3845 15.9523 8.32145 9.06507C8.29043 8.96028 8.20483 8.88139 8.09815 8.85673C7.99146 8.83208 7.87981 8.86783 7.80661 8.94919C6.31299 10.6011 5.0439 12.4378 4.03284 14.4102C3.99811 14.478 3.99066 14.5569 4.01175 14.6296C6.71741 23.9848 12.9202 30.3285 22.4489 33.4842C30.9541 36.301 37.1061 40.0633 41.2557 44.9869C41.5237 45.3037 41.7916 45.639 42.0757 46.0125C42.1241 46.0766 42.1973 46.1185 42.2779 46.1296L42.2812 46.1299L42.2881 46.1305L42.2998 46.1314C42.3057 46.1318 42.3115 46.1321 42.3176 46.1321C42.3846 46.1321 42.4491 46.1099 42.5025 46.0692C44.1437 44.8069 45.6349 43.3387 46.935 41.7053C47.0193 41.5993 47.0218 41.4502 46.9412 41.3404C43.0074 36.0237 37.0304 32.1751 28.1331 29.2276ZM42.371 45.4072C42.1489 45.12 41.9331 44.855 41.7197 44.601C37.4956 39.59 31.2544 35.7673 22.6399 32.9147C13.3507 29.8378 7.2893 23.6692 4.62583 14.5791C5.52151 12.852 6.62188 11.2322 7.9009 9.7554C10.1029 16.7117 15.369 25.6354 27.9408 29.7996C36.6098 32.6706 42.4566 36.3972 46.3147 41.513C45.1449 42.9553 43.82 44.2645 42.371 45.4072ZM2.53465 35.4315C5.8991 38.8081 10.1848 41.3556 15.271 43.0013C22.5254 45.3487 27.9666 48.3052 31.9062 52.0437C31.9889 52.1216 32.0207 52.2389 31.9863 52.3464C31.9533 52.4539 31.8604 52.5342 31.7471 52.5552C30.1349 52.8505 28.4959 53 26.876 53C15.6209 53 5.63061 46.0628 2.01675 35.7379C1.96967 35.6045 2.02438 35.4575 2.14909 35.3833C2.27379 35.3104 2.43285 35.3302 2.53465 35.4315ZM3.08436 36.8029C6.95908 46.1839 16.35 52.3959 26.876 52.3959C28.2567 52.3959 29.6513 52.2847 31.0307 52.0647C27.1954 48.5856 21.9681 45.8033 15.0737 43.5721C10.3808 42.0537 6.35465 39.7792 3.08436 36.8029ZM14.6273 4.14768C16.8693 10.6596 22.1709 19.2702 34.6892 23.3127C42.3786 25.7969 48.0148 29.0032 51.9184 33.1157C51.9919 33.1943 52.0185 33.3048 51.9868 33.4055C51.3658 35.4058 50.4888 37.3264 49.3785 39.118C49.3265 39.2028 49.234 39.2568 49.1326 39.2629C49.1263 39.2641 49.12 39.2641 49.1136 39.2641C49.0186 39.2641 48.9286 39.2212 48.8703 39.1487C48.7068 38.9461 48.5509 38.7595 48.3963 38.5814C44.1225 33.6388 37.7969 29.864 29.0581 27.0409C18.9188 23.7671 12.5094 17.0279 10.0088 7.015C9.98095 6.90449 10.0202 6.78906 10.1102 6.71538C11.3802 5.68019 12.749 4.76044 14.1812 3.9819C14.2623 3.93769 14.3599 3.93155 14.4448 3.96348C14.531 3.99541 14.5981 4.06295 14.6273 4.14768ZM29.2545 26.4723C38.1049 29.331 44.5218 33.166 48.8715 38.197C48.94 38.2756 49.0072 38.3542 49.0756 38.4365C50.0236 36.8438 50.7853 35.1517 51.3443 33.3969C47.5167 29.4195 42.0022 26.3065 34.494 23.8813C21.9542 19.8314 16.517 11.2798 14.1621 4.68307C12.9353 5.3732 11.7579 6.16893 10.6565 7.0543C13.1368 16.7541 19.3915 23.2869 29.2545 26.4723Z"/>
        <path fill-rule="evenodd" clip-rule="evenodd" d="M52.7663 22.6693C52.7551 22.5825 52.7054 22.5057 52.6321 22.4574C49.5136 20.4072 45.7923 18.6779 41.2556 17.1691C32.6037 14.2938 26.3928 8.91257 22.7983 1.17514C22.7399 1.04878 22.6032 0.979408 22.4652 1.00542C21.0097 1.28539 19.5742 1.69419 18.1945 2.21943C18.0441 2.27641 17.9658 2.43993 18.0143 2.5923C20.7848 11.3939 26.8055 17.3896 35.9074 20.4134C42.8988 22.7361 48.2632 25.6671 52.3077 29.3723C52.3649 29.4243 52.4382 29.4528 52.5128 29.4528C52.5476 29.4528 52.5836 29.4466 52.6172 29.4342C52.7241 29.3946 52.7999 29.2992 52.8135 29.1865C52.9378 28.1608 53 27.1227 53 26.0982C53.0012 24.9722 52.9217 23.8188 52.7663 22.6693ZM22.3484 1.64463C26.0311 9.42419 32.3278 14.8389 41.0642 17.7426C45.4952 19.2143 49.1345 20.8978 52.1834 22.886C52.3226 23.9638 52.3934 25.044 52.3934 26.097C52.3934 26.9034 52.3537 27.7185 52.2754 28.5287C48.221 24.9523 42.9224 22.1068 36.0988 19.8399C27.2865 16.9126 21.4274 11.1411 18.6793 2.68397C19.87 2.24544 21.1017 1.89735 22.3484 1.64463ZM50.5505 17.646C48.0009 16.3533 45.1099 15.1774 41.9569 14.1515C34.6468 11.7726 29.2906 7.49703 26.0355 1.44404C25.9852 1.35179 25.9889 1.24109 26.0431 1.15129C26.0973 1.0615 26.1955 1.00615 26.3013 1.00369C26.4475 1.00123 26.5835 1 26.717 1C32.0141 1 37.1133 2.54492 41.4631 5.46871C45.8002 8.38389 49.0905 12.4651 50.9801 17.2721C51.0254 17.3877 50.9914 17.5206 50.897 17.603C50.8403 17.6534 50.7672 17.6792 50.6929 17.6792C50.6438 17.6792 50.5959 17.6682 50.5505 17.646ZM50.1021 16.7493C48.2188 12.3753 45.1238 8.65818 41.1141 5.96318C36.8954 3.12796 31.9549 1.61994 26.8191 1.60026C30.0187 7.28055 35.1747 11.3114 42.1521 13.582C45.0381 14.5218 47.7074 15.5857 50.1021 16.7493ZM2.88919 18.8522C6.26572 27.2815 12.6839 33.0744 21.9681 36.0705C30.8707 38.9443 36.8984 42.6586 40.9371 47.7578C40.9889 47.8238 41.0104 47.9095 40.9952 47.9927C40.9801 48.0759 40.9283 48.148 40.855 48.1933C38.8078 49.4302 36.5964 50.3832 34.2839 51.0255C34.2561 51.0341 34.227 51.0377 34.1992 51.0377C34.1158 51.0377 34.0337 51.0047 33.9743 50.9435C29.8598 46.6971 23.9799 43.3804 16.0011 40.8051C10.0984 38.9003 5.38242 35.7818 1.98566 31.5341C1.78474 31.2821 1.58255 31.0166 1.34877 30.6973C1.32097 30.6606 1.30202 30.6165 1.2957 30.57C1.09983 29.316 1 28.0351 1 26.7665C1 24.0713 1.43976 21.4128 2.30916 18.8657C2.34834 18.747 2.46333 18.665 2.59349 18.6613C2.72491 18.6503 2.84117 18.7347 2.88919 18.8522ZM16.1957 40.2399C24.1922 42.8201 30.1138 46.1465 34.294 50.404C36.3778 49.8082 38.3744 48.9543 40.2383 47.863C36.2779 42.9938 30.3993 39.4214 21.771 36.6369C12.5955 33.6763 6.1621 28.0302 2.63772 19.8493C1.95913 22.0918 1.61541 24.4151 1.61541 26.7665C1.61541 27.9813 1.70892 29.2072 1.89342 30.411C2.10445 30.6973 2.28895 30.9395 2.47344 31.1695C5.79437 35.3218 10.4106 38.373 16.1957 40.2399ZM28.1331 29.2276C15.4956 25.0413 10.3845 15.9523 8.32145 9.06507C8.29043 8.96028 8.20483 8.88139 8.09815 8.85673C7.99146 8.83208 7.87981 8.86783 7.80661 8.94919C6.31299 10.6011 5.0439 12.4378 4.03284 14.4102C3.99811 14.478 3.99066 14.5569 4.01175 14.6296C6.71741 23.9848 12.9202 30.3285 22.4489 33.4842C30.9541 36.301 37.1061 40.0633 41.2557 44.9869C41.5237 45.3037 41.7916 45.639 42.0757 46.0125C42.1241 46.0766 42.1973 46.1185 42.2779 46.1296L42.2812 46.1299L42.2881 46.1305L42.2998 46.1314C42.3057 46.1318 42.3115 46.1321 42.3176 46.1321C42.3846 46.1321 42.4491 46.1099 42.5025 46.0692C44.1437 44.8069 45.6349 43.3387 46.935 41.7053C47.0193 41.5993 47.0218 41.4502 46.9412 41.3404C43.0074 36.0237 37.0304 32.1751 28.1331 29.2276ZM42.371 45.4072C42.1489 45.12 41.9331 44.855 41.7197 44.601C37.4956 39.59 31.2544 35.7673 22.6399 32.9147C13.3507 29.8378 7.2893 23.6692 4.62583 14.5791C5.52151 12.852 6.62188 11.2322 7.9009 9.7554C10.1029 16.7117 15.369 25.6354 27.9408 29.7996C36.6098 32.6706 42.4566 36.3972 46.3147 41.513C45.1449 42.9553 43.82 44.2645 42.371 45.4072ZM2.53465 35.4315C5.8991 38.8081 10.1848 41.3556 15.271 43.0013C22.5254 45.3487 27.9666 48.3052 31.9062 52.0437C31.9889 52.1216 32.0207 52.2389 31.9863 52.3464C31.9533 52.4539 31.8604 52.5342 31.7471 52.5552C30.1349 52.8505 28.4959 53 26.876 53C15.6209 53 5.63061 46.0628 2.01675 35.7379C1.96967 35.6045 2.02438 35.4575 2.14909 35.3833C2.27379 35.3104 2.43285 35.3302 2.53465 35.4315ZM3.08436 36.8029C6.95908 46.1839 16.35 52.3959 26.876 52.3959C28.2567 52.3959 29.6513 52.2847 31.0307 52.0647C27.1954 48.5856 21.9681 45.8033 15.0737 43.5721C10.3808 42.0537 6.35465 39.7792 3.08436 36.8029ZM14.6273 4.14768C16.8693 10.6596 22.1709 19.2702 34.6892 23.3127C42.3786 25.7969 48.0148 29.0032 51.9184 33.1157C51.9919 33.1943 52.0185 33.3048 51.9868 33.4055C51.3658 35.4058 50.4888 37.3264 49.3785 39.118C49.3265 39.2028 49.234 39.2568 49.1326 39.2629C49.1263 39.2641 49.12 39.2641 49.1136 39.2641C49.0186 39.2641 48.9286 39.2212 48.8703 39.1487C48.7068 38.9461 48.5509 38.7595 48.3963 38.5814C44.1225 33.6388 37.7969 29.864 29.0581 27.0409C18.9188 23.7671 12.5094 17.0279 10.0088 7.015C9.98095 6.90449 10.0202 6.78906 10.1102 6.71538C11.3802 5.68019 12.749 4.76044 14.1812 3.9819C14.2623 3.93769 14.3599 3.93155 14.4448 3.96348C14.531 3.99541 14.5981 4.06295 14.6273 4.14768ZM29.2545 26.4723C38.1049 29.331 44.5218 33.166 48.8715 38.197C48.94 38.2756 49.0072 38.3542 49.0756 38.4365C50.0236 36.8438 50.7853 35.1517 51.3443 33.3969C47.5167 29.4195 42.0022 26.3065 34.494 23.8813C21.9542 19.8314 16.517 11.2798 14.1621 4.68307C12.9353 5.3732 11.7579 6.16893 10.6565 7.0543C13.1368 16.7541 19.3915 23.2869 29.2545 26.4723Z" fill="currentcolor"/>
        <path d="M52.6321 22.4574L52.7971 22.2069L52.7969 22.2067L52.6321 22.4574ZM52.7663 22.6693L52.4688 22.7076L52.469 22.7094L52.7663 22.6693ZM41.2556 17.1691L41.3503 16.8844L41.3503 16.8844L41.2556 17.1691ZM22.7983 1.17514L22.526 1.30103L22.5262 1.30153L22.7983 1.17514ZM22.4652 1.00542L22.4096 0.710616L22.4085 0.710823L22.4652 1.00542ZM18.1945 2.21943L18.3008 2.49997L18.3013 2.4998L18.1945 2.21943ZM18.0143 2.5923L18.3005 2.50223L18.3002 2.50136L18.0143 2.5923ZM35.9074 20.4134L36.002 20.1287L35.9074 20.4134ZM52.3077 29.3723L52.105 29.5935L52.1058 29.5942L52.3077 29.3723ZM52.6172 29.4342L52.7211 29.7157L52.7215 29.7155L52.6172 29.4342ZM52.8135 29.1865L53.1114 29.2226L53.1114 29.2226L52.8135 29.1865ZM53 26.0982L52.7 26.0979V26.0982H53ZM41.0642 17.7426L40.9696 18.0273L40.9697 18.0273L41.0642 17.7426ZM22.3484 1.64463L22.6195 1.51627L22.519 1.30394L22.2888 1.35061L22.3484 1.64463ZM52.1834 22.886L52.4809 22.8476L52.4632 22.7104L52.3473 22.6348L52.1834 22.886ZM52.2754 28.5287L52.0769 28.7537L52.5175 29.1423L52.574 28.5576L52.2754 28.5287ZM36.0988 19.8399L36.1934 19.5552L36.1933 19.5552L36.0988 19.8399ZM18.6793 2.68397L18.5756 2.40246L18.3048 2.5022L18.394 2.77668L18.6793 2.68397ZM41.9569 14.1515L41.864 14.4368L41.8641 14.4368L41.9569 14.1515ZM50.5505 17.646L50.4149 17.9136L50.4189 17.9156L50.5505 17.646ZM26.0355 1.44404L26.2998 1.30195L26.2988 1.30024L26.0355 1.44404ZM26.0431 1.15129L25.7862 0.996333V0.996333L26.0431 1.15129ZM26.3013 1.00369L26.2963 0.703726L26.2944 0.703771L26.3013 1.00369ZM41.4631 5.46871L41.2957 5.71769L41.2957 5.71769L41.4631 5.46871ZM50.9801 17.2721L51.2594 17.1626L51.2593 17.1624L50.9801 17.2721ZM50.897 17.603L50.6997 17.3769L50.6976 17.3788L50.897 17.603ZM41.1141 5.96318L41.2815 5.7142L41.2815 5.71419L41.1141 5.96318ZM50.1021 16.7493L49.971 17.0192L50.6967 17.3718L50.3776 16.6307L50.1021 16.7493ZM26.8191 1.60026L26.8202 1.30026L26.3047 1.29828L26.5577 1.74749L26.8191 1.60026ZM42.1521 13.582L42.245 13.2967L42.245 13.2967L42.1521 13.582ZM21.9681 36.0705L22.0603 35.785L22.0603 35.785L21.9681 36.0705ZM2.88919 18.8522L3.16769 18.7406L3.16688 18.7387L2.88919 18.8522ZM40.9371 47.7578L41.1732 47.5726L41.1723 47.5715L40.9371 47.7578ZM40.9952 47.9927L41.2904 48.0465H41.2904L40.9952 47.9927ZM40.855 48.1933L41.0101 48.4501L41.0126 48.4485L40.855 48.1933ZM34.2839 51.0255L34.2036 50.7363L34.1956 50.7388L34.2839 51.0255ZM33.9743 50.9435L33.7588 51.1523L33.759 51.1525L33.9743 50.9435ZM16.0011 40.8051L16.0932 40.5196L16.0932 40.5196L16.0011 40.8051ZM1.98566 31.5341L1.75109 31.7211L1.75137 31.7215L1.98566 31.5341ZM1.34877 30.6973L1.59087 30.52L1.58792 30.5161L1.34877 30.6973ZM1.2957 30.57L1.59303 30.5296L1.59211 30.5237L1.2957 30.57ZM2.30916 18.8657L2.5931 18.9626L2.59404 18.9597L2.30916 18.8657ZM2.59349 18.6613L2.60195 18.9612L2.61026 18.961L2.61854 18.9603L2.59349 18.6613ZM34.294 50.404L34.0799 50.6142L34.2049 50.7415L34.3764 50.6924L34.294 50.404ZM16.1957 40.2399L16.1035 40.5254L16.1035 40.5254L16.1957 40.2399ZM40.2383 47.863L40.3899 48.1219L40.6918 47.9451L40.471 47.6737L40.2383 47.863ZM21.771 36.6369L21.8631 36.3514H21.8631L21.771 36.6369ZM2.63772 19.8493L2.91324 19.7306L2.58839 18.9765L2.35058 19.7624L2.63772 19.8493ZM1.89342 30.411L1.59688 30.4564L1.60808 30.5295L1.65194 30.589L1.89342 30.411ZM2.47344 31.1695L2.70773 30.9821L2.70746 30.9818L2.47344 31.1695ZM8.32145 9.06507L8.03378 9.15021L8.03406 9.15115L8.32145 9.06507ZM28.1331 29.2276L28.2275 28.9428H28.2275L28.1331 29.2276ZM8.09815 8.85673L8.16569 8.56444L8.09815 8.85673ZM7.80661 8.94919L8.02914 9.1504L8.02965 9.14983L7.80661 8.94919ZM4.03284 14.4102L3.76588 14.2733L3.76584 14.2734L4.03284 14.4102ZM4.01175 14.6296L4.29994 14.5463L4.29989 14.5461L4.01175 14.6296ZM22.4489 33.4842L22.3546 33.769L22.3546 33.769L22.4489 33.4842ZM41.2557 44.9869L41.0263 45.1802L41.0267 45.1806L41.2557 44.9869ZM42.0757 46.0125L42.3152 45.8318L42.3145 45.8309L42.0757 46.0125ZM42.2779 46.1296L42.237 46.4271L42.2505 46.4283L42.2779 46.1296ZM42.2812 46.1299L42.2537 46.4286L42.2544 46.4287L42.2812 46.1299ZM42.2881 46.1305L42.2613 46.4293L42.2646 46.4296L42.2881 46.1305ZM42.2998 46.1314L42.2764 46.4305L42.2801 46.4308L42.2998 46.1314ZM42.5025 46.0692L42.6844 46.3078L42.6854 46.307L42.5025 46.0692ZM46.935 41.7053L47.1697 41.8922L47.1697 41.8921L46.935 41.7053ZM46.9412 41.3404L47.1829 41.1628L47.1824 41.162L46.9412 41.3404ZM41.7197 44.601L41.9494 44.408L41.9491 44.4077L41.7197 44.601ZM42.371 45.4072L42.1336 45.5907L42.3189 45.8304L42.5568 45.6428L42.371 45.4072ZM22.6399 32.9147L22.5456 33.1995L22.5456 33.1995L22.6399 32.9147ZM4.62583 14.5791L4.35951 14.441L4.30407 14.5479L4.33793 14.6634L4.62583 14.5791ZM7.9009 9.7554L8.18691 9.66486L8.02511 9.15372L7.67412 9.559L7.9009 9.7554ZM27.9408 29.7996L27.8465 30.0844L27.8465 30.0844L27.9408 29.7996ZM46.3147 41.513L46.5477 41.702L46.6955 41.5198L46.5542 41.3324L46.3147 41.513ZM15.271 43.0013L15.3633 42.7159H15.3633L15.271 43.0013ZM2.53465 35.4315L2.74716 35.2198L2.74627 35.2189L2.53465 35.4315ZM31.9062 52.0437L31.6997 52.2614L31.7006 52.2622L31.9062 52.0437ZM31.9863 52.3464L31.7006 52.2551L31.6996 52.2582L31.9863 52.3464ZM31.7471 52.5552L31.8012 52.8503L31.8018 52.8502L31.7471 52.5552ZM2.01675 35.7379L2.29991 35.6388L2.29965 35.6381L2.01675 35.7379ZM2.14909 35.3833L1.99769 35.1243L1.9958 35.1255L2.14909 35.3833ZM3.08436 36.8029L3.28629 36.581L2.80709 36.9174L3.08436 36.8029ZM31.0307 52.0647L31.0779 52.361L31.6953 52.2626L31.2323 51.8425L31.0307 52.0647ZM15.0737 43.5721L15.1661 43.2867L15.1661 43.2866L15.0737 43.5721ZM34.6892 23.3127L34.7814 23.0273L34.7814 23.0272L34.6892 23.3127ZM14.6273 4.14768L14.3436 4.24527L14.3436 4.24534L14.6273 4.14768ZM51.9184 33.1157L52.1375 32.9107L52.136 32.9091L51.9184 33.1157ZM51.9868 33.4055L51.7007 33.3154L51.7003 33.3165L51.9868 33.4055ZM49.3785 39.118L49.1235 38.96L49.1228 38.9612L49.3785 39.118ZM49.1326 39.2629L49.1145 38.9635L49.0949 38.9647L49.0755 38.9684L49.1326 39.2629ZM48.8703 39.1487L49.104 38.9606L49.1037 38.9603L48.8703 39.1487ZM48.3963 38.5814L48.1693 38.7776L48.1697 38.7781L48.3963 38.5814ZM29.0581 27.0409L29.1503 26.7554L29.1502 26.7554L29.0581 27.0409ZM10.0088 7.015L10.2999 6.94231L10.2997 6.94161L10.0088 7.015ZM10.1102 6.71538L9.92068 6.48284L9.92017 6.48326L10.1102 6.71538ZM14.1812 3.9819L14.3244 4.24547L14.3247 4.24532L14.1812 3.9819ZM14.4448 3.96348L14.3392 4.24429L14.3406 4.2448L14.4448 3.96348ZM48.8715 38.197L48.6446 38.3932L48.6453 38.3941L48.8715 38.197ZM29.2545 26.4723L29.3467 26.1868L29.3467 26.1868L29.2545 26.4723ZM49.0756 38.4365L48.845 38.6283L49.1163 38.9546L49.3334 38.5899L49.0756 38.4365ZM51.3443 33.3969L51.6301 33.4879L51.6844 33.3176L51.5604 33.1889L51.3443 33.3969ZM34.494 23.8813L34.5862 23.5958L34.5862 23.5958L34.494 23.8813ZM14.1621 4.68307L14.4447 4.58222L14.3251 4.24721L14.0151 4.4216L14.1621 4.68307ZM10.6565 7.0543L10.4685 6.82048L10.318 6.94149L10.3658 7.12862L10.6565 7.0543ZM52.467 22.7079C52.4708 22.7104 52.4693 22.7115 52.4688 22.7076L53.0639 22.6309C53.041 22.4536 52.94 22.301 52.7971 22.2069L52.467 22.7079ZM41.161 17.4537C45.6795 18.9565 49.3757 20.6756 52.4673 22.7081L52.7969 22.2067C49.6515 20.1389 45.9051 18.3993 41.3503 16.8844L41.161 17.4537ZM22.5262 1.30153C26.1582 9.11951 32.4367 14.5545 41.161 17.4538L41.3503 16.8844C32.7707 14.0332 26.6275 8.70564 23.0704 1.04874L22.5262 1.30153ZM22.5208 1.30023C22.5237 1.29968 22.525 1.30026 22.5255 1.30051C22.5259 1.30072 22.5258 1.30066 22.526 1.30103L23.0706 1.04924C22.9535 0.795833 22.6802 0.659598 22.4096 0.710618L22.5208 1.30023ZM18.3013 2.4998C19.6647 1.98072 21.0836 1.57669 22.5219 1.30002L22.4085 0.710823C20.9359 0.994085 19.4836 1.40766 18.0878 1.93906L18.3013 2.4998ZM18.3002 2.50136C18.2998 2.50024 18.3001 2.50025 18.3008 2.49997L18.0882 1.93889C17.7882 2.05258 17.6318 2.37963 17.7284 2.68325L18.3002 2.50136ZM36.002 20.1287C26.9872 17.1338 21.0407 11.2077 18.3005 2.50223L17.7282 2.68238C20.5289 11.58 26.6238 17.6453 35.8128 20.6981L36.002 20.1287ZM52.5103 29.1511C48.426 25.4094 43.0205 22.4605 36.002 20.1287L35.8128 20.6981C42.7771 23.0118 48.1004 25.9248 52.105 29.5935L52.5103 29.1511ZM52.5128 29.1528C52.5146 29.1528 52.5128 29.1534 52.5096 29.1504L52.1058 29.5942C52.2169 29.6953 52.3618 29.7528 52.5128 29.7528V29.1528ZM52.5133 29.1528L52.5128 29.1528V29.7528C52.5821 29.7528 52.6534 29.7407 52.7211 29.7157L52.5133 29.1528ZM52.5157 29.1504C52.5157 29.1505 52.5155 29.152 52.5129 29.153L52.7215 29.7155C52.9326 29.6372 53.084 29.448 53.1114 29.2226L52.5157 29.1504ZM52.7 26.0982C52.7 27.1107 52.6386 28.1367 52.5157 29.1504L53.1114 29.2226C53.2371 28.1848 53.3 27.1347 53.3 26.0982H52.7ZM52.469 22.7094C52.6227 23.8463 52.7012 24.986 52.7 26.0979L53.3 26.0985C53.3012 24.9583 53.2207 23.7914 53.0636 22.6291L52.469 22.7094ZM41.1589 17.4579C32.494 14.578 26.2646 9.21622 22.6195 1.51627L22.0772 1.773C25.7977 9.63216 32.1615 15.0998 40.9696 18.0273L41.1589 17.4579ZM52.3473 22.6348C49.2717 20.6291 45.6077 18.9355 41.1588 17.4579L40.9697 18.0273C45.3827 19.493 48.9973 21.1665 52.0195 23.1373L52.3473 22.6348ZM52.6934 26.097C52.6934 25.0307 52.6217 23.9376 52.4809 22.8476L51.8859 22.9245C52.0235 23.9899 52.0934 25.0573 52.0934 26.097H52.6934ZM52.574 28.5576C52.6532 27.738 52.6934 26.9132 52.6934 26.097H52.0934C52.0934 26.8936 52.0541 27.6991 51.9768 28.4998L52.574 28.5576ZM36.0042 20.1246C42.8015 22.3828 48.061 25.2113 52.0769 28.7537L52.4738 28.3037C48.3809 24.6934 43.0433 21.8309 36.1934 19.5552L36.0042 20.1246ZM18.394 2.77668C21.173 11.3291 27.1061 17.1688 36.0042 20.1246L36.1933 19.5552C27.4669 16.6564 21.6817 10.9532 18.9646 2.59126L18.394 2.77668ZM22.2888 1.35061C21.0273 1.60632 19.7809 1.95857 18.5756 2.40246L18.783 2.96549C19.9591 2.53232 21.1761 2.18837 22.408 1.93865L22.2888 1.35061ZM41.8641 14.4368C45.0046 15.4586 47.881 16.6288 50.4149 17.9136L50.6862 17.3785C48.1208 16.0777 45.2152 14.8961 42.0497 13.8662L41.8641 14.4368ZM25.7713 1.58613C29.0674 7.71538 34.49 12.0371 41.864 14.4368L42.0497 13.8662C34.8037 11.5082 29.5138 7.27868 26.2998 1.30196L25.7713 1.58613ZM25.7862 0.996333C25.6785 1.17485 25.6693 1.39928 25.7723 1.58784L26.2988 1.30024C26.2996 1.30163 26.3 1.30356 26.3 1.30517C26.3 1.30663 26.2996 1.30697 26.3 1.30626L25.7862 0.996333ZM26.2944 0.703771C26.0896 0.708531 25.8953 0.815519 25.7862 0.996333L26.3 1.30626C26.2996 1.30693 26.2996 1.30639 26.3013 1.30545C26.303 1.30447 26.3055 1.30368 26.3083 1.30361L26.2944 0.703771ZM26.717 0.7C26.5816 0.7 26.4439 0.701248 26.2963 0.703733L26.3064 1.30365C26.451 1.30121 26.5854 1.3 26.717 1.3V0.7ZM41.6304 5.21973C37.2306 2.26229 32.073 0.7 26.717 0.7V1.3C31.9552 1.3 36.996 2.82755 41.2957 5.71769L41.6304 5.21973ZM51.2593 17.1624C49.3472 12.298 46.0175 8.16846 41.6304 5.21973L41.2957 5.71769C45.5829 8.59931 48.8339 12.6323 50.7009 17.3819L51.2593 17.1624ZM51.0942 17.8291C51.2813 17.6658 51.3524 17.3996 51.2594 17.1626L50.7008 17.3816C50.6997 17.3788 50.7 17.3767 50.7001 17.3765C50.7001 17.3764 50.7001 17.3766 50.6998 17.3769L51.0942 17.8291ZM50.6929 17.9792C50.8361 17.9792 50.9814 17.9294 51.0964 17.8271L50.6976 17.3788C50.6991 17.3774 50.6983 17.3792 50.6929 17.3792V17.9792ZM50.4189 17.9156C50.5047 17.9575 50.5975 17.9792 50.6929 17.9792V17.3792C50.69 17.3792 50.6871 17.3789 50.6822 17.3764L50.4189 17.9156ZM40.9468 6.21217C44.9092 8.87544 47.9664 12.5476 49.8265 16.868L50.3776 16.6307C48.4713 12.2031 45.3383 8.44093 41.2815 5.7142L40.9468 6.21217ZM26.8179 1.90025C31.8952 1.91971 36.7778 3.41034 40.9468 6.21218L41.2815 5.71419C37.0131 2.84557 32.0146 1.32016 26.8202 1.30026L26.8179 1.90025ZM42.245 13.2967C35.3294 11.0462 30.2385 7.05951 27.0805 1.45302L26.5577 1.74749C29.7989 7.50158 35.0199 11.5765 42.0593 13.8673L42.245 13.2967ZM50.2332 16.4795C47.8246 15.3091 45.1423 14.2402 42.245 13.2967L42.0592 13.8673C44.9339 14.8033 47.5902 15.8623 49.971 17.0192L50.2332 16.4795ZM22.0603 35.785C12.8538 32.8139 6.50833 27.0804 3.16768 18.7406L2.6107 18.9637C6.02311 27.4826 12.5141 33.3348 21.876 36.356L22.0603 35.785ZM41.1723 47.5715C37.0839 42.4096 30.9957 38.6694 22.0603 35.785L21.876 36.356C30.7457 39.2192 36.7129 42.9075 40.7019 47.944L41.1723 47.5715ZM41.2904 48.0465C41.321 47.8784 41.2777 47.7059 41.1732 47.5726L40.701 47.9429C40.7002 47.9418 40.6998 47.9406 40.7001 47.9389L41.2904 48.0465ZM41.0126 48.4485C41.1527 48.362 41.2589 48.2194 41.2904 48.0465L40.7001 47.9389C40.7013 47.9323 40.7038 47.934 40.6973 47.9381L41.0126 48.4485ZM34.3642 51.3146C36.7029 50.665 38.9395 49.7011 41.0101 48.4501L40.6998 47.9365C38.6761 49.1592 36.4899 50.1014 34.2036 50.7364L34.3642 51.3146ZM34.1992 51.3377C34.2526 51.3377 34.3119 51.3308 34.3722 51.3122L34.1956 50.7388C34.2003 50.7373 34.2015 50.7377 34.1992 50.7377V51.3377ZM33.759 51.1525C33.8771 51.2741 34.0379 51.3377 34.1992 51.3377V50.7377C34.197 50.7377 34.1946 50.7373 34.1926 50.7364C34.1907 50.7356 34.1898 50.7348 34.1895 50.7346L33.759 51.1525ZM15.9089 41.0906C23.8593 43.6567 29.6898 46.9528 33.7588 51.1523L34.1897 50.7348C30.0297 46.4414 24.1004 43.1041 16.0932 40.5196L15.9089 41.0906ZM1.75137 31.7215C5.18986 36.0213 9.95847 39.1703 15.9089 41.0906L16.0932 40.5196C10.2384 38.6302 5.57497 35.5422 2.21996 31.3467L1.75137 31.7215ZM1.10671 30.8745C1.34246 31.1965 1.54716 31.4653 1.75109 31.7211L2.22024 31.3471C2.02232 31.0988 1.82265 30.8367 1.59083 30.5201L1.10671 30.8745ZM0.998432 30.6104C1.01205 30.7107 1.0523 30.8027 1.10963 30.8784L1.58792 30.5161C1.58965 30.5184 1.59198 30.5224 1.59297 30.5296L0.998432 30.6104ZM0.7 26.7665C0.7 28.0507 0.801042 29.3471 0.999293 30.6163L1.59211 30.5237C1.39862 29.285 1.3 28.0196 1.3 26.7665H0.7ZM2.02525 18.7687C1.14515 21.3472 0.7 24.0384 0.7 26.7665H1.3C1.3 24.1041 1.73437 21.4784 2.59308 18.9626L2.02525 18.7687ZM2.58504 18.3615C2.33753 18.3684 2.1058 18.5247 2.02428 18.7716L2.59404 18.9597C2.59246 18.9645 2.59035 18.9654 2.592 18.9642C2.59377 18.9629 2.59724 18.9614 2.60195 18.9612L2.58504 18.3615ZM3.16688 18.7387C3.07689 18.5186 2.84945 18.3388 2.56844 18.3624L2.61854 18.9603C2.61558 18.9605 2.61237 18.9602 2.6096 18.9595C2.60703 18.9588 2.60587 18.958 2.60594 18.958C2.60607 18.9581 2.60706 18.9588 2.60836 18.9604C2.60965 18.962 2.61074 18.9639 2.6115 18.9657L3.16688 18.7387ZM34.508 50.1938C30.2829 45.8906 24.3128 42.5437 16.2878 39.9544L16.1035 40.5254C24.0716 43.0964 29.9446 46.4025 34.0799 50.6142L34.508 50.1938ZM40.0867 47.6041C38.2445 48.6826 36.2712 49.5267 34.2115 50.1156L34.3764 50.6924C36.4844 50.0897 38.5042 49.2259 40.3899 48.1219L40.0867 47.6041ZM21.6789 36.9225C30.2754 39.6967 36.0947 43.2439 40.0056 48.0523L40.471 47.6737C36.4612 42.7437 30.5233 39.1462 21.8631 36.3514L21.6789 36.9225ZM2.3622 19.968C5.92385 28.2354 12.4286 33.9377 21.6789 36.9225L21.8631 36.3514C12.7623 33.4149 6.40036 27.825 2.91324 19.7306L2.3622 19.968ZM1.91541 26.7665C1.91541 24.4444 2.25481 22.1504 2.92486 19.9362L2.35058 19.7624C1.66344 22.0331 1.31541 24.3857 1.31541 26.7665H1.91541ZM2.18995 30.3656C2.00776 29.1767 1.91541 27.966 1.91541 26.7665H1.31541C1.31541 27.9966 1.41008 29.2376 1.59688 30.4564L2.18995 30.3656ZM2.70746 30.9818C2.52627 30.7559 2.34435 30.5171 2.1349 30.233L1.65194 30.589C1.86455 30.8774 2.05162 31.1231 2.23943 31.3572L2.70746 30.9818ZM16.2878 39.9544C10.5504 38.1029 5.98685 35.0821 2.70773 30.9821L2.23916 31.3569C5.6019 35.5614 10.2707 38.6431 16.1035 40.5254L16.2878 39.9544ZM8.03406 9.15115C10.1162 16.1022 15.2821 25.2866 28.0388 29.5124L28.2275 28.9428C15.709 24.7959 10.6528 15.8025 8.60883 8.97898L8.03406 9.15115ZM8.0306 9.14903C8.03256 9.14949 8.03354 9.15023 8.03389 9.15055C8.03406 9.15071 8.03406 9.15075 8.03397 9.15062C8.03393 9.15055 8.03389 9.15047 8.03385 9.15038C8.03383 9.15033 8.03381 9.15029 8.0338 9.15026C8.03379 9.15023 8.03378 9.15021 8.03378 9.15021L8.60911 8.97992C8.54663 8.76882 8.37499 8.61281 8.16569 8.56444L8.0306 9.14903ZM8.02965 9.14983C8.03058 9.14879 8.03128 9.14919 8.0306 9.14903L8.16569 8.56444C7.95163 8.51497 7.72903 8.58687 7.58358 8.74855L8.02965 9.14983ZM4.29981 14.547C5.29887 12.5981 6.553 10.7829 8.02914 9.1504L7.58409 8.74798C6.07297 10.4192 4.78892 12.2776 3.76588 14.2733L4.29981 14.547ZM4.29989 14.5461L4.29984 14.547L3.76584 14.2734C3.69619 14.4094 3.68127 14.5671 3.72362 14.7132L4.29989 14.5461ZM22.5432 33.1995C13.1049 30.0736 6.97713 23.8031 4.29994 14.5463L3.72356 14.713C6.45768 24.1666 12.7354 30.5833 22.3546 33.769L22.5432 33.1995ZM41.4851 44.7935C37.2884 39.8141 31.0813 36.0271 22.5432 33.1995L22.3546 33.769C30.827 36.5749 36.9238 40.3125 41.0263 45.1802L41.4851 44.7935ZM42.3145 45.8309C42.0277 45.4538 41.7565 45.1144 41.4848 44.7931L41.0267 45.1806C41.2908 45.4929 41.5556 45.8241 41.8369 46.1941L42.3145 45.8309ZM42.3188 45.8324C42.3143 45.8318 42.3137 45.8298 42.3152 45.8318L41.8363 46.1932C41.9345 46.3234 42.0803 46.4053 42.2371 46.4268L42.3188 45.8324ZM42.3086 45.8312L42.3054 45.8309L42.2505 46.4283L42.2537 46.4286L42.3086 45.8312ZM42.3148 45.8317L42.3079 45.8311L42.2544 46.4287L42.2613 46.4293L42.3148 45.8317ZM42.3232 45.8324L42.3115 45.8314L42.2646 46.4296L42.2764 46.4305L42.3232 45.8324ZM42.3176 45.8321C42.3197 45.8321 42.3206 45.8322 42.3196 45.8321L42.2801 46.4308C42.2907 46.4315 42.3033 46.4321 42.3176 46.4321V45.8321ZM42.3206 45.8307C42.3194 45.8316 42.3186 45.8319 42.3183 45.832C42.3181 45.8321 42.3179 45.8321 42.3176 45.8321V46.4321C42.4516 46.4321 42.5798 46.3875 42.6844 46.3078L42.3206 45.8307ZM46.7003 41.5185C45.4152 43.133 43.9414 44.584 42.3196 45.8314L42.6854 46.307C44.3461 45.0297 45.8546 43.5444 47.1697 41.8922L46.7003 41.5185ZM46.6995 41.5181L46.7002 41.5185L47.1697 41.8921C47.3391 41.6792 47.3431 41.3807 47.1829 41.1628L46.6995 41.5181ZM28.0388 29.5124C36.901 32.4482 42.8155 36.2687 46.7 41.5189L47.1824 41.162C43.1993 35.7786 37.1598 31.9019 28.2275 28.9428L28.0388 29.5124ZM41.49 44.794C41.7013 45.0455 41.9145 45.3073 42.1336 45.5907L42.6083 45.2237C42.3833 44.9327 42.1648 44.6644 41.9494 44.408L41.49 44.794ZM22.5456 33.1995C31.1269 36.0411 37.3131 39.839 41.4903 44.7944L41.9491 44.4077C37.678 39.3409 31.3819 35.4935 22.7342 32.6299L22.5456 33.1995ZM4.33793 14.6634C7.03019 23.8518 13.1665 30.0929 22.5456 33.1995L22.7343 32.6299C13.5348 29.5828 7.54842 23.4867 4.91373 14.4947L4.33793 14.6634ZM7.67412 9.559C6.3798 11.0535 5.26612 12.6928 4.35951 14.441L4.89215 14.7172C5.7769 13.0112 6.86397 11.4109 8.12767 9.9518L7.67412 9.559ZM28.0352 29.5148C15.5791 25.389 10.3686 16.557 8.18691 9.66486L7.61488 9.84593C9.8372 16.8665 15.159 25.8819 27.8465 30.0844L28.0352 29.5148ZM46.5542 41.3324C42.6468 36.1512 36.7384 32.3972 28.0352 29.5148L27.8465 30.0844C36.4813 32.9441 42.2663 36.6432 46.0752 41.6937L46.5542 41.3324ZM42.5568 45.6428C44.0233 44.4862 45.364 43.1613 46.5477 41.702L46.0817 41.3241C44.9257 42.7493 43.6166 44.0428 42.1852 45.1717L42.5568 45.6428ZM15.3633 42.7159C10.317 41.0831 6.07409 38.5587 2.74716 35.2198L2.32214 35.6433C5.72412 39.0575 10.0527 41.6282 15.1786 43.2867L15.3633 42.7159ZM32.1127 51.8261C28.1301 48.0468 22.6442 45.0718 15.3633 42.7159L15.1786 43.2867C22.4066 45.6256 27.803 48.5635 31.6997 52.2614L32.1127 51.8261ZM32.2721 52.4378C32.3427 52.2169 32.2761 51.9799 32.1118 51.8253L31.7006 52.2622C31.7017 52.2632 31.6987 52.261 31.7006 52.2551L32.2721 52.4378ZM31.8018 52.8502C32.0195 52.8098 32.2056 52.654 32.2731 52.4347L31.6996 52.2582C31.7002 52.2561 31.701 52.256 31.6998 52.257C31.6986 52.2581 31.6961 52.2596 31.6924 52.2603L31.8018 52.8502ZM26.876 53.3C28.5142 53.3 30.1713 53.1488 31.8012 52.8503L31.6931 52.2601C30.0985 52.5522 28.4776 52.7 26.876 52.7V53.3ZM1.73359 35.837C5.39119 46.2869 15.4984 53.3 26.876 53.3V52.7C15.7434 52.7 5.87002 45.8387 2.2999 35.6388L1.73359 35.837ZM1.9958 35.1255C1.7523 35.2702 1.63757 35.5649 1.73384 35.8377L2.29965 35.6381C2.29977 35.6384 2.30002 35.6394 2.3 35.6407C2.29998 35.6419 2.29976 35.6427 2.29959 35.6432C2.29914 35.6444 2.29902 35.6432 2.30238 35.6412L1.9958 35.1255ZM2.74627 35.2189C2.54697 35.0205 2.23865 34.9835 1.99769 35.1243L2.30048 35.6423C2.30419 35.6402 2.30858 35.6392 2.31331 35.6398C2.31801 35.6404 2.32108 35.6422 2.32303 35.6442L2.74627 35.2189ZM26.876 52.0959C16.4675 52.0959 7.1885 45.9535 3.36164 36.6884L2.80709 36.9174C6.72966 46.4143 16.2325 52.6959 26.876 52.6959V52.0959ZM30.9835 51.7685C29.6195 51.9859 28.2407 52.0959 26.876 52.0959V52.6959C28.2727 52.6959 29.6831 52.5834 31.0779 52.361L30.9835 51.7685ZM14.9814 43.8575C21.8503 46.0806 27.0353 48.8454 30.8291 52.2869L31.2323 51.8425C27.3556 48.3259 22.0858 45.5261 15.1661 43.2867L14.9814 43.8575ZM2.88244 37.0248C6.18773 40.0329 10.2525 42.3275 14.9814 43.8575L15.1661 43.2866C10.5091 41.7799 6.52158 39.5254 3.28629 36.581L2.88244 37.0248ZM34.7814 23.0272C22.375 19.0209 17.1307 10.4972 14.9109 4.05001L14.3436 4.24534C16.608 10.822 21.9668 19.5196 34.597 23.5982L34.7814 23.0272ZM52.136 32.9091C48.1862 28.7481 42.4994 25.5207 34.7814 23.0273L34.597 23.5982C42.2577 26.0731 47.8433 29.2583 51.7008 33.3222L52.136 32.9091ZM52.273 33.4955C52.3385 33.2874 52.2819 33.0651 52.1375 32.9107L51.6993 33.3206C51.7019 33.3234 51.6986 33.3221 51.7007 33.3154L52.273 33.4955ZM49.6335 39.276C50.7571 37.463 51.6447 35.5192 52.2734 33.4944L51.7003 33.3165C51.0869 35.2925 50.2205 37.1898 49.1235 38.96L49.6335 39.276ZM49.1508 39.5624C49.3457 39.5506 49.529 39.4465 49.6342 39.2749L49.1228 38.9612C49.1235 38.96 49.1237 38.9604 49.1221 38.9613C49.1204 38.9623 49.1178 38.9633 49.1145 38.9635L49.1508 39.5624ZM49.1136 39.5641C49.1154 39.5641 49.1505 39.565 49.1897 39.5574L49.0755 38.9684C49.0905 38.9655 49.1024 38.9646 49.1086 38.9643C49.1139 38.9641 49.118 38.9641 49.1136 38.9641V39.5641ZM48.6366 39.3368C48.7526 39.481 48.929 39.5641 49.1136 39.5641V38.9641C49.1113 38.9641 49.109 38.9636 49.1069 38.9626C49.1049 38.9617 49.104 38.9607 49.104 38.9606L48.6366 39.3368ZM48.1697 38.7781C48.3217 38.9531 48.4753 39.137 48.6368 39.3371L49.1037 38.9603C48.9382 38.7552 48.78 38.5658 48.6228 38.3847L48.1697 38.7781ZM28.9658 27.3263C37.6726 30.1391 43.9432 33.8901 48.1693 38.7776L48.6232 38.3852C44.3019 33.3875 37.9211 29.5889 29.1503 26.7554L28.9658 27.3263ZM9.71777 7.08769C12.2444 17.205 18.7318 24.022 28.9659 27.3264L29.1502 26.7554C19.1057 23.5122 12.7744 16.8509 10.2999 6.94231L9.71777 7.08769ZM9.92017 6.48326C9.74315 6.6282 9.66069 6.86145 9.71795 7.08839L10.2997 6.94161C10.3002 6.94344 10.3001 6.94586 10.2995 6.94768C10.2989 6.94938 10.2984 6.94903 10.3003 6.9475L9.92017 6.48326ZM14.0379 3.71833C12.5892 4.50585 11.2049 5.43602 9.92068 6.48284L10.2998 6.94791C11.5554 5.92436 12.9088 5.01503 14.3244 4.24547L14.0379 3.71833ZM14.5504 3.68267C14.3846 3.62033 14.196 3.63216 14.0376 3.71848L14.3247 4.24532C14.3261 4.24459 14.3285 4.24368 14.3319 4.24345C14.3353 4.24321 14.3379 4.24381 14.3392 4.24429L14.5504 3.68267ZM14.911 4.05008C14.8515 3.87714 14.7163 3.74415 14.549 3.68216L14.3406 4.2448C14.3456 4.24666 14.3448 4.24875 14.3436 4.24527L14.911 4.05008ZM49.0985 38.0008C44.7012 32.9149 38.2294 29.056 29.3467 26.1868L29.1623 26.7578C37.9803 29.6061 44.3423 33.4171 48.6446 38.3932L49.0985 38.0008ZM49.3062 38.2446C49.2361 38.1604 49.1674 38.08 49.0978 38L48.6453 38.3941C48.7125 38.4712 48.7782 38.5481 48.845 38.6283L49.3062 38.2446ZM51.0584 33.3058C50.5065 35.0387 49.7542 36.7099 48.8178 38.2831L49.3334 38.5899C50.293 36.9777 51.0642 35.2646 51.6301 33.4879L51.0584 33.3058ZM34.4018 24.1668C41.8819 26.5829 47.3464 29.6752 51.1281 33.6049L51.5604 33.1889C47.6869 29.1637 42.1224 26.0301 34.5862 23.5958L34.4018 24.1668ZM13.8796 4.78393C16.2576 11.4453 21.7524 20.0815 34.4018 24.1668L34.5862 23.5958C22.1561 19.5813 16.7765 11.1142 14.4447 4.58222L13.8796 4.78393ZM10.8444 7.28812C11.9329 6.41311 13.0967 5.62662 14.3092 4.94455L14.0151 4.4216C12.7739 5.11978 11.5828 5.92475 10.4685 6.82048L10.8444 7.28812ZM29.3467 26.1868C19.5776 23.0318 13.4009 16.5759 10.9471 6.97998L10.3658 7.12862C12.8727 16.9323 19.2054 23.5421 29.1623 26.7578L29.3467 26.1868Z" fill="currentcolor"/>
    </svg>