<svg xmlns="http://www.w3.org/2000/svg" width="12" height="13" viewBox="0 0 12 13" fill="none"><path d="M10.9277 7.62793C11.1426 8.05762 11.25 8.50684 11.25 8.97559C11.25 9.83496 10.9473 10.5674 10.3418 11.1729C9.73633 11.7588 9.00391 12.0518 8.14453 12.0518C7.59766 12.0518 7.10938 11.9346 6.67969 11.7002C6.36719 11.7588 6.03516 11.7881 5.68359 11.7881C4.19922 11.7881 2.92969 11.2705 1.875 10.2354C0.839844 9.2002 0.322266 7.9502 0.322266 6.48535C0.322266 6.25098 0.361328 5.89941 0.439453 5.43066C0.146484 4.90332 0 4.38574 0 3.87793C0 3.01855 0.302734 2.2959 0.908203 1.70996C1.51367 1.10449 2.24609 0.801758 3.10547 0.801758C3.71094 0.801758 4.26758 0.958008 4.77539 1.27051C4.9707 1.23145 5.27344 1.21191 5.68359 1.21191C7.16797 1.21191 8.42773 1.72949 9.46289 2.76465C10.5176 3.78027 11.0449 5.02051 11.0449 6.48535C11.0449 6.93457 11.0059 7.31543 10.9277 7.62793ZM8.4375 9.00488C8.67188 8.69238 8.78906 8.30176 8.78906 7.83301C8.78906 7.46191 8.7207 7.14941 8.58398 6.89551C8.44727 6.6416 8.24219 6.42676 7.96875 6.25098C7.75391 6.11426 7.45117 5.97754 7.06055 5.84082C6.78711 5.7627 6.38672 5.66504 5.85938 5.54785C5.46875 5.4502 5.22461 5.3916 5.12695 5.37207L4.6875 5.19629C4.62891 5.17676 4.53125 5.09863 4.39453 4.96191C4.31641 4.84473 4.27734 4.74707 4.27734 4.66895C4.27734 4.4541 4.38477 4.27832 4.59961 4.1416C4.81445 4.00488 5.12695 3.93652 5.53711 3.93652C5.98633 3.93652 6.28906 4.00488 6.44531 4.1416C6.58203 4.25879 6.73828 4.4541 6.91406 4.72754C6.99219 4.86426 7.09961 5.00098 7.23633 5.1377C7.37305 5.23535 7.5293 5.28418 7.70508 5.28418C7.90039 5.28418 8.07617 5.20605 8.23242 5.0498C8.38867 4.89355 8.4668 4.72754 8.4668 4.55176C8.4668 4.35645 8.4082 4.15137 8.29102 3.93652C8.1543 3.72168 7.97852 3.52637 7.76367 3.35059C7.5293 3.1748 7.23633 3.02832 6.88477 2.91113C6.5918 2.81348 6.17188 2.76465 5.625 2.76465C4.98047 2.76465 4.46289 2.84277 4.07227 2.99902C3.62305 3.1748 3.27148 3.41895 3.01758 3.73145C2.7832 4.04395 2.66602 4.39551 2.66602 4.78613C2.66602 5.21582 2.77344 5.56738 2.98828 5.84082C3.18359 6.09473 3.49609 6.31934 3.92578 6.51465C4.35547 6.69043 4.82422 6.82715 5.33203 6.9248C5.91797 7.04199 6.25 7.12012 6.32812 7.15918C6.54297 7.21777 6.72852 7.3252 6.88477 7.48145C7.02148 7.59863 7.08984 7.76465 7.08984 7.97949C7.08984 8.25293 6.96289 8.47754 6.70898 8.65332C6.45508 8.8291 6.09375 8.91699 5.625 8.91699C5.33203 8.91699 5.06836 8.86816 4.83398 8.77051C4.6582 8.69238 4.51172 8.58496 4.39453 8.44824C4.27734 8.29199 4.16992 8.10645 4.07227 7.8916C3.99414 7.71582 3.89648 7.56934 3.7793 7.45215C3.66211 7.33496 3.50586 7.27637 3.31055 7.27637C3.07617 7.27637 2.89062 7.34473 2.75391 7.48145C2.59766 7.6377 2.51953 7.80371 2.51953 7.97949C2.51953 8.31152 2.63672 8.63379 2.87109 8.94629C3.08594 9.23926 3.37891 9.49316 3.75 9.70801C4.25781 9.98145 4.89258 10.1182 5.6543 10.1182C6.33789 10.1182 6.9043 10.0205 7.35352 9.8252C7.86133 9.61035 8.22266 9.33691 8.4375 9.00488Z" fill="currentColor"></path></svg>