<svg xmlns="http://www.w3.org/2000/svg" width="18" height="15" viewBox="0 0 18 15" fill="none"><path d="M15.3735 4.17188C15.3735 4.33789 15.3735 4.4707 15.3735 4.63672C15.3735 9.25195 11.8872 14.5312 5.479 14.5312C3.48682 14.5312 1.66064 13.9668 0.133301 12.9707C0.398926 13.0039 0.664551 13.0371 0.963379 13.0371C2.59033 13.0371 4.08447 12.4727 5.27979 11.543C3.75244 11.5098 2.45752 10.5137 2.02588 9.11914C2.2583 9.15234 2.45752 9.18555 2.68994 9.18555C2.98877 9.18555 3.3208 9.11914 3.58643 9.05273C1.99268 8.7207 0.797363 7.32617 0.797363 5.63281V5.59961C1.26221 5.86523 1.82666 5.99805 2.39111 6.03125C1.42822 5.40039 0.830566 4.33789 0.830566 3.14258C0.830566 2.47852 0.996582 1.88086 1.29541 1.38281C3.02197 3.47461 5.61182 4.86914 8.50049 5.03516C8.43408 4.76953 8.40088 4.50391 8.40088 4.23828C8.40088 2.3125 9.96143 0.751953 11.8872 0.751953C12.8833 0.751953 13.7798 1.15039 14.4438 1.84766C15.2075 1.68164 15.9712 1.38281 16.6353 0.984375C16.3696 1.81445 15.8384 2.47852 15.1079 2.91016C15.8052 2.84375 16.5024 2.64453 17.1001 2.37891C16.6353 3.07617 16.0376 3.67383 15.3735 4.17188Z" fill="currentcolor"></path></svg>