<svg xmlns="http://www.w3.org/2000/svg" width="11" height="12" viewBox="0 0 11 12" fill="none"><path d="M0.4375 8.4541C0.747396 8.14421 1.11198 7.98926 1.53125 7.98926C1.95052 7.98926 2.30599 8.14421 2.59766 8.4541C2.90755 8.74577 3.0625 9.10124 3.0625 9.52051C3.0625 9.93978 2.90755 10.3044 2.59766 10.6143C2.30599 10.9059 1.95052 11.0518 1.53125 11.0518C1.11198 11.0518 0.747396 10.9059 0.4375 10.6143C0.145833 10.3044 0 9.93978 0 9.52051C0 9.10124 0.145833 8.74577 0.4375 8.4541ZM0 4.05176C1.91406 4.05176 3.55469 4.74447 4.92188 6.12988C6.30729 7.49707 7 9.1377 7 11.0518H4.8125C4.8125 9.59342 4.375 8.42676 3.5 7.55176C2.625 6.67676 1.45833 6.23926 0 6.23926V4.05176ZM0 0.551758C2.89844 0.551758 5.36849 1.58171 7.41016 3.6416C9.47005 5.68327 10.5 8.15332 10.5 11.0518H8.3125C8.3125 8.71842 7.51042 6.74967 5.90625 5.14551C4.30208 3.54134 2.33333 2.73926 0 2.73926V0.551758Z" fill="currentColor"></path></svg>