<svg xmlns="http://www.w3.org/2000/svg" width="19" height="13" viewBox="0 0 19 13" fill="none"><path d="M18.4041 2.27539C18.8025 3.66992 18.8025 6.6582 18.8025 6.6582C18.8025 6.6582 18.8025 9.61328 18.4041 11.041C18.2048 11.8379 17.574 12.4355 16.8103 12.6348C15.3826 13 9.73804 13 9.73804 13C9.73804 13 4.0603 13 2.63257 12.6348C1.8689 12.4355 1.23804 11.8379 1.03882 11.041C0.640381 9.61328 0.640381 6.6582 0.640381 6.6582C0.640381 6.6582 0.640381 3.66992 1.03882 2.27539C1.23804 1.47852 1.8689 0.847656 2.63257 0.648438C4.0603 0.25 9.73804 0.25 9.73804 0.25C9.73804 0.25 15.3826 0.25 16.8103 0.648438C17.574 0.847656 18.2048 1.47852 18.4041 2.27539ZM7.87866 9.34766L12.5935 6.6582L7.87866 3.96875V9.34766Z" fill="currentcolor"></path></svg>