<svg xmlns="http://www.w3.org/2000/svg" width="19" height="83" viewBox="0 0 19 83" fill="none"><path d="M0.595496 72.9898C0.536692 73.0142 0.483273 73.0499 0.438288 73.0949C0.393252 73.1399 0.357525 73.1933 0.33315 73.2521C0.308774 73.3109 0.296227 73.374 0.296227 73.4376C0.296227 73.5013 0.308774 73.5643 0.33315 73.6231C0.357525 73.6819 0.393252 73.7353 0.438288 73.7803L9.15703 82.4991C9.20202 82.5441 9.25544 82.5798 9.31424 82.6042C9.37304 82.6286 9.43608 82.6411 9.49973 82.6411C9.56338 82.6411 9.62641 82.6286 9.68522 82.6042C9.74402 82.5798 9.79744 82.5441 9.84242 82.4991L18.5612 73.7803C18.6062 73.7353 18.6419 73.6819 18.6662 73.6231C18.6906 73.5643 18.7031 73.5013 18.7031 73.4376C18.7031 73.374 18.6906 73.3109 18.6662 73.2521C18.6419 73.1933 18.6062 73.1399 18.5612 73.0949C18.5162 73.0499 18.4627 73.0142 18.4039 72.9899C18.3451 72.9655 18.2821 72.953 18.2185 72.953C18.1548 72.953 18.0918 72.9655 18.033 72.9899C17.9742 73.0142 17.9208 73.0499 17.8758 73.0949L9.99951 80.9712L9.99951 -3.80447e-07L8.99951 -4.24158e-07L8.99951 80.9707L1.12368 73.0949C1.07869 73.0499 1.02527 73.0142 0.966471 72.9898C0.907668 72.9654 0.844638 72.9529 0.780984 72.9529C0.717328 72.9529 0.654298 72.9654 0.595496 72.9898Z" fill="currentcolor"></path></svg>