<svg xmlns="http://www.w3.org/2000/svg" width="17" height="19" viewBox="0 0 17 19" fill="none"><path d="M0.555908 16.7021V7.18634H16.2289V16.7021C16.2289 17.6467 15.4592 18.3813 14.5496 18.3813H2.23516C1.29058 18.3813 0.555908 17.6467 0.555908 16.7021ZM11.7509 9.84515V11.2445C11.7509 11.4894 11.9258 11.6643 12.1707 11.6643H13.5701C13.78 11.6643 13.9899 11.4894 13.9899 11.2445V9.84515C13.9899 9.63524 13.78 9.42534 13.5701 9.42534H12.1707C11.9258 9.42534 11.7509 9.63524 11.7509 9.84515ZM11.7509 14.3231V15.7225C11.7509 15.9674 11.9258 16.1423 12.1707 16.1423H13.5701C13.78 16.1423 13.9899 15.9674 13.9899 15.7225V14.3231C13.9899 14.1132 13.78 13.9033 13.5701 13.9033H12.1707C11.9258 13.9033 11.7509 14.1132 11.7509 14.3231ZM7.2729 9.84515V11.2445C7.2729 11.4894 7.44783 11.6643 7.69272 11.6643H9.09209C9.302 11.6643 9.5119 11.4894 9.5119 11.2445V9.84515C9.5119 9.63524 9.302 9.42534 9.09209 9.42534H7.69272C7.44783 9.42534 7.2729 9.63524 7.2729 9.84515ZM7.2729 14.3231V15.7225C7.2729 15.9674 7.44783 16.1423 7.69272 16.1423H9.09209C9.302 16.1423 9.5119 15.9674 9.5119 15.7225V14.3231C9.5119 14.1132 9.302 13.9033 9.09209 13.9033H7.69272C7.44783 13.9033 7.2729 14.1132 7.2729 14.3231ZM2.79491 9.84515V11.2445C2.79491 11.4894 2.96983 11.6643 3.21472 11.6643H4.61409C4.824 11.6643 5.03391 11.4894 5.03391 11.2445V9.84515C5.03391 9.63524 4.824 9.42534 4.61409 9.42534H3.21472C2.96983 9.42534 2.79491 9.63524 2.79491 9.84515ZM2.79491 14.3231V15.7225C2.79491 15.9674 2.96983 16.1423 3.21472 16.1423H4.61409C4.824 16.1423 5.03391 15.9674 5.03391 15.7225V14.3231C5.03391 14.1132 4.824 13.9033 4.61409 13.9033H3.21472C2.96983 13.9033 2.79491 14.1132 2.79491 14.3231ZM14.5496 2.70834C15.4592 2.70834 16.2289 3.478 16.2289 4.38759V6.06684H0.555908V4.38759C0.555908 3.478 1.29058 2.70834 2.23516 2.70834H3.91441V1.02909C3.91441 0.749218 4.1593 0.469343 4.47416 0.469343H5.59366C5.87353 0.469343 6.1534 0.749218 6.1534 1.02909V2.70834H10.6314V1.02909C10.6314 0.749218 10.8763 0.469343 11.1912 0.469343H12.3107C12.5905 0.469343 12.8704 0.749218 12.8704 1.02909V2.70834H14.5496Z" fill="currentcolor"></path></svg>