<svg xmlns="http://www.w3.org/2000/svg" width="18" height="18" viewBox="0 0 18 18" fill="none"><path d="M0.833013 5.18514C0.27132 4.92081 0.27132 4.09479 0.833013 3.83047L8.53151 0.361185C8.63064 0.328145 8.7628 0.262063 8.89496 0.262063C8.99408 0.262063 9.12625 0.328145 9.22537 0.361185L16.9239 3.83047C17.4856 4.09479 17.4856 4.92081 16.9239 5.18514L9.22537 8.65442C8.99408 8.75354 8.7628 8.75354 8.53151 8.65442L0.833013 5.18514ZM16.9239 8.09273C17.4856 8.32401 17.4856 9.15003 16.9239 9.41436L9.22537 12.8836C8.99408 12.9828 8.7628 12.9828 8.53151 12.8836L0.833013 9.41436C0.27132 9.15003 0.27132 8.32401 0.833013 8.09273L2.74938 7.20063L8.10198 9.64564C8.33327 9.74477 8.5976 9.81085 8.89496 9.81085C9.15929 9.81085 9.42361 9.74477 9.6549 9.64564L15.0075 7.20063L16.9239 8.09273ZM16.9239 12.3219C17.4856 12.5532 17.4856 13.3793 16.9239 13.6436L9.22537 17.1129C8.99408 17.212 8.7628 17.212 8.53151 17.1129L0.833013 13.6436C0.27132 13.3793 0.27132 12.5532 0.833013 12.3219L2.74938 11.4298L8.10198 13.8749C8.33327 13.974 8.5976 14.0401 8.89496 14.0401C9.15929 14.0401 9.42361 13.974 9.6549 13.8749L15.0075 11.4298L16.9239 12.3219Z" fill="currentcolor"></path></svg>