<svg width="70" height="70" viewBox="0 0 70 70" fill="none" xmlns="http://www.w3.org/2000/svg">
<path d="M57.9412 8.58627C51.7956 3.24003 43.7677 0 35 0C26.2323 0 18.2073 3.24003 12.0588 8.58627C4.67442 15.0097 0 24.4691 0 35C0 45.5337 4.67442 54.9959 12.0588 61.4137C18.2044 66.7599 26.2323 70.0028 35 70.0028C43.7677 70.0028 51.7927 66.7599 57.9412 61.4137C65.3256 54.9959 70 45.5337 70 35C70 24.4691 65.3256 15.0069 57.9412 8.58627ZM56.5068 59.761C50.7439 64.7728 43.2206 67.8116 35.0028 67.8116C26.785 67.8116 19.2589 64.7728 13.4988 59.761C6.57649 53.743 2.19405 44.8732 2.19405 34.9971C2.19405 25.1267 6.57649 16.257 13.4988 10.2332C19.2618 5.22434 26.785 2.18554 35.0028 2.18554C43.2206 2.18554 50.7439 5.22434 56.5068 10.2332C63.4292 16.2541 67.8116 25.1239 67.8116 34.9971C67.8116 44.8732 63.4292 53.743 56.5068 59.761Z" fill="var(--svg-color)"/>
<path d="M54.8429 12.1523C49.525 7.52604 42.5856 4.72253 35.0028 4.72253C27.42 4.72253 20.4807 7.5232 15.1628 12.1523C8.77622 17.7054 4.72827 25.8864 4.72827 34.9971C4.72827 44.1078 8.77338 52.2944 15.1628 57.8475C20.4807 62.4738 27.42 65.2773 35.0028 65.2773C42.5856 65.2773 49.525 62.4766 54.8429 57.8475C61.2294 52.2944 65.2774 44.1106 65.2774 34.9971C65.2774 25.8835 61.2294 17.7054 54.8429 12.1523ZM53.4113 56.1978L35.0028 34.9999L16.5943 56.1978C10.6698 51.0415 6.91667 43.4501 6.91667 34.9999C6.91667 26.5497 10.6698 18.9584 16.5971 13.8049L35.0028 34.9999L53.4085 13.8049C59.3359 18.9584 63.089 26.5497 63.089 34.9999C63.0862 43.4501 59.3358 51.0415 53.4113 56.1978Z" fill="currentcolor"/>
</svg>
