<svg width="71" height="71" viewBox="0 0 71 71" fill="none" xmlns="http://www.w3.org/2000/svg">
<path d="M21.8276 67.5731H48.3478C44.2525 69.2534 39.7744 70.1719 35.082 70.1719C30.3896 70.1719 25.9153 69.2534 21.8276 67.5731Z" fill="var(--svg-color)"/>
<path d="M13.3881 62.6626H56.7796C55.1759 63.9256 53.4613 65.0509 51.6394 66.0193H18.5284C16.7065 65.0509 14.9918 63.9218 13.3881 62.6626Z" fill="var(--svg-color)"/>
<path d="M8.30545 57.748H61.8626C60.9134 58.8771 59.8915 59.9373 58.8083 60.9248H11.3597C10.2804 59.9412 9.25465 58.8771 8.30545 57.748Z" fill="var(--svg-color)"/>
<path d="M4.82622 52.8376H65.3416C64.7445 53.8711 64.09 54.8662 63.3781 55.823H6.78969C6.07779 54.8662 5.4233 53.8711 4.82622 52.8376Z" fill="var(--svg-color)"/>
<path d="M2.42642 47.927H67.7414C67.3701 48.8839 66.9529 49.8216 66.4898 50.7325H3.678C3.21488 49.8216 2.79768 48.8839 2.42642 47.927Z" fill="var(--svg-color)"/>
<path d="M0.903 43.0164H69.2684C69.0694 43.9081 68.8244 44.7808 68.5565 45.642H1.61106C1.34697 44.777 1.10203 43.9043 0.903 43.0164Z" fill="var(--svg-color)"/>
<path d="M70.0379 38.1021C69.9728 38.9173 69.8771 39.7325 69.7431 40.5401H0.428554C0.294594 39.7325 0.202728 38.9173 0.133835 38.1021H70.0379Z" fill="var(--svg-color)"/>
<path d="M70.168 35.086V35.4457H-0.00012207V35.086C-0.00012207 15.7154 15.7115 0 35.0859 0C54.4565 0.00382742 70.168 15.7154 70.168 35.086Z" fill="currentcolor"/>
</svg>
