<svg width="81" height="70" viewBox="0 0 81 70" xmlns="http://www.w3.org/2000/svg">
<path d="M79.5497 35.0016C79.5497 53.6783 64.4069 68.8179 45.7303 68.8179H34.9985C36.8226 68.8179 38.6149 68.6717 40.3659 68.392C56.4939 65.8211 68.8179 51.851 68.8179 35.0016C68.8179 22.2487 58.4833 11.9141 45.7303 11.9141C43.8807 11.9141 42.0852 12.1302 40.3659 12.5433C30.203 14.9617 22.6459 24.0982 22.6459 35.0016C22.6459 45.9019 30.203 55.0384 40.3659 57.4568C38.6435 57.8699 36.848 58.086 34.9985 58.086C22.2487 58.086 11.9141 47.7515 11.9141 35.0016C11.9141 18.1523 24.238 4.17584 40.3659 1.60808C42.1138 1.32842 43.9062 1.18225 45.7303 1.18225H45.7335C64.4101 1.18543 79.5497 16.3218 79.5497 35.0016Z" fill="currentcolor"/>
<path d="M45.7303 10.7318C59.1125 10.7318 70 21.6194 70 35.0016C70 49.709 61.0542 62.4143 47.8944 67.5657C64.8868 66.4471 78.3707 52.2704 78.3707 35.0016C78.3707 17.0082 63.73 2.36755 45.7366 2.36437C43.9951 2.36437 42.2536 2.50421 40.5535 2.77434C24.6448 5.31031 13.0962 18.8641 13.0962 35.0016C13.0962 47.0809 22.9224 56.907 34.9985 56.907C35.0843 56.907 35.1669 56.907 35.2527 56.9038C26.9393 52.9536 21.4669 44.5417 21.4669 35.0016C21.4669 23.7136 29.1257 14.0051 40.0927 11.3928C41.9231 10.9543 43.8204 10.7318 45.7303 10.7318ZM45.7303 70H34.9985C34.347 70 33.8163 69.4693 33.8163 68.8178C33.8163 68.1663 34.3438 67.6356 34.9985 67.6356C36.7336 67.6356 38.4783 67.4958 40.1785 67.2257C56.0903 64.6897 67.6388 51.1391 67.6388 35.0016C67.6388 22.9223 57.8127 13.0962 45.7303 13.0962C44.0047 13.0962 42.2918 13.2964 40.6393 13.6937C30.7401 16.0485 23.8249 24.8132 23.8249 35.0048C23.8249 45.1932 30.7369 53.9547 40.6361 56.3127C41.1668 56.4398 41.5418 56.9133 41.545 57.4599C41.545 58.0065 41.17 58.4801 40.6393 58.6072C38.8056 59.0457 36.9084 59.2682 34.9985 59.2682C21.6194 59.2682 10.7319 48.3838 10.7319 35.0016C10.7319 17.6947 23.1162 3.15885 40.1785 0.441735C41.9994 0.149367 43.8648 0 45.7303 0C65.0298 0.00317792 80.7319 15.7053 80.7319 35.0016C80.7319 54.2979 65.0298 70 45.7303 70Z" fill="currentcolor"/>
<path d="M32.8374 2.4343C15.8642 3.55292 2.36119 17.7709 2.36119 35.0016C2.36119 52.995 17.0019 67.6388 34.9952 67.6388C36.7304 67.6388 38.475 67.499 40.1752 67.2288C56.0871 64.6929 67.6356 51.1422 67.6356 35.0048C67.6356 22.9255 57.8095 13.0994 45.7271 13.0994C45.6444 13.0994 45.5586 13.0994 45.476 13.0994C53.7926 17.0527 59.265 25.4647 59.265 35.0048C59.265 46.2927 51.603 55.9981 40.636 58.6103C38.8024 59.0489 36.9052 59.2713 34.9952 59.2713C21.6162 59.2713 10.7287 48.387 10.7287 35.0048C10.735 20.291 19.6777 7.5857 32.8374 2.4343ZM34.9984 70C15.7021 70 0 54.3011 0 35.0016C0 15.8229 15.6004 0.120761 34.776 0H45.7302C46.3817 0 46.9124 0.530722 46.9124 1.1822C46.9124 1.83367 46.3849 2.36437 45.7302 2.36437C43.9919 2.36437 42.2504 2.50421 40.5502 2.77434C24.6416 5.31031 13.093 18.8641 13.093 35.0016C13.093 47.0809 22.9191 56.907 34.9952 56.907C36.7208 56.907 38.4337 56.7068 40.0863 56.3095C49.9886 53.9547 56.9006 45.1932 56.9006 35.0016C56.9006 24.81 49.9855 16.0485 40.0863 13.6905C39.5555 13.5634 39.1774 13.0899 39.1774 12.5433C39.1774 11.9966 39.5524 11.52 40.0831 11.3928C41.9136 10.9543 43.8139 10.7318 45.7239 10.7318C59.1061 10.7318 69.9936 21.6194 69.9936 35.0016C69.9936 52.3054 57.6093 66.8411 40.5439 69.5583C38.7293 69.8506 36.8607 70 34.9984 70Z" fill="var(--svg-color)"/>
</svg>
