<svg width="70" height="70" viewBox="0 0 70 70" fill="none" xmlns="http://www.w3.org/2000/svg">
<path d="M2.48984 67.5068H56.1553V15.6017L47.2869 24.4667V57.3969C47.2869 58.0829 46.7314 58.6418 46.042 58.6418H12.5998C11.9138 58.6418 11.3549 58.0829 11.3549 57.3969V4.24678L2.48649 13.1118V67.5068H2.48984ZM57.3969 69.9933H1.24492C0.558876 69.9933 0 69.4344 0 68.7484V12.5998C0 12.2685 0.130515 11.9539 0.364774 11.7197L11.7197 0.364782C12.0744 0.0100467 12.6098 -0.0970424 13.075 0.0937116C13.5402 0.284466 13.8414 0.739595 13.8414 1.24158V56.152H44.7971V23.9513C44.7971 23.62 44.9276 23.3055 45.1618 23.0712L56.5167 11.7163C56.8715 11.3616 57.4069 11.2545 57.8721 11.4486C58.3373 11.6393 58.6384 12.0945 58.6384 12.5965V68.7484C58.6418 69.4378 58.0829 69.9933 57.3969 69.9933Z" fill="var(--svg-color)"/>
<path d="M15.6016 56.1519H44.8004V47.2835H24.47L15.6016 56.1519ZM46.0419 58.6384H12.5998C12.0978 58.6384 11.6426 58.3338 11.4519 57.872C11.2578 57.4068 11.3649 56.8714 11.723 56.5167L23.0778 45.1618C23.3121 44.9275 23.6267 44.797 23.958 44.797H46.0486C46.7347 44.797 47.2936 45.3559 47.2936 46.0419V57.3968C47.2869 58.0829 46.7313 58.6384 46.0419 58.6384Z" fill="var(--svg-color)"/>
<path d="M57.3969 68.7483L68.7518 57.3968V1.24487H12.5999V57.3968L23.9547 46.0419V12.5998H57.3969V68.7483Z" fill="currentcolor"/>
<path d="M23.9547 11.3549H57.3969C58.083 11.3549 58.6418 11.9104 58.6418 12.5998V65.7499L67.5069 56.8815V2.48649H13.8414V54.3917L22.7065 45.5266V12.5965C22.7098 11.9104 23.2653 11.3549 23.9547 11.3549ZM57.3969 69.9933C57.2363 69.9933 57.0756 69.9632 56.9217 69.8996C56.4565 69.7055 56.1553 69.2537 56.1553 68.7517V13.8414H25.1997V46.042C25.1997 46.3733 25.0691 46.6879 24.8349 46.9221L13.48 58.277C13.1253 58.6318 12.5898 58.7388 12.1246 58.5447C11.6595 58.354 11.3583 57.8989 11.3583 57.3969V1.24493C11.3583 0.558886 11.9138 0 12.6032 0H68.7551C69.4412 0 70.0001 0.558886 70.0001 1.24493V57.3969C70.0001 57.7248 69.8696 58.0428 69.6353 58.277L58.2804 69.6319C58.0395 69.8662 57.7215 69.9933 57.3969 69.9933Z" fill="currentcolor"/>
<path d="M25.1963 22.7064H45.5266L54.3917 13.8414H25.1929V22.7064H25.1963ZM46.042 25.1963H23.9513C23.2653 25.1963 22.7064 24.6407 22.7064 23.9514V12.5965C22.7064 11.9104 23.262 11.3516 23.9513 11.3516H57.3935C57.8955 11.3516 58.3506 11.6527 58.5414 12.1179C58.7355 12.5831 58.6284 13.1185 58.2703 13.4733L46.9154 24.8281C46.6879 25.0658 46.3733 25.1963 46.042 25.1963Z" fill="var(--svg-color)"/>
</svg>
