<svg xmlns="http://www.w3.org/2000/svg" width="18" height="18" viewBox="0 0 18 18" fill="none"><path d="M17.2002 8.54903C17.2002 10.8164 16.2941 12.991 14.6813 14.5943C13.0685 16.1976 10.881 17.0983 8.6001 17.0983C6.31921 17.0983 4.13174 16.1976 2.51891 14.5943C0.90608 12.991 0 10.8164 0 8.54903C0 6.28162 0.90608 4.10708 2.51891 2.50378C4.13174 0.900481 6.31921 -0.000244141 8.6001 -0.000244141C10.881 -0.000244141 13.0685 0.900481 14.6813 2.50378C16.2941 4.10708 17.2002 6.28162 17.2002 8.54903ZM12.9324 5.31099C12.8556 5.23493 12.7642 5.17503 12.6636 5.1349C12.563 5.09476 12.4553 5.0752 12.3469 5.0774C12.2385 5.07959 12.1317 5.10349 12.0328 5.14767C11.9339 5.19185 11.845 5.25539 11.7714 5.33451L8.03787 10.0633L5.78787 7.82555C5.63503 7.68398 5.43288 7.6069 5.224 7.61056C5.01513 7.61423 4.81583 7.69834 4.66811 7.84519C4.52039 7.99204 4.43578 8.19015 4.43209 8.39779C4.42841 8.60544 4.50594 8.80639 4.64836 8.95833L7.49284 11.7871C7.56947 11.8631 7.66072 11.923 7.76115 11.9632C7.86157 12.0035 7.96912 12.0232 8.07737 12.0212C8.18563 12.0192 8.29237 11.9955 8.39123 11.9516C8.49008 11.9077 8.57904 11.8445 8.65278 11.7657L12.9442 6.43309C13.0905 6.28187 13.1714 6.07966 13.1693 5.86986C13.1673 5.66006 13.0827 5.45941 12.9335 5.31099H12.9324Z" fill="currentcolor"></path></svg>