<svg xmlns="http://www.w3.org/2000/svg" width="17" height="19" viewBox="0 0 17 19" fill="none"><path d="M8.3924 9.86674C5.90851 9.86674 3.91441 7.87264 3.91441 5.38875C3.91441 2.93984 5.90851 0.91075 8.3924 0.91075C10.8413 0.91075 12.8704 2.93984 12.8704 5.38875C12.8704 7.87264 10.8413 9.86674 8.3924 9.86674ZM11.506 10.9862C14.0949 10.9862 16.2289 13.1203 16.2289 15.7091V17.1435C16.2289 18.0881 15.4592 18.8227 14.5496 18.8227H2.23516C1.29058 18.8227 0.555908 18.0881 0.555908 17.1435V15.7091C0.555908 13.1203 2.65497 10.9862 5.24381 10.9862H5.83855C6.6082 11.3711 7.48281 11.546 8.3924 11.546C9.302 11.546 10.1416 11.3711 10.9113 10.9862H11.506Z" fill="currentcolor"></path></svg>