<svg xmlns="http://www.w3.org/2000/svg" width="54" height="39" viewBox="0 0 54 39" fill="none"><path d="M21.7135 0H1.56738C0.701648 0 0 0.701648 0 1.56738V21.7135C0 22.5793 0.701648 23.2809 1.56738 23.2809H10.0729V36.8232C10.0729 37.6886 10.7745 38.3906 11.6403 38.3906H16.6771C17.3518 38.3906 17.9506 37.9588 18.1637 37.3188L23.2001 22.2091C23.2536 22.0495 23.2809 21.8821 23.2809 21.7135V1.56738C23.2809 0.701648 22.5793 0 21.7135 0Z" fill="currentcolor"></path><path d="M51.9326 0H31.7864C30.9207 0 30.2191 0.701648 30.2191 1.56738V21.7135C30.2191 22.5793 30.9207 23.2809 31.7864 23.2809H40.2923V36.8232C40.2923 37.6886 40.994 38.3906 41.8597 38.3906H46.8962C47.5709 38.3906 48.1696 37.9588 48.3831 37.3188L53.4196 22.2091C53.4726 22.0495 53.5 21.8821 53.5 21.7135V1.56738C53.5 0.701648 52.7983 0 51.9326 0Z" fill="currentcolor"></path></svg>