<svg width="40" height="40" viewBox="0 0 40 40" fill="none" xmlns="http://www.w3.org/2000/svg">
<path d="M2.84357 19.9992C2.84357 26.7896 6.78879 32.6588 12.513 35.4407L4.32785 13.0175C3.37741 15.1499 2.84357 17.5121 2.84357 19.9992ZM31.5819 19.1321C31.5819 17.0121 30.8212 15.5433 30.167 14.4015C29.2983 12.9867 28.4821 11.7925 28.4821 10.3776C28.4821 8.80231 29.6779 7.33346 31.3628 7.33346C31.4384 7.33346 31.5109 7.34272 31.5865 7.3458C28.5331 4.5485 24.4659 2.84204 20.0008 2.84204C14.0065 2.84204 8.73286 5.91707 5.66555 10.5767C6.06825 10.589 6.44781 10.5967 6.77028 10.5967C8.56469 10.5967 11.3419 10.3776 11.3419 10.3776C12.2661 10.3236 12.3757 11.6829 11.4515 11.7925C11.4515 11.7925 10.5211 11.9005 9.48889 11.9545L15.7361 30.5389L19.4916 19.2787L16.8193 11.9545C15.8951 11.9005 15.0187 11.7925 15.0187 11.7925C14.0929 11.7369 14.2025 10.3221 15.1267 10.3776C15.1267 10.3776 17.9595 10.5967 19.6443 10.5967C21.4387 10.5967 24.2175 10.3776 24.2175 10.3776C25.1433 10.3236 25.2513 11.6829 24.3271 11.7925C24.3271 11.7925 23.3952 11.9005 22.3645 11.9545L28.5639 30.3969L30.2765 24.6789C31.1467 22.4494 31.5819 20.6025 31.5819 19.1321ZM20.3016 21.5005L15.1529 36.4575C16.6912 36.9095 18.3159 37.1564 20.0008 37.1564C21.9973 37.1564 23.9151 36.8108 25.6987 36.1844C25.654 36.1103 25.6108 36.0316 25.5753 35.9483L20.3016 21.5005ZM35.0549 11.7678C35.1306 12.314 35.1707 12.9003 35.1707 13.5329C35.1707 15.2733 34.8436 17.2297 33.8654 19.6768L28.6256 34.8282C33.7265 31.8534 37.1564 26.3283 37.1564 19.9992C37.1564 17.0152 36.3942 14.2102 35.0549 11.7678Z" fill="currentcolor"/>
<path d="M0 19.9992C0 31.0264 8.97203 40 19.9992 40C31.0295 40 40 31.0264 40 19.9992C40 8.97203 31.0295 0 20.0008 0C8.97204 0 0 8.97049 0 19.9992ZM0.91649 19.9992C0.91649 9.47811 9.47657 0.91649 19.9992 0.91649C30.5219 0.91649 39.0835 9.47811 39.0835 19.9992C39.0835 30.5203 30.5219 39.082 20.0008 39.082C9.47965 39.082 0.91649 30.5203 0.91649 19.9992Z" fill="currentcolor"/>
</svg>
