<svg width="42" height="42" viewBox="0 0 42 42" fill="none" xmlns="http://www.w3.org/2000/svg">
<path d="M40.0312 6.39844C40.303 6.39844 40.5234 6.17798 40.5234 5.90625V1.96875C40.5234 1.69702 40.303 1.47656 40.0312 1.47656H36.0938C35.822 1.47656 35.6016 1.69702 35.6016 1.96875V3.44531H6.39844V1.96875C6.39844 1.69702 6.17798 1.47656 5.90625 1.47656H1.96875C1.69702 1.47656 1.47656 1.69702 1.47656 1.96875V5.90625C1.47656 6.17798 1.69702 6.39844 1.96875 6.39844H3.44531V35.6016H1.96875C1.69702 35.6016 1.47656 35.822 1.47656 36.0938V40.0312C1.47656 40.303 1.69702 40.5234 1.96875 40.5234H5.90625C6.17798 40.5234 6.39844 40.303 6.39844 40.0312V38.5547H35.6016V40.0312C35.6016 40.303 35.822 40.5234 36.0938 40.5234H40.0312C40.303 40.5234 40.5234 40.303 40.5234 40.0312V36.0938C40.5234 35.822 40.303 35.6016 40.0312 35.6016H38.5547V6.39844H40.0312ZM37.5703 35.6016H36.0938C35.822 35.6016 35.6016 35.822 35.6016 36.0938V37.5703H6.39844V36.0938C6.39844 35.822 6.17798 35.6016 5.90625 35.6016H4.42969V6.39844H5.90625C6.17798 6.39844 6.39844 6.17798 6.39844 5.90625V4.42969H35.6016V5.90625C35.6016 6.17798 35.822 6.39844 36.0938 6.39844H37.5703V35.6016Z" fill="currentcolor"/>
<path d="M21.2365 6.82851C21.0891 6.74776 20.9109 6.74776 20.7635 6.82851L9.18909 13.1777L21 19.7395L32.8108 13.1777L21.2365 6.82851Z" fill="currentcolor"/>
<path d="M8.69531 28.1774C8.69531 28.3563 8.79208 28.521 8.94845 28.6078L20.5078 35.0297V20.5922L8.69531 14.0297V28.1774Z" fill="currentcolor"/>
<path d="M21.4922 35.0296L33.0515 28.6077C33.2079 28.5209 33.3047 28.3562 33.3047 28.1774V14.0295L21.4922 20.5921V35.0296Z" fill="currentcolor"/>
</svg>
