<svg width="42" height="42" viewBox="0 0 42 42" fill="none" xmlns="http://www.w3.org/2000/svg">
<path d="M32.5446 15.0618C33.6724 17.0998 34.3157 19.4417 34.3157 21.9312C34.3157 29.7794 27.9307 36.1644 20.0825 36.1644C12.2342 36.1644 5.8493 29.7794 5.8493 21.9312C5.8493 14.0831 12.2342 7.69807 20.0825 7.69807C22.5094 7.69807 24.7961 8.30929 26.7976 9.38488L29.7286 6.45391C26.8629 4.66029 23.5466 3.69971 20.0824 3.69971C15.2126 3.69971 10.6342 5.59611 7.19067 9.03961C3.74717 12.4831 1.85077 17.0614 1.85077 21.9313C1.85077 26.8011 3.74717 31.3795 7.19067 34.8229C10.6343 38.2665 15.2126 40.1629 20.0824 40.1629C24.9522 40.1629 29.5306 38.2665 32.974 34.8229C36.4176 31.3794 38.314 26.8011 38.314 21.9313C38.314 18.408 37.3208 15.0376 35.4676 12.1388L32.5446 15.0618Z" fill="currentcolor"/>
<path d="M21.4777 18.5619C20.1652 18.0241 18.5949 18.2825 17.5305 19.3471C16.1104 20.7672 16.1104 23.058 17.5305 24.4671C18.95 25.8867 21.2408 25.8867 22.6498 24.4671C23.7149 23.4019 23.9727 21.8317 23.4349 20.5199L33.8355 10.1194L35.5676 10.3451L40.1491 5.76301L36.6862 5.30093L36.2234 1.8374L31.6413 6.43L31.8677 8.16152L21.4777 18.5619Z" fill="currentcolor"/>
<path d="M26.8644 20.7417C26.932 21.1282 26.9675 21.5255 26.9675 21.9311C26.9675 25.7276 23.8789 28.8162 20.0823 28.8162C16.2859 28.8162 13.1972 25.7277 13.1972 21.9311C13.1972 18.1347 16.2859 15.0461 20.0823 15.0461C20.4162 15.0461 20.7444 15.0704 21.0657 15.1165L24.2887 11.8936C22.994 11.349 21.5728 11.0476 20.0823 11.0476C14.0812 11.0476 9.19885 15.9299 9.19885 21.9311C9.19885 27.9323 14.0812 32.8147 20.0823 32.8147C26.0835 32.8147 30.9659 27.9323 30.9659 21.9311C30.9659 20.3765 30.6376 18.8974 30.0478 17.5583L26.8644 20.7417Z" fill="currentcolor"/>
</svg>
