<svg width="36" height="36" viewBox="0 0 36 36" fill="none" xmlns="http://www.w3.org/2000/svg">
<path d="M32.836 9.28129H36V2.20497C36 1.77817 35.7434 1.39356 35.3489 1.23044C34.9552 1.06731 34.501 1.15731 34.1993 1.45895L1.45907 34.1993C1.15743 34.501 1.06743 34.9552 1.23056 35.3489C1.39368 35.7434 1.77829 36 2.20509 36H9.28134V33.1875C9.28134 32.6053 9.75384 32.1328 10.336 32.1328C10.9182 32.1328 11.3907 32.6053 11.3907 33.1875V36H14.2032V33.1875C14.2032 32.6053 14.6757 32.1328 15.2579 32.1328C15.8401 32.1328 16.3126 32.6053 16.3126 33.1875V36H19.1251V33.1875C19.1251 32.6053 19.5976 32.1328 20.1798 32.1328C20.762 32.1328 21.2345 32.6053 21.2345 33.1875V36H24.047V33.1875C24.047 32.6053 24.5195 32.1328 25.1017 32.1328C25.6838 32.1328 26.1563 32.6053 26.1563 33.1875V36H28.9688V33.1875C28.9688 32.6053 29.4413 32.1328 30.0235 32.1328C30.6057 32.1328 31.0782 32.6053 31.0782 33.1875V36H34.9454C35.5276 36 36.0001 35.5275 36.0001 34.9454V31.0782H33.1876C32.6054 31.0782 32.1329 30.6057 32.1329 30.0235C32.1329 29.4413 32.6054 28.9688 33.1876 28.9688H36.0001V26.1563H33.1876C32.6054 26.1563 32.1329 25.6838 32.1329 25.1016C32.1329 24.5194 32.6054 24.0469 33.1876 24.0469H36.0001V21.2344H33.1876C32.6054 21.2344 32.1329 20.7619 32.1329 20.1797C32.1329 19.5975 32.6054 19.125 33.1876 19.125H36.0001V16.3125H33.1876C32.6054 16.3125 32.1329 15.84 32.1329 15.2579C32.1329 14.6757 32.6054 14.2032 33.1876 14.2032H36.0001V11.3907H32.836C32.2538 11.3907 31.7813 10.9182 31.7813 10.336C31.7813 9.75379 32.2538 9.28129 32.836 9.28129ZM29.6719 28.6172C29.6719 29.1994 29.1994 29.6719 28.6172 29.6719H17.4825C17.0557 29.6719 16.6711 29.4153 16.508 29.0208C16.3449 28.6271 16.4349 28.1728 16.7365 27.8712L27.8712 16.7365C28.1728 16.4349 28.6271 16.3449 29.0208 16.508C29.4153 16.6711 29.6719 17.0557 29.6719 17.4825V28.6172Z" fill="currentcolor"/>
<path d="M3.25485 20.4202L7.72954 24.8949L4.78345 27.8402C4.37071 28.253 3.70275 28.2509 3.29212 27.8402L0.308761 24.8569C-0.104676 24.4434 -0.101161 23.7755 0.308761 23.3656L3.25485 20.4202Z" fill="currentcolor"/>
<path d="M24.5068 7.82725C24.6052 7.82725 24.705 7.82444 24.8056 7.81881L9.2209 23.4036L4.74622 18.9289L20.1256 3.54944C20.1488 4.74405 20.5749 5.80155 21.3624 6.58975C22.1738 7.40038 23.2693 7.82725 24.5068 7.82725Z" fill="currentcolor"/>
<path d="M28.0477 1.50675L26.2449 5.30644C24.9561 5.89425 23.6194 5.86331 22.8537 5.09761C22.1597 4.40362 22.0697 3.23995 22.4972 2.06784L26.6421 0.101904C27.045 -0.0893465 27.5253 -0.00637769 27.8403 0.308622C28.1553 0.624325 28.2382 1.10386 28.0477 1.50675Z" fill="currentcolor"/>
</svg>
